<svg width="1600" height="210" viewBox="0 0 1600 210" fill="none" xmlns="http://www.w3.org/2000/svg">
<rect x="-8.0459" y="1.22876" width="1639.07" height="40" transform="rotate(5 -8.0459 1.22876)" fill="white"/>
<rect x="-6.45801" y="3.37036" width="1621.24" height="3.55707" transform="rotate(5 -6.45801 3.37036)" fill="#333330"/>
<rect x="-6.46484" y="36.4153" width="1621.84" height="3.55707" transform="rotate(5 -6.46484 36.4153)" fill="#333330"/>
<path d="M-22.3785 21.8902L-20.4021 22.0631C-20.1918 22.8417 -19.7419 23.3897 -19.0522 23.707C-18.3741 24.034 -17.3444 24.2579 -15.963 24.3788C-14.4647 24.5099 -13.3621 24.4511 -12.6551 24.2024C-11.9693 23.9519 -11.6004 23.5291 -11.5483 22.9341C-11.4739 22.084 -11.9828 21.5362 -13.0749 21.2907C-14.0307 21.0786 -15.2381 20.8659 -16.6971 20.6526C-18.0179 20.4514 -19.2111 20.1382 -20.2768 19.7131C-21.3637 19.286 -21.8514 18.435 -21.7398 17.1598C-21.6394 16.0122 -21.0245 15.2255 -19.8951 14.7996C-18.7763 14.3728 -17.234 14.2454 -15.2682 14.4174C-13.3342 14.5866 -11.8853 14.9757 -10.9214 15.5847C-9.94683 16.1946 -9.43099 17.091 -9.37386 18.2738L-11.3662 18.0995C-11.4518 17.3639 -11.8442 16.8317 -12.5436 16.5028C-13.2535 16.173 -14.2036 15.9561 -15.3937 15.852C-16.807 15.7283 -17.8759 15.7686 -18.6004 15.9729C-19.3472 16.186 -19.7498 16.6272 -19.8084 17.2967C-19.8791 18.1043 -19.3616 18.6153 -18.2561 18.8298C-17.1612 19.0434 -15.9582 19.245 -14.6471 19.4347C-13.3156 19.6368 -12.1176 19.9558 -11.0528 20.3916C-9.98025 20.8602 -9.49927 21.7267 -9.6099 22.9912C-9.71031 24.1388 -10.2677 24.9413 -11.2821 25.3986C-12.2974 25.8666 -13.8942 26.0053 -16.0726 25.8147C-18.2084 25.6278 -19.7578 25.2246 -20.7208 24.605C-21.6848 23.996 -22.2373 23.091 -22.3785 21.8902ZM-7.91177 20.7949C-7.73048 18.7228 -6.96994 17.3117 -5.63013 16.5616C-4.30095 15.8106 -2.42499 15.5411 -0.00224429 15.753C2.40988 15.9641 4.21054 16.5552 5.39974 17.5266C6.57831 18.497 7.07696 20.0183 6.89567 22.0903C6.71625 24.1412 5.96148 25.5474 4.63137 26.309C3.30126 27.0707 1.42483 27.3455 -0.997912 27.1336C-3.42066 26.9216 -5.22085 26.3251 -6.3985 25.3441C-7.58584 24.3515 -8.09026 22.8351 -7.91177 20.7949ZM4.91205 22.3665L4.99433 21.4261C5.10682 20.1403 4.73217 19.16 3.87039 18.4849C3.00768 17.8206 1.67311 17.4093 -0.133327 17.2513C-1.95039 17.0923 -3.33609 17.2656 -4.29044 17.771C-5.26604 18.2745 -5.81055 19.1745 -5.92397 20.4709L-6.00624 21.4113C-6.12059 22.7183 -5.74156 23.7098 -4.86915 24.3857C-4.00737 25.0607 -2.67326 25.4772 -0.866829 25.6353C0.918351 25.7915 2.30452 25.6129 3.29168 25.0997C4.25758 24.5846 4.79771 23.6735 4.91205 22.3665ZM8.85913 23.017L9.40577 16.7689L11.3503 16.939L10.8107 23.1074C10.6945 24.4357 11.0019 25.3888 11.733 25.9667C12.4747 26.5455 13.5415 26.8959 14.9336 27.0176C16.3256 27.1394 17.4371 26.9797 18.268 26.5384C19.0883 26.0962 19.5566 25.211 19.6728 23.8828L20.2125 17.7143L21.9817 17.8691L21.4351 24.1172C21.2901 25.7749 20.6717 26.9682 19.58 27.6972C18.4671 28.4243 16.8746 28.6972 14.8025 28.5159C12.6879 28.3309 11.1298 27.7824 10.1281 26.8703C9.13617 25.9697 8.71317 24.6853 8.85913 23.017ZM28.6727 20.0285L23.3172 19.5599L23.4539 17.9979L36.0936 19.1037L35.9569 20.6658L30.6014 20.1972L29.7758 29.6332L27.8472 29.4644L28.6727 20.0285ZM37.7232 19.2463L39.6519 19.415L39.26 23.8939L47.6599 24.6288L48.0518 20.1499L49.9963 20.3201L49.0341 31.3181L47.0896 31.1479L47.5233 26.1909L39.1233 25.456L38.6897 30.413L36.761 30.2443L37.7232 19.2463ZM60.8496 21.2696L63.4158 21.4941L68.3033 33.0039L66.2631 32.8254L64.921 29.6242L57.8121 29.0023L55.9186 31.9204L54.0378 31.7558L60.8496 21.2696ZM58.6854 27.6493L64.2959 28.1401L61.955 22.587L58.6854 27.6493ZM70.6755 22.1293L81.3706 23.065L81.234 24.627L72.4675 23.86L72.1788 27.1594L79.6224 27.8107L79.4899 29.3249L72.0463 28.6736L71.6419 33.296L69.7133 33.1273L70.6755 22.1293ZM83.0968 23.216L91.3532 23.9383C92.5859 24.0462 93.5007 24.4207 94.0978 25.0618C94.6842 25.702 94.9305 26.5587 94.8366 27.632C94.7576 28.5352 94.4703 29.2489 93.9747 29.773C93.4579 30.2953 92.767 30.6042 91.902 30.6999L94.6627 35.31L92.4153 35.1134L89.7245 30.6218L84.4328 30.1588L84.0632 34.3827L82.1346 34.214L83.0968 23.216ZM92.8753 27.6531L92.906 27.3025C92.9534 26.7605 92.8268 26.3105 92.5262 25.9522C92.2247 25.6046 91.6914 25.3974 90.9263 25.3304L84.9013 24.8033L84.5597 28.7084L90.5846 29.2355C91.3497 29.3024 91.9114 29.1856 92.2696 28.885C92.6278 28.5844 92.8297 28.1738 92.8753 27.6531ZM97.4949 24.4757L99.4235 24.6444L98.4613 35.6424L96.5327 35.4736L97.4949 24.4757ZM101.122 30.3662C101.301 28.3154 102.035 26.902 103.324 26.126C104.623 25.3509 106.383 25.0605 108.604 25.2548C110.602 25.4296 112.128 25.8523 113.183 26.5228C114.236 27.2145 114.804 28.244 114.888 29.6111L112.928 29.4396C112.815 28.5303 112.384 27.8823 111.636 27.4956C110.866 27.1178 109.812 26.8703 108.473 26.7531C106.943 26.6193 105.697 26.7833 104.736 27.2453C103.773 27.7285 103.228 28.6874 103.103 30.1219L103.037 30.8711C102.915 32.2737 103.28 33.3014 104.133 33.9543C104.975 34.6062 106.177 35.0004 107.739 35.1371C109.057 35.2524 110.116 35.2005 110.917 34.9815C111.707 34.7615 112.266 34.2482 112.594 33.4417L114.554 33.6132C114.166 34.8642 113.412 35.719 112.29 36.1777C111.145 36.6557 109.585 36.8083 107.608 36.6354C105.377 36.4401 103.693 35.8592 102.557 34.8925C101.421 33.9258 100.943 32.417 101.122 30.3662ZM121.322 26.5602L123.888 26.7848L128.775 38.2945L126.735 38.116L125.393 34.9149L118.284 34.2929L116.391 37.211L114.51 37.0464L121.322 26.5602ZM119.158 32.9399L124.768 33.4307L122.427 27.8776L119.158 32.9399Z" fill="#333330"/>
<circle cx="143.508" cy="34.5643" r="3" transform="rotate(5 143.508 34.5643)" fill="#333330"/>
<path d="M157.933 37.6653L159.909 37.8382C160.12 38.6168 160.57 39.1648 161.259 39.4821C161.937 39.8091 162.967 40.0331 164.349 40.1539C165.847 40.285 166.949 40.2262 167.656 39.9776C168.342 39.727 168.711 39.3043 168.763 38.7092C168.838 37.8591 168.329 37.3113 167.237 37.0659C166.281 36.8538 165.073 36.6411 163.614 36.4278C162.294 36.2266 161.1 35.9134 160.035 35.4882C158.948 35.0612 158.46 34.2101 158.572 32.935C158.672 31.7874 159.287 31.0006 160.416 30.5748C161.535 30.148 163.078 30.0206 165.043 30.1926C166.977 30.3618 168.426 30.7509 169.39 31.3599C170.365 31.9698 170.881 32.8662 170.938 34.049L168.945 33.8747C168.86 33.1391 168.467 32.6068 167.768 32.278C167.058 31.9482 166.108 31.7312 164.918 31.6271C163.505 31.5035 162.436 31.5438 161.711 31.7481C160.964 31.9611 160.562 32.4024 160.503 33.0718C160.432 33.8794 160.95 34.3905 162.055 34.605C163.15 34.8185 164.353 35.0201 165.664 35.2098C166.996 35.4119 168.194 35.7309 169.259 36.1667C170.331 36.6353 170.812 37.5019 170.702 38.7664C170.601 39.914 170.044 40.7164 169.029 41.1738C168.014 41.6417 166.417 41.7804 164.239 41.5898C162.103 41.403 160.554 40.9997 159.591 40.3801C158.627 39.7711 158.074 38.8662 157.933 37.6653ZM172.4 36.57C172.581 34.4979 173.342 33.0868 174.681 32.3367C176.011 31.5857 177.887 31.3162 180.309 31.5282C182.721 31.7392 184.522 32.3304 185.711 33.3017C186.89 34.2721 187.388 35.7934 187.207 37.8655C187.028 39.9163 186.273 41.3226 184.943 42.0842C183.613 42.8458 181.736 43.1207 179.314 42.9087C176.891 42.6967 175.091 42.1002 173.913 41.1192C172.726 40.1266 172.221 38.6102 172.4 36.57ZM185.224 38.1417L185.306 37.2012C185.418 35.9155 185.044 34.9351 184.182 34.2601C183.319 33.5957 181.985 33.1845 180.178 33.0265C178.361 32.8675 176.975 33.0407 176.021 33.5461C175.045 34.0497 174.501 34.9496 174.388 36.246L174.305 37.1864C174.191 38.4934 174.57 39.4849 175.442 40.1608C176.304 40.8359 177.638 41.2524 179.445 41.4104C181.23 41.5666 182.616 41.3881 183.603 40.8748C184.569 40.3597 185.109 39.4487 185.224 38.1417ZM189.171 38.7921L189.717 32.544L191.662 32.7141L191.122 38.8826C191.006 40.2108 191.313 41.1639 192.045 41.7418C192.786 42.3207 193.853 42.671 195.245 42.7928C196.637 42.9146 197.749 42.7548 198.58 42.3136C199.4 41.8714 199.868 40.9862 199.984 39.6579L200.524 33.4895L202.293 33.6443L201.747 39.8924C201.602 41.5501 200.983 42.7434 199.892 43.4723C198.779 44.1994 197.186 44.4723 195.114 44.2911C192.999 44.1061 191.441 43.5575 190.44 42.6454C189.448 41.7449 189.025 40.4604 189.171 38.7921ZM208.984 35.8036L203.629 35.3351L203.765 33.7731L216.405 34.8789L216.268 36.4409L210.913 35.9724L210.087 45.4083L208.159 45.2396L208.984 35.8036ZM218.035 35.0215L219.963 35.1902L219.572 39.6691L227.971 40.404L228.363 35.9251L230.308 36.0952L229.346 47.0932L227.401 46.9231L227.835 41.966L219.435 41.2311L219.001 46.1882L217.073 46.0194L218.035 35.0215ZM241.161 37.0448L243.727 37.2693L248.615 48.779L246.575 48.6005L245.233 45.3994L238.124 44.7774L236.23 47.6955L234.349 47.531L241.161 37.0448ZM238.997 43.4244L244.607 43.9153L242.267 38.3621L238.997 43.4244ZM250.987 37.9044L261.682 38.8401L261.545 40.4021L252.779 39.6352L252.49 42.9346L259.934 43.5858L259.801 45.1L252.358 44.4488L251.953 49.0711L250.025 48.9024L250.987 37.9044ZM263.408 38.9911L271.665 39.7135C272.897 39.8213 273.812 40.1958 274.409 40.837C274.996 41.4772 275.242 42.3339 275.148 43.4071C275.069 44.3103 274.782 45.024 274.286 45.5482C273.769 46.0704 273.079 46.3794 272.214 46.475L274.974 51.0852L272.727 50.8886L270.036 46.397L264.744 45.934L264.375 50.1579L262.446 49.9891L263.408 38.9911ZM273.187 43.4283L273.217 43.0776C273.265 42.5357 273.138 42.0856 272.838 41.7274C272.536 41.3798 272.003 41.1725 271.238 41.1056L265.213 40.5784L264.871 44.4835L270.896 45.0106C271.661 45.0776 272.223 44.9608 272.581 44.6602C272.939 44.3596 273.141 43.9489 273.187 43.4283ZM277.806 40.2508L279.735 40.4195L278.773 51.4175L276.844 51.2488L277.806 40.2508ZM281.434 46.1413C281.613 44.0905 282.347 42.6771 283.636 41.9011C284.935 41.1261 286.695 40.8357 288.916 41.03C290.913 41.2048 292.44 41.6274 293.494 42.2979C294.548 42.9896 295.116 44.0191 295.2 45.3863L293.239 45.2148C293.126 44.3054 292.696 43.6574 291.948 43.2708C291.178 42.8929 290.123 42.6454 288.784 42.5283C287.254 42.3944 286.009 42.5585 285.047 43.0204C284.084 43.5037 283.54 44.4625 283.414 45.8971L283.349 46.6462C283.226 48.0488 283.591 49.0766 284.444 49.7294C285.287 50.3813 286.489 50.7756 288.051 50.9122C289.369 51.0275 290.428 50.9756 291.229 50.7566C292.019 50.5366 292.578 50.0234 292.905 49.2169L294.866 49.3884C294.478 50.6393 293.723 51.4942 292.602 51.9528C291.457 52.4309 289.896 52.5834 287.92 52.4105C285.688 52.2153 284.005 51.6343 282.869 50.6676C281.732 49.7009 281.254 48.1922 281.434 46.1413ZM301.633 42.3354L304.199 42.5599L309.087 54.0697L307.047 53.8912L305.705 50.69L298.596 50.0681L296.702 52.9861L294.821 52.8216L301.633 42.3354ZM299.469 48.715L305.08 49.2059L302.739 43.6527L299.469 48.715Z" fill="#333330"/>
<circle cx="323.819" cy="50.3396" r="3" transform="rotate(5 323.819 50.3396)" fill="#333330"/>
<path d="M338.244 53.4405L340.22 53.6134C340.43 54.392 340.88 54.94 341.57 55.2573C342.248 55.5843 343.278 55.8082 344.659 55.9291C346.157 56.0602 347.26 56.0014 347.967 55.7527C348.653 55.5022 349.022 55.0794 349.074 54.4843C349.148 53.6343 348.639 53.0865 347.547 52.841C346.591 52.6289 345.384 52.4162 343.925 52.2029C342.604 52.0017 341.411 51.6885 340.345 51.2633C339.258 50.8363 338.771 49.9852 338.882 48.7101C338.983 47.5625 339.598 46.7758 340.727 46.3499C341.846 45.9231 343.388 45.7957 345.354 45.9677C347.288 46.1369 348.737 46.526 349.701 47.135C350.675 47.7449 351.191 48.6413 351.248 49.8241L349.256 49.6498C349.17 48.9142 348.778 48.382 348.079 48.0531C347.369 47.7233 346.419 47.5064 345.228 47.4022C343.815 47.2786 342.746 47.3189 342.022 47.5232C341.275 47.7363 340.872 48.1775 340.814 48.847C340.743 49.6546 341.26 50.1656 342.366 50.3801C343.461 50.5937 344.664 50.7953 345.975 50.9849C347.306 51.1871 348.505 51.5061 349.569 51.9419C350.642 52.4104 351.123 53.277 351.012 54.5415C350.912 55.6891 350.354 56.4916 349.34 56.9489C348.325 57.4169 346.728 57.5556 344.549 57.365C342.414 57.1781 340.864 56.7749 339.901 56.1553C338.937 55.5463 338.385 54.6413 338.244 53.4405ZM352.71 52.3451C352.892 50.2731 353.652 48.862 354.992 48.1119C356.321 47.3609 358.197 47.0914 360.62 47.3033C363.032 47.5144 364.833 48.1055 366.022 49.0769C367.2 50.0473 367.699 51.5685 367.518 53.6406C367.338 55.6915 366.584 57.0977 365.253 57.8593C363.923 58.621 362.047 58.8958 359.624 58.6839C357.201 58.4719 355.401 57.8754 354.224 56.8943C353.036 55.9018 352.532 54.3854 352.71 52.3451ZM365.534 53.9168L365.616 52.9764C365.729 51.6906 365.354 50.7103 364.492 50.0352C363.63 49.3709 362.295 48.9596 360.489 48.8016C358.672 48.6426 357.286 48.8158 356.332 49.3213C355.356 49.8248 354.812 50.7248 354.698 52.0212L354.616 52.9616C354.501 54.2686 354.881 55.2601 355.753 55.936C356.615 56.611 357.949 57.0275 359.755 57.1856C361.54 57.3418 362.927 57.1632 363.914 56.65C364.88 56.1349 365.42 55.2238 365.534 53.9168ZM369.481 54.5673L370.028 48.3191L371.972 48.4893L371.433 54.6577C371.317 55.986 371.624 56.9391 372.355 57.517C373.097 58.0958 374.164 58.4461 375.556 58.5679C376.948 58.6897 378.059 58.53 378.89 58.0887C379.71 57.6465 380.179 56.7613 380.295 55.4331L380.835 49.2646L382.604 49.4194L382.057 55.6675C381.912 57.3252 381.294 58.5185 380.202 59.2475C379.089 59.9746 377.497 60.2475 375.425 60.0662C373.31 59.8812 371.752 59.3327 370.75 58.4205C369.758 57.52 369.335 56.2356 369.481 54.5673ZM389.295 51.5788L383.939 51.1102L384.076 49.5482L396.716 50.654L396.579 52.2161L391.223 51.7475L390.398 61.1835L388.469 61.0147L389.295 51.5788ZM398.345 50.7966L400.274 50.9653L399.882 55.4442L408.282 56.1791L408.674 51.7002L410.618 51.8704L409.656 62.8684L407.712 62.6982L408.145 57.7412L399.745 57.0063L399.312 61.9633L397.383 61.7946L398.345 50.7966ZM421.472 52.8199L424.038 53.0444L428.925 64.5542L426.885 64.3757L425.543 61.1745L418.434 60.5526L416.541 63.4707L414.66 63.3061L421.472 52.8199ZM419.307 59.1996L424.918 59.6904L422.577 54.1373L419.307 59.1996ZM431.298 53.6796L441.993 54.6153L441.856 56.1773L433.09 55.4103L432.801 58.7097L440.244 59.3609L440.112 60.8752L432.668 60.2239L432.264 64.8463L430.335 64.6775L431.298 53.6796ZM443.719 54.7663L451.975 55.4886C453.208 55.5965 454.123 55.971 454.72 56.6121C455.306 57.2523 455.553 58.109 455.459 59.1823C455.38 60.0855 455.092 60.7992 454.597 61.3233C454.08 61.8456 453.389 62.1545 452.524 62.2502L455.285 66.8603L453.037 66.6637L450.347 62.1721L445.055 61.7091L444.685 65.933L442.757 65.7643L443.719 54.7663ZM453.497 59.2034L453.528 58.8528C453.575 58.3108 453.449 57.8607 453.148 57.5025C452.847 57.1549 452.313 56.9476 451.548 56.8807L445.523 56.3536L445.182 60.2587L451.207 60.7858C451.972 60.8527 452.533 60.7359 452.892 60.4353C453.25 60.1347 453.452 59.7241 453.497 59.2034ZM458.117 56.026L460.046 56.1947L459.083 67.1927L457.155 67.0239L458.117 56.026ZM461.744 61.9165C461.924 59.8657 462.658 58.4523 463.946 57.6763C465.245 56.9012 467.005 56.6108 469.226 56.8051C471.224 56.9799 472.75 57.4026 473.805 58.073C474.858 58.7648 475.427 59.7942 475.51 61.1614L473.55 60.9899C473.437 60.0806 473.006 59.4326 472.258 59.0459C471.488 58.6681 470.434 58.4206 469.095 58.3034C467.565 58.1695 466.319 58.3336 465.358 58.7956C464.395 59.2788 463.85 60.2377 463.725 61.6722L463.659 62.4213C463.537 63.824 463.902 64.8517 464.755 65.5046C465.597 66.1565 466.799 66.5507 468.362 66.6874C469.679 66.8027 470.738 66.7508 471.539 66.5317C472.329 66.3118 472.888 65.7985 473.216 64.992L475.176 65.1635C474.788 66.4145 474.034 67.2693 472.912 67.728C471.767 68.206 470.207 68.3586 468.23 68.1857C465.999 67.9904 464.315 67.4095 463.179 66.4428C462.043 65.4761 461.565 63.9673 461.744 61.9165ZM481.944 58.1105L484.51 58.335L489.397 69.8448L487.357 69.6663L486.015 66.4652L478.906 65.8432L477.013 68.7613L475.132 68.5967L481.944 58.1105ZM479.78 64.4902L485.39 64.981L483.049 59.4279L479.78 64.4902Z" fill="#333330"/>
<circle cx="504.13" cy="66.1148" r="3" transform="rotate(5 504.13 66.1148)" fill="#333330"/>
<path d="M518.555 69.2158L520.532 69.3888C520.742 70.1674 521.192 70.7154 521.881 71.0327C522.559 71.3597 523.589 71.5836 524.971 71.7045C526.469 71.8355 527.572 71.7768 528.279 71.5281C528.964 71.2776 529.333 70.8548 529.385 70.2597C529.46 69.4096 528.951 68.8619 527.859 68.6164C526.903 68.4043 525.696 68.1916 524.237 67.9783C522.916 67.7771 521.722 67.4639 520.657 67.0387C519.57 66.6117 519.082 65.7606 519.194 64.4855C519.294 63.3379 519.909 62.5512 521.038 62.1253C522.157 61.6985 523.7 61.5711 525.665 61.7431C527.599 61.9123 529.048 62.3014 530.012 62.9104C530.987 63.5203 531.503 64.4167 531.56 65.5995L529.567 65.4252C529.482 64.6896 529.089 64.1574 528.39 63.8285C527.68 63.4987 526.73 63.2818 525.54 63.1776C524.127 63.054 523.058 63.0943 522.333 63.2986C521.586 63.5117 521.184 63.9529 521.125 64.6224C521.055 65.4299 521.572 65.941 522.677 66.1555C523.772 66.3691 524.975 66.5707 526.286 66.7603C527.618 66.9625 528.816 67.2815 529.881 67.7172C530.953 68.1858 531.434 69.0524 531.324 70.3169C531.223 71.4645 530.666 72.267 529.652 72.7243C528.636 73.1923 527.039 73.331 524.861 73.1404C522.725 72.9535 521.176 72.5503 520.213 71.9307C519.249 71.3217 518.696 70.4167 518.555 69.2158ZM533.022 68.1205C533.203 66.0485 533.964 64.6374 535.303 63.8873C536.633 63.1363 538.509 62.8667 540.931 63.0787C543.343 63.2897 545.144 63.8809 546.333 64.8523C547.512 65.8227 548.011 67.3439 547.829 69.416C547.65 71.4669 546.895 72.8731 545.565 73.6347C544.235 74.3964 542.358 74.6712 539.936 74.4592C537.513 74.2473 535.713 73.6508 534.535 72.6697C533.348 71.6771 532.843 70.1607 533.022 68.1205ZM545.846 69.6922L545.928 68.7518C546.04 67.466 545.666 66.4856 544.804 65.8106C543.941 65.1462 542.607 64.735 540.8 64.577C538.983 64.418 537.598 64.5912 536.643 65.0967C535.668 65.6002 535.123 66.5002 535.01 67.7966L534.927 68.737C534.813 70.044 535.192 71.0354 536.064 71.7114C536.926 72.3864 538.26 72.8029 540.067 72.961C541.852 73.1171 543.238 72.9386 544.225 72.4254C545.191 71.9103 545.731 70.9992 545.846 69.6922ZM549.793 70.3427L550.339 64.0945L552.284 64.2647L551.744 70.4331C551.628 71.7614 551.935 72.7145 552.667 73.2924C553.408 73.8712 554.475 74.2215 555.867 74.3433C557.259 74.4651 558.371 74.3054 559.202 73.8641C560.022 73.4219 560.49 72.5367 560.606 71.2084L561.146 65.04L562.915 65.1948L562.369 71.4429C562.224 73.1006 561.605 74.2939 560.514 75.0229C559.401 75.75 557.808 76.0229 555.736 75.8416C553.621 75.6566 552.063 75.108 551.062 74.1959C550.07 73.2954 549.647 72.011 549.793 70.3427ZM569.606 67.3542L564.251 66.8856L564.387 65.3236L577.027 66.4294L576.891 67.9915L571.535 67.5229L570.709 76.9589L568.781 76.7901L569.606 67.3542ZM578.657 66.572L580.585 66.7407L580.194 71.2196L588.594 71.9545L588.985 67.4756L590.93 67.6458L589.968 78.6437L588.023 78.4736L588.457 73.5166L580.057 72.7817L579.623 77.7387L577.695 77.57L578.657 66.572ZM601.783 68.5953L604.349 68.8198L609.237 80.3296L607.197 80.1511L605.855 76.9499L598.746 76.328L596.852 79.2461L594.971 79.0815L601.783 68.5953ZM599.619 74.9749L605.23 75.4658L602.889 69.9126L599.619 74.9749ZM611.609 69.4549L622.304 70.3906L622.168 71.9527L613.401 71.1857L613.112 74.4851L620.556 75.1363L620.423 76.6506L612.98 75.9993L612.576 80.6217L610.647 80.4529L611.609 69.4549ZM624.03 70.5417L632.287 71.264C633.519 71.3719 634.434 71.7463 635.031 72.3875C635.618 73.0277 635.864 73.8844 635.77 74.9577C635.691 75.8609 635.404 76.5746 634.908 77.0987C634.391 77.621 633.701 77.9299 632.836 78.0256L635.596 82.6357L633.349 82.4391L630.658 77.9475L625.366 77.4845L624.997 81.7084L623.068 81.5397L624.03 70.5417ZM633.809 74.9788L633.84 74.6281C633.887 74.0862 633.76 73.6361 633.46 73.2779C633.158 72.9303 632.625 72.723 631.86 72.6561L625.835 72.129L625.493 76.0341L631.518 76.5612C632.283 76.6281 632.845 76.5113 633.203 76.2107C633.561 75.9101 633.763 75.4995 633.809 74.9788ZM638.429 71.8013L640.357 71.9701L639.395 82.9681L637.466 82.7993L638.429 71.8013ZM642.056 77.6919C642.235 75.6411 642.969 74.2276 644.258 73.4517C645.557 72.6766 647.317 72.3862 649.538 72.5805C651.535 72.7553 653.062 73.1779 654.117 73.8484C655.17 74.5402 655.738 75.5696 655.822 76.9368L653.861 76.7653C653.748 75.856 653.318 75.208 652.57 74.8213C651.8 74.4435 650.745 74.1959 649.407 74.0788C647.876 73.9449 646.631 74.109 645.669 74.571C644.706 75.0542 644.162 76.0131 644.036 77.4476L643.971 78.1967C643.848 79.5994 644.213 80.6271 645.066 81.2799C645.909 81.9318 647.111 82.3261 648.673 82.4628C649.991 82.5781 651.05 82.5262 651.851 82.3071C652.641 82.0872 653.2 81.5739 653.527 80.7674L655.488 80.9389C655.1 82.1899 654.345 83.0447 653.224 83.5034C652.079 83.9814 650.518 84.134 648.542 83.9611C646.31 83.7658 644.627 83.1849 643.491 82.2182C642.355 81.2515 641.876 79.7427 642.056 77.6919ZM662.255 73.8859L664.822 74.1104L669.709 85.6202L667.669 85.4417L666.327 82.2406L659.218 81.6186L657.324 84.5367L655.444 84.3721L662.255 73.8859ZM660.091 80.2656L665.702 80.7564L663.361 75.2033L660.091 80.2656Z" fill="#333330"/>
<circle cx="684.442" cy="81.8899" r="3" transform="rotate(5 684.442 81.8899)" fill="#333330"/>
<path d="M699.228 82.6938C699.408 80.6429 700.142 79.2295 701.43 78.4535C702.729 77.6785 704.489 77.3881 706.71 77.5824C708.708 77.7572 710.234 78.1798 711.289 78.8503C712.342 79.5421 712.911 80.5715 712.994 81.9387L711.034 81.7672C710.921 80.8578 710.49 80.2099 709.742 79.8232C708.972 79.4453 707.918 79.1978 706.579 79.0807C705.049 78.9468 703.803 79.1109 702.842 79.5728C701.879 80.0561 701.335 81.015 701.209 82.4495L701.143 83.1986C701.021 84.6013 701.386 85.629 702.239 86.2818C703.081 86.9337 704.284 87.328 705.846 87.4647C707.163 87.5799 708.222 87.5281 709.023 87.309C709.813 87.0891 710.372 86.5758 710.7 85.7693L712.66 85.9408C712.272 87.1918 711.518 88.0466 710.396 88.5052C709.251 88.9833 707.691 89.1359 705.714 88.9629C703.483 88.7677 701.799 88.1867 700.663 87.2201C699.527 86.2534 699.049 84.7446 699.228 82.6938ZM714.158 83.9679C714.34 81.8958 715.1 80.4847 716.44 79.7346C717.769 78.9836 719.645 78.7141 722.068 78.926C724.48 79.1371 726.281 79.7283 727.47 80.6996C728.648 81.67 729.147 83.1913 728.966 85.2633C728.786 87.3142 728.032 88.7204 726.701 89.4821C725.371 90.2437 723.495 90.5185 721.072 90.3066C718.649 90.0946 716.849 89.4981 715.672 88.5171C714.484 87.5245 713.98 86.0081 714.158 83.9679ZM726.982 85.5395L727.064 84.5991C727.177 83.3133 726.802 82.333 725.94 81.658C725.078 80.9936 723.743 80.5824 721.937 80.4243C720.12 80.2653 718.734 80.4386 717.78 80.944C716.804 81.4475 716.26 82.3475 716.146 83.6439L716.064 84.5843C715.95 85.8913 716.329 86.8828 717.201 87.5587C718.063 88.2337 719.397 88.6502 721.203 88.8083C722.988 88.9645 724.375 88.7859 725.362 88.2727C726.328 87.7576 726.868 86.8465 726.982 85.5395ZM730.2 87.7323L732.176 87.9052C732.387 88.6839 732.837 89.2318 733.526 89.5491C734.204 89.8761 735.234 90.1001 736.616 90.2209C738.114 90.352 739.216 90.2932 739.923 90.0446C740.609 89.794 740.978 89.3713 741.03 88.7762C741.105 87.9261 740.596 87.3783 739.504 87.1329C738.548 86.9208 737.34 86.7081 735.882 86.4948C734.561 86.2936 733.367 85.9804 732.302 85.5552C731.215 85.1282 730.727 84.2771 730.839 83.002C730.939 81.8544 731.554 81.0676 732.683 80.6418C733.802 80.215 735.345 80.0876 737.31 80.2596C739.244 80.4288 740.693 80.8179 741.657 81.4269C742.632 82.0368 743.148 82.9332 743.205 84.116L741.212 83.9417C741.127 83.2061 740.734 82.6739 740.035 82.345C739.325 82.0152 738.375 81.7982 737.185 81.6941C735.772 81.5705 734.703 81.6108 733.978 81.8151C733.231 82.0281 732.829 82.4694 732.77 83.1388C732.699 83.9464 733.217 84.4575 734.322 84.672C735.417 84.8855 736.62 85.0871 737.931 85.2768C739.263 85.479 740.461 85.7979 741.526 86.2337C742.598 86.7023 743.079 87.5689 742.969 88.8334C742.868 89.981 742.311 90.7835 741.296 91.2408C740.281 91.7087 738.684 91.8474 736.506 91.6568C734.37 91.47 732.821 91.0667 731.858 90.4471C730.894 89.8381 730.341 88.9332 730.2 87.7323ZM749.373 83.0817L744.018 82.6131L744.154 81.0511L756.794 82.1569L756.657 83.7189L751.302 83.2504L750.476 92.6863L748.548 92.5176L749.373 83.0817ZM760.474 82.4789L763.04 82.7034L767.928 94.2132L765.888 94.0347L764.546 90.8335L757.437 90.2116L755.543 93.1297L753.662 92.9651L760.474 82.4789ZM758.31 88.8585L763.921 89.3494L761.58 83.7962L758.31 88.8585ZM773.88 83.6518L782.137 84.3741C783.369 84.4819 784.284 84.8564 784.881 85.4976C785.468 86.1378 785.714 86.9945 785.62 88.0678C785.541 88.971 785.254 89.6846 784.758 90.2088C784.241 90.7311 783.55 91.04 782.685 91.1357L785.446 95.7458L783.199 95.5492L780.508 91.0576L775.216 90.5946L774.847 94.8185L772.918 94.6497L773.88 83.6518ZM783.659 88.0889L783.689 87.7382C783.737 87.1963 783.61 86.7462 783.31 86.388C783.008 86.0404 782.475 85.8331 781.71 85.7662L775.685 85.2391L775.343 89.1442L781.368 89.6713C782.133 89.7382 782.695 89.6214 783.053 89.3208C783.411 89.0202 783.613 88.6096 783.659 88.0889ZM788.278 84.9114L790.207 85.0802L789.245 96.0782L787.316 95.9094L788.278 84.9114ZM791.905 90.802C792.085 88.7511 792.819 87.3377 794.107 86.5617C795.407 85.7867 797.167 85.4963 799.387 85.6906C801.385 85.8654 802.911 86.288 803.966 86.9585C805.019 87.6503 805.588 88.6797 805.672 90.0469L803.711 89.8754C803.598 88.9661 803.167 88.3181 802.42 87.9314C801.65 87.5535 800.595 87.306 799.256 87.1889C797.726 87.055 796.48 87.2191 795.519 87.6811C794.556 88.1643 794.012 89.1232 793.886 90.5577L793.821 91.3068C793.698 92.7095 794.063 93.7372 794.916 94.39C795.759 95.0419 796.961 95.4362 798.523 95.5729C799.84 95.6881 800.9 95.6363 801.7 95.4172C802.491 95.1973 803.049 94.684 803.377 93.8775L805.338 94.049C804.95 95.3 804.195 96.1548 803.073 96.6134C801.929 97.0915 800.368 97.2441 798.392 97.0711C796.16 96.8759 794.476 96.295 793.34 95.3283C792.204 94.3616 791.726 92.8528 791.905 90.802ZM812.105 86.996L814.671 87.2205L819.559 98.7303L817.519 98.5518L816.176 95.3506L809.068 94.7287L807.174 97.6468L805.293 97.4822L812.105 86.996ZM809.941 93.3757L815.551 93.8665L813.211 88.3134L809.941 93.3757Z" fill="#333330"/>
<circle cx="834.867" cy="95.0503" r="3" transform="rotate(5 834.867 95.0503)" fill="#333330"/>
<path d="M849.212 100.714C849.351 99.1203 849.915 98.0614 850.903 97.5375C851.858 97.0215 852.911 96.6746 854.062 96.4969C855.113 96.3533 856.15 96.187 857.173 95.9981C858.119 95.8346 858.631 95.3066 858.709 94.414L858.735 94.1111C858.796 93.4204 858.534 92.9264 857.95 92.629C857.353 92.3519 856.592 92.173 855.668 92.0921C854.563 91.9954 853.711 92.0654 853.112 92.3021C852.502 92.5379 852.105 93.0438 851.919 93.8199L849.958 93.6484C850.202 92.3313 850.835 91.4605 851.857 91.0359C852.879 90.6221 854.192 90.4853 855.796 90.6257C857.39 90.7651 858.633 91.1255 859.524 91.7067C860.405 92.287 860.791 93.1935 860.683 94.4261C860.571 95.7119 860.048 96.5441 859.116 96.923C858.183 97.3018 857.16 97.5549 856.046 97.6823C854.855 97.8351 853.822 98.0124 852.948 98.2143C851.965 98.4388 851.394 99.026 851.236 99.9758L860.098 100.751L859.965 102.265L849.159 101.32L849.212 100.714ZM862.484 99.5786C862.241 98.8078 862.165 97.9018 862.256 96.8604C862.347 95.819 862.579 94.9452 862.951 94.239C863.322 93.5434 863.809 93.0024 864.41 92.616C865.022 92.2305 865.724 91.9761 866.516 91.8527C867.33 91.7311 868.22 91.7127 869.187 91.7973C870.154 91.8819 871.028 92.0547 871.808 92.3157C872.588 92.5766 873.241 92.9496 873.766 93.4346C874.281 93.9079 874.661 94.5247 874.905 95.2849C875.149 96.045 875.226 96.9458 875.135 97.9871C875.043 99.0285 874.811 99.9076 874.438 100.624C874.075 101.342 873.593 101.9 872.991 102.297C872.41 102.696 871.701 102.965 870.864 103.106C870.071 103.24 869.18 103.264 868.192 103.178C867.204 103.091 866.33 102.913 865.572 102.643C864.783 102.36 864.137 101.972 863.635 101.478C863.101 100.971 862.717 100.338 862.484 99.5786ZM873.155 98.2155L873.225 97.4185C873.342 96.0797 873.048 95.0903 872.344 94.4505C871.651 93.8116 870.555 93.4266 869.056 93.2955C867.569 93.1654 866.423 93.3489 865.619 93.8461C864.815 94.3539 864.353 95.2825 864.235 96.632L864.165 97.429C864.048 98.7679 864.34 99.7732 865.042 100.445C865.722 101.115 866.816 101.526 868.323 101.68C869.81 101.81 870.959 101.594 871.768 101.033C872.578 100.472 873.04 99.5331 873.155 98.2155ZM876.358 103.089C876.497 101.495 877.061 100.436 878.049 99.9125C879.005 99.3965 880.058 99.0496 881.208 98.8719C882.259 98.7283 883.296 98.562 884.319 98.3731C885.265 98.2096 885.777 97.6815 885.855 96.789L885.882 96.4861C885.942 95.7954 885.68 95.3014 885.096 95.004C884.499 94.7269 883.739 94.5479 882.814 94.4671C881.709 94.3704 880.857 94.4404 880.258 94.6771C879.648 94.9129 879.251 95.4188 879.065 96.1949L877.105 96.0234C877.348 94.7063 877.981 93.8355 879.004 93.4109C880.025 92.997 881.338 92.8603 882.942 93.0007C884.536 93.1401 885.779 93.5005 886.67 94.0817C887.551 94.662 887.938 95.5685 887.83 96.8011C887.717 98.0868 887.195 98.9191 886.262 99.298C885.33 99.6768 884.306 99.9299 883.192 100.057C882.001 100.21 880.968 100.387 880.094 100.589C879.111 100.814 878.54 101.401 878.382 102.351L887.244 103.126L887.112 104.64L876.305 103.695L876.358 103.089ZM888.914 101.698L890.874 101.87C890.966 102.531 891.319 103.022 891.934 103.344C892.579 103.679 893.465 103.895 894.591 103.994C895.877 104.106 896.815 104.033 897.405 103.774C897.973 103.524 898.281 103.117 898.331 102.554L898.36 102.219C898.41 101.646 898.144 101.199 897.562 100.881C896.957 100.571 896.097 100.367 894.981 100.27L893.642 100.152L893.765 98.7498L895.056 98.8628C896.14 98.9576 896.942 98.9099 897.462 98.7199C897.982 98.5192 898.266 98.1585 898.311 97.6378L898.34 97.3031C898.39 96.7399 898.158 96.3288 897.645 96.0698C897.132 95.8214 896.359 95.6521 895.329 95.562C894.33 95.4746 893.533 95.5227 892.939 95.7062C892.323 95.8986 891.921 96.2703 891.733 96.8214L889.773 96.6499C890.029 95.5587 890.656 94.8212 891.653 94.4373C892.638 94.0737 893.906 93.9598 895.457 94.0956C897.04 94.2341 898.26 94.5496 899.116 95.0421C899.96 95.5549 900.334 96.3586 900.239 97.4531C900.18 98.1225 899.942 98.6371 899.525 98.9968C899.096 99.3768 898.539 99.6225 897.855 99.734C898.638 99.9631 899.25 100.306 899.692 100.762C900.123 101.217 900.306 101.822 900.24 102.577C900.134 103.788 899.581 104.607 898.58 105.033C897.567 105.469 896.195 105.612 894.463 105.46C892.593 105.297 891.214 104.903 890.326 104.279C889.438 103.655 888.967 102.795 888.914 101.698ZM905.825 103.097L907.802 103.27C908.012 104.049 908.462 104.597 909.152 104.914C909.83 105.241 910.86 105.465 912.241 105.586C913.739 105.717 914.842 105.658 915.549 105.41C916.235 105.159 916.604 104.736 916.656 104.141C916.73 103.291 916.221 102.744 915.129 102.498C914.173 102.286 912.966 102.073 911.507 101.86C910.186 101.659 908.993 101.346 907.927 100.92C906.84 100.493 906.353 99.6423 906.464 98.3671C906.565 97.2195 907.179 96.4328 908.309 96.0069C909.428 95.5802 910.97 95.4528 912.936 95.6248C914.87 95.7939 916.319 96.183 917.283 96.792C918.257 97.402 918.773 98.2983 918.83 99.4812L916.838 99.3068C916.752 98.5713 916.36 98.039 915.66 97.7102C914.95 97.3804 914 97.1634 912.81 97.0593C911.397 96.9356 910.328 96.976 909.604 97.1802C908.857 97.3933 908.454 97.8346 908.396 98.504C908.325 99.3116 908.842 99.8226 909.948 100.037C911.043 100.251 912.246 100.452 913.557 100.642C914.888 100.844 916.086 101.163 917.151 101.599C918.224 102.067 918.705 102.934 918.594 104.199C918.494 105.346 917.936 106.149 916.922 106.606C915.907 107.074 914.31 107.213 912.131 107.022C909.996 106.835 908.446 106.432 907.483 105.812C906.519 105.203 905.967 104.298 905.825 103.097ZM920.292 102.002C920.473 99.9301 921.234 98.519 922.574 97.7689C923.903 97.0179 925.779 96.7484 928.202 96.9603C930.614 97.1714 932.415 97.7626 933.604 98.7339C934.782 99.7043 935.281 101.226 935.1 103.298C934.92 105.348 934.165 106.755 932.835 107.516C931.505 108.278 929.629 108.553 927.206 108.341C924.783 108.129 922.983 107.532 921.805 106.551C920.618 105.559 920.114 104.042 920.292 102.002ZM933.116 103.574L933.198 102.633C933.311 101.348 932.936 100.367 932.074 99.6923C931.212 99.0279 929.877 98.6167 928.071 98.4586C926.254 98.2997 924.868 98.4729 923.914 98.9783C922.938 99.4818 922.393 100.382 922.28 101.678L922.198 102.619C922.083 103.926 922.462 104.917 923.335 105.593C924.197 106.268 925.531 106.685 927.337 106.843C929.122 106.999 930.508 106.82 931.496 106.307C932.462 105.792 933.002 104.881 933.116 103.574ZM937.063 104.224L937.61 97.9762L939.554 98.1463L939.015 104.315C938.898 105.643 939.206 106.596 939.937 107.174C940.679 107.753 941.746 108.103 943.138 108.225C944.53 108.347 945.641 108.187 946.472 107.746C947.292 107.304 947.761 106.418 947.877 105.09L948.416 98.9216L950.186 99.0764L949.639 105.325C949.494 106.982 948.876 108.176 947.784 108.905C946.671 109.632 945.079 109.905 943.006 109.723C940.892 109.538 939.334 108.99 938.332 108.078C937.34 107.177 936.917 105.893 937.063 104.224ZM956.877 101.236L951.521 100.767L951.658 99.2052L964.298 100.311L964.161 101.873L958.805 101.405L957.98 110.84L956.051 110.672L956.877 101.236ZM965.927 100.454L967.856 100.622L967.464 105.101L975.864 105.836L976.256 101.357L978.2 101.527L977.238 112.525L975.294 112.355L975.727 107.398L967.327 106.663L966.894 111.62L964.965 111.452L965.927 100.454ZM989.054 102.477L991.62 102.701L996.507 114.211L994.467 114.033L993.125 110.832L986.016 110.21L984.123 113.128L982.242 112.963L989.054 102.477ZM986.889 108.857L992.5 109.347L990.159 103.794L986.889 108.857ZM998.879 103.337L1009.57 104.272L1009.44 105.834L1000.67 105.067L1000.38 108.367L1007.83 109.018L1007.69 110.532L1000.25 109.881L999.846 114.503L997.917 114.335L998.879 103.337ZM1011.3 104.423L1019.56 105.146C1020.79 105.253 1021.7 105.628 1022.3 106.269C1022.89 106.909 1023.13 107.766 1023.04 108.839C1022.96 109.743 1022.67 110.456 1022.18 110.98C1021.66 111.503 1020.97 111.812 1020.11 111.907L1022.87 116.517L1020.62 116.321L1017.93 111.829L1012.64 111.366L1012.27 115.59L1010.34 115.421L1011.3 104.423ZM1021.08 108.86L1021.11 108.51C1021.16 107.968 1021.03 107.518 1020.73 107.16C1020.43 106.812 1019.9 106.605 1019.13 106.538L1013.11 106.011L1012.76 109.916L1018.79 110.443C1019.55 110.51 1020.12 110.393 1020.47 110.092C1020.83 109.792 1021.03 109.381 1021.08 108.86ZM1025.7 105.683L1027.63 105.852L1026.67 116.85L1024.74 116.681L1025.7 105.683ZM1029.33 111.574C1029.51 109.523 1030.24 108.109 1031.53 107.333C1032.83 106.558 1034.59 106.268 1036.81 106.462C1038.81 106.637 1040.33 107.06 1041.39 107.73C1042.44 108.422 1043.01 109.451 1043.09 110.818L1041.13 110.647C1041.02 109.738 1040.59 109.09 1039.84 108.703C1039.07 108.325 1038.02 108.078 1036.68 107.96C1035.15 107.827 1033.9 107.991 1032.94 108.453C1031.98 108.936 1031.43 109.895 1031.31 111.329L1031.24 112.078C1031.12 113.481 1031.48 114.509 1032.34 115.162C1033.18 115.813 1034.38 116.208 1035.94 116.344C1037.26 116.46 1038.32 116.408 1039.12 116.189C1039.91 115.969 1040.47 115.456 1040.8 114.649L1042.76 114.821C1042.37 116.072 1041.62 116.926 1040.49 117.385C1039.35 117.863 1037.79 118.016 1035.81 117.843C1033.58 117.647 1031.9 117.067 1030.76 116.1C1029.62 115.133 1029.15 113.624 1029.33 111.574ZM1049.53 107.768L1052.09 107.992L1056.98 119.502L1054.94 119.323L1053.6 116.122L1046.49 115.5L1044.59 118.418L1042.71 118.254L1049.53 107.768ZM1047.36 114.147L1052.97 114.638L1050.63 109.085L1047.36 114.147Z" fill="#333330"/>
<circle cx="1071.96" cy="115.794" r="3" transform="rotate(5 1071.96 115.794)" fill="#333330"/>
<path d="M1086.39 118.895L1088.36 119.067C1088.57 119.846 1089.02 120.394 1089.71 120.711C1090.39 121.038 1091.42 121.262 1092.8 121.383C1094.3 121.514 1095.4 121.455 1096.11 121.207C1096.8 120.956 1097.16 120.534 1097.22 119.938C1097.29 119.088 1096.78 118.541 1095.69 118.295C1094.73 118.083 1093.53 117.87 1092.07 117.657C1090.75 117.456 1089.55 117.143 1088.49 116.717C1087.4 116.29 1086.91 115.439 1087.02 114.164C1087.13 113.017 1087.74 112.23 1088.87 111.804C1089.99 111.377 1091.53 111.25 1093.5 111.422C1095.43 111.591 1096.88 111.98 1097.84 112.589C1098.82 113.199 1099.33 114.095 1099.39 115.278L1097.4 115.104C1097.31 114.368 1096.92 113.836 1096.22 113.507C1095.51 113.177 1094.56 112.96 1093.37 112.856C1091.96 112.733 1090.89 112.773 1090.16 112.977C1089.42 113.19 1089.01 113.632 1088.96 114.301C1088.89 115.109 1089.4 115.62 1090.51 115.834C1091.6 116.048 1092.81 116.249 1094.12 116.439C1095.45 116.641 1096.65 116.96 1097.71 117.396C1098.78 117.865 1099.27 118.731 1099.15 119.996C1099.05 121.143 1098.5 121.946 1097.48 122.403C1096.47 122.871 1094.87 123.01 1092.69 122.819C1090.56 122.632 1089.01 122.229 1088.04 121.609C1087.08 121 1086.53 120.095 1086.39 118.895ZM1100.85 117.799C1101.03 115.727 1101.79 114.316 1103.13 113.566C1104.46 112.815 1106.34 112.545 1108.76 112.757C1111.17 112.968 1112.98 113.56 1114.16 114.531C1115.34 115.501 1115.84 117.023 1115.66 119.095C1115.48 121.146 1114.73 122.552 1113.4 123.313C1112.07 124.075 1110.19 124.35 1107.77 124.138C1105.34 123.926 1103.54 123.329 1102.37 122.348C1101.18 121.356 1100.67 119.839 1100.85 117.799ZM1113.68 119.371L1113.76 118.43C1113.87 117.145 1113.5 116.164 1112.64 115.489C1111.77 114.825 1110.44 114.414 1108.63 114.256C1106.81 114.097 1105.43 114.27 1104.47 114.775C1103.5 115.279 1102.95 116.179 1102.84 117.475L1102.76 118.416C1102.64 119.723 1103.02 120.714 1103.9 121.39C1104.76 122.065 1106.09 122.482 1107.9 122.64C1109.68 122.796 1111.07 122.617 1112.06 122.104C1113.02 121.589 1113.56 120.678 1113.68 119.371ZM1117.62 120.021L1118.17 113.773L1120.11 113.943L1119.58 120.112C1119.46 121.44 1119.77 122.393 1120.5 122.971C1121.24 123.55 1122.31 123.9 1123.7 124.022C1125.09 124.144 1126.2 123.984 1127.03 123.543C1127.85 123.101 1128.32 122.215 1128.44 120.887L1128.98 114.719L1130.75 114.874L1130.2 121.122C1130.05 122.779 1129.44 123.973 1128.34 124.702C1127.23 125.429 1125.64 125.702 1123.57 125.52C1121.45 125.335 1119.89 124.787 1118.89 123.875C1117.9 122.974 1117.48 121.69 1117.62 120.021ZM1137.44 117.033L1132.08 116.564L1132.22 115.002L1144.86 116.108L1144.72 117.67L1139.37 117.202L1138.54 126.638L1136.61 126.469L1137.44 117.033ZM1146.49 116.251L1148.42 116.419L1148.02 120.898L1156.42 121.633L1156.82 117.154L1158.76 117.324L1157.8 128.322L1155.85 128.152L1156.29 123.195L1147.89 122.46L1147.45 127.417L1145.53 127.249L1146.49 116.251ZM1169.61 118.274L1172.18 118.499L1177.07 130.008L1175.03 129.83L1173.69 126.629L1166.58 126.007L1164.68 128.925L1162.8 128.76L1169.61 118.274ZM1167.45 124.654L1173.06 125.145L1170.72 119.591L1167.45 124.654ZM1179.44 119.134L1190.14 120.069L1190 121.631L1181.23 120.864L1180.94 124.164L1188.39 124.815L1188.25 126.329L1180.81 125.678L1180.41 130.3L1178.48 130.132L1179.44 119.134ZM1191.86 120.22L1200.12 120.943C1201.35 121.051 1202.27 121.425 1202.86 122.066C1203.45 122.706 1203.7 123.563 1203.6 124.636C1203.52 125.54 1203.23 126.253 1202.74 126.777C1202.22 127.3 1201.53 127.609 1200.67 127.704L1203.43 132.314L1201.18 132.118L1198.49 127.626L1193.2 127.163L1192.83 131.387L1190.9 131.218L1191.86 120.22ZM1201.64 124.658L1201.67 124.307C1201.72 123.765 1201.59 123.315 1201.29 122.957C1200.99 122.609 1200.46 122.402 1199.69 122.335L1193.67 121.808L1193.32 125.713L1199.35 126.24C1200.11 126.307 1200.68 126.19 1201.03 125.889C1201.39 125.589 1201.59 125.178 1201.64 124.658ZM1206.26 121.48L1208.19 121.649L1207.23 132.647L1205.3 132.478L1206.26 121.48ZM1209.89 127.371C1210.07 125.32 1210.8 123.906 1212.09 123.13C1213.39 122.355 1215.15 122.065 1217.37 122.259C1219.37 122.434 1220.89 122.857 1221.95 123.527C1223 124.219 1223.57 125.248 1223.65 126.616L1221.69 126.444C1221.58 125.535 1221.15 124.887 1220.4 124.5C1219.63 124.122 1218.58 123.875 1217.24 123.758C1215.71 123.624 1214.46 123.788 1213.5 124.25C1212.54 124.733 1211.99 125.692 1211.87 127.126L1211.8 127.875C1211.68 129.278 1212.04 130.306 1212.9 130.959C1213.74 131.611 1214.94 132.005 1216.5 132.141C1217.82 132.257 1218.88 132.205 1219.68 131.986C1220.47 131.766 1221.03 131.253 1221.36 130.446L1223.32 130.618C1222.93 131.869 1222.18 132.723 1221.05 133.182C1219.91 133.66 1218.35 133.813 1216.37 133.64C1214.14 133.445 1212.46 132.864 1211.32 131.897C1210.19 130.93 1209.71 129.421 1209.89 127.371ZM1230.09 123.565L1232.65 123.789L1237.54 135.299L1235.5 135.12L1234.16 131.919L1227.05 131.297L1225.16 134.215L1223.27 134.051L1230.09 123.565ZM1227.92 129.944L1233.53 130.435L1231.19 124.882L1227.92 129.944Z" fill="#333330"/>
<circle cx="1252.27" cy="131.569" r="3" transform="rotate(5 1252.27 131.569)" fill="#333330"/>
<path d="M1266.7 134.67L1268.67 134.843C1268.88 135.621 1269.33 136.169 1270.02 136.487C1270.7 136.814 1271.73 137.037 1273.11 137.158C1274.61 137.289 1275.71 137.231 1276.42 136.982C1277.11 136.731 1277.48 136.309 1277.53 135.714C1277.6 134.864 1277.09 134.316 1276 134.07C1275.05 133.858 1273.84 133.645 1272.38 133.432C1271.06 133.231 1269.87 132.918 1268.8 132.493C1267.71 132.066 1267.22 131.214 1267.34 129.939C1267.44 128.792 1268.05 128.005 1269.18 127.579C1270.3 127.152 1271.84 127.025 1273.81 127.197C1275.74 127.366 1277.19 127.755 1278.15 128.364C1279.13 128.974 1279.65 129.871 1279.7 131.053L1277.71 130.879C1277.62 130.143 1277.23 129.611 1276.53 129.282C1275.82 128.953 1274.87 128.736 1273.68 128.631C1272.27 128.508 1271.2 128.548 1270.48 128.752C1269.73 128.966 1269.33 129.407 1269.27 130.076C1269.2 130.884 1269.71 131.395 1270.82 131.609C1271.91 131.823 1273.12 132.025 1274.43 132.214C1275.76 132.416 1276.96 132.735 1278.02 133.171C1279.1 133.64 1279.58 134.506 1279.47 135.771C1279.37 136.918 1278.81 137.721 1277.79 138.178C1276.78 138.646 1275.18 138.785 1273 138.594C1270.87 138.407 1269.32 138.004 1268.36 137.385C1267.39 136.776 1266.84 135.871 1266.7 134.67ZM1281.16 133.574C1281.35 131.502 1282.11 130.091 1283.45 129.341C1284.78 128.59 1286.65 128.321 1289.07 128.533C1291.49 128.744 1293.29 129.335 1294.48 130.306C1295.65 131.277 1296.15 132.798 1295.97 134.87C1295.79 136.921 1295.04 138.327 1293.71 139.089C1292.38 139.85 1290.5 140.125 1288.08 139.913C1285.66 139.701 1283.86 139.105 1282.68 138.124C1281.49 137.131 1280.99 135.615 1281.16 133.574ZM1293.99 135.146L1294.07 134.206C1294.18 132.92 1293.81 131.939 1292.95 131.264C1292.08 130.6 1290.75 130.189 1288.94 130.031C1287.13 129.872 1285.74 130.045 1284.79 130.551C1283.81 131.054 1283.27 131.954 1283.15 133.25L1283.07 134.191C1282.96 135.498 1283.33 136.489 1284.21 137.165C1285.07 137.84 1286.4 138.257 1288.21 138.415C1289.99 138.571 1291.38 138.392 1292.37 137.879C1293.33 137.364 1293.87 136.453 1293.99 135.146ZM1297.94 135.797L1298.48 129.548L1300.43 129.719L1299.89 135.887C1299.77 137.215 1300.08 138.168 1300.81 138.746C1301.55 139.325 1302.62 139.675 1304.01 139.797C1305.4 139.919 1306.51 139.759 1307.34 139.318C1308.16 138.876 1308.63 137.991 1308.75 136.662L1309.29 130.494L1311.06 130.649L1310.51 136.897C1310.37 138.554 1309.75 139.748 1308.66 140.477C1307.54 141.204 1305.95 141.477 1303.88 141.295C1301.76 141.11 1300.21 140.562 1299.2 139.65C1298.21 138.749 1297.79 137.465 1297.94 135.797ZM1317.75 132.808L1312.39 132.339L1312.53 130.777L1325.17 131.883L1325.03 133.445L1319.68 132.977L1318.85 142.413L1316.92 142.244L1317.75 132.808ZM1326.8 132.026L1328.73 132.195L1328.34 136.673L1336.74 137.408L1337.13 132.929L1339.07 133.1L1338.11 144.098L1336.17 143.927L1336.6 138.97L1328.2 138.236L1327.77 143.193L1325.84 143.024L1326.8 132.026ZM1349.93 134.049L1352.49 134.274L1357.38 145.783L1355.34 145.605L1354 142.404L1346.89 141.782L1344.99 144.7L1343.11 144.535L1349.93 134.049ZM1347.76 140.429L1353.37 140.92L1351.03 135.367L1347.76 140.429ZM1359.75 134.909L1370.45 135.845L1370.31 137.407L1361.54 136.64L1361.25 139.939L1368.7 140.59L1368.57 142.104L1361.12 141.453L1360.72 146.076L1358.79 145.907L1359.75 134.909ZM1372.17 135.996L1380.43 136.718C1381.66 136.826 1382.58 137.2 1383.17 137.841C1383.76 138.482 1384.01 139.338 1383.91 140.412C1383.83 141.315 1383.55 142.028 1383.05 142.553C1382.53 143.075 1381.84 143.384 1380.98 143.479L1383.74 148.09L1381.49 147.893L1378.8 143.401L1373.51 142.938L1373.14 147.162L1371.21 146.994L1372.17 135.996ZM1381.95 140.433L1381.98 140.082C1382.03 139.54 1381.9 139.09 1381.6 138.732C1381.3 138.384 1380.77 138.177 1380 138.11L1373.98 137.583L1373.64 141.488L1379.66 142.015C1380.43 142.082 1380.99 141.965 1381.35 141.665C1381.7 141.364 1381.91 140.953 1381.95 140.433ZM1386.57 137.255L1388.5 137.424L1387.54 148.422L1385.61 148.253L1386.57 137.255ZM1390.2 143.146C1390.38 141.095 1391.11 139.682 1392.4 138.906C1393.7 138.13 1395.46 137.84 1397.68 138.034C1399.68 138.209 1401.2 138.632 1402.26 139.302C1403.31 139.994 1403.88 141.023 1403.96 142.391L1402 142.219C1401.89 141.31 1401.46 140.662 1400.71 140.275C1399.94 139.897 1398.89 139.65 1397.55 139.533C1396.02 139.399 1394.77 139.563 1393.81 140.025C1392.85 140.508 1392.3 141.467 1392.18 142.901L1392.11 143.651C1391.99 145.053 1392.36 146.081 1393.21 146.734C1394.05 147.386 1395.25 147.78 1396.82 147.917C1398.13 148.032 1399.19 147.98 1399.99 147.761C1400.78 147.541 1401.34 147.028 1401.67 146.221L1403.63 146.393C1403.24 147.644 1402.49 148.499 1401.37 148.957C1400.22 149.435 1398.66 149.588 1396.68 149.415C1394.45 149.22 1392.77 148.639 1391.63 147.672C1390.5 146.705 1390.02 145.197 1390.2 143.146ZM1410.4 139.34L1412.96 139.564L1417.85 151.074L1415.81 150.896L1414.47 147.694L1407.36 147.072L1405.47 149.991L1403.59 149.826L1410.4 139.34ZM1408.23 145.719L1413.84 146.21L1411.5 140.657L1408.23 145.719Z" fill="#333330"/>
<circle cx="1432.58" cy="147.344" r="3" transform="rotate(5 1432.58 147.344)" fill="#333330"/>
<path d="M1447.01 150.445L1448.99 150.618C1449.2 151.396 1449.65 151.944 1450.34 152.262C1451.01 152.589 1452.04 152.813 1453.42 152.933C1454.92 153.065 1456.03 153.006 1456.73 152.757C1457.42 152.507 1457.79 152.084 1457.84 151.489C1457.91 150.639 1457.4 150.091 1456.31 149.845C1455.36 149.633 1454.15 149.421 1452.69 149.207C1451.37 149.006 1450.18 148.693 1449.11 148.268C1448.02 147.841 1447.54 146.99 1447.65 145.715C1447.75 144.567 1448.36 143.78 1449.49 143.354C1450.61 142.928 1452.15 142.8 1454.12 142.972C1456.05 143.141 1457.5 143.53 1458.47 144.139C1459.44 144.749 1459.96 145.646 1460.01 146.829L1458.02 146.654C1457.94 145.919 1457.54 145.386 1456.84 145.058C1456.13 144.728 1455.18 144.511 1453.99 144.407C1452.58 144.283 1451.51 144.323 1450.79 144.528C1450.04 144.741 1449.64 145.182 1449.58 145.851C1449.51 146.659 1450.03 147.17 1451.13 147.384C1452.23 147.598 1453.43 147.8 1454.74 147.989C1456.07 148.191 1457.27 148.51 1458.33 148.946C1459.41 149.415 1459.89 150.281 1459.78 151.546C1459.68 152.694 1459.12 153.496 1458.11 153.953C1457.09 154.421 1455.49 154.56 1453.32 154.369C1451.18 154.183 1449.63 153.779 1448.67 153.16C1447.7 152.551 1447.15 151.646 1447.01 150.445ZM1461.48 149.35C1461.66 147.277 1462.42 145.866 1463.76 145.116C1465.09 144.365 1466.96 144.096 1469.39 144.308C1471.8 144.519 1473.6 145.11 1474.79 146.081C1475.97 147.052 1476.46 148.573 1476.28 150.645C1476.1 152.696 1475.35 154.102 1474.02 154.864C1472.69 155.625 1470.81 155.9 1468.39 155.688C1465.97 155.476 1464.17 154.88 1462.99 153.899C1461.8 152.906 1461.3 151.39 1461.48 149.35ZM1474.3 150.921L1474.38 149.981C1474.49 148.695 1474.12 147.715 1473.26 147.04C1472.4 146.375 1471.06 145.964 1469.25 145.806C1467.44 145.647 1466.05 145.82 1465.1 146.326C1464.12 146.829 1463.58 147.729 1463.46 149.026L1463.38 149.966C1463.27 151.273 1463.65 152.264 1464.52 152.94C1465.38 153.615 1466.71 154.032 1468.52 154.19C1470.31 154.346 1471.69 154.168 1472.68 153.654C1473.65 153.139 1474.19 152.228 1474.3 150.921ZM1478.25 151.572L1478.79 145.324L1480.74 145.494L1480.2 151.662C1480.08 152.99 1480.39 153.943 1481.12 154.521C1481.86 155.1 1482.93 155.451 1484.32 155.572C1485.71 155.694 1486.82 155.534 1487.66 155.093C1488.48 154.651 1488.94 153.766 1489.06 152.437L1489.6 146.269L1491.37 146.424L1490.82 152.672C1490.68 154.33 1490.06 155.523 1488.97 156.252C1487.85 156.979 1486.26 157.252 1484.19 157.071C1482.08 156.886 1480.52 156.337 1479.52 155.425C1478.52 154.524 1478.1 153.24 1478.25 151.572ZM1498.06 148.583L1492.7 148.115L1492.84 146.553L1505.48 147.658L1505.34 149.22L1499.99 148.752L1499.16 158.188L1497.23 158.019L1498.06 148.583ZM1507.11 147.801L1509.04 147.97L1508.65 152.449L1517.05 153.184L1517.44 148.705L1519.38 148.875L1518.42 159.873L1516.48 159.703L1516.91 154.746L1508.51 154.011L1508.08 158.968L1506.15 158.799L1507.11 147.801ZM1530.24 149.824L1532.8 150.049L1537.69 161.559L1535.65 161.38L1534.31 158.179L1527.2 157.557L1525.31 160.475L1523.43 160.311L1530.24 149.824ZM1528.07 156.204L1533.68 156.695L1531.34 151.142L1528.07 156.204ZM1540.06 150.684L1550.76 151.62L1550.62 153.182L1541.86 152.415L1541.57 155.714L1549.01 156.365L1548.88 157.88L1541.43 157.228L1541.03 161.851L1539.1 161.682L1540.06 150.684ZM1552.48 151.771L1560.74 152.493C1561.97 152.601 1562.89 152.975 1563.49 153.616C1564.07 154.257 1564.32 155.113 1564.22 156.187C1564.15 157.09 1563.86 157.804 1563.36 158.328C1562.85 158.85 1562.15 159.159 1561.29 159.255L1564.05 163.865L1561.8 163.668L1559.11 159.177L1553.82 158.714L1553.45 162.937L1551.52 162.769L1552.48 151.771ZM1562.26 156.208L1562.29 155.857C1562.34 155.315 1562.21 154.865 1561.91 154.507C1561.61 154.159 1561.08 153.952 1560.31 153.885L1554.29 153.358L1553.95 157.263L1559.97 157.79C1560.74 157.857 1561.3 157.74 1561.66 157.44C1562.02 157.139 1562.22 156.728 1562.26 156.208ZM1566.88 153.03L1568.81 153.199L1567.85 164.197L1565.92 164.028L1566.88 153.03ZM1570.51 158.921C1570.69 156.87 1571.42 155.457 1572.71 154.681C1574.01 153.906 1575.77 153.615 1577.99 153.81C1579.99 153.984 1581.52 154.407 1582.57 155.077C1583.62 155.769 1584.19 156.799 1584.28 158.166L1582.32 157.994C1582.2 157.085 1581.77 156.437 1581.02 156.05C1580.25 155.672 1579.2 155.425 1577.86 155.308C1576.33 155.174 1575.08 155.338 1574.12 155.8C1573.16 156.283 1572.62 157.242 1572.49 158.677L1572.43 159.426C1572.3 160.828 1572.67 161.856 1573.52 162.509C1574.36 163.161 1575.57 163.555 1577.13 163.692C1578.44 163.807 1579.5 163.755 1580.3 163.536C1581.09 163.316 1581.65 162.803 1581.98 161.996L1583.94 162.168C1583.55 163.419 1582.8 164.274 1581.68 164.732C1580.53 165.21 1578.97 165.363 1577 165.19C1574.76 164.995 1573.08 164.414 1571.94 163.447C1570.81 162.48 1570.33 160.972 1570.51 158.921ZM1590.71 155.115L1593.28 155.339L1598.16 166.849L1596.12 166.671L1594.78 163.47L1587.67 162.848L1585.78 165.766L1583.9 165.601L1590.71 155.115ZM1588.55 161.495L1594.16 161.985L1591.81 156.432L1588.55 161.495Z" fill="#333330"/>
</svg>
