<svg width="1600" height="157" viewBox="0 0 1600 157" fill="none" xmlns="http://www.w3.org/2000/svg">
<rect x="-6.54785" y="115.35" width="1643.6" height="40" transform="rotate(-4 -6.54785 115.35)" fill="url(#paint0_linear_1120_3542)"/>
<rect x="-7.97144" y="117.45" width="1616.85" height="3.55707" transform="rotate(-4 -7.97144 117.45)" fill="#333330"/>
<rect x="-4.68579" y="150.22" width="1618.12" height="3.55707" transform="rotate(-4 -4.68579 150.22)" fill="#333330"/>
<path d="M-23.0203 130.496L-21.089 130.361L-20.4283 139.81L-11.8892 139.213L-11.7798 140.777L-22.2502 141.509L-23.0203 130.496ZM-12.0188 135.26C-12.1639 133.186 -11.6335 131.673 -10.4275 130.722C-9.23217 129.773 -7.42146 129.213 -4.99539 129.043C-2.57995 128.875 -0.708979 129.177 0.617532 129.95C1.9334 130.724 2.66388 132.149 2.80898 134.224C2.95258 136.277 2.42709 137.784 1.23251 138.745C0.037918 139.705 -1.77241 140.27 -4.19849 140.44C-6.62457 140.609 -8.49591 140.302 -9.81252 139.517C-11.1405 138.722 -11.876 137.303 -12.0188 135.26ZM0.892983 134.807L0.827133 133.865C0.737101 132.577 0.213701 131.668 -0.743066 131.136C-1.69909 130.615 -3.08156 130.417 -4.89047 130.544C-6.71003 130.671 -8.05158 131.059 -8.91511 131.707C-9.79993 132.357 -10.1969 133.331 -10.1062 134.63L-10.0403 135.571C-9.9488 136.88 -9.41934 137.8 -8.45193 138.331C-7.49516 138.863 -6.11232 139.066 -4.3034 138.939C-2.51577 138.814 -1.17459 138.421 -0.279883 137.76C0.593549 137.1 0.984504 136.116 0.892983 134.807ZM4.41427 136.469L6.39344 136.331C6.72293 137.067 7.25306 137.538 7.98385 137.743C8.70473 137.96 9.75682 138.02 11.1401 137.923C12.6404 137.819 13.7203 137.588 14.3798 137.232C15.0179 136.877 15.3161 136.402 15.2745 135.806C15.2149 134.955 14.6267 134.493 13.5096 134.422C12.5324 134.362 11.3066 134.34 9.83221 134.358C8.49617 134.366 7.26863 134.243 6.14957 133.99C5.00923 133.738 4.39442 132.974 4.30513 131.697C4.22477 130.548 4.70904 129.675 5.75793 129.077C6.79618 128.481 8.29956 128.114 10.2681 127.976C12.2047 127.841 13.6967 127.998 14.744 128.449C15.8019 128.899 16.4517 129.704 16.6931 130.863L14.698 131.002C14.4984 130.289 14.0276 129.825 13.2854 129.61C12.5326 129.395 11.5603 129.329 10.3685 129.413C8.95333 129.512 7.90388 129.719 7.2202 130.034C6.51598 130.361 6.18731 130.86 6.23418 131.53C6.29073 132.339 6.88173 132.763 8.00719 132.802C9.12201 132.841 10.3417 132.852 11.6664 132.834C13.0131 132.826 14.2463 132.953 15.3661 133.217C16.4988 133.512 17.1094 134.293 17.1979 135.559C17.2783 136.708 16.8533 137.588 15.9229 138.199C14.9933 138.82 13.4379 139.206 11.2565 139.359C9.11774 139.508 7.52432 139.353 6.47625 138.891C5.42893 138.44 4.7416 137.633 4.41427 136.469ZM26.8227 127.011L29.3924 126.831L36.0203 137.435L33.9772 137.578L32.1509 134.626L25.0323 135.124L23.6185 138.302L21.7351 138.434L26.8227 127.011ZM25.6831 133.651L31.3014 133.258L28.1206 128.139L25.6831 133.651ZM36.6621 126.323L39.3435 126.135L47.977 134.915L47.324 125.577L49.1117 125.452L49.8818 136.465L47.2322 136.651L38.5635 127.826L39.2198 137.211L37.4322 137.336L36.6621 126.323ZM51.6872 130.838C51.5429 128.774 52.052 127.262 53.2147 126.304C54.3766 125.335 56.0855 124.772 58.3413 124.614C60.3524 124.474 61.9416 124.646 63.109 125.131C64.2437 125.608 64.9955 126.496 65.3644 127.796L63.4012 127.934C63.1189 127.109 62.579 126.574 61.7814 126.331C60.9618 126.078 59.8497 126.001 58.4451 126.099C56.732 126.219 55.4706 126.606 54.661 127.262C53.8613 127.906 53.5095 128.914 53.6055 130.287L53.6579 131.037C53.7539 132.409 54.2427 133.359 55.1242 133.885C56.0072 134.433 57.3053 134.647 59.0185 134.527C60.6678 134.412 61.8854 134.086 62.6712 133.55C63.4578 133.025 63.8534 132.259 63.8579 131.254L59.1015 131.586L59.0078 130.246L65.6156 129.784L65.6647 130.486C65.7853 132.21 65.273 133.523 64.1279 134.427C62.9828 135.33 61.3196 135.858 59.1382 136.011C56.8718 136.169 55.1019 135.86 53.8286 135.083C52.5446 134.306 51.8308 132.891 51.6872 130.838ZM67.3683 124.176L78.158 123.421L78.2607 124.89L69.4023 125.509L69.6278 128.733L76.5708 128.248L76.6701 129.668L69.7271 130.154L69.967 133.585L78.8893 132.961L78.9919 134.43L68.1384 135.189L67.3683 124.176ZM80.2587 123.274L82.19 123.139L82.8508 132.588L91.3899 131.991L91.4993 133.555L81.0288 134.287L80.2587 123.274ZM92.3698 122.427L103.159 121.673L103.262 123.141L94.4038 123.761L94.6292 126.985L101.572 126.499L101.672 127.92L94.7285 128.405L94.9685 131.837L103.891 131.213L103.993 132.682L93.1399 133.441L92.3698 122.427ZM104.997 129.436L106.976 129.297C107.305 130.033 107.836 130.504 108.566 130.71C109.287 130.927 110.339 130.987 111.723 130.89C113.223 130.785 114.303 130.555 114.962 130.198C115.6 129.844 115.899 129.368 115.857 128.773C115.797 127.921 115.209 127.46 114.092 127.388C113.115 127.328 111.889 127.307 110.415 127.325C109.079 127.333 107.851 127.21 106.732 126.957C105.592 126.705 104.977 125.941 104.888 124.664C104.807 123.514 105.292 122.641 106.34 122.044C107.379 121.447 108.882 121.08 110.851 120.943C112.787 120.807 114.279 120.965 115.326 121.416C116.384 121.866 117.034 122.67 117.276 123.83L115.281 123.969C115.081 123.256 114.61 122.792 113.868 122.576C113.115 122.361 112.143 122.296 110.951 122.379C109.536 122.478 108.486 122.685 107.803 123C107.098 123.328 106.77 123.826 106.817 124.497C106.873 125.305 107.464 125.729 108.59 125.768C109.705 125.808 110.924 125.819 112.249 125.801C113.596 125.792 114.829 125.92 115.949 126.184C117.081 126.479 117.692 127.26 117.78 128.526C117.861 129.675 117.436 130.555 116.505 131.165C115.576 131.786 114.02 132.173 111.839 132.325C109.7 132.475 108.107 132.319 107.059 131.858C106.011 131.407 105.324 130.6 104.997 129.436Z" fill="#333330"/>
<circle cx="132.63" cy="125.667" r="3" transform="rotate(-4 132.63 125.667)" fill="#333330"/>
<path d="M147.563 118.568L155.703 117.999C157.033 117.906 158.035 118.156 158.707 118.751C159.368 119.336 159.738 120.187 159.816 121.304C159.894 122.421 159.647 123.326 159.075 124.018C158.504 124.71 157.547 125.103 156.207 125.197L149.998 125.631L150.265 129.446L148.333 129.581L147.563 118.568ZM157.885 121.679L157.856 121.264C157.817 120.7 157.614 120.249 157.248 119.912C156.884 119.595 156.324 119.463 155.569 119.516L149.599 119.933L149.893 124.131L155.862 123.713C156.628 123.66 157.17 123.451 157.487 123.087C157.793 122.734 157.926 122.265 157.885 121.679ZM161.498 117.593L163.429 117.458L163.743 121.943L172.154 121.355L171.841 116.87L173.788 116.734L174.558 127.747L172.611 127.883L172.264 122.919L163.852 123.508L164.199 128.471L162.268 128.607L161.498 117.593ZM176.365 122.087C176.22 120.012 176.75 118.5 177.956 117.549C179.152 116.6 180.962 116.04 183.388 115.87C185.804 115.701 187.675 116.004 189.001 116.777C190.317 117.551 191.048 118.976 191.193 121.05C191.336 123.104 190.811 124.611 189.616 125.571C188.422 126.532 186.611 127.097 184.185 127.266C181.759 127.436 179.888 127.129 178.571 126.344C177.243 125.549 176.508 124.13 176.365 122.087ZM189.277 121.634L189.211 120.692C189.121 119.404 188.597 118.495 187.641 117.963C186.685 117.441 185.302 117.244 183.493 117.371C181.674 117.498 180.332 117.886 179.469 118.534C178.584 119.184 178.187 120.158 178.278 121.456L178.343 122.398C178.435 123.707 178.964 124.627 179.932 125.158C180.889 125.69 182.271 125.893 184.08 125.766C185.868 125.641 187.209 125.248 188.104 124.587C188.977 123.927 189.368 122.942 189.277 121.634ZM192.999 115.391L203.789 114.636L203.891 116.105L195.033 116.724L195.259 119.948L202.202 119.463L202.301 120.883L195.358 121.369L195.598 124.8L204.52 124.176L204.623 125.645L193.769 126.404L192.999 115.391ZM205.889 114.489L208.571 114.302L217.204 123.081L216.551 113.744L218.339 113.619L219.109 124.632L216.46 124.817L207.791 115.992L208.447 125.377L206.66 125.502L205.889 114.489ZM221.118 113.424L223.049 113.289L223.819 124.302L221.888 124.437L221.118 113.424ZM236.954 123.384L231.882 119.2L227.425 124.05L225.127 124.211L230.612 118.246L224.484 113.189L226.99 113.014L231.892 117.05L236.216 112.369L238.498 112.209L233.161 118.003L239.46 123.209L236.954 123.384Z" fill="#333330"/>
<circle cx="253.335" cy="117.226" r="3" transform="rotate(-4 253.335 117.226)" fill="#333330"/>
<path d="M268.268 110.127L275.786 109.602C277.723 109.466 279.226 109.789 280.297 110.569C281.357 111.361 281.956 112.742 282.094 114.71C282.228 116.625 281.825 118.054 280.886 118.997C279.947 119.939 278.503 120.479 276.556 120.615L269.039 121.141L268.268 110.127ZM276.287 119.062C277.607 118.97 278.603 118.611 279.276 117.987C279.95 117.384 280.242 116.433 280.151 115.135L280.102 114.432C280.013 113.166 279.593 112.281 278.841 111.778C278.08 111.286 277.045 111.086 275.736 111.177L270.309 111.557L270.861 119.441L276.287 119.062ZM287.904 108.754L290.474 108.575L297.102 119.178L295.059 119.321L293.232 116.369L286.114 116.867L284.7 120.045L282.816 120.177L287.904 108.754ZM286.764 115.394L292.383 115.001L289.202 109.883L286.764 115.394ZM297.743 108.066L299.675 107.931L300.335 117.38L308.875 116.783L308.984 118.347L298.514 119.079L297.743 108.066ZM309.854 107.219L311.786 107.084L312.446 116.533L320.986 115.936L321.095 117.5L310.625 118.233L309.854 107.219ZM326.451 106.059L329.02 105.879L335.648 116.483L333.605 116.626L331.779 113.674L324.66 114.172L323.246 117.35L321.363 117.482L326.451 106.059ZM325.311 112.699L330.929 112.306L327.748 107.187L325.311 112.699ZM335.699 113.303L337.678 113.165C338.008 113.901 338.538 114.372 339.269 114.578C339.99 114.794 341.042 114.855 342.425 114.758C343.925 114.653 345.005 114.422 345.665 114.066C346.303 113.711 346.601 113.236 346.559 112.64C346.5 111.789 345.912 111.328 344.795 111.256C343.817 111.196 342.591 111.175 341.117 111.192C339.781 111.2 338.554 111.078 337.434 110.824C336.294 110.573 335.679 109.808 335.59 108.531C335.51 107.382 335.994 106.509 337.043 105.912C338.081 105.315 339.584 104.948 341.553 104.81C343.49 104.675 344.982 104.833 346.029 105.283C347.087 105.733 347.737 106.538 347.978 107.697L345.983 107.837C345.783 107.124 345.312 106.659 344.57 106.444C343.817 106.229 342.845 106.164 341.653 106.247C340.238 106.346 339.189 106.553 338.505 106.868C337.801 107.195 337.472 107.694 337.519 108.364C337.576 109.173 338.167 109.597 339.292 109.636C340.407 109.676 341.627 109.686 342.951 109.669C344.298 109.66 345.531 109.788 346.651 110.052C347.784 110.347 348.394 111.127 348.483 112.393C348.563 113.543 348.138 114.422 347.208 115.033C346.278 115.654 344.723 116.041 342.541 116.193C340.403 116.343 338.809 116.187 337.761 115.725C336.714 115.275 336.027 114.467 335.699 113.303Z" fill="#333330"/>
<circle cx="363.067" cy="109.553" r="3" transform="rotate(-4 363.067 109.553)" fill="#333330"/>
<path d="M377.795 108.002C377.65 105.927 378.18 104.415 379.386 103.464C380.582 102.514 382.392 101.955 384.818 101.785C387.234 101.616 389.105 101.918 390.431 102.692C391.747 103.466 392.478 104.89 392.623 106.965C392.766 109.019 392.241 110.526 391.046 111.486C389.852 112.447 388.041 113.012 385.615 113.181C383.189 113.351 381.318 113.043 380.001 112.259C378.673 111.464 377.938 110.045 377.795 108.002ZM390.707 107.548L390.641 106.607C390.551 105.319 390.027 104.409 389.071 103.878C388.115 103.356 386.732 103.159 384.923 103.285C383.104 103.413 381.762 103.801 380.899 104.449C380.014 105.099 379.617 106.073 379.708 107.371L379.773 108.313C379.865 109.622 380.394 110.542 381.362 111.073C382.319 111.605 383.701 111.807 385.51 111.681C387.298 111.556 388.639 111.163 389.534 110.501C390.407 109.842 390.798 108.857 390.707 107.548ZM394.429 101.306L402.697 100.727C403.931 100.641 404.893 100.868 405.583 101.408C406.263 101.948 406.64 102.756 406.715 103.831C406.778 104.735 406.606 105.485 406.199 106.08C405.77 106.677 405.136 107.09 404.297 107.32L407.745 111.441L405.494 111.599L402.134 107.583L396.835 107.954L397.13 112.184L395.199 112.319L394.429 101.306ZM404.781 104.158L404.757 103.807C404.719 103.265 404.523 102.84 404.17 102.533C403.818 102.237 403.259 102.116 402.493 102.169L396.46 102.591L396.733 106.501L402.766 106.08C403.533 106.026 404.069 105.823 404.376 105.47C404.683 105.117 404.818 104.68 404.781 104.158ZM408.847 100.297L410.778 100.162L411.439 109.611L419.978 109.014L420.088 110.578L409.617 111.31L408.847 100.297ZM425.443 99.1368L428.013 98.9571L434.641 109.561L432.598 109.703L430.771 106.752L423.653 107.249L422.239 110.428L420.355 110.56L425.443 99.1368ZM424.303 105.776L429.922 105.384L426.741 100.265L424.303 105.776ZM435.282 98.4488L437.964 98.2613L446.597 107.04L445.944 97.7032L447.732 97.5782L448.502 108.591L445.853 108.777L437.184 99.9518L437.84 109.337L436.053 109.462L435.282 98.4488ZM450.511 97.3839L458.029 96.8582C459.965 96.7228 461.469 97.0454 462.539 97.8259C463.599 98.6179 464.199 99.9981 464.336 101.967C464.47 103.882 464.068 105.311 463.128 106.253C462.189 107.196 460.746 107.735 458.799 107.871L451.281 108.397L450.511 97.3839ZM458.53 106.318C459.849 106.226 460.845 105.868 461.518 105.243C462.192 104.64 462.484 103.689 462.393 102.391L462.344 101.689C462.255 100.423 461.835 99.5378 461.084 99.0344C460.322 98.5423 459.287 98.342 457.978 98.4335L452.552 98.813L453.103 106.698L458.53 106.318ZM465.923 101.84C465.778 99.7647 466.309 98.252 467.515 97.3016C468.71 96.3519 470.521 95.7922 472.947 95.6225C475.362 95.4536 477.233 95.7559 478.56 96.5292C479.876 97.3033 480.606 98.7278 480.751 100.803C480.895 102.856 480.369 104.363 479.175 105.324C477.98 106.284 476.17 106.849 473.744 107.019C471.318 107.188 469.446 106.881 468.13 106.096C466.802 105.301 466.066 103.883 465.923 101.84ZM478.835 101.386L478.769 100.444C478.679 99.1566 478.156 98.2469 477.199 97.715C476.243 97.1938 474.861 96.9964 473.052 97.1229C471.232 97.2501 469.891 97.638 469.027 98.2865C468.142 98.9364 467.745 99.9105 467.836 101.209L467.902 102.15C467.993 103.459 468.523 104.379 469.49 104.91C470.447 105.442 471.83 105.645 473.639 105.518C475.427 105.393 476.768 105 477.662 104.339C478.536 103.679 478.927 102.695 478.835 101.386Z" fill="#333330"/>
<circle cx="495.743" cy="100.276" r="3" transform="rotate(-4 495.743 100.276)" fill="#333330"/>
<path d="M510.676 93.1765L518.194 92.6508C520.131 92.5154 521.634 92.838 522.705 93.6185C523.765 94.4105 524.364 95.7907 524.502 97.7592C524.636 99.6746 524.233 101.103 523.294 102.046C522.355 102.988 520.911 103.528 518.964 103.664L511.447 104.19L510.676 93.1765ZM518.695 102.111C520.015 102.019 521.011 101.66 521.684 101.036C522.358 100.433 522.649 99.482 522.559 98.1838L522.51 97.4815C522.421 96.2153 522.001 95.3304 521.249 94.827C520.488 94.3349 519.453 94.1346 518.144 94.2261L512.717 94.6056L513.268 102.49L518.695 102.111ZM526.295 92.0844L537.084 91.3299L537.187 92.7983L528.329 93.4177L528.554 96.6419L535.497 96.1563L535.596 97.5769L528.653 98.0624L528.893 101.494L537.815 100.87L537.918 102.339L527.065 103.097L526.295 92.0844ZM539.185 91.183L541.866 90.9955L550.5 99.7746L549.847 90.4374L551.635 90.3124L552.405 101.326L549.755 101.511L541.086 92.686L541.743 102.071L539.955 102.196L539.185 91.183ZM553.041 90.2141L555.148 90.0668L560.881 99.3534L565.299 89.3569L567.166 89.2263L562.111 100.647L559.605 100.822L553.041 90.2141ZM568.551 89.1295L579.34 88.375L579.443 89.8434L570.585 90.4629L570.81 93.687L577.753 93.2015L577.853 94.622L570.91 95.1075L571.149 98.5392L580.072 97.9153L580.174 99.3837L569.321 100.143L568.551 89.1295ZM581.441 88.2281L589.709 87.65C590.943 87.5637 591.905 87.7904 592.595 88.3303C593.275 88.8709 593.652 89.6785 593.727 90.7533C593.79 91.6577 593.618 92.4075 593.211 93.0027C592.782 93.5994 592.148 94.0127 591.309 94.2425L594.757 98.364L592.506 98.5214L589.146 94.506L583.847 94.8765L584.143 99.1062L582.211 99.2412L581.441 88.2281ZM591.793 91.0809L591.769 90.7298C591.731 90.1871 591.535 89.7624 591.183 89.4556C590.83 89.1594 590.271 89.0382 589.505 89.0917L583.472 89.5136L583.745 93.4241L589.778 93.0022C590.545 92.9486 591.081 92.7454 591.388 92.3924C591.695 92.0395 591.83 91.6023 591.793 91.0809Z" fill="#333330"/>
<circle cx="609.466" cy="92.3232" r="3" transform="rotate(-4 609.466 92.3232)" fill="#333330"/>
<path d="M624.399 85.2243L626.33 85.0893L626.991 94.5382L635.53 93.9411L635.639 95.5053L625.169 96.2374L624.399 85.2243ZM635.4 89.9885C635.255 87.9136 635.786 86.4009 636.992 85.4505C638.187 84.5008 639.998 83.9411 642.424 83.7714C644.839 83.6025 646.71 83.9048 648.037 84.6781C649.353 85.4522 650.083 86.8767 650.228 88.9517C650.372 91.0053 649.846 92.5123 648.652 93.4726C647.457 94.433 645.647 94.998 643.221 95.1676C640.795 95.3373 638.923 95.0297 637.607 94.245C636.279 93.4503 635.543 92.0315 635.4 89.9885ZM648.312 89.5347L648.246 88.593C648.156 87.3055 647.633 86.3958 646.676 85.8639C645.72 85.3427 644.338 85.1453 642.529 85.2718C640.709 85.399 639.368 85.7869 638.504 86.4354C637.619 87.0853 637.222 88.0594 637.313 89.3576L637.379 90.2993C637.47 91.6081 638 92.528 638.967 93.0592C639.924 93.5911 641.307 93.7938 643.116 93.6673C644.903 93.5423 646.245 93.1491 647.139 92.4877C648.013 91.8279 648.404 90.8435 648.312 89.5347ZM651.833 91.1971L653.813 91.0587C654.142 91.7949 654.672 92.2657 655.403 92.4712C656.124 92.6882 657.176 92.7482 658.559 92.6515C660.06 92.5466 661.14 92.316 661.799 91.9598C662.437 91.6051 662.735 91.1298 662.694 90.534C662.634 89.6827 662.046 89.2213 660.929 89.1497C659.952 89.0897 658.726 89.0685 657.251 89.0861C655.915 89.0939 654.688 88.9713 653.569 88.7181C652.428 88.4663 651.814 87.702 651.724 86.4251C651.644 85.2759 652.128 84.4027 653.177 83.8054C654.215 83.2089 655.719 82.8418 657.687 82.7041C659.624 82.5687 661.116 82.7263 662.163 83.177C663.221 83.627 663.871 84.4316 664.112 85.591L662.117 85.7305C661.918 85.0173 661.447 84.553 660.705 84.3376C659.952 84.1229 658.979 84.0573 657.788 84.1406C656.373 84.2396 655.323 84.4466 654.639 84.7617C653.935 85.089 653.606 85.5878 653.653 86.2582C653.71 87.0669 654.301 87.4907 655.426 87.5296C656.541 87.5692 657.761 87.5802 659.086 87.5624C660.432 87.5538 661.666 87.6814 662.785 87.9453C663.918 88.2403 664.529 89.0209 664.617 90.2872C664.697 91.4364 664.272 92.3162 663.342 92.9266C662.413 93.5476 660.857 93.9344 658.676 94.0869C656.537 94.2365 654.944 94.0806 653.895 93.6192C652.848 93.1685 652.161 92.3611 651.833 91.1971ZM674.242 81.739L676.812 81.5593L683.439 92.1628L681.396 92.3056L679.57 89.3538L672.451 89.8516L671.038 93.03L669.154 93.1617L674.242 81.739ZM673.102 88.3786L678.721 87.9858L675.54 82.8672L673.102 88.3786ZM684.081 81.0509L686.763 80.8634L695.396 89.6426L694.743 80.3054L696.531 80.1804L697.301 91.1935L694.651 91.3788L685.983 82.554L686.639 91.939L684.851 92.064L684.081 81.0509ZM699.106 85.5658C698.962 83.5015 699.471 81.9903 700.634 81.0322C701.796 80.0635 703.505 79.5002 705.761 79.3425C707.772 79.2019 709.361 79.3741 710.528 79.8592C711.663 80.3359 712.415 81.2243 712.784 82.5244L710.82 82.6616C710.538 81.8366 709.998 81.3023 709.201 81.0587C708.381 80.8059 707.269 80.7287 705.864 80.8269C704.151 80.9467 702.89 81.3343 702.08 81.9897C701.281 82.6337 700.929 83.642 701.025 85.0147L701.077 85.7648C701.173 87.1375 701.662 88.087 702.543 88.6135C703.426 89.1612 704.725 89.3752 706.438 89.2554C708.087 89.1401 709.305 88.8144 710.09 88.2782C710.877 87.7528 711.273 86.9873 711.277 85.9819L706.521 86.3145L706.427 84.9737L713.035 84.5117L713.084 85.214C713.204 86.9377 712.692 88.2513 711.547 89.1548C710.402 90.0582 708.739 90.5861 706.557 90.7387C704.291 90.8972 702.521 90.5879 701.248 89.8108C699.964 89.0345 699.25 87.6195 699.106 85.5658ZM714.788 78.9037L725.577 78.1493L725.68 79.6177L716.821 80.2371L717.047 83.4612L723.99 82.9757L724.089 84.3963L717.146 84.8818L717.386 88.3134L726.308 87.6895L726.411 89.1579L715.558 89.9169L714.788 78.9037ZM727.678 78.0024L729.609 77.8673L730.27 87.3162L738.809 86.7191L738.918 88.2833L728.448 89.0155L727.678 78.0024ZM739.789 77.1555L750.579 76.401L750.681 77.8694L741.823 78.4888L742.048 81.713L748.991 81.2275L749.091 82.648L742.148 83.1335L742.388 86.5651L751.31 85.9412L751.413 87.4096L740.559 88.1686L739.789 77.1555ZM752.416 84.1637L754.395 84.0253C754.725 84.7615 755.255 85.2323 755.986 85.4378C756.706 85.6547 757.759 85.7148 759.142 85.6181C760.642 85.5132 761.722 85.2826 762.381 84.9264C763.02 84.5717 763.318 84.0964 763.276 83.5005C763.217 82.6493 762.628 82.1879 761.511 82.1163C760.534 82.0563 759.308 82.0351 757.834 82.0527C756.498 82.0605 755.27 81.9379 754.151 81.6846C753.011 81.4329 752.396 80.6686 752.307 79.3917C752.226 78.2425 752.711 77.3693 753.76 76.772C754.798 76.1754 756.301 75.8084 758.27 75.6707C760.206 75.5353 761.698 75.6929 762.746 76.1436C763.804 76.5936 764.453 77.3982 764.695 78.5575L762.7 78.6971C762.5 77.9839 762.029 77.5196 761.287 77.3042C760.534 77.0895 759.562 77.0239 758.37 77.1072C756.955 77.2062 755.906 77.4132 755.222 77.7283C754.518 78.0556 754.189 78.5544 754.236 79.2247C754.292 80.0334 754.883 80.4572 756.009 80.4962C757.124 80.5358 758.343 80.5468 759.668 80.529C761.015 80.5204 762.248 80.648 763.368 80.9118C764.5 81.2069 765.111 81.9875 765.2 83.2538C765.28 84.403 764.855 85.2828 763.925 85.8931C762.995 86.5142 761.44 86.9009 759.258 87.0535C757.119 87.203 755.526 87.0471 754.478 86.5858C753.431 86.1351 752.743 85.3277 752.416 84.1637Z" fill="#333330"/>
<circle cx="780.049" cy="80.395" r="3" transform="rotate(-4 780.049 80.395)" fill="#333330"/>
<path d="M794.982 73.2961L803.122 72.7269C804.452 72.6339 805.454 72.8847 806.126 73.4792C806.787 74.0638 807.157 74.9148 807.235 76.0321C807.313 77.1493 807.066 78.0541 806.494 78.7463C805.923 79.4386 804.966 79.8316 803.626 79.9253L797.417 80.3595L797.684 84.1742L795.752 84.3092L794.982 73.2961ZM805.304 76.4077L805.275 75.9927C805.236 75.4287 805.033 74.9777 804.667 74.6398C804.303 74.3231 803.743 74.1911 802.988 74.244L797.018 74.6614L797.312 78.8592L803.281 78.4417C804.047 78.3882 804.589 78.1792 804.906 77.8149C805.212 77.462 805.345 76.9929 805.304 76.4077ZM808.917 72.3217L810.848 72.1867L811.162 76.6717L819.573 76.0835L819.26 71.5985L821.207 71.4623L821.977 82.4754L820.03 82.6116L819.683 77.6477L811.271 78.2359L811.618 83.1998L809.687 83.3348L808.917 72.3217ZM823.784 76.8156C823.639 74.7406 824.169 73.228 825.375 72.2775C826.571 71.3278 828.381 70.7681 830.807 70.5985C833.223 70.4296 835.094 70.7318 836.42 71.5052C837.736 72.2793 838.467 73.7038 838.612 75.7787C838.755 77.8324 838.23 79.3394 837.035 80.2997C835.841 81.26 834.03 81.825 831.604 81.9947C829.178 82.1643 827.307 81.8568 825.99 81.072C824.662 80.2774 823.927 78.8586 823.784 76.8156ZM836.696 76.3618L836.63 75.4201C836.54 74.1326 836.016 73.2229 835.06 72.691C834.104 72.1697 832.721 71.9723 830.912 72.0988C829.093 72.2261 827.751 72.6139 826.888 73.2624C826.003 73.9124 825.606 74.8865 825.697 76.1846L825.762 77.1263C825.854 78.4351 826.383 79.3551 827.351 79.8862C828.308 80.4181 829.69 80.6208 831.499 80.4943C833.287 80.3693 834.628 79.9762 835.523 79.3148C836.396 78.6549 836.787 77.6706 836.696 76.3618ZM840.418 70.1189L851.208 69.3644L851.31 70.8329L842.452 71.4523L842.677 74.6764L849.621 74.1909L849.72 75.6114L842.777 76.0969L843.017 79.5286L851.939 78.9047L852.042 80.3731L841.188 81.132L840.418 70.1189ZM853.308 69.2175L855.99 69.03L864.623 77.8092L863.97 68.472L865.758 68.347L866.528 79.3601L863.879 79.5454L855.21 70.7206L855.866 80.1056L854.079 80.2306L853.308 69.2175ZM868.537 68.1527L870.468 68.0176L871.238 79.0307L869.307 79.1658L868.537 68.1527ZM884.373 78.1123L879.301 73.9279L874.844 78.7786L872.546 78.9393L878.031 72.9741L871.903 67.9173L874.409 67.742L879.311 71.7779L883.635 67.0969L885.917 66.9373L880.58 72.7317L886.879 77.937L884.373 78.1123Z" fill="#333330"/>
<circle cx="900.754" cy="71.9543" r="3" transform="rotate(-4 900.754 71.9543)" fill="#333330"/>
<path d="M915.687 64.8554L923.205 64.3298C925.142 64.1943 926.645 64.5169 927.716 65.2975C928.776 66.0894 929.375 67.4697 929.513 69.4382C929.647 71.3535 929.244 72.7824 928.305 73.7249C927.366 74.6674 925.922 75.2067 923.975 75.3429L916.458 75.8685L915.687 64.8554ZM923.706 73.7898C925.026 73.6976 926.022 73.3392 926.694 72.7148C927.369 72.1116 927.66 71.1609 927.57 69.8628L927.521 69.1605C927.432 67.8942 927.012 67.0094 926.26 66.5059C925.499 66.0139 924.464 65.8136 923.155 65.9051L917.728 66.2846L918.279 74.1693L923.706 73.7898ZM935.323 63.4824L937.893 63.3027L944.521 73.9062L942.478 74.0491L940.651 71.0973L933.533 71.595L932.119 74.7734L930.235 74.9051L935.323 63.4824ZM934.183 70.1221L939.802 69.7292L936.621 64.6106L934.183 70.1221ZM945.162 62.7944L947.094 62.6593L947.754 72.1082L956.294 71.5111L956.403 73.0753L945.932 73.8075L945.162 62.7944ZM957.273 61.9475L959.205 61.8124L959.865 71.2613L968.405 70.6642L968.514 72.2284L958.044 72.9606L957.273 61.9475ZM973.869 60.787L976.439 60.6073L983.067 71.2108L981.024 71.3536L979.198 68.4018L972.079 68.8996L970.665 72.078L968.782 72.2097L973.869 60.787ZM972.73 67.4266L978.348 67.0338L975.167 61.9152L972.73 67.4266ZM983.118 68.0314L985.097 67.8931C985.427 68.6292 985.957 69.1 986.688 69.3056C987.409 69.5225 988.461 69.5826 989.844 69.4858C991.344 69.3809 992.424 69.1504 993.084 68.7942C993.722 68.4394 994.02 67.9641 993.978 67.3683C993.919 66.517 993.331 66.0556 992.213 65.984C991.236 65.924 990.01 65.9028 988.536 65.9204C987.2 65.9283 985.972 65.8056 984.853 65.5524C983.713 65.3006 983.098 64.5363 983.009 63.2594C982.929 62.1102 983.413 61.237 984.462 60.6397C985.5 60.0432 987.003 59.6761 988.972 59.5384C990.909 59.403 992.401 59.5606 993.448 60.0113C994.506 60.4613 995.156 61.2659 995.397 62.4253L993.402 62.5648C993.202 61.8516 992.731 61.3873 991.989 61.1719C991.236 60.9572 990.264 60.8916 989.072 60.9749C987.657 61.0739 986.608 61.2809 985.924 61.596C985.22 61.9233 984.891 62.4221 984.938 63.0925C984.995 63.9012 985.586 64.325 986.711 64.3639C987.826 64.4036 989.046 64.4145 990.37 64.3967C991.717 64.3881 992.95 64.5157 994.07 64.7796C995.203 65.0746 995.813 65.8552 995.902 67.1215C995.982 68.2707 995.557 69.1505 994.627 69.7609C993.697 70.3819 992.142 70.7687 989.96 70.9212C987.822 71.0708 986.228 70.9149 985.18 70.4535C984.133 70.0028 983.445 69.1955 983.118 68.0314Z" fill="#333330"/>
<circle cx="1010.49" cy="64.2812" r="3" transform="rotate(-4 1010.49 64.2812)" fill="#333330"/>
<path d="M1025.21 62.7302C1025.07 60.6553 1025.6 59.1426 1026.81 58.1921C1028 57.2424 1029.81 56.6828 1032.24 56.5131C1034.65 56.3442 1036.52 56.6464 1037.85 57.4198C1039.17 58.1939 1039.9 59.6184 1040.04 61.6933C1040.19 63.747 1039.66 65.254 1038.47 66.2143C1037.27 67.1747 1035.46 67.7396 1033.03 67.9093C1030.61 68.0789 1028.74 67.7714 1027.42 66.9867C1026.09 66.192 1025.36 64.7732 1025.21 62.7302ZM1038.13 62.2764L1038.06 61.3347C1037.97 60.0472 1037.45 59.1375 1036.49 58.6056C1035.53 58.0843 1034.15 57.887 1032.34 58.0135C1030.52 58.1407 1029.18 58.5285 1028.32 59.177C1027.43 59.827 1027.04 60.8011 1027.13 62.0992L1027.19 63.0409C1027.28 64.3497 1027.81 65.2697 1028.78 65.8009C1029.74 66.3327 1031.12 66.5354 1032.93 66.409C1034.72 66.284 1036.06 65.8908 1036.95 65.2294C1037.83 64.5695 1038.22 63.5852 1038.13 62.2764ZM1041.85 56.0335L1050.12 55.4554C1051.35 55.3691 1052.31 55.5959 1053 56.1357C1053.68 56.6763 1054.06 57.4839 1054.13 58.5587C1054.2 59.4631 1054.03 60.2129 1053.62 60.8082C1053.19 61.4049 1052.55 61.8181 1051.72 62.0479L1055.16 66.1694L1052.91 66.3268L1049.55 62.3114L1044.25 62.6819L1044.55 66.9116L1042.62 67.0466L1041.85 56.0335ZM1052.2 58.8864L1052.18 58.5352C1052.14 57.9925 1051.94 57.5678 1051.59 57.261C1051.24 56.9649 1050.68 56.8436 1049.91 56.8971L1043.88 57.319L1044.15 61.2295L1050.19 60.8076C1050.95 60.754 1051.49 60.5508 1051.79 60.1978C1052.1 59.8449 1052.24 59.4077 1052.2 58.8864ZM1056.27 55.0253L1058.2 54.8903L1058.86 64.3392L1067.4 63.7421L1067.51 65.3063L1057.04 66.0384L1056.27 55.0253ZM1072.86 53.8648L1075.43 53.6851L1082.06 64.2886L1080.02 64.4315L1078.19 61.4797L1071.07 61.9775L1069.66 65.1558L1067.77 65.2875L1072.86 53.8648ZM1071.72 60.5045L1077.34 60.1116L1074.16 54.993L1071.72 60.5045ZM1082.7 53.1768L1085.38 52.9893L1094.02 61.7684L1093.36 52.4312L1095.15 52.3062L1095.92 63.3193L1093.27 63.5046L1084.6 54.6798L1085.26 64.0649L1083.47 64.1899L1082.7 53.1768ZM1097.93 52.1119L1105.45 51.5862C1107.38 51.4508 1108.89 51.7734 1109.96 52.554C1111.02 53.3459 1111.62 54.7261 1111.76 56.6947C1111.89 58.61 1111.49 60.0389 1110.55 60.9814C1109.61 61.9239 1108.16 62.4632 1106.22 62.5993L1098.7 63.125L1097.93 52.1119ZM1105.95 61.0463C1107.27 60.9541 1108.26 60.5957 1108.94 59.9713C1109.61 59.3681 1109.9 58.4174 1109.81 57.1193L1109.76 56.417C1109.67 55.1507 1109.25 54.2659 1108.5 53.7624C1107.74 53.2703 1106.71 53.0701 1105.4 53.1616L1099.97 53.5411L1100.52 61.4258L1105.95 61.0463ZM1113.34 56.5676C1113.2 54.4927 1113.73 52.98 1114.93 52.0296C1116.13 51.0799 1117.94 50.5202 1120.37 50.3506C1122.78 50.1817 1124.65 50.4839 1125.98 51.2572C1127.29 52.0313 1128.03 53.4559 1128.17 55.5308C1128.31 57.5844 1127.79 59.0914 1126.59 60.0518C1125.4 61.0121 1123.59 61.5771 1121.16 61.7467C1118.74 61.9164 1116.87 61.6088 1115.55 60.8241C1114.22 60.0295 1113.49 58.6107 1113.34 56.5676ZM1126.25 56.1139L1126.19 55.1722C1126.1 53.8846 1125.57 52.9749 1124.62 52.443C1123.66 51.9218 1122.28 51.7244 1120.47 51.8509C1118.65 51.9781 1117.31 52.366 1116.45 53.0145C1115.56 53.6645 1115.16 54.6385 1115.26 55.9367L1115.32 56.8784C1115.41 58.1872 1115.94 59.1072 1116.91 59.6383C1117.87 60.1702 1119.25 60.3729 1121.06 60.2464C1122.85 60.1214 1124.19 59.7282 1125.08 59.0669C1125.95 58.407 1126.35 57.4227 1126.25 56.1139Z" fill="#333330"/>
<circle cx="1143.16" cy="55.0036" r="3" transform="rotate(-4 1143.16 55.0036)" fill="#333330"/>
<path d="M1158.1 47.9048L1165.61 47.3791C1167.55 47.2436 1169.05 47.5662 1170.12 48.3468C1171.18 49.1387 1171.78 50.519 1171.92 52.4875C1172.05 54.4028 1171.65 55.8317 1170.71 56.7742C1169.77 57.7167 1168.33 58.256 1166.38 58.3922L1158.87 58.9179L1158.1 47.9048ZM1166.11 56.8392C1167.43 56.7469 1168.43 56.3885 1169.1 55.7641C1169.78 55.1609 1170.07 54.2103 1169.98 52.9121L1169.93 52.2098C1169.84 50.9436 1169.42 50.0587 1168.67 49.5552C1167.91 49.0632 1166.87 48.8629 1165.56 48.9544L1160.14 49.3339L1160.69 57.2186L1166.11 56.8392ZM1173.71 46.8126L1184.5 46.0581L1184.61 47.5266L1175.75 48.146L1175.97 51.3701L1182.92 50.8846L1183.02 52.3051L1176.07 52.7907L1176.31 56.2223L1185.23 55.5984L1185.34 57.0668L1174.48 57.8257L1173.71 46.8126ZM1186.6 45.9112L1189.29 45.7237L1197.92 54.5029L1197.27 45.1657L1199.05 45.0407L1199.82 56.0538L1197.17 56.2391L1188.51 47.4143L1189.16 56.7993L1187.37 56.9244L1186.6 45.9112ZM1200.46 44.9424L1202.57 44.795L1208.3 54.0817L1212.72 44.0852L1214.59 43.9546L1209.53 55.3751L1207.02 55.5503L1200.46 44.9424ZM1215.97 43.8578L1226.76 43.1033L1226.86 44.5717L1218 45.1912L1218.23 48.4153L1225.17 47.9298L1225.27 49.3503L1218.33 49.8358L1218.57 53.2674L1227.49 52.6435L1227.59 54.1119L1216.74 54.8709L1215.97 43.8578ZM1228.86 42.9564L1237.13 42.3783C1238.36 42.292 1239.32 42.5187 1240.01 43.0586C1240.69 43.5992 1241.07 44.4068 1241.15 45.4815C1241.21 46.386 1241.04 47.1358 1240.63 47.731C1240.2 48.3277 1239.57 48.741 1238.73 48.9707L1242.18 53.0923L1239.93 53.2496L1236.57 49.2342L1231.27 49.6048L1231.56 53.8345L1229.63 53.9695L1228.86 42.9564ZM1239.21 45.8092L1239.19 45.4581C1239.15 44.9154 1238.95 44.4907 1238.6 44.1839C1238.25 43.8877 1237.69 43.7664 1236.92 43.82L1230.89 44.2419L1231.16 48.1523L1237.2 47.7305C1237.96 47.6769 1238.5 47.4736 1238.81 47.1207C1239.11 46.7678 1239.25 46.3306 1239.21 45.8092Z" fill="#333330"/>
<circle cx="1256.88" cy="47.0515" r="3" transform="rotate(-4 1256.88 47.0515)" fill="#333330"/>
<path d="M1271.61 45.5002C1271.47 43.4253 1272 41.9126 1273.2 40.9622C1274.4 40.0125 1276.21 39.4528 1278.64 39.2831C1281.05 39.1142 1282.92 39.4165 1284.25 40.1898C1285.56 40.9639 1286.3 42.3884 1286.44 44.4634C1286.58 46.517 1286.06 48.024 1284.86 48.9843C1283.67 49.9447 1281.86 50.5097 1279.43 50.6793C1277.01 50.849 1275.14 50.5414 1273.82 49.7567C1272.49 48.962 1271.76 47.5432 1271.61 45.5002ZM1284.52 45.0464L1284.46 44.1047C1284.37 42.8172 1283.84 41.9075 1282.89 41.3756C1281.93 40.8544 1280.55 40.657 1278.74 40.7835C1276.92 40.9107 1275.58 41.2986 1274.72 41.9471C1273.83 42.597 1273.43 43.5711 1273.52 44.8693L1273.59 45.811C1273.68 47.1198 1274.21 48.0397 1275.18 48.5709C1276.14 49.1028 1277.52 49.3055 1279.33 49.179C1281.12 49.054 1282.46 48.6608 1283.35 47.9994C1284.22 47.3396 1284.62 46.3552 1284.52 45.0464ZM1288.25 38.8036L1296.51 38.2254C1297.75 38.1391 1298.71 38.3659 1299.4 38.9057C1300.08 39.4463 1300.46 40.254 1300.53 41.3287C1300.6 42.2331 1300.42 42.983 1300.02 43.5782C1299.59 44.1749 1298.95 44.5881 1298.11 44.8179L1301.56 48.9394L1299.31 49.0968L1295.95 45.0814L1290.65 45.4519L1290.95 49.6816L1289.02 49.8167L1288.25 38.8036ZM1298.6 41.6564L1298.57 41.3052C1298.54 40.7626 1298.34 40.3378 1297.99 40.031C1297.64 39.7349 1297.08 39.6136 1296.31 39.6672L1290.28 40.089L1290.55 43.9995L1296.58 43.5776C1297.35 43.524 1297.89 43.3208 1298.19 42.9679C1298.5 42.6149 1298.64 42.1778 1298.6 41.6564ZM1302.66 37.7954L1304.6 37.6603L1305.26 47.1092L1313.8 46.5121L1313.9 48.0763L1303.43 48.8085L1302.66 37.7954ZM1319.26 36.6348L1321.83 36.4552L1328.46 47.0587L1326.41 47.2015L1324.59 44.2497L1317.47 44.7475L1316.06 47.9259L1314.17 48.0576L1319.26 36.6348ZM1318.12 43.2745L1323.74 42.8817L1320.56 37.7631L1318.12 43.2745ZM1329.1 35.9468L1331.78 35.7593L1340.41 44.5385L1339.76 35.2013L1341.55 35.0763L1342.32 46.0894L1339.67 46.2746L1331 37.4498L1331.66 46.8349L1329.87 46.9599L1329.1 35.9468ZM1344.33 34.8819L1351.85 34.3563C1353.78 34.2208 1355.29 34.5434 1356.36 35.324C1357.42 36.1159 1358.02 37.4962 1358.15 39.4647C1358.29 41.38 1357.88 42.8089 1356.95 43.7514C1356.01 44.6939 1354.56 45.2332 1352.62 45.3694L1345.1 45.895L1344.33 34.8819ZM1352.35 43.8163C1353.67 43.7241 1354.66 43.3657 1355.34 42.7413C1356.01 42.1381 1356.3 41.1874 1356.21 39.8893L1356.16 39.187C1356.07 37.9207 1355.65 37.0359 1354.9 36.5324C1354.14 36.0404 1353.1 35.8401 1351.8 35.9316L1346.37 36.3111L1346.92 44.1958L1352.35 43.8163ZM1359.74 39.3377C1359.6 37.2627 1360.13 35.75 1361.33 34.7996C1362.53 33.8499 1364.34 33.2902 1366.76 33.1206C1369.18 32.9517 1371.05 33.2539 1372.38 34.0273C1373.69 34.8014 1374.42 36.2259 1374.57 38.3008C1374.71 40.3545 1374.19 41.8614 1372.99 42.8218C1371.8 43.7821 1369.99 44.3471 1367.56 44.5168C1365.14 44.6864 1363.26 44.3789 1361.95 43.5941C1360.62 42.7995 1359.88 41.3807 1359.74 39.3377ZM1372.65 38.8839L1372.59 37.9422C1372.5 36.6547 1371.97 35.7449 1371.02 35.2131C1370.06 34.6918 1368.68 34.4944 1366.87 34.6209C1365.05 34.7482 1363.71 35.136 1362.84 35.7845C1361.96 36.4345 1361.56 37.4085 1361.65 38.7067L1361.72 39.6484C1361.81 40.9572 1362.34 41.8772 1363.31 42.4083C1364.26 42.9402 1365.65 43.1429 1367.46 43.0164C1369.24 42.8914 1370.59 42.4982 1371.48 41.8369C1372.35 41.177 1372.74 40.1927 1372.65 38.8839Z" fill="#333330"/>
<circle cx="1389.56" cy="37.7737" r="3" transform="rotate(-4 1389.56 37.7737)" fill="#333330"/>
<path d="M1404.49 30.6748L1412.01 30.1491C1413.95 30.0137 1415.45 30.3362 1416.52 31.1168C1417.58 31.9088 1418.18 33.289 1418.32 35.2575C1418.45 37.1729 1418.05 38.6018 1417.11 39.5442C1416.17 40.4867 1414.73 41.026 1412.78 41.1622L1405.26 41.6879L1404.49 30.6748ZM1412.51 39.6092C1413.83 39.5169 1414.83 39.1586 1415.5 38.5341C1416.18 37.9309 1416.47 36.9803 1416.38 35.6821L1416.33 34.9798C1416.24 33.7136 1415.82 32.8287 1415.07 32.3253C1414.31 31.8332 1413.27 31.6329 1411.96 31.7244L1406.53 32.1039L1407.09 39.9887L1412.51 39.6092ZM1420.11 29.5826L1430.9 28.8282L1431 30.2966L1422.15 30.916L1422.37 34.1401L1429.31 33.6546L1429.41 35.0752L1422.47 35.5607L1422.71 38.9923L1431.63 38.3684L1431.74 39.8368L1420.88 40.5958L1420.11 29.5826ZM1433 28.6813L1435.68 28.4938L1444.32 37.2729L1443.66 27.9357L1445.45 27.8107L1446.22 38.8238L1443.57 39.0091L1434.9 30.1843L1435.56 39.5694L1433.77 39.6944L1433 28.6813ZM1446.86 27.7124L1448.97 27.565L1454.7 36.8517L1459.12 26.8552L1460.98 26.7246L1455.93 38.1451L1453.42 38.3203L1446.86 27.7124ZM1462.37 26.6278L1473.16 25.8733L1473.26 27.3417L1464.4 27.9612L1464.63 31.1853L1471.57 30.6998L1471.67 32.1203L1464.73 32.6058L1464.97 36.0375L1473.89 35.4136L1473.99 36.882L1463.14 37.6409L1462.37 26.6278ZM1475.26 25.7264L1483.53 25.1483C1484.76 25.062 1485.72 25.2887 1486.41 25.8286C1487.09 26.3692 1487.47 27.1768 1487.54 28.2515C1487.61 29.156 1487.44 29.9058 1487.03 30.501C1486.6 31.0977 1485.97 31.511 1485.13 31.7407L1488.57 35.8623L1486.32 36.0196L1482.96 32.0043L1477.66 32.3748L1477.96 36.6045L1476.03 36.7395L1475.26 25.7264ZM1485.61 28.5792L1485.59 28.2281C1485.55 27.6854 1485.35 27.2607 1485 26.9539C1484.65 26.6577 1484.09 26.5364 1483.32 26.59L1477.29 27.0119L1477.56 30.9224L1483.6 30.5005C1484.36 30.4469 1484.9 30.2436 1485.21 29.8907C1485.51 29.5378 1485.65 29.1006 1485.61 28.5792Z" fill="#333330"/>
<circle cx="1503.28" cy="29.8215" r="3" transform="rotate(-4 1503.28 29.8215)" fill="#333330"/>
<path d="M1518.01 28.2705C1517.87 26.1955 1518.4 24.6829 1519.6 23.7324C1520.8 22.7827 1522.61 22.223 1525.03 22.0534C1527.45 21.8845 1529.32 22.1867 1530.65 22.9601C1531.96 23.7342 1532.69 25.1587 1532.84 27.2336C1532.98 29.2873 1532.46 30.7943 1531.26 31.7546C1530.07 32.7149 1528.26 33.2799 1525.83 33.4496C1523.4 33.6192 1521.53 33.3117 1520.22 32.5269C1518.89 31.7323 1518.15 30.3135 1518.01 28.2705ZM1530.92 27.8167L1530.86 26.875C1530.77 25.5875 1530.24 24.6778 1529.29 24.1459C1528.33 23.6246 1526.95 23.4272 1525.14 23.5537C1523.32 23.681 1521.98 24.0688 1521.11 24.7173C1520.23 25.3673 1519.83 26.3414 1519.92 27.6395L1519.99 28.5812C1520.08 29.89 1520.61 30.81 1521.58 31.3411C1522.53 31.873 1523.92 32.0757 1525.73 31.9492C1527.51 31.8242 1528.85 31.4311 1529.75 30.7697C1530.62 30.1098 1531.01 29.1255 1530.92 27.8167ZM1534.64 21.5738L1542.91 20.9957C1544.15 20.9094 1545.11 21.1361 1545.8 21.676C1546.48 22.2166 1546.86 23.0242 1546.93 24.0989C1546.99 25.0034 1546.82 25.7532 1546.41 26.3484C1545.99 26.9451 1545.35 27.3584 1544.51 27.5881L1547.96 31.7097L1545.71 31.867L1542.35 27.8517L1537.05 28.2222L1537.35 32.4519L1535.41 32.5869L1534.64 21.5738ZM1545 24.4266L1544.97 24.0755C1544.93 23.5328 1544.74 23.1081 1544.39 22.8013C1544.03 22.5051 1543.47 22.3838 1542.71 22.4374L1536.68 22.8593L1536.95 26.7698L1542.98 26.3479C1543.75 26.2943 1544.28 26.091 1544.59 25.7381C1544.9 25.3852 1545.03 24.948 1545 24.4266ZM1549.06 20.5656L1550.99 20.4306L1551.65 29.8795L1560.19 29.2824L1560.3 30.8466L1549.83 31.5787L1549.06 20.5656ZM1565.66 19.4051L1568.23 19.2254L1574.86 29.8289L1572.81 29.9718L1570.99 27.02L1563.87 27.5178L1562.45 30.6961L1560.57 30.8278L1565.66 19.4051ZM1564.52 26.0448L1570.14 25.6519L1566.96 20.5333L1564.52 26.0448ZM1575.5 18.7171L1578.18 18.5296L1586.81 27.3087L1586.16 17.9715L1587.95 17.8465L1588.72 28.8596L1586.07 29.0449L1577.4 20.2201L1578.06 29.6052L1576.27 29.7302L1575.5 18.7171ZM1590.73 17.6522L1598.24 17.1265C1600.18 16.9911 1601.68 17.3137 1602.75 18.0942C1603.82 18.8862 1604.41 20.2664 1604.55 22.235C1604.69 24.1503 1604.28 25.5792 1603.34 26.5217C1602.4 27.4641 1600.96 28.0035 1599.01 28.1396L1591.5 28.6653L1590.73 17.6522ZM1598.75 26.5866C1600.06 26.4943 1601.06 26.136 1601.73 25.5115C1602.41 24.9084 1602.7 23.9577 1602.61 22.6595L1602.56 21.9573C1602.47 20.691 1602.05 19.8062 1601.3 19.3027C1600.54 18.8106 1599.5 18.6103 1598.19 18.7019L1592.77 19.0813L1593.32 26.9661L1598.75 26.5866ZM1606.14 22.1079C1605.99 20.033 1606.52 18.5203 1607.73 17.5699C1608.93 16.6202 1610.74 16.0605 1613.16 15.8909C1615.58 15.7219 1617.45 16.0242 1618.78 16.7975C1620.09 17.5716 1620.82 18.9961 1620.97 21.0711C1621.11 23.1247 1620.59 24.6317 1619.39 25.592C1618.2 26.5524 1616.39 27.1174 1613.96 27.287C1611.53 27.4567 1609.66 27.1491 1608.35 26.3644C1607.02 25.5698 1606.28 24.1509 1606.14 22.1079ZM1619.05 21.6541L1618.99 20.7124C1618.9 19.4249 1618.37 18.5152 1617.42 17.9833C1616.46 17.4621 1615.08 17.2647 1613.27 17.3912C1611.45 17.5184 1610.11 17.9063 1609.24 18.5548C1608.36 19.2047 1607.96 20.1788 1608.05 21.477L1608.12 22.4187C1608.21 23.7275 1608.74 24.6474 1609.71 25.1786C1610.66 25.7105 1612.05 25.9132 1613.85 25.7867C1615.64 25.6617 1616.98 25.2685 1617.88 24.6071C1618.75 23.9473 1619.14 22.9629 1619.05 21.6541Z" fill="#333330"/>
<defs>
<linearGradient id="paint0_linear_1120_3542" x1="162.831" y1="123.9" x2="164.867" y2="188.274" gradientUnits="userSpaceOnUse">
<stop stop-color="#B6864B"/>
<stop offset="0.484926" stop-color="#D39F55"/>
<stop offset="1" stop-color="#F2CF78"/>
</linearGradient>
</defs>
</svg>
