<svg width="1600" height="241" viewBox="0 0 1600 241" fill="none" xmlns="http://www.w3.org/2000/svg">
<rect x="-8.04639" y="1.22876" width="1639.07" height="40" transform="rotate(5 -8.04639 1.22876)" fill="white"/>
<rect x="-6.45874" y="3.37036" width="1621.24" height="3.55707" transform="rotate(5 -6.45874 3.37036)" fill="#333330"/>
<rect x="-6.46484" y="36.4153" width="1621.84" height="3.55707" transform="rotate(5 -6.46484 36.4153)" fill="#333330"/>
<path d="M-22.379 21.8902L-20.4026 22.0631C-20.1923 22.8417 -19.7423 23.3897 -19.0527 23.707C-18.3746 24.034 -17.3449 24.2579 -15.9635 24.3788C-14.4652 24.5099 -13.3626 24.4511 -12.6555 24.2024C-11.9698 23.9519 -11.6008 23.5291 -11.5488 22.9341C-11.4744 22.084 -11.9833 21.5362 -13.0754 21.2907C-14.0312 21.0786 -15.2386 20.8659 -16.6975 20.6526C-18.0184 20.4514 -19.2116 20.1382 -20.2773 19.7131C-21.3642 19.286 -21.8519 18.435 -21.7403 17.1598C-21.6399 16.0122 -21.025 15.2255 -19.8956 14.7996C-18.7768 14.3728 -17.2345 14.2454 -15.2687 14.4174C-13.3347 14.5866 -11.8858 14.9757 -10.9219 15.5847C-9.94731 16.1946 -9.43148 17.091 -9.37435 18.2738L-11.3667 18.0995C-11.4523 17.3639 -11.8447 16.8317 -12.5441 16.5028C-13.254 16.173 -14.2041 15.9561 -15.3942 15.852C-16.8074 15.7283 -17.8764 15.7686 -18.6009 15.9729C-19.3477 16.186 -19.7503 16.6272 -19.8089 17.2967C-19.8795 18.1043 -19.3621 18.6153 -18.2566 18.8298C-17.1617 19.0434 -15.9587 19.245 -14.6476 19.4347C-13.3161 19.6368 -12.118 19.9558 -11.0533 20.3916C-9.98073 20.8602 -9.49976 21.7267 -9.61039 22.9912C-9.7108 24.1388 -10.2682 24.9413 -11.2826 25.3986C-12.2979 25.8666 -13.8947 26.0053 -16.0731 25.8147C-18.2089 25.6278 -19.7583 25.2246 -20.7213 24.605C-21.6852 23.996 -22.2378 23.091 -22.379 21.8902ZM-6.84141 15.3475L3.93343 16.2901L3.80514 17.7565L-5.04107 16.9826L-5.32276 20.2023L1.61076 20.8089L1.48665 22.2275L-5.44687 21.6209L-5.74668 25.0478L3.16328 25.8273L3.03499 27.2937L-7.80361 26.3454L-6.84141 15.3475ZM10.1026 18.4039L4.74702 17.9353L4.88368 16.3733L17.5234 17.4791L17.3867 19.0411L12.0312 18.5726L11.2057 28.0085L9.27702 27.8398L10.1026 18.4039ZM23.2243 19.5519L17.8688 19.0833L18.0054 17.5213L30.6452 18.6271L30.5085 20.1891L25.1529 19.7206L24.3274 29.1565L22.3988 28.9878L23.2243 19.5519ZM32.2748 18.7697L43.0496 19.7124L42.9213 21.1788L34.0751 20.4048L33.7935 23.6245L40.727 24.2311L40.6029 25.6497L33.6693 25.0431L33.3695 28.47L42.2795 29.2495L42.1512 30.7159L31.3126 29.7677L32.2748 18.7697ZM45.1475 19.8959L53.404 20.6182C54.6366 20.7261 55.5514 21.1006 56.1485 21.7417C56.7349 22.3819 56.9812 23.2387 56.8873 24.3119C56.8083 25.2151 56.521 25.9288 56.0254 26.4529C55.5086 26.9752 54.8177 27.2842 53.9527 27.3798L56.7134 31.99L54.466 31.7933L51.7753 27.3017L46.4835 26.8388L46.1139 31.0626L44.1853 30.8939L45.1475 19.8959ZM54.926 24.333L54.9567 23.9824C55.0041 23.4404 54.8775 22.9904 54.5769 22.6321C54.2754 22.2845 53.7421 22.0773 52.977 22.0103L46.952 21.4832L46.6104 25.3883L52.6354 25.9154C53.4004 25.9823 53.9621 25.8655 54.3203 25.5649C54.6785 25.2643 54.8804 24.8537 54.926 24.333ZM62.5657 26.993C62.7452 24.9422 63.4791 23.5288 64.7677 22.7528C66.0668 21.9777 67.8268 21.6873 70.0477 21.8816C72.0454 22.0564 73.5717 22.4791 74.6266 23.1496C75.6797 23.8413 76.2481 24.8708 76.3319 26.2379L74.3714 26.0664C74.2582 25.1571 73.8277 24.5091 73.0799 24.1224C72.3099 23.7446 71.2555 23.4971 69.9166 23.3799C68.3865 23.2461 67.1407 23.4101 66.1795 23.8721C65.2164 24.3553 64.6721 25.3142 64.5466 26.7487L64.481 27.4979C64.3583 28.9005 64.7235 29.9282 65.5765 30.5811C66.4189 31.233 67.6211 31.6272 69.1831 31.7639C70.5007 31.8792 71.56 31.8273 72.3608 31.6083C73.1509 31.3883 73.7098 30.875 74.0373 30.0685L75.9978 30.24C75.61 31.491 74.8553 32.3458 73.7337 32.8045C72.589 33.2825 71.0285 33.4351 69.052 33.2622C66.8205 33.0669 65.1368 32.486 64.0007 31.5193C62.8646 30.5526 62.3863 29.0438 62.5657 26.993ZM78.5667 22.8197L80.4954 22.9884L79.6698 32.4244L88.1972 33.1704L88.0606 34.7325L77.6045 33.8177L78.5667 22.8197ZM88.6875 29.2462C88.8688 27.1742 89.6293 25.7631 90.9691 25.013C92.2983 24.262 94.1743 23.9924 96.597 24.2044C99.0091 24.4154 100.81 25.0066 101.999 25.978C103.178 26.9484 103.676 28.4696 103.495 30.5417C103.316 32.5926 102.561 33.9988 101.231 34.7604C99.9005 35.5221 98.0241 35.7969 95.6014 35.5849C93.1786 35.373 91.3784 34.7765 90.2008 33.7954C89.0134 32.8028 88.509 31.2864 88.6875 29.2462ZM101.511 30.8179L101.594 29.8775C101.706 28.5917 101.331 27.6113 100.47 26.9363C99.6069 26.2719 98.2724 25.8607 96.4659 25.7027C94.6489 25.5437 93.2632 25.7169 92.3088 26.2224C91.3332 26.7259 90.7887 27.6259 90.6753 28.9223L90.593 29.8627C90.4787 31.1697 90.8577 32.1611 91.7301 32.8371C92.5919 33.5121 93.926 33.9286 95.7324 34.0867C97.5176 34.2428 98.9038 34.0643 99.8909 33.5511C100.857 33.036 101.397 32.1249 101.511 30.8179ZM104.729 33.0107L106.706 33.1836C106.916 33.9622 107.366 34.5102 108.056 34.8275C108.734 35.1545 109.763 35.3785 111.145 35.4993C112.643 35.6304 113.746 35.5716 114.453 35.3229C115.138 35.0724 115.507 34.6496 115.559 34.0546C115.634 33.2045 115.125 32.6567 114.033 32.4113C113.077 32.1992 111.87 31.9865 110.411 31.7732C109.09 31.5719 107.897 31.2587 106.831 30.8336C105.744 30.4066 105.256 29.5555 105.368 28.2804C105.468 27.1327 106.083 26.346 107.213 25.9202C108.331 25.4934 109.874 25.366 111.84 25.538C113.773 25.7072 115.222 26.0963 116.186 26.7053C117.161 27.3152 117.677 28.2115 117.734 29.3944L115.741 29.22C115.656 28.4845 115.263 27.9522 114.564 27.6234C113.854 27.2936 112.904 27.0766 111.714 26.9725C110.301 26.8488 109.232 26.8892 108.507 27.0935C107.761 27.3065 107.358 27.7478 107.299 28.4172C107.229 29.2248 107.746 29.7358 108.852 29.9503C109.947 30.1639 111.15 30.3655 112.461 30.5552C113.792 30.7573 114.99 31.0763 116.055 31.5121C117.127 31.9807 117.608 32.8472 117.498 34.1117C117.397 35.2594 116.84 36.0618 115.826 36.5192C114.81 36.9871 113.213 37.1258 111.035 36.9352C108.899 36.7484 107.35 36.3451 106.387 35.7255C105.423 35.1165 104.87 34.2116 104.729 33.0107ZM120.267 26.468L131.042 27.4107L130.913 28.8771L122.067 28.1031L121.785 31.3228L128.719 31.9294L128.595 33.348L121.661 32.7414L121.362 36.1683L130.272 36.9478L130.143 38.4142L119.305 37.466L120.267 26.468ZM133.14 27.5942L141.396 28.3165C142.629 28.4244 143.543 28.7989 144.141 29.44C144.727 30.0802 144.973 30.937 144.879 32.0102C144.8 32.9134 144.513 33.6271 144.017 34.1512C143.501 34.6735 142.81 34.9825 141.945 35.0781L144.705 39.6883L142.458 39.4916L139.767 35L134.475 34.5371L134.106 38.7609L132.177 38.5922L133.14 27.5942ZM142.918 32.0313L142.949 31.6807C142.996 31.1387 142.87 30.6887 142.569 30.3304C142.267 29.9828 141.734 29.7756 140.969 29.7086L134.944 29.1815L134.602 33.0866L140.627 33.6137C141.392 33.6807 141.954 33.5638 142.312 33.2632C142.671 32.9626 142.872 32.552 142.918 32.0313ZM155.205 31.0986L149.849 30.6301L149.986 29.068L162.625 30.1739L162.489 31.7359L157.133 31.2674L156.308 40.7033L154.379 40.5346L155.205 31.0986ZM162.421 35.6971C162.603 33.625 163.363 32.214 164.703 31.4639C166.032 30.7129 167.908 30.4433 170.331 30.6553C172.743 30.8663 174.544 31.4575 175.733 32.4289C176.912 33.3993 177.41 34.9205 177.229 36.9926C177.049 39.0434 176.295 40.4497 174.965 41.2113C173.635 41.973 171.758 42.2478 169.335 42.0358C166.913 41.8239 165.112 41.2274 163.935 40.2463C162.747 39.2537 162.243 37.7373 162.421 35.6971ZM175.245 37.2688L175.328 36.3284C175.44 35.0426 175.065 34.0622 174.204 33.3872C173.341 32.7228 172.006 32.3116 170.2 32.1536C168.383 31.9946 166.997 32.1678 166.043 32.6732C165.067 33.1768 164.523 34.0768 164.409 35.3731L164.327 36.3135C164.213 37.6206 164.592 38.612 165.464 39.288C166.326 39.963 167.66 40.3795 169.466 40.5376C171.252 40.6937 172.638 40.5152 173.625 40.002C174.591 39.4868 175.131 38.5758 175.245 37.2688ZM179.192 37.9193L179.739 31.6711L181.684 31.8413L181.144 38.0097C181.028 39.338 181.335 40.291 182.066 40.869C182.808 41.4478 183.875 41.7981 185.267 41.9199C186.659 42.0417 187.77 41.882 188.601 41.4407C189.422 40.9985 189.89 40.1133 190.006 38.785L190.546 32.6166L192.315 32.7714L191.768 39.0195C191.623 40.6772 191.005 41.8705 189.913 42.5995C188.8 43.3266 187.208 43.5995 185.136 43.4182C183.021 43.2332 181.463 42.6846 180.461 41.7725C179.469 40.872 179.046 39.5876 179.192 37.9193ZM194.935 33.0006L203.191 33.7229C204.424 33.8308 205.339 34.2053 205.936 34.8464C206.522 35.4866 206.768 36.3433 206.675 37.4166C206.595 38.3198 206.308 39.0335 205.813 39.5576C205.296 40.0799 204.605 40.3888 203.74 40.4845L206.501 45.0946L204.253 44.898L201.562 40.4064L196.271 39.9434L195.901 44.1673L193.973 43.9986L194.935 33.0006ZM204.713 37.4377L204.744 37.0871C204.791 36.5451 204.665 36.095 204.364 35.7368C204.063 35.3892 203.529 35.1819 202.764 35.115L196.739 34.5879L196.398 38.493L202.423 39.0201C203.188 39.087 203.749 38.9702 204.108 38.6696C204.466 38.369 204.668 37.9584 204.713 37.4377Z" fill="#333330"/>
<circle cx="222.207" cy="41.4498" r="3" transform="rotate(5 222.207 41.4498)" fill="#333330"/>
<path d="M236.632 44.5506L238.608 44.7235C238.818 45.5021 239.268 46.0501 239.958 46.3674C240.636 46.6944 241.666 46.9183 243.047 47.0392C244.546 47.1703 245.648 47.1115 246.355 46.8628C247.041 46.6123 247.41 46.1895 247.462 45.5945C247.536 44.7444 247.027 44.1966 245.935 43.9511C244.98 43.739 243.772 43.5263 242.313 43.313C240.992 43.1118 239.799 42.7986 238.733 42.3735C237.647 41.9464 237.159 41.0954 237.27 39.8202C237.371 38.6726 237.986 37.8859 239.115 37.46C240.234 37.0332 241.776 36.9058 243.742 37.0778C245.676 37.247 247.125 37.6361 248.089 38.2451C249.063 38.855 249.579 39.7514 249.636 40.9342L247.644 40.7599C247.558 40.0243 247.166 39.4921 246.467 39.1632C245.757 38.8334 244.807 38.6165 243.617 38.5124C242.203 38.3887 241.134 38.429 240.41 38.6333C239.663 38.8464 239.26 39.2876 239.202 39.9571C239.131 40.7647 239.649 41.2757 240.754 41.4902C241.849 41.7038 243.052 41.9054 244.363 42.0951C245.695 42.2972 246.893 42.6162 247.957 43.052C249.03 43.5206 249.511 44.3871 249.4 45.6516C249.3 46.7992 248.743 47.6017 247.728 48.059C246.713 48.527 245.116 48.6657 242.938 48.4751C240.802 48.2882 239.252 47.885 238.289 47.2654C237.325 46.6564 236.773 45.7514 236.632 44.5506ZM252.169 38.0079L262.944 38.9505L262.816 40.4169L253.97 39.643L253.688 42.8627L260.622 43.4693L260.497 44.8879L253.564 44.2813L253.264 47.7082L262.174 48.4877L262.046 49.9541L251.207 49.0058L252.169 38.0079ZM269.113 41.0643L263.758 40.5957L263.894 39.0337L276.534 40.1395L276.397 41.7015L271.042 41.233L270.216 50.6689L268.288 50.5002L269.113 41.0643ZM282.235 42.2123L276.88 41.7437L277.016 40.1817L289.656 41.2875L289.519 42.8495L284.164 42.381L283.338 51.8169L281.41 51.6482L282.235 42.2123ZM291.286 41.4301L302.06 42.3728L301.932 43.8392L293.086 43.0652L292.804 46.2849L299.738 46.8915L299.614 48.3101L292.68 47.7035L292.38 51.1304L301.29 51.9099L301.162 53.3763L290.323 52.4281L291.286 41.4301ZM304.158 42.5563L312.415 43.2786C313.647 43.3865 314.562 43.761 315.159 44.4021C315.746 45.0423 315.992 45.8991 315.898 46.9723C315.819 47.8755 315.532 48.5892 315.036 49.1133C314.519 49.6356 313.828 49.9446 312.963 50.0402L315.724 54.6504L313.477 54.4537L310.786 49.9621L305.494 49.4992L305.125 53.723L303.196 53.5543L304.158 42.5563ZM313.937 46.9934L313.967 46.6428C314.015 46.1008 313.888 45.6508 313.588 45.2925C313.286 44.9449 312.753 44.7377 311.988 44.6707L305.963 44.1436L305.621 48.0487L311.646 48.5758C312.411 48.6427 312.973 48.5259 313.331 48.2253C313.689 47.9247 313.891 47.5141 313.937 46.9934ZM321.576 49.6534C321.756 47.6026 322.49 46.1892 323.778 45.4132C325.078 44.6381 326.838 44.3477 329.058 44.542C331.056 44.7168 332.582 45.1395 333.637 45.81C334.69 46.5017 335.259 47.5312 335.343 48.8983L333.382 48.7268C333.269 47.8175 332.838 47.1695 332.091 46.7829C331.321 46.405 330.266 46.1575 328.927 46.0403C327.397 45.9065 326.151 46.0705 325.19 46.5325C324.227 47.0157 323.683 47.9746 323.557 49.4091L323.492 50.1583C323.369 51.5609 323.734 52.5886 324.587 53.2415C325.43 53.8934 326.632 54.2876 328.194 54.4243C329.511 54.5396 330.571 54.4877 331.372 54.2687C332.162 54.0487 332.721 53.5354 333.048 52.7289L335.009 52.9004C334.621 54.1514 333.866 55.0062 332.744 55.4649C331.6 55.9429 330.039 56.0955 328.063 55.9226C325.831 55.7273 324.148 55.1464 323.011 54.1797C321.875 53.213 321.397 51.7042 321.576 49.6534ZM337.577 45.4801L339.506 45.6488L338.681 55.0848L347.208 55.8308L347.071 57.3929L336.615 56.4781L337.577 45.4801ZM347.698 51.9066C347.88 49.8346 348.64 48.4235 349.98 47.6734C351.309 46.9224 353.185 46.6528 355.608 46.8648C358.02 47.0758 359.821 47.667 361.01 48.6384C362.188 49.6088 362.687 51.13 362.506 53.2021C362.326 55.253 361.571 56.6592 360.241 57.4208C358.911 58.1825 357.035 58.4573 354.612 58.2453C352.189 58.0334 350.389 57.4369 349.212 56.4558C348.024 55.4632 347.52 53.9468 347.698 51.9066ZM360.522 53.4783L360.604 52.5379C360.717 51.2521 360.342 50.2717 359.48 49.5967C358.618 48.9323 357.283 48.5211 355.477 48.3631C353.66 48.2041 352.274 48.3773 351.32 48.8828C350.344 49.3863 349.799 50.2863 349.686 51.5827L349.604 52.5231C349.489 53.8301 349.868 54.8215 350.741 55.4975C351.603 56.1725 352.937 56.589 354.743 56.7471C356.528 56.9032 357.915 56.7247 358.902 56.2115C359.868 55.6964 360.408 54.7853 360.522 53.4783ZM363.74 55.6711L365.716 55.844C365.927 56.6226 366.377 57.1706 367.066 57.4879C367.744 57.8149 368.774 58.0389 370.155 58.1597C371.654 58.2908 372.756 58.232 373.463 57.9833C374.149 57.7328 374.518 57.31 374.57 56.715C374.645 55.8649 374.136 55.3171 373.044 55.0717C372.088 54.8596 370.88 54.6469 369.421 54.4336C368.101 54.2323 366.907 53.9191 365.842 53.494C364.755 53.067 364.267 52.2159 364.379 50.9408C364.479 49.7931 365.094 49.0064 366.223 48.5806C367.342 48.1538 368.884 48.0264 370.85 48.1984C372.784 48.3676 374.233 48.7567 375.197 49.3657C376.172 49.9756 376.687 50.8719 376.745 52.0548L374.752 51.8804C374.667 51.1449 374.274 50.6126 373.575 50.2838C372.865 49.954 371.915 49.737 370.725 49.6329C369.312 49.5092 368.243 49.5496 367.518 49.7539C366.771 49.9669 366.369 50.4082 366.31 51.0776C366.239 51.8852 366.757 52.3962 367.862 52.6107C368.957 52.8243 370.16 53.0259 371.471 53.2156C372.803 53.4177 374.001 53.7367 375.066 54.1725C376.138 54.6411 376.619 55.5076 376.509 56.7721C376.408 57.9198 375.851 58.7222 374.836 59.1796C373.821 59.6475 372.224 59.7862 370.046 59.5956C367.91 59.4088 366.361 59.0055 365.398 58.3859C364.434 57.7769 363.881 56.872 363.74 55.6711ZM379.278 49.1284L390.052 50.0711L389.924 51.5375L381.078 50.7635L380.796 53.9832L387.73 54.5898L387.606 56.0084L380.672 55.4018L380.372 58.8287L389.282 59.6082L389.154 61.0746L378.315 60.1264L379.278 49.1284ZM392.15 50.2546L400.407 50.9769C401.639 51.0848 402.554 51.4593 403.151 52.1004C403.738 52.7406 403.984 53.5974 403.89 54.6706C403.811 55.5738 403.524 56.2875 403.028 56.8116C402.511 57.3339 401.82 57.6429 400.955 57.7385L403.716 62.3487L401.469 62.152L398.778 57.6604L393.486 57.1975L393.117 61.4213L391.188 61.2526L392.15 50.2546ZM401.929 54.6917L401.959 54.3411C402.007 53.7991 401.88 53.3491 401.58 52.9908C401.278 52.6432 400.745 52.436 399.98 52.369L393.955 51.8419L393.613 55.747L399.638 56.2741C400.403 56.3411 400.965 56.2242 401.323 55.9236C401.681 55.623 401.883 55.2124 401.929 54.6917ZM414.215 53.759L408.86 53.2905L408.996 51.7284L421.636 52.8343L421.499 54.3963L416.144 53.9278L415.318 63.3637L413.39 63.195L414.215 53.759ZM421.432 58.3575C421.614 56.2854 422.374 54.8744 423.714 54.1243C425.043 53.3733 426.919 53.1037 429.342 53.3157C431.754 53.5267 433.555 54.1179 434.744 55.0893C435.922 56.0597 436.421 57.5809 436.24 59.653C436.06 61.7038 435.305 63.1101 433.975 63.8717C432.645 64.6334 430.769 64.9082 428.346 64.6962C425.923 64.4843 424.123 63.8878 422.945 62.9067C421.758 61.9141 421.254 60.3977 421.432 58.3575ZM434.256 59.9292L434.338 58.9888C434.451 57.703 434.076 56.7226 433.214 56.0476C432.352 55.3832 431.017 54.972 429.211 54.814C427.394 54.655 426.008 54.8282 425.054 55.3336C424.078 55.8372 423.533 56.7372 423.42 58.0335L423.338 58.9739C423.223 60.281 423.602 61.2724 424.475 61.9484C425.337 62.6234 426.671 63.0399 428.477 63.198C430.262 63.3541 431.649 63.1756 432.636 62.6624C433.602 62.1472 434.142 61.2362 434.256 59.9292ZM438.203 60.5797L438.75 54.3315L440.694 54.5017L440.155 60.6701C440.038 61.9984 440.346 62.9514 441.077 63.5294C441.819 64.1082 442.886 64.4585 444.278 64.5803C445.67 64.7021 446.781 64.5424 447.612 64.1011C448.432 63.6589 448.901 62.7737 449.017 61.4454L449.556 55.277L451.326 55.4318L450.779 61.6799C450.634 63.3376 450.016 64.5309 448.924 65.2599C447.811 65.987 446.219 66.2599 444.146 66.0786C442.032 65.8936 440.474 65.345 439.472 64.4329C438.48 63.5324 438.057 62.248 438.203 60.5797ZM453.945 55.661L462.202 56.3833C463.435 56.4912 464.349 56.8657 464.946 57.5068C465.533 58.147 465.779 59.0037 465.685 60.077C465.606 60.9802 465.319 61.6939 464.823 62.218C464.307 62.7403 463.616 63.0492 462.751 63.1449L465.511 67.755L463.264 67.5584L460.573 63.0668L455.281 62.6038L454.912 66.8277L452.983 66.659L453.945 55.661ZM463.724 60.0981L463.755 59.7475C463.802 59.2055 463.675 58.7554 463.375 58.3972C463.073 58.0496 462.54 57.8423 461.775 57.7754L455.75 57.2483L455.408 61.1534L461.433 61.6805C462.198 61.7474 462.76 61.6306 463.118 61.33C463.477 61.0294 463.678 60.6188 463.724 60.0981Z" fill="#333330"/>
<circle cx="481.218" cy="64.1102" r="3" transform="rotate(5 481.218 64.1102)" fill="#333330"/>
<path d="M495.642 67.2112L497.619 67.3841C497.829 68.1627 498.279 68.7107 498.969 69.028C499.647 69.355 500.676 69.579 502.058 69.6998C503.556 69.8309 504.659 69.7721 505.366 69.5235C506.051 69.2729 506.42 68.8502 506.472 68.2551C506.547 67.405 506.038 66.8572 504.946 66.6118C503.99 66.3997 502.783 66.187 501.324 65.9737C500.003 65.7725 498.81 65.4593 497.744 65.0341C496.657 64.6071 496.169 63.756 496.281 62.4809C496.381 61.3333 496.996 60.5465 498.126 60.1207C499.244 59.6939 500.787 59.5665 502.753 59.7385C504.687 59.9077 506.135 60.2968 507.099 60.9058C508.074 61.5157 508.59 62.4121 508.647 63.5949L506.655 63.4206C506.569 62.685 506.177 62.1527 505.477 61.8239C504.767 61.4941 503.817 61.2771 502.627 61.173C501.214 61.0494 500.145 61.0897 499.42 61.294C498.674 61.507 498.271 61.9483 498.212 62.6177C498.142 63.4253 498.659 63.9364 499.765 64.1509C500.86 64.3644 502.063 64.566 503.374 64.7557C504.705 64.9578 505.903 65.2768 506.968 65.7126C508.041 66.1812 508.521 67.0478 508.411 68.3123C508.31 69.4599 507.753 70.2623 506.739 70.7197C505.723 71.1876 504.127 71.3263 501.948 71.1357C499.812 70.9489 498.263 70.5456 497.3 69.926C496.336 69.317 495.783 68.4121 495.642 67.2112ZM511.18 60.6685L521.955 61.6112L521.826 63.0776L512.98 62.3036L512.698 65.5233L519.632 66.1299L519.508 67.5485L512.574 66.9419L512.275 70.3688L521.185 71.1483L521.056 72.6147L510.218 71.6665L511.18 60.6685ZM528.124 63.7249L522.768 63.2563L522.905 61.6943L535.545 62.8001L535.408 64.3622L530.052 63.8936L529.227 73.3296L527.298 73.1609L528.124 63.7249ZM541.246 64.8729L535.89 64.4044L536.027 62.8423L548.666 63.9481L548.53 65.5102L543.174 65.0416L542.349 74.4776L540.42 74.3089L541.246 64.8729ZM550.296 64.0907L561.071 65.0334L560.943 66.4998L552.096 65.7259L551.815 68.9456L558.748 69.5522L558.624 70.9707L551.691 70.3641L551.391 73.7911L560.301 74.5706L560.172 76.037L549.334 75.0887L550.296 64.0907ZM563.169 65.2169L571.425 65.9393C572.658 66.0471 573.573 66.4216 574.17 67.0628C574.756 67.703 575.002 68.5597 574.909 69.6329C574.83 70.5362 574.542 71.2498 574.047 71.774C573.53 72.2962 572.839 72.6052 571.974 72.7008L574.735 77.311L572.487 77.1144L569.797 72.6228L564.505 72.1598L564.135 76.3837L562.207 76.2149L563.169 65.2169ZM572.947 69.6541L572.978 69.3034C573.025 68.7615 572.899 68.3114 572.598 67.9532C572.297 67.6056 571.763 67.3983 570.998 67.3314L564.973 66.8043L564.632 70.7093L570.657 71.2365C571.422 71.3034 571.983 71.1866 572.342 70.886C572.7 70.5854 572.902 70.1748 572.947 69.6541ZM580.587 72.314C580.766 70.2632 581.5 68.8498 582.789 68.0738C584.088 67.2988 585.848 67.0084 588.069 67.2027C590.067 67.3775 591.593 67.8001 592.648 68.4706C593.701 69.1623 594.269 70.1918 594.353 71.559L592.393 71.3875C592.279 70.4781 591.849 69.8301 591.101 69.4435C590.331 69.0656 589.277 68.8181 587.938 68.701C586.408 68.5671 585.162 68.7312 584.201 69.1931C583.238 69.6764 582.693 70.6352 582.568 72.0698L582.502 72.8189C582.38 74.2215 582.745 75.2493 583.598 75.9021C584.44 76.554 585.642 76.9483 587.204 77.0849C588.522 77.2002 589.581 77.1483 590.382 76.9293C591.172 76.7093 591.731 76.1961 592.059 75.3896L594.019 75.5611C593.631 76.812 592.877 77.6669 591.755 78.1255C590.61 78.6036 589.05 78.7561 587.073 78.5832C584.842 78.388 583.158 77.807 582.022 76.8403C580.886 75.8736 580.408 74.3649 580.587 72.314ZM596.588 68.1407L598.517 68.3095L597.691 77.7454L606.218 78.4915L606.082 80.0535L595.626 79.1387L596.588 68.1407ZM606.709 74.5673C606.89 72.4952 607.651 71.0841 608.99 70.334C610.32 69.583 612.196 69.3135 614.618 69.5255C617.03 69.7365 618.831 70.3277 620.02 71.299C621.199 72.2694 621.697 73.7907 621.516 75.8628C621.337 77.9136 620.582 79.3198 619.252 80.0815C617.922 80.8431 616.045 81.1179 613.623 80.906C611.2 80.694 609.4 80.0975 608.222 79.1165C607.035 78.1239 606.53 76.6075 606.709 74.5673ZM619.533 76.1389L619.615 75.1985C619.727 73.9128 619.353 72.9324 618.491 72.2574C617.628 71.593 616.294 71.1818 614.487 71.0237C612.67 70.8648 611.284 71.038 610.33 71.5434C609.354 72.0469 608.81 72.9469 608.697 74.2433L608.614 75.1837C608.5 76.4907 608.879 77.4822 609.751 78.1581C610.613 78.8331 611.947 79.2497 613.754 79.4077C615.539 79.5639 616.925 79.3854 617.912 78.8721C618.878 78.357 619.418 77.4459 619.533 76.1389ZM622.75 78.3317L624.727 78.5047C624.937 79.2833 625.387 79.8312 626.077 80.1486C626.755 80.4756 627.785 80.6995 629.166 80.8204C630.664 80.9514 631.767 80.8926 632.474 80.644C633.16 80.3935 633.529 79.9707 633.581 79.3756C633.655 78.5255 633.146 77.9778 632.054 77.7323C631.098 77.5202 629.891 77.3075 628.432 77.0942C627.111 76.893 625.918 76.5798 624.852 76.1546C623.765 75.7276 623.278 74.8765 623.389 73.6014C623.49 72.4538 624.104 71.667 625.234 71.2412C626.353 70.8144 627.895 70.687 629.861 70.859C631.795 71.0282 633.244 71.4173 634.208 72.0263C635.182 72.6362 635.698 73.5326 635.755 74.7154L633.763 74.5411C633.677 73.8055 633.285 73.2733 632.585 72.9444C631.875 72.6146 630.925 72.3976 629.735 72.2935C628.322 72.1699 627.253 72.2102 626.529 72.4145C625.782 72.6276 625.379 73.0688 625.321 73.7383C625.25 74.5458 625.767 75.0569 626.873 75.2714C627.968 75.485 629.171 75.6866 630.482 75.8762C631.813 76.0784 633.011 76.3973 634.076 76.8331C635.149 77.3017 635.63 78.1683 635.519 79.4328C635.419 80.5804 634.861 81.3829 633.847 81.8402C632.832 82.3082 631.235 82.4468 629.056 82.2563C626.921 82.0694 625.371 81.6662 624.408 81.0465C623.444 80.4375 622.892 79.5326 622.75 78.3317ZM638.288 71.789L649.063 72.7317L648.935 74.1981L640.088 73.4242L639.807 76.6439L646.74 77.2505L646.616 78.669L639.683 78.0624L639.383 81.4894L648.293 82.2689L648.164 83.7353L637.326 82.787L638.288 71.789ZM651.161 72.9152L659.417 73.6376C660.65 73.7454 661.565 74.1199 662.162 74.7611C662.748 75.4013 662.994 76.258 662.901 77.3312C662.822 78.2345 662.534 78.9481 662.039 79.4723C661.522 79.9945 660.831 80.3035 659.966 80.3992L662.727 85.0093L660.479 84.8127L657.789 80.3211L652.497 79.8581L652.127 84.082L650.199 83.9132L651.161 72.9152ZM660.939 77.3524L660.97 77.0017C661.017 76.4598 660.891 76.0097 660.59 75.6515C660.289 75.3039 659.755 75.0966 658.99 75.0297L652.965 74.5026L652.624 78.4076L658.649 78.9348C659.414 79.0017 659.975 78.8849 660.334 78.5843C660.692 78.2837 660.894 77.8731 660.939 77.3524ZM673.226 76.4197L667.87 75.9511L668.007 74.3891L680.647 75.4949L680.51 77.057L675.154 76.5884L674.329 86.0244L672.4 85.8556L673.226 76.4197ZM680.443 81.0182C680.624 78.9461 681.385 77.535 682.724 76.7849C684.054 76.0339 685.929 75.7644 688.352 75.9763C690.764 76.1874 692.565 76.7786 693.754 77.7499C694.933 78.7203 695.431 80.2416 695.25 82.3137C695.071 84.3645 694.316 85.7707 692.986 86.5324C691.656 87.294 689.779 87.5688 687.357 87.3569C684.934 87.1449 683.134 86.5484 681.956 85.5674C680.769 84.5748 680.264 83.0584 680.443 81.0182ZM693.267 82.5898L693.349 81.6494C693.461 80.3637 693.087 79.3833 692.225 78.7083C691.362 78.0439 690.028 77.6327 688.221 77.4746C686.404 77.3156 685.018 77.4889 684.064 77.9943C683.088 78.4978 682.544 79.3978 682.431 80.6942L682.348 81.6346C682.234 82.9416 682.613 83.9331 683.485 84.609C684.347 85.284 685.681 85.7006 687.488 85.8586C689.273 86.0148 690.659 85.8362 691.646 85.323C692.612 84.8079 693.152 83.8968 693.267 82.5898ZM697.214 83.2403L697.76 76.9922L699.705 77.1623L699.165 83.3307C699.049 84.659 699.356 85.6121 700.087 86.19C700.829 86.7688 701.896 87.1192 703.288 87.241C704.68 87.3627 705.792 87.203 706.623 86.7617C707.443 86.3196 707.911 85.4343 708.027 84.1061L708.567 77.9376L710.336 78.0924L709.79 84.3406C709.645 85.9982 709.026 87.1915 707.935 87.9205C706.822 88.6476 705.229 88.9205 703.157 88.7392C701.042 88.5542 699.484 88.0057 698.483 87.0936C697.491 86.193 697.068 84.9086 697.214 83.2403ZM712.956 78.3216L721.212 79.044C722.445 79.1518 723.36 79.5263 723.957 80.1674C724.543 80.8077 724.79 81.6644 724.696 82.7376C724.617 83.6408 724.329 84.3545 723.834 84.8786C723.317 85.4009 722.626 85.7099 721.761 85.8055L724.522 90.4157L722.274 90.2191L719.584 85.7275L714.292 85.2645L713.922 89.4883L711.994 89.3196L712.956 78.3216ZM722.734 82.7588L722.765 82.4081C722.813 81.8662 722.686 81.4161 722.385 81.0579C722.084 80.7103 721.551 80.503 720.785 80.4361L714.76 79.9089L714.419 83.814L720.444 84.3411C721.209 84.4081 721.771 84.2912 722.129 83.9907C722.487 83.6901 722.689 83.2794 722.734 82.7588Z" fill="#333330"/>
<circle cx="740.228" cy="86.7706" r="3" transform="rotate(5 740.228 86.7706)" fill="#333330"/>
<path d="M755.015 87.5744C755.194 85.5235 755.928 84.1101 757.216 83.3342C758.516 82.5591 760.276 82.2687 762.497 82.463C764.494 82.6378 766.021 83.0604 767.075 83.7309C768.128 84.4227 768.697 85.4521 768.781 86.8193L766.82 86.6478C766.707 85.7385 766.277 85.0905 765.529 84.7038C764.759 84.3259 763.704 84.0784 762.365 83.9613C760.835 83.8274 759.59 83.9915 758.628 84.4535C757.665 84.9367 757.121 85.8956 756.995 87.3301L756.93 88.0792C756.807 89.4819 757.172 90.5096 758.025 91.1624C758.868 91.8143 760.07 92.2086 761.632 92.3453C762.95 92.4606 764.009 92.4087 764.81 92.1896C765.6 91.9697 766.159 91.4564 766.486 90.6499L768.447 90.8214C768.059 92.0724 767.304 92.9272 766.183 93.3858C765.038 93.8639 763.477 94.0165 761.501 93.8436C759.269 93.6483 757.586 93.0674 756.45 92.1007C755.313 91.134 754.835 89.6252 755.015 87.5744ZM769.945 88.8485C770.126 86.7764 770.887 85.3653 772.226 84.6152C773.556 83.8642 775.431 83.5947 777.854 83.8066C780.266 84.0177 782.067 84.6089 783.256 85.5802C784.435 86.5506 784.933 88.0719 784.752 90.144C784.573 92.1948 783.818 93.601 782.488 94.3627C781.158 95.1243 779.281 95.3991 776.859 95.1872C774.436 94.9752 772.636 94.3787 771.458 93.3977C770.271 92.4051 769.766 90.8887 769.945 88.8485ZM782.769 90.4201L782.851 89.4797C782.963 88.194 782.589 87.2136 781.727 86.5386C780.864 85.8742 779.53 85.463 777.723 85.3049C775.906 85.146 774.52 85.3192 773.566 85.8246C772.59 86.3281 772.046 87.2281 771.933 88.5245L771.85 89.4649C771.736 90.7719 772.115 91.7634 772.987 92.4393C773.849 93.1143 775.183 93.5309 776.99 93.6889C778.775 93.8451 780.161 93.6666 781.148 93.1533C782.114 92.6382 782.654 91.7271 782.769 90.4201ZM785.986 92.6129L787.963 92.7858C788.173 93.5645 788.623 94.1124 789.313 94.4297C789.991 94.7568 791.021 94.9807 792.402 95.1015C793.9 95.2326 795.003 95.1738 795.71 94.9252C796.396 94.6747 796.765 94.2519 796.817 93.6568C796.891 92.8067 796.382 92.259 795.29 92.0135C794.334 91.8014 793.127 91.5887 791.668 91.3754C790.347 91.1742 789.154 90.861 788.088 90.4358C787.001 90.0088 786.514 89.1577 786.625 87.8826C786.726 86.735 787.34 85.9482 788.47 85.5224C789.589 85.0956 791.131 84.9682 793.097 85.1402C795.031 85.3094 796.48 85.6985 797.444 86.3075C798.418 86.9174 798.934 87.8138 798.991 88.9966L796.999 88.8223C796.913 88.0867 796.521 87.5545 795.821 87.2256C795.111 86.8958 794.161 86.6788 792.971 86.5747C791.558 86.4511 790.489 86.4914 789.764 86.6957C789.018 86.9088 788.615 87.35 788.557 88.0194C788.486 88.827 789.003 89.3381 790.109 89.5526C791.204 89.7661 792.407 89.9678 793.718 90.1574C795.049 90.3596 796.247 90.6785 797.312 91.1143C798.385 91.5829 798.866 92.4495 798.755 93.714C798.655 94.8616 798.097 95.6641 797.083 96.1214C796.068 96.5894 794.471 96.728 792.292 96.5375C790.157 96.3506 788.607 95.9474 787.644 95.3277C786.68 94.7187 786.128 93.8138 785.986 92.6129ZM805.159 87.9623L799.804 87.4937L799.941 85.9317L812.58 87.0375L812.444 88.5996L807.088 88.131L806.263 97.567L804.334 97.3982L805.159 87.9623ZM816.261 87.3595L818.827 87.584L823.714 99.0938L821.674 98.9153L820.332 95.7141L813.223 95.0922L811.33 98.0103L809.449 97.8457L816.261 87.3595ZM814.096 93.7392L819.707 94.23L817.366 88.6769L814.096 93.7392ZM829.667 88.5324L837.923 89.2547C839.156 89.3626 840.07 89.7371 840.668 90.3782C841.254 91.0184 841.5 91.8751 841.406 92.9484C841.327 93.8516 841.04 94.5653 840.544 95.0894C840.028 95.6117 839.337 95.9206 838.472 96.0163L841.232 100.626L838.985 100.43L836.294 95.9382L831.002 95.4752L830.633 99.6991L828.704 99.5304L829.667 88.5324ZM839.445 92.9695L839.476 92.6188C839.523 92.0769 839.397 91.6268 839.096 91.2686C838.794 90.921 838.261 90.7137 837.496 90.6468L831.471 90.1197L831.129 94.0248L837.154 94.5519C837.919 94.6188 838.481 94.502 838.839 94.2014C839.198 93.9008 839.399 93.4902 839.445 92.9695ZM844.065 89.792L845.993 89.9608L845.031 100.959L843.102 100.79L844.065 89.792ZM847.692 95.6826C847.871 93.6318 848.605 92.2183 849.894 91.4424C851.193 90.6673 852.953 90.3769 855.174 90.5712C857.171 90.746 858.698 91.1686 859.753 91.8391C860.806 92.5309 861.374 93.5603 861.458 94.9275L859.497 94.756C859.384 93.8467 858.954 93.1987 858.206 92.812C857.436 92.4342 856.382 92.1866 855.043 92.0695C853.513 91.9356 852.267 92.0997 851.306 92.5617C850.342 93.0449 849.798 94.0038 849.673 95.4383L849.607 96.1874C849.484 97.5901 849.85 98.6178 850.703 99.2706C851.545 99.9225 852.747 100.317 854.309 100.453C855.627 100.569 856.686 100.517 857.487 100.298C858.277 100.078 858.836 99.5646 859.163 98.7581L861.124 98.9296C860.736 100.181 859.981 101.035 858.86 101.494C857.715 101.972 856.155 102.125 854.178 101.952C851.947 101.757 850.263 101.176 849.127 100.209C847.991 99.2422 847.512 97.7334 847.692 95.6826ZM867.891 91.8766L870.458 92.1011L875.345 103.611L873.305 103.432L871.963 100.231L864.854 99.6093L862.96 102.527L861.08 102.363L867.891 91.8766ZM865.727 98.2563L871.338 98.7471L868.997 93.194L865.727 98.2563Z" fill="#333330"/>
<circle cx="890.654" cy="99.9312" r="3" transform="rotate(5 890.654 99.9312)" fill="#333330"/>
<path d="M905.079 103.032L907.055 103.205C907.265 103.984 907.715 104.532 908.405 104.849C909.083 105.176 910.113 105.4 911.494 105.521C912.992 105.652 914.095 105.593 914.802 105.345C915.488 105.094 915.857 104.671 915.909 104.076C915.983 103.226 915.474 102.678 914.382 102.433C913.426 102.221 912.219 102.008 910.76 101.795C909.439 101.593 908.246 101.28 907.18 100.855C906.093 100.428 905.606 99.577 905.717 98.3019C905.818 97.1543 906.433 96.3676 907.562 95.9417C908.681 95.5149 910.223 95.3875 912.189 95.5595C914.123 95.7287 915.572 96.1178 916.536 96.7268C917.51 97.3367 918.026 98.2331 918.083 99.4159L916.091 99.2416C916.005 98.506 915.613 97.9738 914.913 97.6449C914.204 97.3151 913.253 97.0982 912.063 96.994C910.65 96.8704 909.581 96.9107 908.857 97.115C908.11 97.3281 907.707 97.7693 907.649 98.4388C907.578 99.2464 908.095 99.7574 909.201 99.9719C910.296 100.185 911.499 100.387 912.81 100.577C914.141 100.779 915.339 101.098 916.404 101.534C917.477 102.002 917.958 102.869 917.847 104.133C917.747 105.281 917.189 106.083 916.175 106.541C915.16 107.009 913.563 107.147 911.384 106.957C909.249 106.77 907.699 106.367 906.736 105.747C905.772 105.138 905.22 104.233 905.079 103.032ZM920.616 96.4895L931.391 97.4322L931.263 98.8986L922.416 98.1247L922.135 101.344L929.068 101.951L928.944 103.37L922.011 102.763L921.711 106.19L930.621 106.969L930.493 108.436L919.654 107.488L920.616 96.4895ZM937.56 99.5459L932.205 99.0774L932.341 97.5154L944.981 98.6212L944.844 100.183L939.489 99.7147L938.663 109.151L936.735 108.982L937.56 99.5459ZM950.682 100.694L945.326 100.225L945.463 98.6634L958.103 99.7692L957.966 101.331L952.61 100.863L951.785 110.299L949.856 110.13L950.682 100.694ZM959.732 99.9118L970.507 100.854L970.379 102.321L961.533 101.547L961.251 104.767L968.184 105.373L968.06 106.792L961.127 106.185L960.827 109.612L969.737 110.392L969.609 111.858L958.77 110.91L959.732 99.9118ZM972.605 101.038L980.861 101.76C982.094 101.868 983.009 102.243 983.606 102.884C984.192 103.524 984.439 104.381 984.345 105.454C984.266 106.357 983.979 107.071 983.483 107.595C982.966 108.117 982.275 108.426 981.41 108.522L984.171 113.132L981.924 112.935L979.233 108.444L973.941 107.981L973.571 112.205L971.643 112.036L972.605 101.038ZM982.384 105.475L982.414 105.124C982.462 104.583 982.335 104.132 982.034 103.774C981.733 103.427 981.2 103.219 980.435 103.152L974.41 102.625L974.068 106.53L980.093 107.058C980.858 107.124 981.42 107.008 981.778 106.707C982.136 106.406 982.338 105.996 982.384 105.475ZM990.023 108.135C990.203 106.084 990.937 104.671 992.225 103.895C993.524 103.12 995.284 102.829 997.505 103.024C999.503 103.199 1001.03 103.621 1002.08 104.292C1003.14 104.983 1003.71 106.013 1003.79 107.38L1001.83 107.208C1001.72 106.299 1001.29 105.651 1000.54 105.265C999.767 104.887 998.713 104.639 997.374 104.522C995.844 104.388 994.598 104.552 993.637 105.014C992.674 105.497 992.13 106.456 992.004 107.891L991.939 108.64C991.816 110.043 992.181 111.07 993.034 111.723C993.876 112.375 995.079 112.769 996.641 112.906C997.958 113.021 999.017 112.969 999.818 112.75C1000.61 112.53 1001.17 112.017 1001.49 111.211L1003.46 111.382C1003.07 112.633 1002.31 113.488 1001.19 113.947C1000.05 114.425 998.486 114.577 996.51 114.404C994.278 114.209 992.594 113.628 991.458 112.661C990.322 111.695 989.844 110.186 990.023 108.135ZM1006.02 103.962L1007.95 104.131L1007.13 113.566L1015.65 114.313L1015.52 115.875L1005.06 114.96L1006.02 103.962ZM1016.15 110.388C1016.33 108.316 1017.09 106.905 1018.43 106.155C1019.76 105.404 1021.63 105.135 1024.05 105.347C1026.47 105.558 1028.27 106.149 1029.46 107.12C1030.64 108.09 1031.13 109.612 1030.95 111.684C1030.77 113.735 1030.02 115.141 1028.69 115.903C1027.36 116.664 1025.48 116.939 1023.06 116.727C1020.64 116.515 1018.84 115.919 1017.66 114.938C1016.47 113.945 1015.97 112.429 1016.15 110.388ZM1028.97 111.96L1029.05 111.02C1029.16 109.734 1028.79 108.753 1027.93 108.078C1027.06 107.414 1025.73 107.003 1023.92 106.845C1022.11 106.686 1020.72 106.859 1019.77 107.364C1018.79 107.868 1018.25 108.768 1018.13 110.064L1018.05 111.005C1017.94 112.312 1018.32 113.303 1019.19 113.979C1020.05 114.654 1021.38 115.071 1023.19 115.229C1024.98 115.385 1026.36 115.206 1027.35 114.693C1028.31 114.178 1028.85 113.267 1028.97 111.96ZM1032.19 114.153L1034.16 114.326C1034.37 115.104 1034.82 115.652 1035.51 115.97C1036.19 116.297 1037.22 116.521 1038.6 116.641C1040.1 116.772 1041.2 116.714 1041.91 116.465C1042.6 116.215 1042.96 115.792 1043.02 115.197C1043.09 114.347 1042.58 113.799 1041.49 113.553C1040.53 113.341 1039.33 113.129 1037.87 112.915C1036.55 112.714 1035.35 112.401 1034.29 111.976C1033.2 111.549 1032.71 110.698 1032.83 109.422C1032.93 108.275 1033.54 107.488 1034.67 107.062C1035.79 106.635 1037.33 106.508 1039.3 106.68C1041.23 106.849 1042.68 107.238 1043.64 107.847C1044.62 108.457 1045.13 109.354 1045.19 110.536L1043.2 110.362C1043.11 109.627 1042.72 109.094 1042.02 108.765C1041.31 108.436 1040.36 108.219 1039.17 108.115C1037.76 107.991 1036.69 108.031 1035.96 108.236C1035.22 108.449 1034.82 108.89 1034.76 109.559C1034.69 110.367 1035.2 110.878 1036.31 111.092C1037.4 111.306 1038.61 111.508 1039.92 111.697C1041.25 111.899 1042.45 112.218 1043.51 112.654C1044.59 113.123 1045.07 113.989 1044.96 115.254C1044.85 116.401 1044.3 117.204 1043.28 117.661C1042.27 118.129 1040.67 118.268 1038.49 118.077C1036.36 117.89 1034.81 117.487 1033.84 116.868C1032.88 116.259 1032.33 115.354 1032.19 114.153ZM1047.72 107.61L1058.5 108.553L1058.37 110.019L1049.52 109.245L1049.24 112.465L1056.18 113.072L1056.05 114.49L1049.12 113.883L1048.82 117.31L1057.73 118.09L1057.6 119.556L1046.76 118.608L1047.72 107.61ZM1060.6 108.736L1068.85 109.459C1070.09 109.566 1071 109.941 1071.6 110.582C1072.18 111.222 1072.43 112.079 1072.34 113.152C1072.26 114.056 1071.97 114.769 1071.47 115.293C1070.96 115.816 1070.27 116.125 1069.4 116.22L1072.16 120.83L1069.92 120.634L1067.22 116.142L1061.93 115.679L1061.56 119.903L1059.63 119.734L1060.6 108.736ZM1070.38 113.173L1070.41 112.823C1070.45 112.281 1070.33 111.831 1070.03 111.473C1069.72 111.125 1069.19 110.918 1068.43 110.851L1062.4 110.324L1062.06 114.229L1068.08 114.756C1068.85 114.823 1069.41 114.706 1069.77 114.405C1070.13 114.105 1070.33 113.694 1070.38 113.173ZM1082.66 112.241L1077.31 111.772L1077.44 110.21L1090.08 111.316L1089.95 112.878L1084.59 112.409L1083.77 121.845L1081.84 121.677L1082.66 112.241ZM1089.88 116.839C1090.06 114.767 1090.82 113.356 1092.16 112.606C1093.49 111.855 1095.37 111.585 1097.79 111.797C1100.2 112.008 1102 112.6 1103.19 113.571C1104.37 114.541 1104.87 116.063 1104.69 118.135C1104.51 120.186 1103.75 121.592 1102.42 122.353C1101.09 123.115 1099.22 123.39 1096.79 123.178C1094.37 122.966 1092.57 122.369 1091.39 121.388C1090.2 120.396 1089.7 118.879 1089.88 116.839ZM1102.7 118.411L1102.79 117.47C1102.9 116.185 1102.52 115.204 1101.66 114.529C1100.8 113.865 1099.46 113.454 1097.66 113.296C1095.84 113.137 1094.45 113.31 1093.5 113.815C1092.52 114.319 1091.98 115.219 1091.87 116.515L1091.78 117.456C1091.67 118.763 1092.05 119.754 1092.92 120.43C1093.78 121.105 1095.12 121.522 1096.92 121.68C1098.71 121.836 1100.1 121.657 1101.08 121.144C1102.05 120.629 1102.59 119.718 1102.7 118.411ZM1106.65 119.061L1107.2 112.813L1109.14 112.983L1108.6 119.152C1108.49 120.48 1108.79 121.433 1109.52 122.011C1110.27 122.59 1111.33 122.94 1112.72 123.062C1114.12 123.184 1115.23 123.024 1116.06 122.583C1116.88 122.141 1117.35 121.255 1117.46 119.927L1118 113.759L1119.77 113.913L1119.23 120.162C1119.08 121.819 1118.46 123.013 1117.37 123.742C1116.26 124.469 1114.67 124.742 1112.59 124.56C1110.48 124.375 1108.92 123.827 1107.92 122.915C1106.93 122.014 1106.5 120.73 1106.65 119.061ZM1122.39 114.143L1130.65 114.865C1131.88 114.973 1132.8 115.347 1133.39 115.988C1133.98 116.629 1134.23 117.485 1134.13 118.559C1134.05 119.462 1133.77 120.176 1133.27 120.7C1132.75 121.222 1132.06 121.531 1131.2 121.627L1133.96 126.237L1131.71 126.04L1129.02 121.548L1123.73 121.086L1123.36 125.309L1121.43 125.141L1122.39 114.143ZM1132.17 118.58L1132.2 118.229C1132.25 117.687 1132.12 117.237 1131.82 116.879C1131.52 116.531 1130.99 116.324 1130.22 116.257L1124.2 115.73L1123.86 119.635L1129.88 120.162C1130.65 120.229 1131.21 120.112 1131.57 119.812C1131.92 119.511 1132.13 119.1 1132.17 118.58Z" fill="#333330"/>
<circle cx="1149.66" cy="122.592" r="3" transform="rotate(5 1149.66 122.592)" fill="#333330"/>
<path d="M1164.09 125.693L1166.07 125.866C1166.28 126.644 1166.73 127.192 1167.42 127.509C1168.09 127.836 1169.12 128.06 1170.5 128.181C1172 128.312 1173.11 128.254 1173.81 128.005C1174.5 127.754 1174.87 127.332 1174.92 126.737C1174.99 125.886 1174.48 125.339 1173.39 125.093C1172.44 124.881 1171.23 124.668 1169.77 124.455C1168.45 124.254 1167.26 123.941 1166.19 123.516C1165.1 123.089 1164.62 122.237 1164.73 120.962C1164.83 119.815 1165.44 119.028 1166.57 118.602C1167.69 118.175 1169.23 118.048 1171.2 118.22C1173.13 118.389 1174.58 118.778 1175.55 119.387C1176.52 119.997 1177.04 120.894 1177.09 122.076L1175.1 121.902C1175.02 121.166 1174.62 120.634 1173.92 120.305C1173.21 119.976 1172.26 119.759 1171.07 119.654C1169.66 119.531 1168.59 119.571 1167.87 119.775C1167.12 119.988 1166.72 120.43 1166.66 121.099C1166.59 121.907 1167.11 122.418 1168.21 122.632C1169.31 122.846 1170.51 123.047 1171.82 123.237C1173.15 123.439 1174.35 123.758 1175.41 124.194C1176.49 124.663 1176.97 125.529 1176.86 126.794C1176.76 127.941 1176.2 128.744 1175.19 129.201C1174.17 129.669 1172.57 129.808 1170.39 129.617C1168.26 129.43 1166.71 129.027 1165.75 128.407C1164.78 127.798 1164.23 126.894 1164.09 125.693ZM1179.63 119.15L1190.4 120.093L1190.27 121.559L1181.43 120.785L1181.15 124.005L1188.08 124.611L1187.95 126.03L1181.02 125.423L1180.72 128.85L1189.63 129.63L1189.5 131.096L1178.66 130.148L1179.63 119.15ZM1196.57 122.206L1191.21 121.738L1191.35 120.176L1203.99 121.282L1203.85 122.844L1198.5 122.375L1197.67 131.811L1195.74 131.642L1196.57 122.206ZM1209.69 123.354L1204.34 122.886L1204.47 121.324L1217.11 122.43L1216.98 123.992L1211.62 123.523L1210.8 132.959L1208.87 132.79L1209.69 123.354ZM1218.74 122.572L1229.52 123.515L1229.39 124.981L1220.54 124.207L1220.26 127.427L1227.19 128.034L1227.07 129.452L1220.14 128.846L1219.84 132.272L1228.75 133.052L1228.62 134.518L1217.78 133.57L1218.74 122.572ZM1231.62 123.698L1239.87 124.421C1241.1 124.529 1242.02 124.903 1242.62 125.544C1243.2 126.184 1243.45 127.041 1243.36 128.114C1243.28 129.018 1242.99 129.731 1242.49 130.255C1241.98 130.778 1241.29 131.087 1240.42 131.182L1243.18 135.792L1240.93 135.596L1238.24 131.104L1232.95 130.641L1232.58 134.865L1230.65 134.696L1231.62 123.698ZM1241.39 128.136L1241.42 127.785C1241.47 127.243 1241.35 126.793 1241.04 126.435C1240.74 126.087 1240.21 125.88 1239.44 125.813L1233.42 125.286L1233.08 129.191L1239.1 129.718C1239.87 129.785 1240.43 129.668 1240.79 129.367C1241.15 129.067 1241.35 128.656 1241.39 128.136ZM1249.03 130.795C1249.21 128.745 1249.95 127.331 1251.24 126.555C1252.53 125.78 1254.29 125.49 1256.52 125.684C1258.51 125.859 1260.04 126.282 1261.09 126.952C1262.15 127.644 1262.72 128.673 1262.8 130.04L1260.84 129.869C1260.73 128.96 1260.3 128.312 1259.55 127.925C1258.78 127.547 1257.72 127.3 1256.38 127.182C1254.85 127.049 1253.61 127.213 1252.65 127.675C1251.68 128.158 1251.14 129.117 1251.01 130.551L1250.95 131.3C1250.83 132.703 1251.19 133.731 1252.04 134.384C1252.89 135.035 1254.09 135.43 1255.65 135.566C1256.97 135.682 1258.03 135.63 1258.83 135.411C1259.62 135.191 1260.18 134.678 1260.51 133.871L1262.47 134.043C1262.08 135.293 1261.32 136.148 1260.2 136.607C1259.06 137.085 1257.5 137.238 1255.52 137.065C1253.29 136.869 1251.6 136.288 1250.47 135.322C1249.33 134.355 1248.85 132.846 1249.03 130.795ZM1265.03 126.622L1266.96 126.791L1266.14 136.227L1274.67 136.973L1274.53 138.535L1264.07 137.62L1265.03 126.622ZM1275.16 133.049C1275.34 130.977 1276.1 129.566 1277.44 128.815C1278.77 128.064 1280.64 127.795 1283.06 128.007C1285.48 128.218 1287.28 128.809 1288.47 129.78C1289.65 130.751 1290.14 132.272 1289.96 134.344C1289.78 136.395 1289.03 137.801 1287.7 138.563C1286.37 139.325 1284.49 139.599 1282.07 139.387C1279.65 139.175 1277.85 138.579 1276.67 137.598C1275.48 136.605 1274.98 135.089 1275.16 133.049ZM1287.98 134.62L1288.06 133.68C1288.17 132.394 1287.8 131.414 1286.94 130.739C1286.07 130.074 1284.74 129.663 1282.93 129.505C1281.12 129.346 1279.73 129.519 1278.78 130.025C1277.8 130.528 1277.26 131.428 1277.14 132.725L1277.06 133.665C1276.95 134.972 1277.33 135.964 1278.2 136.64C1279.06 137.315 1280.39 137.731 1282.2 137.889C1283.99 138.045 1285.37 137.867 1286.36 137.354C1287.32 136.838 1287.86 135.927 1287.98 134.62ZM1291.2 136.813L1293.17 136.986C1293.38 137.765 1293.83 138.313 1294.52 138.63C1295.2 138.957 1296.23 139.181 1297.61 139.302C1299.11 139.433 1300.21 139.374 1300.92 139.125C1301.61 138.875 1301.98 138.452 1302.03 137.857C1302.1 137.007 1301.59 136.459 1300.5 136.214C1299.54 136.002 1298.34 135.789 1296.88 135.576C1295.56 135.374 1294.36 135.061 1293.3 134.636C1292.21 134.209 1291.72 133.358 1291.84 132.083C1291.94 130.935 1292.55 130.148 1293.68 129.723C1294.8 129.296 1296.34 129.168 1298.31 129.34C1300.24 129.51 1301.69 129.899 1302.65 130.508C1303.63 131.118 1304.14 132.014 1304.2 133.197L1302.21 133.023C1302.12 132.287 1301.73 131.755 1301.03 131.426C1300.32 131.096 1299.37 130.879 1298.18 130.775C1296.77 130.651 1295.7 130.692 1294.98 130.896C1294.23 131.109 1293.83 131.55 1293.77 132.22C1293.7 133.027 1294.21 133.538 1295.32 133.753C1296.41 133.966 1297.62 134.168 1298.93 134.358C1300.26 134.56 1301.46 134.879 1302.52 135.315C1303.6 135.783 1304.08 136.65 1303.97 137.914C1303.87 139.062 1303.31 139.864 1302.29 140.322C1301.28 140.79 1299.68 140.928 1297.5 140.738C1295.37 140.551 1293.82 140.148 1292.85 139.528C1291.89 138.919 1291.34 138.014 1291.2 136.813ZM1306.73 130.27L1317.51 131.213L1317.38 132.68L1308.53 131.906L1308.25 135.125L1315.19 135.732L1315.06 137.15L1308.13 136.544L1307.83 139.971L1316.74 140.75L1316.61 142.217L1305.77 141.268L1306.73 130.27ZM1319.61 131.397L1327.86 132.119C1329.1 132.227 1330.01 132.601 1330.61 133.243C1331.19 133.883 1331.44 134.739 1331.35 135.813C1331.27 136.716 1330.98 137.43 1330.49 137.954C1329.97 138.476 1329.28 138.785 1328.41 138.881L1331.17 143.491L1328.93 143.294L1326.24 138.803L1320.94 138.34L1320.57 142.563L1318.65 142.395L1319.61 131.397ZM1329.39 135.834L1329.42 135.483C1329.46 134.941 1329.34 134.491 1329.04 134.133C1328.74 133.785 1328.2 133.578 1327.44 133.511L1321.41 132.984L1321.07 136.889L1327.1 137.416C1327.86 137.483 1328.42 137.366 1328.78 137.066C1329.14 136.765 1329.34 136.355 1329.39 135.834ZM1341.67 134.901L1336.32 134.433L1336.45 132.871L1349.09 133.976L1348.96 135.538L1343.6 135.07L1342.78 144.506L1340.85 144.337L1341.67 134.901ZM1348.89 139.5C1349.07 137.428 1349.83 136.016 1351.17 135.266C1352.5 134.515 1354.38 134.246 1356.8 134.458C1359.21 134.669 1361.01 135.26 1362.2 136.231C1363.38 137.202 1363.88 138.723 1363.7 140.795C1363.52 142.846 1362.76 144.252 1361.43 145.014C1360.1 145.775 1358.23 146.05 1355.8 145.838C1353.38 145.626 1351.58 145.03 1350.4 144.049C1349.22 143.056 1348.71 141.54 1348.89 139.5ZM1361.71 141.071L1361.8 140.131C1361.91 138.845 1361.53 137.865 1360.67 137.19C1359.81 136.525 1358.47 136.114 1356.67 135.956C1354.85 135.797 1353.46 135.97 1352.51 136.476C1351.53 136.979 1350.99 137.879 1350.88 139.176L1350.79 140.116C1350.68 141.423 1351.06 142.415 1351.93 143.09C1352.79 143.765 1354.13 144.182 1355.93 144.34C1357.72 144.496 1359.11 144.318 1360.09 143.804C1361.06 143.289 1361.6 142.378 1361.71 141.071ZM1365.66 141.722L1366.21 135.474L1368.15 135.644L1367.61 141.812C1367.5 143.14 1367.8 144.094 1368.53 144.671C1369.28 145.25 1370.34 145.601 1371.73 145.722C1373.13 145.844 1374.24 145.684 1375.07 145.243C1375.89 144.801 1376.36 143.916 1376.47 142.588L1377.01 136.419L1378.78 136.574L1378.24 142.822C1378.09 144.48 1377.47 145.673 1376.38 146.402C1375.27 147.129 1373.68 147.402 1371.6 147.221C1369.49 147.036 1367.93 146.487 1366.93 145.575C1365.94 144.674 1365.51 143.39 1365.66 141.722ZM1381.4 136.803L1389.66 137.525C1390.89 137.633 1391.81 138.008 1392.4 138.649C1392.99 139.289 1393.24 140.146 1393.14 141.219C1393.06 142.122 1392.78 142.836 1392.28 143.36C1391.76 143.882 1391.07 144.191 1390.21 144.287L1392.97 148.897L1390.72 148.701L1388.03 144.209L1382.74 143.746L1382.37 147.97L1380.44 147.801L1381.4 136.803ZM1391.18 141.24L1391.21 140.89C1391.26 140.348 1391.13 139.898 1390.83 139.539C1390.53 139.192 1390 138.984 1389.23 138.918L1383.21 138.39L1382.87 142.295L1388.89 142.823C1389.66 142.89 1390.22 142.773 1390.58 142.472C1390.93 142.172 1391.14 141.761 1391.18 141.24Z" fill="#333330"/>
<circle cx="1408.67" cy="145.252" r="3" transform="rotate(5 1408.67 145.252)" fill="#333330"/>
<path d="M1423.1 148.353L1425.08 148.526C1425.29 149.305 1425.74 149.853 1426.43 150.17C1427.1 150.497 1428.13 150.721 1429.52 150.842C1431.01 150.973 1432.12 150.914 1432.82 150.665C1433.51 150.415 1433.88 149.992 1433.93 149.397C1434 148.547 1433.5 147.999 1432.4 147.754C1431.45 147.542 1430.24 147.329 1428.78 147.116C1427.46 146.914 1426.27 146.601 1425.2 146.176C1424.11 145.749 1423.63 144.898 1423.74 143.623C1423.84 142.475 1424.45 141.688 1425.58 141.263C1426.7 140.836 1428.24 140.708 1430.21 140.88C1432.14 141.05 1433.59 141.439 1434.56 142.048C1435.53 142.658 1436.05 143.554 1436.1 144.737L1434.11 144.562C1434.03 143.827 1433.63 143.295 1432.93 142.966C1432.22 142.636 1431.27 142.419 1430.08 142.315C1428.67 142.191 1427.6 142.232 1426.88 142.436C1426.13 142.649 1425.73 143.09 1425.67 143.76C1425.6 144.567 1426.12 145.078 1427.22 145.293C1428.32 145.506 1429.52 145.708 1430.83 145.898C1432.16 146.1 1433.36 146.419 1434.43 146.854C1435.5 147.323 1435.98 148.19 1435.87 149.454C1435.77 150.602 1435.21 151.404 1434.2 151.862C1433.18 152.329 1431.58 152.468 1429.41 152.278C1427.27 152.091 1425.72 151.687 1424.76 151.068C1423.79 150.459 1423.24 149.554 1423.1 148.353ZM1438.64 141.81L1449.41 142.753L1449.28 144.219L1440.44 143.445L1440.16 146.665L1447.09 147.272L1446.97 148.69L1440.03 148.084L1439.73 151.511L1448.64 152.29L1448.51 153.757L1437.67 152.808L1438.64 141.81ZM1455.58 144.867L1450.23 144.398L1450.36 142.836L1463 143.942L1462.87 145.504L1457.51 145.035L1456.68 154.471L1454.76 154.303L1455.58 144.867ZM1468.7 146.015L1463.35 145.546L1463.48 143.984L1476.12 145.09L1475.99 146.652L1470.63 146.183L1469.81 155.619L1467.88 155.451L1468.7 146.015ZM1477.75 145.233L1488.53 146.175L1488.4 147.642L1479.55 146.868L1479.27 150.087L1486.21 150.694L1486.08 152.113L1479.15 151.506L1478.85 154.933L1487.76 155.712L1487.63 157.179L1476.79 156.231L1477.75 145.233ZM1490.63 146.359L1498.88 147.081C1500.12 147.189 1501.03 147.563 1501.63 148.205C1502.21 148.845 1502.46 149.702 1502.37 150.775C1502.29 151.678 1502 152.392 1501.5 152.916C1500.99 153.438 1500.3 153.747 1499.43 153.843L1502.19 158.453L1499.94 158.256L1497.25 153.765L1491.96 153.302L1491.59 157.526L1489.66 157.357L1490.63 146.359ZM1500.4 150.796L1500.44 150.445C1500.48 149.903 1500.36 149.453 1500.06 149.095C1499.75 148.747 1499.22 148.54 1498.46 148.473L1492.43 147.946L1492.09 151.851L1498.11 152.378C1498.88 152.445 1499.44 152.328 1499.8 152.028C1500.16 151.727 1500.36 151.317 1500.4 150.796ZM1508.04 153.456C1508.22 151.405 1508.96 149.992 1510.25 149.216C1511.55 148.441 1513.31 148.15 1515.53 148.345C1517.52 148.519 1519.05 148.942 1520.11 149.612C1521.16 150.304 1521.73 151.334 1521.81 152.701L1519.85 152.529C1519.74 151.62 1519.31 150.972 1518.56 150.585C1517.79 150.207 1516.73 149.96 1515.4 149.843C1513.86 149.709 1512.62 149.873 1511.66 150.335C1510.69 150.818 1510.15 151.777 1510.03 153.212L1509.96 153.961C1509.84 155.363 1510.2 156.391 1511.05 157.044C1511.9 157.696 1513.1 158.09 1514.66 158.227C1515.98 158.342 1517.04 158.29 1517.84 158.071C1518.63 157.851 1519.19 157.338 1519.52 156.531L1521.48 156.703C1521.09 157.954 1520.33 158.809 1519.21 159.267C1518.07 159.745 1516.51 159.898 1514.53 159.725C1512.3 159.53 1510.62 158.949 1509.48 157.982C1508.34 157.015 1507.86 155.507 1508.04 153.456ZM1524.05 149.283L1525.97 149.451L1525.15 158.887L1533.68 159.633L1533.54 161.195L1523.08 160.281L1524.05 149.283ZM1534.17 155.709C1534.35 153.637 1535.11 152.226 1536.45 151.476C1537.78 150.725 1539.65 150.455 1542.08 150.667C1544.49 150.878 1546.29 151.47 1547.48 152.441C1548.66 153.411 1549.15 154.933 1548.97 157.005C1548.79 159.055 1548.04 160.462 1546.71 161.223C1545.38 161.985 1543.5 162.26 1541.08 162.048C1538.66 161.836 1536.86 161.239 1535.68 160.258C1534.49 159.266 1533.99 157.749 1534.17 155.709ZM1546.99 157.281L1547.07 156.34C1547.18 155.055 1546.81 154.074 1545.95 153.399C1545.09 152.735 1543.75 152.324 1541.94 152.166C1540.13 152.007 1538.74 152.18 1537.79 152.685C1536.81 153.189 1536.27 154.089 1536.15 155.385L1536.07 156.326C1535.96 157.633 1536.34 158.624 1537.21 159.3C1538.07 159.975 1539.4 160.392 1541.21 160.55C1543 160.706 1544.38 160.527 1545.37 160.014C1546.34 159.499 1546.88 158.588 1546.99 157.281ZM1550.21 159.474L1552.18 159.646C1552.39 160.425 1552.84 160.973 1553.53 161.29C1554.21 161.617 1555.24 161.841 1556.62 161.962C1558.12 162.093 1559.22 162.034 1559.93 161.786C1560.62 161.535 1560.99 161.113 1561.04 160.517C1561.11 159.667 1560.6 159.12 1559.51 158.874C1558.56 158.662 1557.35 158.449 1555.89 158.236C1554.57 158.035 1553.38 157.722 1552.31 157.296C1551.22 156.869 1550.73 156.018 1550.85 154.743C1550.95 153.596 1551.56 152.809 1552.69 152.383C1553.81 151.956 1555.35 151.829 1557.32 152.001C1559.25 152.17 1560.7 152.559 1561.66 153.168C1562.64 153.778 1563.16 154.674 1563.21 155.857L1561.22 155.683C1561.13 154.947 1560.74 154.415 1560.04 154.086C1559.33 153.756 1558.38 153.539 1557.19 153.435C1555.78 153.312 1554.71 153.352 1553.99 153.556C1553.24 153.769 1552.84 154.211 1552.78 154.88C1552.71 155.688 1553.22 156.199 1554.33 156.413C1555.43 156.627 1556.63 156.828 1557.94 157.018C1559.27 157.22 1560.47 157.539 1561.53 157.975C1562.61 158.444 1563.09 159.31 1562.98 160.575C1562.88 161.722 1562.32 162.525 1561.3 162.982C1560.29 163.45 1558.69 163.589 1556.51 163.398C1554.38 163.211 1552.83 162.808 1551.87 162.188C1550.9 161.579 1550.35 160.674 1550.21 159.474ZM1565.75 152.931L1576.52 153.874L1576.39 155.34L1567.55 154.566L1567.26 157.786L1574.2 158.392L1574.07 159.811L1567.14 159.204L1566.84 162.631L1575.75 163.411L1575.62 164.877L1564.78 163.929L1565.75 152.931ZM1578.62 154.057L1586.87 154.779C1588.11 154.887 1589.02 155.262 1589.62 155.903C1590.21 156.543 1590.45 157.4 1590.36 158.473C1590.28 159.376 1589.99 160.09 1589.5 160.614C1588.98 161.136 1588.29 161.445 1587.42 161.541L1590.18 166.151L1587.94 165.955L1585.25 161.463L1579.95 161L1579.58 165.224L1577.66 165.055L1578.62 154.057ZM1588.4 158.494L1588.43 158.144C1588.47 157.602 1588.35 157.152 1588.05 156.793C1587.75 156.446 1587.21 156.238 1586.45 156.172L1580.42 155.644L1580.08 159.549L1586.11 160.077C1586.87 160.144 1587.43 160.027 1587.79 159.726C1588.15 159.426 1588.35 159.015 1588.4 158.494ZM1600.68 157.562L1595.33 157.093L1595.46 155.531L1608.1 156.637L1607.97 158.199L1602.61 157.73L1601.79 167.166L1599.86 166.997L1600.68 157.562ZM1607.9 162.16C1608.08 160.088 1608.84 158.677 1610.18 157.927C1611.51 157.176 1613.39 156.906 1615.81 157.118C1618.22 157.329 1620.02 157.92 1621.21 158.892C1622.39 159.862 1622.89 161.383 1622.71 163.455C1622.53 165.506 1621.77 166.913 1620.44 167.674C1619.11 168.436 1617.24 168.711 1614.81 168.499C1612.39 168.287 1610.59 167.69 1609.41 166.709C1608.23 165.717 1607.72 164.2 1607.9 162.16ZM1620.72 163.732L1620.81 162.791C1620.92 161.506 1620.54 160.525 1619.68 159.85C1618.82 159.186 1617.48 158.775 1615.68 158.616C1613.86 158.457 1612.48 158.631 1611.52 159.136C1610.55 159.64 1610 160.54 1609.89 161.836L1609.81 162.776C1609.69 164.083 1610.07 165.075 1610.94 165.751C1611.8 166.426 1613.14 166.842 1614.94 167C1616.73 167.157 1618.12 166.978 1619.1 166.465C1620.07 165.95 1620.61 165.039 1620.72 163.732ZM1624.67 164.382L1625.22 158.134L1627.16 158.304L1626.62 164.473C1626.51 165.801 1626.81 166.754 1627.54 167.332C1628.29 167.911 1629.35 168.261 1630.75 168.383C1632.14 168.505 1633.25 168.345 1634.08 167.904C1634.9 167.461 1635.37 166.576 1635.48 165.248L1636.02 159.079L1637.79 159.234L1637.25 165.482C1637.1 167.14 1636.48 168.333 1635.39 169.062C1634.28 169.789 1632.69 170.062 1630.61 169.881C1628.5 169.696 1626.94 169.148 1625.94 168.235C1624.95 167.335 1624.52 166.05 1624.67 164.382ZM1640.41 159.463L1648.67 160.186C1649.9 160.294 1650.82 160.668 1651.41 161.309C1652 161.95 1652.25 162.806 1652.15 163.879C1652.07 164.783 1651.79 165.496 1651.29 166.02C1650.77 166.543 1650.08 166.852 1649.22 166.947L1651.98 171.558L1649.73 171.361L1647.04 166.869L1641.75 166.406L1641.38 170.63L1639.45 170.461L1640.41 159.463ZM1650.19 163.901L1650.22 163.55C1650.27 163.008 1650.14 162.558 1649.84 162.2C1649.54 161.852 1649.01 161.645 1648.24 161.578L1642.22 161.051L1641.88 164.956L1647.9 165.483C1648.67 165.55 1649.23 165.433 1649.59 165.133C1649.94 164.832 1650.15 164.421 1650.19 163.901Z" fill="#333330"/>
</svg>
