<svg width="1600" height="157" viewBox="0 0 1600 157" fill="none" xmlns="http://www.w3.org/2000/svg">
<rect x="-6.54785" y="115.35" width="1643.6" height="40" transform="rotate(-4 -6.54785 115.35)" fill="#BE984F"/>
<rect x="-7.97168" y="117.45" width="1616.85" height="3.55707" transform="rotate(-4 -7.97168 117.45)" fill="#333330"/>
<rect x="-4.68555" y="150.22" width="1618.12" height="3.55707" transform="rotate(-4 -4.68555 150.22)" fill="#333330"/>
<circle cx="4.94122" cy="134.596" r="3" transform="rotate(-4 4.94122 134.596)" fill="#333330"/>
<path d="M19.6739 135.402L21.6531 135.264C21.9826 136 22.5127 136.471 23.2435 136.676C23.9644 136.893 25.0164 136.953 26.3997 136.856C27.9001 136.752 28.98 136.521 29.6394 136.165C30.2775 135.81 30.5758 135.335 30.5341 134.739C30.4746 133.888 29.8863 133.426 28.7692 133.355C27.792 133.295 26.5662 133.273 25.0918 133.291C23.7558 133.299 22.5282 133.176 21.4092 132.923C20.2689 132.671 19.654 131.907 19.5648 130.63C19.4844 129.481 19.9687 128.608 21.0175 128.01C22.0558 127.414 23.5592 127.047 25.5277 126.909C27.4643 126.774 28.9563 126.931 30.0036 127.382C31.0616 127.832 31.7113 128.637 31.9527 129.796L29.9576 129.935C29.758 129.222 29.2872 128.758 28.545 128.543C27.7922 128.328 26.8199 128.262 25.6282 128.346C24.213 128.445 23.1635 128.652 22.4798 128.967C21.7756 129.294 21.4469 129.793 21.4938 130.463C21.5504 131.272 22.1414 131.696 23.2668 131.735C24.3816 131.774 25.6014 131.785 26.926 131.767C28.2727 131.759 29.5059 131.886 30.6257 132.15C31.7584 132.445 32.369 133.226 32.4576 134.492C32.5379 135.641 32.1129 136.521 31.1826 137.131C30.253 137.753 28.6975 138.139 26.5161 138.292C24.3774 138.441 22.7839 138.285 21.7359 137.824C20.6885 137.373 20.0012 136.566 19.6739 135.402ZM33.7912 132.057C33.6461 129.982 34.1766 128.47 35.3825 127.519C36.5779 126.569 38.3886 126.01 40.8146 125.84C43.2301 125.671 45.101 125.973 46.4276 126.747C47.7434 127.521 48.4739 128.945 48.619 131.02C48.7626 133.074 48.2371 134.581 47.0425 135.541C45.8479 136.502 44.0376 137.067 41.6115 137.236C39.1855 137.406 37.3141 137.098 35.9975 136.314C34.6695 135.519 33.9341 134.1 33.7912 132.057ZM46.703 131.603L46.6372 130.662C46.5471 129.374 46.0237 128.464 45.067 127.933C44.1109 127.411 42.7285 127.214 40.9195 127.34C39.1 127.468 37.7584 127.856 36.8949 128.504C36.0101 129.154 35.6131 130.128 35.7039 131.426L35.7697 132.368C35.8612 133.677 36.3907 134.597 37.3581 135.128C38.3149 135.66 39.6977 135.862 41.5066 135.736C43.2943 135.611 44.6354 135.218 45.5301 134.556C46.4036 133.897 46.7945 132.912 46.703 131.603ZM50.7032 131.628L50.2657 125.372L52.213 125.235L52.6449 131.412C52.7379 132.743 53.1907 133.636 54.0031 134.092C54.8263 134.548 55.9348 134.727 57.3287 134.63C58.7227 134.532 59.7955 134.2 60.5472 133.635C61.2882 133.07 61.6122 132.122 61.5192 130.792L61.0873 124.615L62.859 124.491L63.2965 130.748C63.4126 132.408 62.9885 133.683 62.0243 134.574C61.0388 135.466 59.5086 135.985 57.4336 136.13C55.3162 136.278 53.6914 135.98 52.5594 135.236C51.4388 134.501 50.8201 133.299 50.7032 131.628ZM69.8054 125.577L64.4425 125.952L64.3331 124.388L76.9902 123.503L77.0996 125.067L71.7367 125.442L72.3974 134.891L70.4661 135.026L69.8054 125.577ZM78.6221 123.389L80.5534 123.254L80.867 127.739L89.2785 127.151L88.9649 122.666L90.9121 122.529L91.6822 133.543L89.735 133.679L89.3879 128.715L80.9764 129.303L81.3235 134.267L79.3922 134.402L78.6221 123.389ZM101.78 121.769L104.35 121.59L110.978 132.193L108.935 132.336L107.108 129.384L99.9899 129.882L98.5761 133.06L96.6927 133.192L101.78 121.769ZM100.641 128.409L106.259 128.016L103.078 122.898L100.641 128.409ZM111.62 121.081L122.33 120.332L122.439 121.897L113.66 122.511L113.891 125.814L121.345 125.293L121.451 126.81L113.997 127.331L114.321 131.959L112.39 132.094L111.62 121.081ZM124.058 120.212L132.326 119.633C133.56 119.547 134.522 119.774 135.212 120.314C135.892 120.854 136.269 121.662 136.344 122.737C136.407 123.641 136.235 124.391 135.828 124.986C135.399 125.583 134.765 125.996 133.926 126.226L137.374 130.347L135.123 130.505L131.763 126.489L126.464 126.86L126.759 131.09L124.828 131.225L124.058 120.212ZM134.41 123.064L134.386 122.713C134.348 122.171 134.152 121.746 133.799 121.439C133.447 121.143 132.888 121.022 132.122 121.075L126.089 121.497L126.362 125.408L132.395 124.986C133.161 124.932 133.698 124.729 134.005 124.376C134.312 124.023 134.447 123.586 134.41 123.064ZM138.476 119.203L140.407 119.068L141.177 130.081L139.246 130.217L138.476 119.203ZM142.98 124.454C142.836 122.4 143.34 120.89 144.491 119.922C145.653 118.953 147.346 118.391 149.57 118.235C151.571 118.095 153.144 118.274 154.291 118.771C155.439 119.29 156.162 120.218 156.459 121.555L154.495 121.692C154.241 120.812 153.715 120.239 152.916 119.974C152.096 119.721 151.016 119.642 149.675 119.735C148.143 119.843 146.938 120.2 146.061 120.806C145.185 121.434 144.798 122.466 144.898 123.903L144.951 124.653C145.049 126.058 145.57 127.016 146.515 127.527C147.449 128.039 148.698 128.24 150.262 128.131C151.582 128.039 152.62 127.822 153.376 127.48C154.122 127.139 154.594 126.545 154.791 125.697L156.755 125.56C156.567 126.856 155.956 127.818 154.92 128.447C153.864 129.098 152.346 129.493 150.367 129.631C148.133 129.788 146.379 129.477 145.105 128.7C143.832 127.923 143.124 126.508 142.98 124.454ZM162.336 117.535L164.905 117.355L171.533 127.959L169.49 128.102L167.664 125.15L160.545 125.648L159.131 128.826L157.248 128.958L162.336 117.535ZM161.196 124.175L166.814 123.782L163.633 118.663L161.196 124.175Z" fill="#333330"/>
<circle cx="185.501" cy="121.97" r="3" transform="rotate(-4 185.501 121.97)" fill="#333330"/>
<path d="M200.232 122.776L202.212 122.638C202.541 123.374 203.071 123.845 203.802 124.05C204.523 124.267 205.575 124.327 206.958 124.23C208.459 124.126 209.539 123.895 210.198 123.539C210.836 123.184 211.134 122.709 211.093 122.113C211.033 121.262 210.445 120.8 209.328 120.729C208.351 120.669 207.125 120.647 205.65 120.665C204.314 120.673 203.087 120.55 201.968 120.297C200.827 120.045 200.213 119.281 200.123 118.004C200.043 116.855 200.527 115.982 201.576 115.384C202.614 114.788 204.118 114.421 206.086 114.283C208.023 114.148 209.515 114.305 210.562 114.756C211.62 115.206 212.27 116.011 212.511 117.17L210.516 117.309C210.317 116.596 209.846 116.132 209.104 115.917C208.351 115.702 207.379 115.636 206.187 115.72C204.772 115.819 203.722 116.026 203.038 116.341C202.334 116.668 202.006 117.167 202.052 117.837C202.109 118.646 202.7 119.07 203.825 119.109C204.94 119.148 206.16 119.159 207.485 119.141C208.831 119.133 210.065 119.26 211.184 119.524C212.317 119.819 212.928 120.6 213.016 121.866C213.097 123.015 212.672 123.895 211.741 124.506C210.812 125.127 209.256 125.513 207.075 125.666C204.936 125.815 203.343 125.66 202.294 125.198C201.247 124.747 200.56 123.94 200.232 122.776ZM214.35 119.431C214.205 117.356 214.735 115.844 215.941 114.893C217.136 113.943 218.947 113.384 221.373 113.214C223.789 113.045 225.66 113.347 226.986 114.121C228.302 114.895 229.032 116.319 229.178 118.394C229.321 120.448 228.796 121.955 227.601 122.915C226.407 123.876 224.596 124.441 222.17 124.61C219.744 124.78 217.873 124.472 216.556 123.688C215.228 122.893 214.493 121.474 214.35 119.431ZM227.262 118.977L227.196 118.036C227.106 116.748 226.582 115.838 225.626 115.307C224.67 114.785 223.287 114.588 221.478 114.714C219.659 114.842 218.317 115.23 217.454 115.878C216.569 116.528 216.172 117.502 216.262 118.8L216.328 119.742C216.42 121.051 216.949 121.971 217.917 122.502C218.873 123.034 220.256 123.236 222.065 123.11C223.853 122.985 225.194 122.592 226.089 121.93C226.962 121.271 227.353 120.286 227.262 118.977ZM231.262 119.002L230.824 112.746L232.772 112.61L233.204 118.786C233.297 120.117 233.749 121.01 234.562 121.466C235.385 121.922 236.493 122.101 237.887 122.004C239.281 121.906 240.354 121.574 241.106 121.009C241.847 120.444 242.171 119.496 242.078 118.166L241.646 111.989L243.418 111.865L243.855 118.122C243.971 119.782 243.547 121.057 242.583 121.948C241.597 122.84 240.067 123.359 237.992 123.504C235.875 123.652 234.25 123.354 233.118 122.61C231.997 121.875 231.379 120.673 231.262 119.002ZM250.364 112.951L245.001 113.326L244.892 111.762L257.549 110.877L257.658 112.441L252.295 112.816L252.956 122.265L251.025 122.4L250.364 112.951ZM259.181 110.763L261.112 110.628L261.426 115.113L269.837 114.525L269.523 110.04L271.471 109.903L272.241 120.917L270.294 121.053L269.946 116.089L261.535 116.677L261.882 121.641L259.951 121.776L259.181 110.763ZM282.339 109.143L284.909 108.964L291.536 119.567L289.493 119.71L287.667 116.758L280.548 117.256L279.135 120.434L277.251 120.566L282.339 109.143ZM281.199 115.783L286.818 115.39L283.637 110.272L281.199 115.783ZM292.178 108.455L302.888 107.706L302.997 109.271L294.219 109.885L294.45 113.188L301.904 112.667L302.01 114.184L294.556 114.705L294.88 119.333L292.948 119.469L292.178 108.455ZM304.617 107.586L312.884 107.007C314.119 106.921 315.081 107.148 315.771 107.688C316.45 108.228 316.828 109.036 316.903 110.111C316.966 111.015 316.794 111.765 316.386 112.36C315.958 112.957 315.324 113.37 314.484 113.6L317.932 117.721L315.682 117.879L312.321 113.863L307.022 114.234L307.318 118.464L305.387 118.599L304.617 107.586ZM314.969 110.438L314.944 110.087C314.906 109.545 314.711 109.12 314.358 108.813C314.006 108.517 313.447 108.396 312.681 108.449L306.647 108.871L306.921 112.782L312.954 112.36C313.72 112.306 314.257 112.103 314.563 111.75C314.87 111.397 315.005 110.96 314.969 110.438ZM319.035 106.577L320.966 106.442L321.736 117.455L319.805 117.591L319.035 106.577ZM323.539 111.828C323.395 109.774 323.899 108.264 325.05 107.296C326.212 106.327 327.905 105.765 330.129 105.609C332.129 105.469 333.703 105.648 334.85 106.145C335.998 106.664 336.72 107.592 337.017 108.929L335.054 109.066C334.8 108.186 334.273 107.613 333.474 107.348C332.655 107.095 331.574 107.016 330.234 107.11C328.701 107.217 327.497 107.574 326.62 108.18C325.744 108.808 325.356 109.84 325.457 111.277L325.509 112.027C325.607 113.432 326.129 114.39 327.074 114.901C328.008 115.413 329.257 115.614 330.821 115.505C332.14 115.413 333.178 115.196 333.935 114.854C334.681 114.513 335.153 113.919 335.35 113.071L337.313 112.934C337.126 114.23 336.514 115.192 335.478 115.821C334.422 116.472 332.905 116.867 330.926 117.005C328.691 117.162 326.937 116.851 325.664 116.074C324.391 115.297 323.682 113.882 323.539 111.828ZM342.894 104.909L345.464 104.729L352.092 115.333L350.049 115.476L348.222 112.524L341.104 113.022L339.69 116.2L337.807 116.332L342.894 104.909ZM341.755 111.549L347.373 111.156L344.192 106.037L341.755 111.549Z" fill="#333330"/>
<circle cx="366.059" cy="109.344" r="3" transform="rotate(-4 366.059 109.344)" fill="#333330"/>
<path d="M380.792 110.15L382.771 110.012C383.101 110.748 383.631 111.219 384.362 111.424C385.083 111.641 386.135 111.701 387.518 111.604C389.018 111.5 390.098 111.269 390.758 110.913C391.396 110.558 391.694 110.083 391.652 109.487C391.593 108.636 391.004 108.174 389.887 108.103C388.91 108.043 387.684 108.021 386.21 108.039C384.874 108.047 383.646 107.924 382.527 107.671C381.387 107.419 380.772 106.655 380.683 105.378C380.603 104.229 381.087 103.356 382.136 102.758C383.174 102.162 384.677 101.795 386.646 101.657C388.582 101.522 390.074 101.679 391.122 102.13C392.18 102.58 392.829 103.385 393.071 104.544L391.076 104.683C390.876 103.97 390.405 103.506 389.663 103.291C388.91 103.076 387.938 103.01 386.746 103.094C385.331 103.193 384.282 103.4 383.598 103.715C382.894 104.042 382.565 104.541 382.612 105.211C382.669 106.02 383.26 106.444 384.385 106.483C385.5 106.522 386.72 106.533 388.044 106.515C389.391 106.507 390.624 106.634 391.744 106.898C392.877 107.193 393.487 107.974 393.576 109.24C393.656 110.389 393.231 111.269 392.301 111.88C391.371 112.501 389.816 112.887 387.634 113.04C385.496 113.189 383.902 113.034 382.854 112.572C381.807 112.121 381.119 111.314 380.792 110.15ZM394.909 106.805C394.764 104.73 395.295 103.218 396.501 102.267C397.696 101.317 399.507 100.758 401.933 100.588C404.348 100.419 406.219 100.721 407.546 101.495C408.862 102.269 409.592 103.693 409.737 105.768C409.881 107.822 409.355 109.329 408.161 110.289C406.966 111.25 405.156 111.815 402.73 111.984C400.304 112.154 398.432 111.846 397.116 111.062C395.788 110.267 395.052 108.848 394.909 106.805ZM407.821 106.351L407.755 105.41C407.665 104.122 407.142 103.212 406.185 102.681C405.229 102.159 403.847 101.962 402.038 102.088C400.218 102.216 398.877 102.604 398.013 103.252C397.128 103.902 396.731 104.876 396.822 106.174L396.888 107.116C396.979 108.425 397.509 109.345 398.476 109.876C399.433 110.408 400.816 110.61 402.625 110.484C404.412 110.359 405.754 109.966 406.648 109.304C407.522 108.645 407.913 107.66 407.821 106.351ZM411.821 106.376L411.384 100.12L413.331 99.9835L413.763 106.16C413.856 107.491 414.309 108.384 415.121 108.84C415.944 109.296 417.053 109.475 418.447 109.378C419.841 109.28 420.914 108.948 421.665 108.383C422.406 107.818 422.73 106.87 422.637 105.54L422.205 99.363L423.977 99.2391L424.415 105.496C424.531 107.156 424.107 108.431 423.142 109.322C422.157 110.214 420.627 110.733 418.552 110.878C416.434 111.026 414.81 110.728 413.678 109.984C412.557 109.249 411.938 108.047 411.821 106.376ZM430.924 100.325L425.561 100.7L425.451 99.136L438.108 98.251L438.218 99.8151L432.855 100.19L433.516 109.639L431.584 109.774L430.924 100.325ZM439.74 98.1368L441.672 98.0018L441.985 102.487L450.397 101.899L450.083 97.4136L452.03 97.2774L452.8 108.291L450.853 108.427L450.506 103.463L442.095 104.051L442.442 109.015L440.51 109.15L439.74 98.1368ZM462.898 96.5175L465.468 96.3378L472.096 106.941L470.053 107.084L468.227 104.132L461.108 104.63L459.694 107.808L457.811 107.94L462.898 96.5175ZM461.759 103.157L467.377 102.764L464.196 97.6457L461.759 103.157ZM472.738 95.8294L483.448 95.0805L483.557 96.6447L474.778 97.2586L475.01 100.562L482.463 100.041L482.569 101.558L475.116 102.079L475.439 106.707L473.508 106.843L472.738 95.8294ZM485.176 94.9597L493.444 94.3815C494.678 94.2952 495.64 94.522 496.331 95.0618C497.01 95.6024 497.387 96.4101 497.462 97.4848C497.526 98.3892 497.353 99.1391 496.946 99.7343C496.517 100.331 495.883 100.744 495.044 100.974L498.492 105.096L496.241 105.253L492.881 101.237L487.582 101.608L487.878 105.838L485.946 105.973L485.176 94.9597ZM495.528 97.8125L495.504 97.4613C495.466 96.9186 495.27 96.4939 494.918 96.1871C494.565 95.891 494.006 95.7697 493.24 95.8232L487.207 96.2451L487.48 100.156L493.514 99.7337C494.28 99.6801 494.816 99.4769 495.123 99.1239C495.43 98.771 495.565 98.3339 495.528 97.8125ZM499.594 93.9515L501.525 93.8164L502.296 104.83L500.364 104.965L499.594 93.9515ZM504.098 99.2021C503.955 97.1484 504.458 95.6376 505.61 94.6696C506.772 93.7008 508.464 93.1387 510.688 92.9832C512.689 92.8433 514.262 93.022 515.409 93.5192C516.558 94.0377 517.28 94.9655 517.577 96.3028L515.613 96.4401C515.359 95.5596 514.833 94.987 514.034 94.7221C513.214 94.4693 512.134 94.3898 510.793 94.4835C509.261 94.5907 508.056 94.9476 507.179 95.5543C506.303 96.1822 505.916 97.2144 506.016 98.6509L506.069 99.4011C506.167 100.806 506.688 101.764 507.633 102.275C508.567 102.787 509.816 102.988 511.38 102.879C512.7 102.787 513.738 102.57 514.495 102.228C515.241 101.887 515.712 101.293 515.91 100.445L517.873 100.308C517.685 101.604 517.074 102.566 516.038 103.195C514.982 103.846 513.464 104.241 511.485 104.379C509.251 104.536 507.497 104.225 506.223 103.448C504.95 102.671 504.242 101.256 504.098 99.2021ZM523.454 92.283L526.023 92.1033L532.651 102.707L530.608 102.85L528.782 99.8979L521.663 100.396L520.25 103.574L518.366 103.706L523.454 92.283ZM522.314 98.9227L527.932 98.5298L524.752 93.4112L522.314 98.9227Z" fill="#333330"/>
<circle cx="546.619" cy="96.718" r="3" transform="rotate(-4 546.619 96.718)" fill="#333330"/>
<path d="M561.351 97.5244L563.33 97.386C563.659 98.1221 564.189 98.593 564.92 98.7985C565.641 99.0154 566.693 99.0755 568.076 98.9788C569.577 98.8739 570.657 98.6433 571.316 98.2871C571.954 97.9324 572.253 97.4571 572.211 96.8612C572.151 96.01 571.563 95.5485 570.446 95.4769C569.469 95.417 568.243 95.3958 566.769 95.4133C565.433 95.4212 564.205 95.2985 563.086 95.0453C561.946 94.7936 561.331 94.0293 561.242 92.7524C561.161 91.6032 561.645 90.7299 562.694 90.1327C563.733 89.5361 565.236 89.169 567.204 89.0314C569.141 88.8959 570.633 89.0536 571.68 89.5043C572.738 89.9543 573.388 90.7589 573.629 91.9182L571.634 92.0577C571.435 91.3446 570.964 90.8803 570.222 90.6649C569.469 90.4502 568.497 90.3845 567.305 90.4679C565.89 90.5668 564.84 90.7739 564.157 91.089C563.452 91.4162 563.124 91.915 563.171 92.5854C563.227 93.3941 563.818 93.8179 564.944 93.8568C566.058 93.8965 567.278 93.9074 568.603 93.8897C569.949 93.881 571.183 94.0086 572.302 94.2725C573.435 94.5675 574.046 95.3482 574.134 96.6144C574.215 97.7636 573.79 98.6434 572.859 99.2538C571.93 99.8748 570.374 100.262 568.193 100.414C566.054 100.564 564.461 100.408 563.413 99.9465C562.365 99.4957 561.678 98.6884 561.351 97.5244ZM575.468 94.1795C575.323 92.1045 575.853 90.5919 577.059 89.6414C578.255 88.6917 580.065 88.132 582.491 87.9624C584.907 87.7935 586.778 88.0957 588.104 88.8691C589.42 89.6432 590.151 91.0677 590.296 93.1426C590.439 95.1963 589.914 96.7033 588.719 97.6636C587.525 98.6239 585.714 99.1889 583.288 99.3586C580.862 99.5282 578.991 99.2207 577.674 98.4359C576.346 97.6413 575.611 96.2225 575.468 94.1795ZM588.38 93.7257L588.314 92.784C588.224 91.4965 587.7 90.5868 586.744 90.0549C585.788 89.5336 584.405 89.3362 582.596 89.4627C580.777 89.59 579.435 89.9778 578.572 90.6263C577.687 91.2763 577.29 92.2504 577.381 93.5485L577.446 94.4902C577.538 95.799 578.067 96.719 579.035 97.2501C579.992 97.782 581.374 97.9847 583.183 97.8582C584.971 97.7332 586.312 97.34 587.207 96.6787C588.08 96.0188 588.471 95.0345 588.38 93.7257ZM592.38 93.7507L591.942 87.494L593.89 87.3578L594.322 93.5347C594.415 94.8648 594.867 95.7581 595.68 96.2145C596.503 96.6702 597.612 96.8493 599.005 96.7518C600.399 96.6544 601.472 96.3227 602.224 95.7569C602.965 95.1918 603.289 94.2443 603.196 92.9142L602.764 86.7373L604.536 86.6134L604.973 92.8701C605.089 94.53 604.665 95.8054 603.701 96.6962C602.716 97.5884 601.185 98.1071 599.11 98.2522C596.993 98.4002 595.368 98.1022 594.236 97.358C593.116 96.6237 592.497 95.4213 592.38 93.7507ZM611.482 87.6995L606.119 88.0745L606.01 86.5103L618.667 85.6252L618.776 87.1894L613.413 87.5644L614.074 97.0133L612.143 97.1484L611.482 87.6995ZM620.299 85.5111L622.23 85.3761L622.544 89.8611L630.955 89.2729L630.642 84.7879L632.589 84.6517L633.359 95.6648L631.412 95.801L631.065 90.8371L622.653 91.4253L623 96.3892L621.069 96.5242L620.299 85.5111ZM643.457 83.8917L646.027 83.712L652.655 94.3155L650.612 94.4584L648.785 91.5066L641.667 92.0044L640.253 95.1827L638.369 95.3144L643.457 83.8917ZM642.317 90.5314L647.936 90.1385L644.755 85.0199L642.317 90.5314ZM653.296 83.2037L664.006 82.4548L664.116 84.019L655.337 84.6328L655.568 87.9368L663.022 87.4155L663.128 88.9318L655.674 89.4531L655.998 94.0818L654.067 94.2168L653.296 83.2037ZM665.735 82.3339L674.003 81.7558C675.237 81.6695 676.199 81.8962 676.889 82.4361C677.568 82.9767 677.946 83.7843 678.021 84.859C678.084 85.7635 677.912 86.5133 677.505 87.1085C677.076 87.7052 676.442 88.1185 675.602 88.3482L679.05 92.4698L676.8 92.6271L673.439 88.6118L668.14 88.9823L668.436 93.212L666.505 93.347L665.735 82.3339ZM676.087 85.1867L676.062 84.8356C676.025 84.2929 675.829 83.8682 675.476 83.5614C675.124 83.2652 674.565 83.1439 673.799 83.1975L667.765 83.6194L668.039 87.5299L674.072 87.108C674.838 87.0544 675.375 86.8511 675.682 86.4982C675.988 86.1453 676.123 85.7081 676.087 85.1867ZM680.153 81.3257L682.084 81.1907L682.854 92.2038L680.923 92.3388L680.153 81.3257ZM684.657 86.5763C684.513 84.5227 685.017 83.0118 686.168 82.0438C687.33 81.0751 689.023 80.513 691.247 80.3575C693.247 80.2176 694.821 80.3962 695.968 80.8935C697.116 81.412 697.839 82.3398 698.135 83.677L696.172 83.8143C695.918 82.9339 695.391 82.3612 694.592 82.0963C693.773 81.8436 692.693 81.764 691.352 81.8578C689.82 81.9649 688.615 82.3219 687.738 82.9285C686.862 83.5565 686.474 84.5887 686.575 86.0252L686.627 86.7753C686.726 88.1799 687.247 89.1379 688.192 89.6492C689.126 90.1613 690.375 90.3627 691.939 90.2533C693.258 90.161 694.296 89.9441 695.053 89.6025C695.799 89.2616 696.271 88.6673 696.468 87.8194L698.431 87.6821C698.244 88.9784 697.632 89.9407 696.596 90.5692C695.541 91.2204 694.023 91.6152 692.044 91.7536C689.809 91.9099 688.055 91.5995 686.782 90.8224C685.509 90.0453 684.8 88.63 684.657 86.5763ZM704.012 79.6573L706.582 79.4776L713.21 90.0811L711.167 90.224L709.34 87.2722L702.222 87.77L700.808 90.9483L698.925 91.08L704.012 79.6573ZM702.873 86.297L708.491 85.9041L705.31 80.7855L702.873 86.297Z" fill="#333330"/>
<circle cx="727.178" cy="84.092" r="3" transform="rotate(-4 727.178 84.092)" fill="#333330"/>
<path d="M741.91 84.8984L743.889 84.76C744.219 85.4962 744.749 85.967 745.48 86.1725C746.201 86.3894 747.253 86.4495 748.636 86.3528C750.136 86.2479 751.216 86.0173 751.876 85.6611C752.514 85.3064 752.812 84.8311 752.77 84.2352C752.711 83.384 752.123 82.9226 751.006 82.851C750.028 82.791 748.803 82.7698 747.328 82.7873C745.992 82.7952 744.765 82.6726 743.646 82.4193C742.505 82.1676 741.89 81.4033 741.801 80.1264C741.721 78.9772 742.205 78.104 743.254 77.5067C744.292 76.9101 745.796 76.543 747.764 76.4054C749.701 76.27 751.193 76.4276 752.24 76.8783C753.298 77.3283 753.948 78.1329 754.189 79.2922L752.194 79.4317C751.994 78.7186 751.524 78.2543 750.781 78.0389C750.029 77.8242 749.056 77.7585 747.864 77.8419C746.449 77.9408 745.4 78.1479 744.716 78.463C744.012 78.7903 743.683 79.2891 743.73 79.9594C743.787 80.7681 744.378 81.1919 745.503 81.2309C746.618 81.2705 747.838 81.2815 749.162 81.2637C750.509 81.2551 751.742 81.3827 752.862 81.6465C753.995 81.9416 754.605 82.7222 754.694 83.9885C754.774 85.1376 754.349 86.0174 753.419 86.6278C752.489 87.2488 750.934 87.6356 748.752 87.7882C746.614 87.9377 745.02 87.7818 743.972 87.3205C742.925 86.8698 742.238 86.0624 741.91 84.8984ZM756.028 81.5535C755.882 79.4786 756.413 77.9659 757.619 77.0154C758.814 76.0657 760.625 75.5061 763.051 75.3364C765.466 75.1675 767.337 75.4697 768.664 76.2431C769.98 77.0172 770.71 78.4417 770.855 80.5166C770.999 82.5703 770.473 84.0773 769.279 85.0376C768.084 85.998 766.274 86.5629 763.848 86.7326C761.422 86.9022 759.55 86.5947 758.234 85.81C756.906 85.0153 756.17 83.5965 756.028 81.5535ZM768.939 81.0997L768.873 80.158C768.783 78.8705 768.26 77.9608 767.303 77.4289C766.347 76.9076 764.965 76.7103 763.156 76.8368C761.336 76.964 759.995 77.3519 759.131 78.0003C758.246 78.6503 757.849 79.6244 757.94 80.9225L758.006 81.8642C758.098 83.173 758.627 84.093 759.594 84.6242C760.551 85.156 761.934 85.3587 763.743 85.2323C765.531 85.1073 766.872 84.7141 767.766 84.0527C768.64 83.3928 769.031 82.4085 768.939 81.0997ZM772.94 81.1247L772.502 74.868L774.449 74.7318L774.881 80.9088C774.974 82.2388 775.427 83.1321 776.239 83.5885C777.063 84.0442 778.171 84.2233 779.565 84.1259C780.959 84.0284 782.032 83.6967 782.783 83.1309C783.525 82.5659 783.849 81.6183 783.756 80.2882L783.324 74.1113L785.095 73.9874L785.533 80.2441C785.649 81.9041 785.225 83.1794 784.261 84.0702C783.275 84.9624 781.745 85.4811 779.67 85.6262C777.552 85.7743 775.928 85.4762 774.796 84.732C773.675 83.9977 773.056 82.7953 772.94 81.1247ZM792.042 75.0735L786.679 75.4485L786.569 73.8843L799.227 72.9992L799.336 74.5634L793.973 74.9384L794.634 84.3874L792.702 84.5224L792.042 75.0735ZM800.858 72.8851L802.79 72.7501L803.103 77.2351L811.515 76.6469L811.201 72.1619L813.148 72.0257L813.919 83.0388L811.971 83.175L811.624 78.2111L803.213 78.7993L803.56 83.7632L801.629 83.8982L800.858 72.8851ZM824.017 71.2658L826.586 71.0861L833.214 81.6896L831.171 81.8324L829.345 78.8806L822.226 79.3784L820.812 82.5568L818.929 82.6885L824.017 71.2658ZM822.877 77.9054L828.495 77.5126L825.315 72.394L822.877 77.9054ZM833.856 70.5777L844.566 69.8288L844.675 71.393L835.897 72.0069L836.128 75.3108L843.581 74.7896L843.688 76.3059L836.234 76.8271L836.557 81.4558L834.626 81.5908L833.856 70.5777ZM846.294 69.7079L854.562 69.1298C855.796 69.0435 856.759 69.2703 857.449 69.8101C858.128 70.3507 858.505 71.1584 858.58 72.2331C858.644 73.1375 858.472 73.8874 858.064 74.4826C857.635 75.0793 857.001 75.4925 856.162 75.7223L859.61 79.8438L857.359 80.0012L853.999 75.9858L848.7 76.3563L848.996 80.586L847.064 80.721L846.294 69.7079ZM856.647 72.5608L856.622 72.2096C856.584 71.6669 856.389 71.2422 856.036 70.9354C855.684 70.6393 855.124 70.518 854.358 70.5715L848.325 70.9934L848.598 74.9039L854.632 74.482C855.398 74.4284 855.934 74.2252 856.241 73.8722C856.548 73.5193 856.683 73.0822 856.647 72.5608ZM860.712 68.6997L862.644 68.5647L863.414 79.5778L861.482 79.7129L860.712 68.6997ZM865.216 73.9504C865.073 71.8967 865.577 70.3859 866.728 69.4179C867.89 68.4491 869.583 67.887 871.807 67.7315C873.807 67.5916 875.381 67.7703 876.527 68.2675C877.676 68.786 878.398 69.7138 878.695 71.0511L876.732 71.1883C876.478 70.3079 875.951 69.7353 875.152 69.4704C874.332 69.2176 873.252 69.1381 871.911 69.2318C870.379 69.339 869.174 69.6959 868.297 70.3025C867.422 70.9305 867.034 71.9627 867.134 73.3992L867.187 74.1494C867.285 75.5539 867.807 76.5119 868.751 77.0232C869.685 77.5353 870.934 77.7367 872.499 77.6273C873.818 77.5351 874.856 77.3181 875.613 76.9765C876.359 76.6356 876.83 76.0413 877.028 75.1935L878.991 75.0562C878.804 76.3524 878.192 77.3147 877.156 77.9432C876.1 78.5944 874.583 78.9893 872.603 79.1277C870.369 79.2839 868.615 78.9735 867.342 78.1964C866.068 77.4194 865.36 76.004 865.216 73.9504ZM884.572 67.0313L887.142 66.8516L893.769 77.4551L891.726 77.598L889.9 74.6462L882.781 75.144L881.368 78.3223L879.484 78.454L884.572 67.0313ZM883.432 73.671L889.051 73.2781L885.87 68.1595L883.432 73.671Z" fill="#333330"/>
<circle cx="907.737" cy="71.466" r="3" transform="rotate(-4 907.737 71.466)" fill="#333330"/>
<path d="M922.469 72.2724L924.448 72.134C924.777 72.8702 925.308 73.341 926.038 73.5465C926.759 73.7635 927.811 73.8235 929.195 73.7268C930.695 73.6219 931.775 73.3913 932.434 73.0351C933.072 72.6804 933.371 72.2051 933.329 71.6093C933.269 70.758 932.681 70.2966 931.564 70.225C930.587 70.165 929.361 70.1438 927.887 70.1614C926.551 70.1692 925.323 70.0466 924.204 69.7934C923.064 69.5416 922.449 68.7773 922.36 67.5004C922.279 66.3512 922.764 65.478 923.812 64.8807C924.851 64.2842 926.354 63.9171 928.323 63.7794C930.259 63.644 931.751 63.8016 932.799 64.2523C933.856 64.7023 934.506 65.5069 934.748 66.6663L932.753 66.8058C932.553 66.0926 932.082 65.6283 931.34 65.4129C930.587 65.1982 929.615 65.1326 928.423 65.2159C927.008 65.3149 925.958 65.5219 925.275 65.837C924.571 66.1643 924.242 66.6631 924.289 67.3335C924.345 68.1421 924.936 68.566 926.062 68.6049C927.177 68.6445 928.396 68.6555 929.721 68.6377C931.068 68.6291 932.301 68.7567 933.421 69.0206C934.553 69.3156 935.164 70.0962 935.252 71.3625C935.333 72.5117 934.908 73.3915 933.977 74.0018C933.048 74.6229 931.492 75.0097 929.311 75.1622C927.172 75.3117 925.579 75.1559 924.531 74.6945C923.483 74.2438 922.796 73.4364 922.469 72.2724ZM936.586 68.9275C936.441 66.8526 936.971 65.3399 938.177 64.3895C939.373 63.4398 941.183 62.8801 943.61 62.7104C946.025 62.5415 947.896 62.8438 949.222 63.6171C950.538 64.3912 951.269 65.8157 951.414 67.8907C951.558 69.9443 951.032 71.4513 949.837 72.4116C948.643 73.372 946.833 73.937 944.406 74.1066C941.98 74.2763 940.109 73.9687 938.792 73.184C937.464 72.3894 936.729 70.9705 936.586 68.9275ZM949.498 68.4737L949.432 67.532C949.342 66.2445 948.819 65.3348 947.862 64.8029C946.906 64.2817 945.523 64.0843 943.714 64.2108C941.895 64.338 940.553 64.7259 939.69 65.3744C938.805 66.0243 938.408 66.9984 938.499 68.2966L938.565 69.2383C938.656 70.5471 939.186 71.467 940.153 71.9982C941.11 72.5301 942.493 72.7328 944.302 72.6063C946.089 72.4813 947.43 72.0881 948.325 71.4267C949.198 70.7669 949.589 69.7825 949.498 68.4737ZM953.498 68.4987L953.061 62.242L955.008 62.1059L955.44 68.2828C955.533 69.6129 955.986 70.5061 956.798 70.9626C957.621 71.4183 958.73 71.5974 960.124 71.4999C961.518 71.4024 962.59 71.0708 963.342 70.505C964.083 69.9399 964.407 68.9923 964.314 67.6622L963.882 61.4853L965.654 61.3614L966.091 67.6181C966.207 69.2781 965.783 70.5534 964.819 71.4442C963.834 72.3365 962.304 72.8551 960.229 73.0002C958.111 73.1483 956.486 72.8502 955.354 72.1061C954.234 71.3718 953.615 70.1693 953.498 68.4987ZM972.6 62.4475L967.237 62.8225L967.128 61.2583L979.785 60.3733L979.895 61.9374L974.532 62.3125L975.192 71.7614L973.261 71.8964L972.6 62.4475ZM981.417 60.2592L983.348 60.1241L983.662 64.6092L992.073 64.021L991.76 59.5359L993.707 59.3998L994.477 70.4129L992.53 70.549L992.183 65.5851L983.771 66.1733L984.118 71.1372L982.187 71.2723L981.417 60.2592ZM1004.58 58.6398L1007.14 58.4601L1013.77 69.0636L1011.73 69.2064L1009.9 66.2547L1002.78 66.7524L1001.37 69.9308L999.488 70.0625L1004.58 58.6398ZM1003.44 65.2794L1009.05 64.8866L1005.87 59.768L1003.44 65.2794ZM1014.41 57.9517L1025.12 57.2028L1025.23 58.767L1016.46 59.3809L1016.69 62.6848L1024.14 62.1636L1024.25 63.6799L1016.79 64.2011L1017.12 68.8298L1015.18 68.9648L1014.41 57.9517ZM1026.85 57.082L1035.12 56.5038C1036.36 56.4175 1037.32 56.6443 1038.01 57.1841C1038.69 57.7247 1039.06 58.5324 1039.14 59.6071C1039.2 60.5115 1039.03 61.2614 1038.62 61.8566C1038.19 62.4533 1037.56 62.8665 1036.72 63.0963L1040.17 67.2178L1037.92 67.3752L1034.56 63.3598L1029.26 63.7304L1029.55 67.96L1027.62 68.0951L1026.85 57.082ZM1037.21 59.9348L1037.18 59.5836C1037.14 59.041 1036.95 58.6162 1036.59 58.3094C1036.24 58.0133 1035.68 57.892 1034.92 57.9456L1028.88 58.3674L1029.16 62.2779L1035.19 61.856C1035.96 61.8024 1036.49 61.5992 1036.8 61.2463C1037.11 60.8933 1037.24 60.4562 1037.21 59.9348ZM1041.27 56.0738L1043.2 55.9387L1043.97 66.9518L1042.04 67.0869L1041.27 56.0738ZM1045.77 61.3244C1045.63 59.2707 1046.14 57.7599 1047.29 56.7919C1048.45 55.8232 1050.14 55.261 1052.37 55.1055C1054.37 54.9656 1055.94 55.1443 1057.09 55.6415C1058.23 56.16 1058.96 57.0879 1059.25 58.4251L1057.29 58.5624C1057.04 57.6819 1056.51 57.1093 1055.71 56.8444C1054.89 56.5916 1053.81 56.5121 1052.47 56.6058C1050.94 56.713 1049.73 57.0699 1048.86 57.6766C1047.98 58.3045 1047.59 59.3367 1047.69 60.7732L1047.75 61.5234C1047.84 62.928 1048.37 63.8859 1049.31 64.3973C1050.24 64.9094 1051.49 65.1107 1053.06 65.0013C1054.38 64.9091 1055.41 64.6921 1056.17 64.3505C1056.92 64.0097 1057.39 63.4153 1057.59 62.5675L1059.55 62.4302C1059.36 63.7264 1058.75 64.6888 1057.71 65.3172C1056.66 65.9685 1055.14 66.3633 1053.16 66.5017C1050.93 66.6579 1049.17 66.3475 1047.9 65.5705C1046.63 64.7934 1045.92 63.378 1045.77 61.3244ZM1065.13 54.4053L1067.7 54.2256L1074.33 64.8291L1072.29 64.972L1070.46 62.0202L1063.34 62.518L1061.93 65.6964L1060.04 65.8281L1065.13 54.4053ZM1063.99 61.045L1069.61 60.6521L1066.43 55.5336L1063.99 61.045Z" fill="#333330"/>
<circle cx="1088.3" cy="58.8403" r="3" transform="rotate(-4 1088.3 58.8403)" fill="#333330"/>
<path d="M1103.03 59.6465L1105.01 59.5081C1105.34 60.2442 1105.87 60.715 1106.6 60.9206C1107.32 61.1375 1108.37 61.1976 1109.75 61.1008C1111.25 60.9959 1112.33 60.7654 1112.99 60.4092C1113.63 60.0545 1113.93 59.5792 1113.89 58.9833C1113.83 58.132 1113.24 57.6706 1112.12 57.599C1111.15 57.539 1109.92 57.5178 1108.45 57.5354C1107.11 57.5433 1105.88 57.4206 1104.76 57.1674C1103.62 56.9156 1103.01 56.1513 1102.92 54.8745C1102.84 53.7253 1103.32 52.852 1104.37 52.2547C1105.41 51.6582 1106.91 51.2911 1108.88 51.1534C1110.82 51.018 1112.31 51.1757 1113.36 51.6264C1114.42 52.0763 1115.07 52.881 1115.31 54.0403L1113.31 54.1798C1113.11 53.4666 1112.64 53.0024 1111.9 52.7869C1111.15 52.5723 1110.17 52.5066 1108.98 52.5899C1107.57 52.6889 1106.52 52.8959 1105.83 53.2111C1105.13 53.5383 1104.8 54.0371 1104.85 54.7075C1104.9 55.5162 1105.5 55.94 1106.62 55.9789C1107.74 56.0186 1108.96 56.0295 1110.28 56.0117C1111.63 56.0031 1112.86 56.1307 1113.98 56.3946C1115.11 56.6896 1115.72 57.4703 1115.81 58.7365C1115.89 59.8857 1115.47 60.7655 1114.54 61.3759C1113.61 61.9969 1112.05 62.3837 1109.87 62.5362C1107.73 62.6858 1106.14 62.5299 1105.09 62.0685C1104.04 61.6178 1103.36 60.8105 1103.03 59.6465ZM1117.15 56.3015C1117 54.2266 1117.53 52.7139 1118.74 51.7635C1119.93 50.8138 1121.74 50.2541 1124.17 50.0845C1126.58 49.9156 1128.46 50.2178 1129.78 50.9911C1131.1 51.7652 1131.83 53.1897 1131.97 55.2647C1132.12 57.3183 1131.59 58.8253 1130.4 59.7857C1129.2 60.746 1127.39 61.311 1124.97 61.4806C1122.54 61.6503 1120.67 61.3427 1119.35 60.558C1118.02 59.7634 1117.29 58.3446 1117.15 56.3015ZM1130.06 55.8478L1129.99 54.9061C1129.9 53.6185 1129.38 52.7088 1128.42 52.1769C1127.47 51.6557 1126.08 51.4583 1124.27 51.5848C1122.45 51.712 1121.11 52.0999 1120.25 52.7484C1119.36 53.3984 1118.97 54.3724 1119.06 55.6706L1119.12 56.6123C1119.22 57.9211 1119.75 58.8411 1120.71 59.3722C1121.67 59.9041 1123.05 60.1068 1124.86 59.9803C1126.65 59.8553 1127.99 59.4621 1128.88 58.8008C1129.76 58.1409 1130.15 57.1566 1130.06 55.8478ZM1134.06 55.8728L1133.62 49.616L1135.57 49.4799L1136 55.6568C1136.09 56.9869 1136.55 57.8801 1137.36 58.3366C1138.18 58.7923 1139.29 58.9714 1140.68 58.8739C1142.08 58.7764 1143.15 58.4448 1143.9 57.879C1144.64 57.3139 1144.97 56.3663 1144.87 55.0362L1144.44 48.8593L1146.21 48.7354L1146.65 54.9922C1146.77 56.6521 1146.34 57.9275 1145.38 58.8182C1144.39 59.7105 1142.86 60.2292 1140.79 60.3742C1138.67 60.5223 1137.05 60.2243 1135.91 59.4801C1134.79 58.7458 1134.17 57.5434 1134.06 55.8728ZM1153.16 49.8215L1147.8 50.1965L1147.69 48.6324L1160.34 47.7473L1160.45 49.3115L1155.09 49.6865L1155.75 59.1354L1153.82 59.2705L1153.16 49.8215ZM1161.98 47.6332L1163.91 47.4981L1164.22 51.9832L1172.63 51.395L1172.32 46.9099L1174.27 46.7738L1175.04 57.7869L1173.09 57.9231L1172.74 52.9592L1164.33 53.5474L1164.68 58.5112L1162.75 58.6463L1161.98 47.6332ZM1185.13 46.0138L1187.7 45.8341L1194.33 56.4376L1192.29 56.5805L1190.46 53.6287L1183.34 54.1265L1181.93 57.3048L1180.05 57.4365L1185.13 46.0138ZM1184 52.6535L1189.61 52.2606L1186.43 47.142L1184 52.6535ZM1194.97 45.3258L1205.68 44.5769L1205.79 46.141L1197.01 46.7549L1197.25 50.0588L1204.7 49.5376L1204.81 51.0539L1197.35 51.5751L1197.68 56.2038L1195.74 56.3389L1194.97 45.3258ZM1207.41 44.456L1215.68 43.8778C1216.91 43.7915 1217.88 44.0183 1218.57 44.5582C1219.25 45.0987 1219.62 45.9064 1219.7 46.9811C1219.76 47.8856 1219.59 48.6354 1219.18 49.2306C1218.75 49.8273 1218.12 50.2405 1217.28 50.4703L1220.73 54.5918L1218.48 54.7492L1215.12 50.7338L1209.82 51.1044L1210.11 55.334L1208.18 55.4691L1207.41 44.456ZM1217.76 47.3088L1217.74 46.9577C1217.7 46.415 1217.51 45.9903 1217.15 45.6835C1216.8 45.3873 1216.24 45.266 1215.48 45.3196L1209.44 45.7415L1209.72 49.6519L1215.75 49.23C1216.52 49.1765 1217.05 48.9732 1217.36 48.6203C1217.67 48.2674 1217.8 47.8302 1217.76 47.3088ZM1221.83 43.4478L1223.76 43.3127L1224.53 54.3258L1222.6 54.4609L1221.83 43.4478ZM1226.33 48.6984C1226.19 46.6447 1226.69 45.1339 1227.85 44.1659C1229.01 43.1972 1230.7 42.635 1232.92 42.4795C1234.93 42.3397 1236.5 42.5183 1237.65 43.0155C1238.79 43.534 1239.52 44.4619 1239.81 45.7991L1237.85 45.9364C1237.6 45.056 1237.07 44.4833 1236.27 44.2184C1235.45 43.9656 1234.37 43.8861 1233.03 43.9799C1231.5 44.087 1230.29 44.4439 1229.42 45.0506C1228.54 45.6785 1228.15 46.7108 1228.25 48.1472L1228.31 48.8974C1228.4 50.302 1228.92 51.2599 1229.87 51.7713C1230.8 52.2834 1232.05 52.4848 1233.62 52.3754C1234.94 52.2831 1235.97 52.0662 1236.73 51.7246C1237.48 51.3837 1237.95 50.7893 1238.15 49.9415L1240.11 49.8042C1239.92 51.1004 1239.31 52.0628 1238.27 52.6913C1237.22 53.3425 1235.7 53.7373 1233.72 53.8757C1231.49 54.032 1229.73 53.7216 1228.46 52.9445C1227.19 52.1674 1226.48 50.752 1226.33 48.6984ZM1245.69 41.7794L1248.26 41.5997L1254.89 52.2032L1252.84 52.346L1251.02 49.3942L1243.9 49.892L1242.49 53.0704L1240.6 53.2021L1245.69 41.7794ZM1244.55 48.419L1250.17 48.0262L1246.99 42.9076L1244.55 48.419Z" fill="#333330"/>
<circle cx="1268.86" cy="46.2143" r="3" transform="rotate(-4 1268.86 46.2143)" fill="#333330"/>
<path d="M1283.59 47.0205L1285.57 46.8821C1285.9 47.6182 1286.43 48.0891 1287.16 48.2946C1287.88 48.5115 1288.93 48.5716 1290.31 48.4749C1291.81 48.3699 1292.89 48.1394 1293.55 47.7832C1294.19 47.4285 1294.49 46.9532 1294.45 46.3573C1294.39 45.506 1293.8 45.0446 1292.68 44.973C1291.71 44.9131 1290.48 44.8919 1289 44.9094C1287.67 44.9173 1286.44 44.7946 1285.32 44.5414C1284.18 44.2897 1283.57 43.5254 1283.48 42.2485C1283.4 41.0993 1283.88 40.226 1284.93 39.6288C1285.97 39.0322 1287.47 38.6651 1289.44 38.5275C1291.38 38.392 1292.87 38.5497 1293.92 39.0004C1294.97 39.4503 1295.62 40.255 1295.87 41.4143L1293.87 41.5538C1293.67 40.8407 1293.2 40.3764 1292.46 40.161C1291.71 39.9463 1290.73 39.8806 1289.54 39.9639C1288.13 40.0629 1287.08 40.27 1286.39 40.5851C1285.69 40.9123 1285.36 41.4111 1285.41 42.0815C1285.46 42.8902 1286.05 43.314 1287.18 43.3529C1288.29 43.3926 1289.51 43.4035 1290.84 43.3857C1292.19 43.3771 1293.42 43.5047 1294.54 43.7686C1295.67 44.0636 1296.28 44.8443 1296.37 46.1105C1296.45 47.2597 1296.03 48.1395 1295.1 48.7499C1294.17 49.3709 1292.61 49.7577 1290.43 49.9102C1288.29 50.0598 1286.7 49.9039 1285.65 49.4425C1284.6 48.9918 1283.91 48.1845 1283.59 47.0205ZM1297.7 43.6756C1297.56 41.6006 1298.09 40.0879 1299.3 39.1375C1300.49 38.1878 1302.3 37.6281 1304.73 37.4585C1307.14 37.2896 1309.01 37.5918 1310.34 38.3652C1311.66 39.1393 1312.39 40.5638 1312.53 42.6387C1312.68 44.6924 1312.15 46.1993 1310.96 47.1597C1309.76 48.12 1307.95 48.685 1305.52 48.8547C1303.1 49.0243 1301.23 48.7168 1299.91 47.932C1298.58 47.1374 1297.85 45.7186 1297.7 43.6756ZM1310.62 43.2218L1310.55 42.2801C1310.46 40.9926 1309.94 40.0828 1308.98 39.551C1308.02 39.0297 1306.64 38.8323 1304.83 38.9588C1303.01 39.0861 1301.67 39.4739 1300.81 40.1224C1299.92 40.7724 1299.53 41.7464 1299.62 43.0446L1299.68 43.9863C1299.77 45.2951 1300.3 46.2151 1301.27 46.7462C1302.23 47.2781 1303.61 47.4808 1305.42 47.3543C1307.21 47.2293 1308.55 46.8361 1309.44 46.1748C1310.32 45.5149 1310.71 44.5306 1310.62 43.2218ZM1314.62 43.2468L1314.18 36.9901L1316.13 36.8539L1316.56 43.0308C1316.65 44.3609 1317.1 45.2542 1317.92 45.7106C1318.74 46.1663 1319.85 46.3454 1321.24 46.2479C1322.64 46.1505 1323.71 45.8188 1324.46 45.253C1325.2 44.6879 1325.53 43.7404 1325.43 42.4103L1325 36.2334L1326.77 36.1095L1327.21 42.3662C1327.33 44.0261 1326.9 45.3015 1325.94 46.1923C1324.95 47.0845 1323.42 47.6032 1321.35 47.7483C1319.23 47.8963 1317.6 47.5983 1316.47 46.8541C1315.35 46.1198 1314.73 44.9174 1314.62 43.2468ZM1333.72 37.1956L1328.36 37.5706L1328.25 36.0064L1340.9 35.1213L1341.01 36.6855L1335.65 37.0605L1336.31 46.5094L1334.38 46.6445L1333.72 37.1956ZM1342.54 35.0072L1344.47 34.8722L1344.78 39.3572L1353.19 38.769L1352.88 34.284L1354.83 34.1478L1355.6 45.1609L1353.65 45.2971L1353.3 40.3332L1344.89 40.9214L1345.24 45.8853L1343.31 46.0203L1342.54 35.0072ZM1365.69 33.3878L1368.26 33.2081L1374.89 43.8116L1372.85 43.9545L1371.02 41.0027L1363.9 41.5005L1362.49 44.6788L1360.61 44.8105L1365.69 33.3878ZM1364.55 40.0275L1370.17 39.6346L1366.99 34.516L1364.55 40.0275ZM1375.53 32.6998L1386.24 31.9509L1386.35 33.5151L1377.57 34.1289L1377.8 37.4329L1385.26 36.9116L1385.36 38.4279L1377.91 38.9491L1378.23 43.5778L1376.3 43.7129L1375.53 32.6998ZM1387.97 31.83L1396.24 31.2519C1397.47 31.1656 1398.44 31.3923 1399.13 31.9322C1399.8 32.4728 1400.18 33.2804 1400.26 34.3551C1400.32 35.2596 1400.15 36.0094 1399.74 36.6046C1399.31 37.2013 1398.68 37.6146 1397.84 37.8443L1401.29 41.9659L1399.04 42.1232L1395.68 38.1079L1390.38 38.4784L1390.67 42.7081L1388.74 42.8431L1387.97 31.83ZM1398.32 34.6828L1398.3 34.3317C1398.26 33.789 1398.07 33.3643 1397.71 33.0575C1397.36 32.7613 1396.8 32.64 1396.04 32.6936L1390 33.1155L1390.28 37.0259L1396.31 36.6041C1397.07 36.5505 1397.61 36.3472 1397.92 35.9943C1398.22 35.6414 1398.36 35.2042 1398.32 34.6828ZM1402.39 30.8218L1404.32 30.6868L1405.09 41.6999L1403.16 41.8349L1402.39 30.8218ZM1406.89 36.0724C1406.75 34.0188 1407.25 32.5079 1408.4 31.5399C1409.57 30.5712 1411.26 30.0091 1413.48 29.8536C1415.48 29.7137 1417.06 29.8923 1418.2 30.3896C1419.35 30.908 1420.07 31.8359 1420.37 33.1731L1418.41 33.3104C1418.15 32.43 1417.63 31.8573 1416.83 31.5924C1416.01 31.3397 1414.93 31.2601 1413.59 31.3539C1412.06 31.461 1410.85 31.8179 1409.97 32.4246C1409.1 33.0526 1408.71 34.0848 1408.81 35.5213L1408.86 36.2714C1408.96 37.676 1409.48 38.634 1410.43 39.1453C1411.36 39.6574 1412.61 39.8588 1414.18 39.7494C1415.49 39.6571 1416.53 39.4402 1417.29 39.0986C1418.04 38.7577 1418.51 38.1634 1418.7 37.3155L1420.67 37.1782C1420.48 38.4745 1419.87 39.4368 1418.83 40.0653C1417.78 40.7165 1416.26 41.1113 1414.28 41.2497C1412.05 41.406 1410.29 41.0956 1409.02 40.3185C1407.75 39.5414 1407.04 38.1261 1406.89 36.0724ZM1426.25 29.1534L1428.82 28.9737L1435.45 39.5772L1433.4 39.7201L1431.58 36.7683L1424.46 37.266L1423.04 40.4444L1421.16 40.5761L1426.25 29.1534ZM1425.11 35.7931L1430.73 35.4002L1427.55 30.2816L1425.11 35.7931Z" fill="#333330"/>
<circle cx="1449.41" cy="33.5884" r="3" transform="rotate(-4 1449.41 33.5884)" fill="#333330"/>
<path d="M1464.15 34.3948L1466.13 34.2564C1466.46 34.9925 1466.99 35.4633 1467.72 35.6689C1468.44 35.8858 1469.49 35.9459 1470.87 35.8491C1472.37 35.7442 1473.45 35.5137 1474.11 35.1575C1474.75 34.8027 1475.05 34.3274 1475.01 33.7316C1474.95 32.8803 1474.36 32.4189 1473.24 32.3473C1472.26 32.2873 1471.04 32.2661 1469.56 32.2837C1468.23 32.2916 1467 32.1689 1465.88 31.9157C1464.74 31.6639 1464.13 30.8996 1464.04 29.6227C1463.96 28.4735 1464.44 27.6003 1465.49 27.003C1466.53 26.4065 1468.03 26.0394 1470 25.9017C1471.94 25.7663 1473.43 25.9239 1474.48 26.3747C1475.53 26.8246 1476.18 27.6293 1476.43 28.7886L1474.43 28.9281C1474.23 28.2149 1473.76 27.7506 1473.02 27.5352C1472.26 27.3205 1471.29 27.2549 1470.1 27.3382C1468.69 27.4372 1467.64 27.6442 1466.95 27.9593C1466.25 28.2866 1465.92 28.7854 1465.97 29.4558C1466.02 30.2645 1466.61 30.6883 1467.74 30.7272C1468.85 30.7669 1470.07 30.7778 1471.4 30.76C1472.75 30.7514 1473.98 30.879 1475.1 31.1429C1476.23 31.4379 1476.84 32.2186 1476.93 33.4848C1477.01 34.634 1476.59 35.5138 1475.66 36.1242C1474.73 36.7452 1473.17 37.132 1470.99 37.2845C1468.85 37.4341 1467.26 37.2782 1466.21 36.8168C1465.16 36.3661 1464.47 35.5588 1464.15 34.3948ZM1478.26 31.0498C1478.12 28.9749 1478.65 27.4622 1479.86 26.5118C1481.05 25.5621 1482.86 25.0024 1485.29 24.8328C1487.7 24.6639 1489.57 24.9661 1490.9 25.7394C1492.22 26.5135 1492.95 27.938 1493.09 30.013C1493.24 32.0666 1492.71 33.5736 1491.52 34.534C1490.32 35.4943 1488.51 36.0593 1486.08 36.2289C1483.66 36.3986 1481.79 36.091 1480.47 35.3063C1479.14 34.5117 1478.41 33.0928 1478.26 31.0498ZM1491.18 30.596L1491.11 29.6543C1491.02 28.3668 1490.5 27.4571 1489.54 26.9252C1488.58 26.404 1487.2 26.2066 1485.39 26.3331C1483.57 26.4603 1482.23 26.8482 1481.37 27.4967C1480.48 28.1466 1480.09 29.1207 1480.18 30.4189L1480.24 31.3606C1480.33 32.6694 1480.86 33.5894 1481.83 34.1205C1482.79 34.6524 1484.17 34.8551 1485.98 34.7286C1487.77 34.6036 1489.11 34.2104 1490 33.5491C1490.88 32.8892 1491.27 31.9048 1491.18 30.596ZM1495.18 30.6211L1494.74 24.3643L1496.69 24.2282L1497.12 30.4051C1497.21 31.7352 1497.66 32.6284 1498.48 33.0849C1499.3 33.5406 1500.41 33.7197 1501.8 33.6222C1503.2 33.5247 1504.27 33.1931 1505.02 32.6273C1505.76 32.0622 1506.08 31.1146 1505.99 29.7845L1505.56 23.6076L1507.33 23.4837L1507.77 29.7405C1507.89 31.4004 1507.46 32.6758 1506.5 33.5665C1505.51 34.4588 1503.98 34.9774 1501.91 35.1225C1499.79 35.2706 1498.16 34.9726 1497.03 34.2284C1495.91 33.4941 1495.29 32.2917 1495.18 30.6211ZM1514.28 24.5698L1508.92 24.9448L1508.81 23.3807L1521.46 22.4956L1521.57 24.0598L1516.21 24.4348L1516.87 33.8837L1514.94 34.0187L1514.28 24.5698ZM1523.09 22.3815L1525.03 22.2464L1525.34 26.7315L1533.75 26.1433L1533.44 21.6582L1535.38 21.5221L1536.15 32.5352L1534.21 32.6713L1533.86 27.7075L1525.45 28.2956L1525.8 33.2595L1523.86 33.3946L1523.09 22.3815ZM1546.25 20.7621L1548.82 20.5824L1555.45 31.1859L1553.41 31.3288L1551.58 28.377L1544.46 28.8747L1543.05 32.0531L1541.17 32.1848L1546.25 20.7621ZM1545.11 27.4018L1550.73 27.0089L1547.55 21.8903L1545.11 27.4018ZM1556.09 20.0741L1566.8 19.3251L1566.91 20.8893L1558.13 21.5032L1558.36 24.8071L1565.82 24.2859L1565.92 25.8022L1558.47 26.3234L1558.79 30.9521L1556.86 31.0872L1556.09 20.0741ZM1568.53 19.2043L1576.8 18.6261C1578.03 18.5398 1578.99 18.7666 1579.68 19.3064C1580.36 19.847 1580.74 20.6547 1580.82 21.7294C1580.88 22.6339 1580.71 23.3837 1580.3 23.9789C1579.87 24.5756 1579.24 24.9888 1578.4 25.2186L1581.85 29.3401L1579.6 29.4975L1576.24 25.4821L1570.94 25.8527L1571.23 30.0823L1569.3 30.2174L1568.53 19.2043ZM1578.88 22.0571L1578.86 21.706C1578.82 21.1633 1578.62 20.7385 1578.27 20.4317C1577.92 20.1356 1577.36 20.0143 1576.59 20.0679L1570.56 20.4898L1570.83 24.4002L1576.87 23.9783C1577.63 23.9248 1578.17 23.7215 1578.48 23.3686C1578.78 23.0156 1578.92 22.5785 1578.88 22.0571ZM1582.95 18.1961L1584.88 18.061L1585.65 29.0741L1583.72 29.2092L1582.95 18.1961ZM1587.45 23.4467C1587.31 21.393 1587.81 19.8822 1588.96 18.9142C1590.13 17.9455 1591.82 17.3833 1594.04 17.2278C1596.04 17.0879 1597.62 17.2666 1598.76 17.7638C1599.91 18.2823 1600.63 19.2102 1600.93 20.5474L1598.97 20.6847C1598.71 19.8043 1598.19 19.2316 1597.39 18.9667C1596.57 18.7139 1595.49 18.6344 1594.15 18.7282C1592.62 18.8353 1591.41 19.1922 1590.53 19.7989C1589.66 20.4268 1589.27 21.459 1589.37 22.8955L1589.42 23.6457C1589.52 25.0503 1590.04 26.0082 1590.99 26.5196C1591.92 27.0317 1593.17 27.233 1594.73 27.1237C1596.05 27.0314 1597.09 26.8145 1597.85 26.4728C1598.6 26.132 1599.07 25.5376 1599.26 24.6898L1601.23 24.5525C1601.04 25.8487 1600.43 26.8111 1599.39 27.4396C1598.34 28.0908 1596.82 28.4856 1594.84 28.624C1592.61 28.7803 1590.85 28.4698 1589.58 27.6928C1588.3 26.9157 1587.6 25.5003 1587.45 23.4467ZM1606.81 16.5277L1609.38 16.348L1616.01 26.9515L1613.96 27.0943L1612.14 24.1425L1605.02 24.6403L1603.6 27.8187L1601.72 27.9504L1606.81 16.5277ZM1605.67 23.1673L1611.29 22.7745L1608.11 17.6559L1605.67 23.1673Z" fill="#333330"/>
</svg>
