<svg width="453" height="16" viewBox="0 0 453 16" fill="none" xmlns="http://www.w3.org/2000/svg">
<g clip-path="url(#clip0_1120_3743)">
<circle cx="-1" cy="8" r="8" fill="#111214"/>
<circle cx="17" cy="8" r="4" fill="#111214"/>
<circle cx="31" cy="8" r="4" fill="#111214"/>
<circle cx="45" cy="8" r="4" fill="#111214"/>
<circle cx="59" cy="8" r="4" fill="#111214"/>
<circle cx="73" cy="8" r="4" fill="#111214"/>
<circle cx="87" cy="8" r="4" fill="#111214"/>
<circle cx="101" cy="8" r="4" fill="#111214"/>
<circle cx="115" cy="8" r="4" fill="#111214"/>
<circle cx="129" cy="8" r="4" fill="#111214"/>
<circle cx="143" cy="8" r="4" fill="#111214"/>
<circle cx="157" cy="8" r="4" fill="#111214"/>
<circle cx="171" cy="8" r="4" fill="#111214"/>
<circle cx="185" cy="8" r="4" fill="#111214"/>
<circle cx="199" cy="8" r="4" fill="#111214"/>
<circle cx="213" cy="8" r="4" fill="#111214"/>
<circle cx="227" cy="8" r="4" fill="#111214"/>
<circle cx="241" cy="8" r="4" fill="#111214"/>
<circle cx="255" cy="8" r="4" fill="#111214"/>
<circle cx="269" cy="8" r="4" fill="#111214"/>
<circle cx="283" cy="8" r="4" fill="#111214"/>
<circle cx="297" cy="8" r="4" fill="#111214"/>
<circle cx="311" cy="8" r="4" fill="#111214"/>
<circle cx="325" cy="8" r="4" fill="#111214"/>
<circle cx="339" cy="8" r="4" fill="#111214"/>
<circle cx="353" cy="8" r="4" fill="#111214"/>
<circle cx="367" cy="8" r="4" fill="#111214"/>
<circle cx="381" cy="8" r="4" fill="#111214"/>
<circle cx="395" cy="8" r="4" fill="#111214"/>
<circle cx="409" cy="8" r="4" fill="#111214"/>
<circle cx="423" cy="8" r="4" fill="#111214"/>
<circle cx="437" cy="8" r="4" fill="#111214"/>
<circle cx="455" cy="8" r="8" fill="#111214"/>
</g>
<defs>
<clipPath id="clip0_1120_3743">
<rect width="453" height="16" fill="white"/>
</clipPath>
</defs>
</svg>
