<svg width="690" height="427" viewBox="0 0 690 427" fill="none" xmlns="http://www.w3.org/2000/svg">
<path d="M543.508 320.542L545.138 325.808L547.822 332.817L551.66 339.564L554.335 344.1L557.825 348.054L560.733 350.73L561.896 352.823L561.081 353.754L560.5 354.684L562.594 360.035L564.687 362.129L566.548 365.967L569.107 370.154L572.364 376.086L573.294 381.553L573.643 390.16L574.109 391.44L573.876 393.882L572.131 394.813L572.364 396.209L571.899 397.605L572.131 399.349L572.48 400.745L570.503 403.071L568.293 404.118L565.501 404.234L564.455 405.398L562.71 406.095L561.779 405.747L560.965 405.049L560.733 402.955L560.151 400.512L557.708 396.79L555.149 395.162L552.358 394.929L551.776 395.86L549.566 392.719L549.101 390.16L547.24 387.253L545.961 386.438L544.797 387.95L543.518 387.718L542.006 384.112L539.912 381.32L537.819 377.482L535.958 375.272L533.399 372.597L534.911 370.852L537.237 366.897L537.121 365.734L533.864 365.036L532.701 365.502L532.933 365.967L534.794 366.665L533.748 369.922L533.166 370.271L531.887 367.363L530.956 363.873L530.723 361.896L531.77 358.523V351.66L529.56 348.985L528.63 346.775L524.908 345.845L523.512 345.379L522.349 343.518L519.906 342.355L519.092 339.912L517.115 339.215L515.37 336.539L512.346 335.492L510.252 334.446H508.391L505.483 335.027L505.367 336.423L505.948 337.121L505.599 337.935L503.389 337.819L500.714 340.378L498.155 341.773H495.364L493.037 342.704L492.805 340.727L491.642 339.331L489.548 338.517L488.385 337.47L482.569 334.678L477.102 333.399L473.962 333.864L469.658 334.213L465.355 335.725L462.851 336.166L462.68 330.374L460.819 328.979L459.54 327.699L459.772 325.489L467.1 324.559L485.478 322.465L490.363 322L494.274 322.201L496.135 324.993L497.182 326.04L503.009 326.41L510.793 325.945L526.272 325.015L530.19 324.529L533.483 324.549L533.599 326.643L536.351 327.225L536.583 323.766L535.42 320.509L536.107 319.982L539.786 320.309L543.508 320.542ZM552.534 415.807L554.279 415.342L555.21 415.168L556.256 413.481L557.943 412.318L558.874 412.667L560.095 412.899L560.386 413.656L557.885 414.528L554.861 415.575L553.174 416.447L552.534 415.807ZM562.247 412.202L563.119 412.958L565.096 411.446L568.935 408.421L571.61 405.63L573.413 400.861L574.111 399.64L574.227 397.197L573.704 397.546L573.006 399.581L571.959 402.896L569.633 406.677L566.492 409.701L564.05 411.097L562.247 412.202Z" fill="#BE984F"/>
<path d="M547.705 297.109L546.427 297.806L544.565 296.876L544.1 295.364L543.17 292.805L541.541 291.293L539.68 290.827L538.517 287.338L536.54 283.034L533.516 281.639L532.004 280.243L531.073 278.382L529.561 276.986L527.933 276.055L526.304 273.962L524.094 272.333L520.837 271.054L520.488 270.007L518.744 267.913L518.395 266.867L515.952 263.144L513.509 263.261L510.602 261.516L509.671 260.586L509.438 259.306L510.02 257.91L511.648 257.212L511.416 255.7L515.836 253.839L522.349 250.582L527.584 250.001L539.448 249.652L541.076 251.048L542.239 253.374L545.38 253.025L554.452 251.978L556.546 252.56L565.618 258.027L572.891 263.87L568.991 267.797L567.13 272.217L566.781 276.754L565.618 277.335L564.803 279.313L563.059 279.778L561.547 282.337L559.569 284.314L557.941 286.757L556.778 287.338L554.219 289.781L552.125 289.897L552.823 292.224L549.217 296.178L547.705 297.109Z" fill="#333330"/>
<path d="M496.179 257.561L492.689 258.143L486.641 258.957L480.476 259.597V261.167L480.592 262.679L481.058 265.122L483.5 270.821L485.245 277.916L486.292 282.336L487.455 285.826L488.502 290.827L490.014 295.364L491.875 297.806L492.224 300.249L493.62 300.83L493.736 302.343L492.457 305.832L492.108 308.158L491.991 309.554L493.154 312.695L493.387 316.533L492.805 318.278L493.271 318.859L494.318 319.441L494.783 321.883L496.644 324.675L497.691 325.722L503.39 325.838L511.175 325.373L526.653 324.442L530.571 323.957L533.865 323.977L533.981 326.071L535.842 326.652L536.075 323.512L534.911 320.255L535.726 319.092L539.913 319.673L543.494 319.902L542.936 315.37L544.565 308.159L545.612 305.134L545.263 303.273L547.662 298.781L547.294 297.808L545.918 298.315L544.057 297.384L543.592 295.872L542.661 293.313L541.033 291.801L539.172 291.336L538.008 287.847L535.904 283.289L532.88 281.893L531.368 280.497L530.437 278.636L528.925 277.24L527.297 276.31L525.668 274.216L523.458 272.588L520.201 271.308L519.852 270.261L518.108 268.168L517.759 267.121L515.316 263.59L512.874 263.706L509.902 261.516L508.972 260.586L508.739 259.306L509.32 257.91L511.012 257.022L510.197 256.142L510.253 255.933L506.065 256.631L501.064 257.212L496.179 257.561Z" fill="#333330"/>
<path d="M450.117 335.841L448.955 324.908L446.978 311.415L447.094 301.296L447.675 278.963L447.559 266.983L447.678 262.364L453.259 262.098L473.265 260.237L479.684 259.76L479.578 261.33L479.694 262.842L480.16 265.285L482.602 270.985L484.347 278.08L485.394 282.5L486.557 285.989L487.604 290.991L489.116 295.527L490.977 297.97L491.326 300.412L492.722 300.994L492.838 302.506L491.559 305.995L491.21 308.322L491.093 309.717L492.256 312.858L492.489 316.696L491.907 318.441L492.373 319.023L493.42 319.604L494.164 321.428H489.628L484.743 321.893L466.365 323.987L458.874 324.999L458.805 327.699L460.084 328.979L461.945 330.374L462.363 336.084L458.376 337.935L456.398 337.703L458.376 336.307V335.609L456.166 331.305L454.537 330.84L453.49 333.98L452.56 335.958L452.095 335.841H450.117Z" fill="#333330"/>
<path d="M598.7 214.75L599.93 218.131L602.489 222.784L604.234 224.528L604.699 226.157L602.955 226.273L603.536 226.738L603.303 229.762L601.442 230.693L600.977 232.205L600.047 234.299L597.371 235.462L595.627 235.229L594.58 235.113L593.417 234.182L593.649 235.113V235.811H595.045L595.627 236.741L594.231 241.278H597.255L597.72 242.441L599.349 240.812L600.279 240.463L598.883 243.022L596.674 246.512H595.743L594.929 246.163L592.951 246.628L589.229 248.373L584.577 252.211L582.134 255.584L580.738 260.237L580.389 261.982L577.016 262.331L573.093 263.292L565.936 257.391L556.864 251.924L554.77 251.342L545.698 252.389L542.621 252.929L541.458 250.602L539.32 249.079L527.456 249.428L522.222 250.01L515.708 253.267L511.289 255.128L510.125 255.36L505.938 256.058L500.936 256.64L496.051 256.989L496.411 254.072L497.691 253.025L499.668 252.56L500.133 249.884L503.157 247.907L505.949 246.86L508.973 244.301L512.114 242.789L512.579 240.579L515.37 237.788L515.836 237.671C515.836 237.671 515.836 238.486 516.417 238.486C516.999 238.486 517.813 238.718 517.813 238.718L519.441 236.159L520.954 235.694L522.582 235.927L523.745 233.368L525.839 231.507L526.188 229.995V227.145L529.444 227.668L534.579 226.738L545.961 225.342L558.291 223.481L572.624 220.603L586.822 217.606L594.999 215.594L598.7 214.75ZM601.503 238.485L603.364 236.682L605.632 234.821L606.737 234.356L606.853 232.902L606.388 228.482L605.341 226.795L604.876 225.458L605.399 225.283L607.377 229.238L607.667 232.437L607.551 234.879L605.109 235.984L603.073 237.729L602.259 238.601L601.503 238.485Z" fill="#333330"/>
<path d="M501.529 230.693L464.192 234.298L452.853 235.578L449.528 235.947L446.745 235.927V238.718L440.697 239.067L435.695 239.533L427.712 239.571L427.521 243.769L425.983 248.284L425.267 250.454L424.296 253.607L424.064 255.468L421.156 257.096L422.203 259.655L421.505 262.795L420.808 263.364L426.029 263.224L443.36 261.828L447.198 261.712L453.014 261.363L473.02 259.502L480.338 258.92L486.396 258.222L492.445 257.408L495.934 256.827L495.84 253.582L497.12 252.535L499.097 252.07L499.562 249.395L502.586 247.417L505.378 246.37L508.402 243.812L511.543 242.299L512.171 239.763L515.289 236.971L515.755 236.855C515.755 236.855 515.754 237.669 516.336 237.669C516.918 237.669 517.732 237.902 517.732 237.902L519.36 235.343L520.872 234.878L522.501 235.11L523.664 232.551L525.186 230.935L525.617 230.24L525.744 227.41L524.676 227.203L522.931 228.599L517.232 228.715L508.601 230.083L501.529 230.693Z" fill="#333330"/>
<path d="M628.893 129.383L628.546 126.358L627.964 123.217L626.743 118.972L630.872 117.867L632.035 118.681L634.478 121.822L636.57 125.021L634.476 126.126L633.546 126.01L632.731 127.289L630.987 128.685L628.893 129.383Z" fill="#333330"/>
<path d="M628.262 129.546L627.81 126.521L627.229 123.381L626.066 119.077L623.078 119.728L607.376 123.159L607.841 125.544L608.888 130.778V136.594L608.074 138.222L609.392 139.74L612.958 137.292L615.517 134.966L616.912 133.454L617.494 133.919L619.471 132.872L623.193 132.058L628.262 129.546Z" fill="#333330"/>
<path d="M647.533 125.086L649.095 124.592L649.424 123.359L650.164 123.441L650.905 125.086L650 125.415L647.204 125.497L647.533 125.086ZM640.788 125.662L642.433 123.77H643.585L644.901 124.839L643.173 125.579L641.611 126.32L640.788 125.662ZM615.75 109.841L628.312 106.817L629.941 106.352L631.453 104.025L634.141 102.829L636.22 106.004L634.475 109.726L634.243 110.773L635.639 112.634L636.453 112.052H637.732L639.361 113.913L642.152 118.217L644.711 118.566L646.34 117.868L647.619 116.588L647.037 114.611L645.525 113.448L644.479 114.029L643.781 113.099L644.13 112.75L645.642 112.634L646.921 113.215L648.317 114.96L649.015 117.054L649.247 118.798L646.223 119.845L643.432 121.241L640.64 124.498L639.244 125.545V124.847L640.989 123.8L641.338 122.52L640.756 120.31L638.663 121.357L638.081 122.404L638.43 124.032L636.943 124.752L634.967 121.495L632.524 118.354L631.035 117.05L626.334 118.4L622.67 119.156L606.967 122.588L606.678 119.03L607.143 111.411L610.865 110.772L615.75 109.841Z" fill="#333330"/>
<path d="M664.252 55.6395L665.648 57.1516L667.276 59.8268V61.2226L665.764 64.5957L664.368 65.061L661.926 67.271L658.436 71.2257C658.436 71.2257 657.971 71.2257 657.506 71.2257C657.04 71.2257 656.808 69.7136 656.808 69.7136L655.528 69.8299L654.831 70.8767L653.086 71.9235L652.388 72.9704L653.551 74.0172L653.202 74.4825L652.853 76.4598L651.457 76.3435V75.1804L651.225 74.2498L650.178 74.4825L648.898 72.1562L647.386 73.0867L648.317 74.1335L648.55 74.9477L647.968 75.8782L648.201 78.0882L648.317 79.2514L647.154 81.1124L645.06 81.4613L644.827 83.555L640.989 85.765L640.059 86.1139L638.895 85.0671L636.685 87.626L637.383 89.9523L636.337 90.8828L636.22 94.0233L635.412 98.5269L633.64 97.6952L633.291 95.4852L630.5 94.671L630.267 92.6937L625.033 75.828L622.012 66.0142L623.034 65.9292L624.123 66.2241V64.3631L624.705 60.4084L626.566 57.0353L627.613 54.1274L626.217 52.3827V48.0791L626.799 47.3812L627.38 45.4038L627.264 44.357L627.148 40.8675L628.427 37.3781L630.521 30.9808L632.033 27.9566H632.963L633.894 28.0729V28.8871L634.824 30.5155L636.802 30.9808L637.383 30.3992V29.7013L640.291 27.6077L641.571 26.3282L642.617 26.4445L646.921 28.1893L648.317 28.8871L654.831 50.4053H659.134L659.716 51.8011L659.832 55.2906L661.926 56.919H662.507L662.624 56.57L662.275 55.7558L664.252 55.6395ZM649.192 77.3306L650.297 76.2256L651.285 76.9817L651.692 78.7264L650.471 79.3661L649.192 77.3306ZM654.019 73.0851L655.298 74.4228C655.298 74.4228 656.229 74.4809 656.229 74.2483C656.229 74.0157 656.403 72.7943 656.403 72.7943L657.043 72.2128L656.461 70.9333L655.007 71.4567L654.019 73.0851Z" fill="#333330"/>
<path d="M633.734 102.475L634.36 101.7L635.144 99.3322L633.314 98.675L632.965 96.465L630.174 95.6508L629.941 93.6734L624.707 76.8078L621.396 66.3441L620.751 66.3405L620.286 67.5036L619.82 67.1547L619.122 66.4568L618.076 67.8525L618.041 71.4731L618.265 75.5507L619.661 77.528V80.4359L616.986 84.0786L615.125 84.8928V85.707L615.939 86.9864V93.1511L615.357 99.7811L615.241 103.271L615.939 104.201L615.822 107.458L615.473 108.737L616.52 109.375L628.313 106.001L629.941 105.535L631.045 103.699L633.734 102.475Z" fill="#333330"/>
<path d="M607.504 110.606L606.923 106.535L605.203 99.3606L604.738 99.1279L602.644 98.1974L603.225 96.1037L602.644 94.5916L600.701 91.2532L601.399 88.4616L600.817 84.7396L599.073 80.087L598.493 76.5452L617.378 71.6904L617.612 75.8773L619.007 77.8546V80.7625L616.332 83.6704L614.471 84.4846V85.2988L615.285 86.5782V92.7429L614.704 99.3729L614.587 102.862L615.285 103.793L615.169 107.05L614.82 108.329L615.295 109.456L610.294 110.445L607.504 110.606Z" fill="#333330"/>
<path d="M596.188 136.29L595.373 135.592L593.512 135.475L591.884 134.08L590.711 129.67L588.222 129.735L586.464 127.786L572.516 130.939L541.577 137.22L536.159 138.104L535.628 133.45L536.655 132.64L537.586 131.826L538.284 130.663L539.563 129.848L540.959 128.569L541.308 127.406L542.82 125.428L543.634 124.731L543.518 124.033L542.587 121.823L541.308 121.706L539.912 117.286L542.006 116.007L545.146 114.96L548.054 114.03L550.381 113.681L554.917 113.564L556.313 114.495L557.476 114.611L558.988 113.681L560.849 112.866L564.571 112.517L566.083 111.238L567.362 108.912L568.526 107.516H570.038L571.434 106.702L571.55 105.073L570.503 103.561L570.27 102.514L571.085 101.002V99.9555H569.805L568.526 99.3739L567.944 98.5597L567.828 96.6987L572.015 92.744L572.48 92.1624L573.527 90.0688L575.621 86.812L577.598 84.1367L579.11 82.392L580.848 81.0785L583.065 80.182L587.02 79.2515L589.346 79.3678L592.603 78.321L598.046 76.8308L598.42 80.4136L600.165 85.0662L600.746 88.7883L600.048 91.5799L601.909 94.8367L602.491 96.3488L601.909 98.4425L604.003 99.373L604.468 99.6056L606.678 107.515L606.292 111.155L605.943 118.949L606.525 122.903L607.107 125.462L608.153 130.696V136.512L607.339 138.14L608.663 139.574L609.236 140.782L607.84 142.061L608.073 142.992L609.003 142.759L610.05 141.829L611.678 139.968L612.493 139.502L613.656 139.968L615.284 140.084L620.984 137.293L623.077 135.315L624.008 134.268L627.032 135.431L624.589 137.99L621.798 140.084L616.68 143.922L614.819 144.62L610.632 146.016L607.724 146.83L606.878 146.447L606.703 143.793L607.052 141.816L606.936 140.304L604.911 139.081L601.654 138.383L598.863 137.569L596.188 136.29Z" fill="#333330"/>
<path d="M595.861 136.943L594.349 138.687V140.897L592.953 143.107L592.837 144.27L593.767 145.201L593.651 146.946L592.022 147.76L592.604 149.737L592.72 150.551L594.698 150.784L595.396 152.645L597.955 154.39L599.699 155.553V156.135L597.373 158.345L596.21 159.973L595.163 161.95L593.535 162.881L592.662 163.404L592.488 164.277L592.049 166.152L592.835 167.767L595.162 169.861L598.651 171.489L601.559 171.954L601.675 173.001L601.094 173.699L601.326 175.676H601.908L603.42 173.932L604.001 170.442L605.979 167.534L608.189 162.882L609.003 158.927L608.538 158.113L608.421 151.366L607.258 148.924L606.444 149.505L604.467 149.738L604.118 149.389L604.932 148.691L606.444 147.295L606.489 146.508L606.213 144.038L606.562 142.06L606.446 140.548L604.584 139.734L601.328 139.036L598.536 138.222L595.861 136.943Z" fill="#333330"/>
<path d="M591.577 162.938L592.392 162.473L594.02 162.032L595.067 160.055L596.23 158.426L598.556 156.216V155.635L596.812 154.472L594.253 152.727L593.555 150.866L591.577 150.633L591.461 149.819L590.88 147.842L592.508 147.027L592.624 145.283L591.694 144.352L591.81 143.189L593.206 140.979V138.769L594.892 137.024L595.047 136.245L593.186 136.128L591.557 134.733L589.813 130.894L587.651 130.225L585.974 128.684L572.598 131.592L541.658 137.873L535.261 138.92L534.904 133.823L530.956 137.874L530.025 138.223L527.002 140.388L529.096 154.157L530.882 161.158L533.452 175.016L535.804 174.557L544.397 173.476L571.686 167.961L582.389 165.93L588.361 164.763L588.553 164.591L590.065 163.428L591.577 162.938Z" fill="#333330"/>
<path d="M591.682 165.789L592.106 164.277L592.122 163.41L591.208 163.346L589.696 164.509L588.649 165.556L589.696 168.58L591.325 172.651L592.837 179.63L594 184.166L597.606 184.05L602.025 183.178L600.396 177.886L599.698 178.235L597.139 176.49L595.86 173.117L594.464 170.558L592.835 169.86L591.323 167.302L591.682 165.789Z" fill="#333330"/>
<path d="M602.188 183.692L597.769 184.622L593.592 184.738L592.265 179.63L590.753 172.651L589.125 168.58L588.198 165.416L582.797 166.583L572.094 168.614L545.147 174.047L545.961 177.653L546.659 181.724L546.892 181.492L548.404 179.747L550.032 177.863L551.777 177.421L552.824 176.374L554.103 174.513L555.034 174.978L557.128 174.745L558.989 173.233L560.433 172.188L561.76 171.839L562.943 172.652L565.037 173.698L566.433 174.978L567.305 176.083L570.271 177.304V179.398L574.226 180.328L575.049 180.718L576.065 179.259L578.139 180.677L577.219 182.462L576.669 185.33L575.389 187.191V188.703L575.854 189.983L579.498 190.958L582.6 190.914L584.81 191.611L586.322 191.844L587.02 190.332L585.973 188.82V187.54L584.228 186.028L582.716 182.074L583.647 178.235L583.53 176.723L582.6 175.793C582.6 175.793 583.647 174.63 583.647 174.164C583.647 173.699 583.995 172.652 583.995 172.652L585.391 171.722L586.787 170.559L587.136 171.256L586.089 172.42L585.159 175.095L585.391 175.909L586.671 176.142L587.02 180.096L585.508 180.794L585.74 183.353L586.089 183.237L586.903 181.841L588.066 183.12L586.903 184.051L586.671 186.494L588.532 188.936L591.323 189.285L592.486 188.704L594.815 191.713L595.792 192.099L600.58 190.087L602.024 187.191L602.188 183.692ZM590.22 190.156L591.035 191.959L591.151 193.239L591.965 194.576C591.965 194.576 592.605 193.937 592.605 193.704C592.605 193.471 592.081 191.494 592.081 191.494L591.558 189.807L590.22 190.156Z" fill="#333330"/>
<path d="M544.345 174.095L545.145 177.653L545.924 182.622L548.485 180.645L550.114 178.435L551.94 177.992L552.987 176.945L554.267 175.084L555.115 175.549L557.209 175.317L559.07 173.805L560.514 172.759L561.842 172.41L562.78 173.141L564.384 173.943L565.779 175.223L566.768 176.153L566.665 179.514L562.594 177.304L559.337 176.025L559.221 179.863L558.872 181.375L557.709 183.353L557.244 184.516L555.034 186.26L554.685 187.889L552.242 188.121L552.01 190.331L551.195 194.286H549.334L548.404 193.705L547.241 191.727L545.961 191.843L545.729 194.984L544.217 199.753L540.611 207.546L541.192 208.476L541.076 210.454L539.564 211.85L538.517 211.617L536.191 213.362L534.33 212.664L533.05 216.037C533.05 216.037 530.375 216.619 529.91 216.735C529.445 216.851 528.165 215.804 528.165 215.804L526.42 217.433L524.559 217.898L522.466 217.316L521.535 216.386L519.958 214.211L517.697 212.78L515.836 210.803L513.742 208.128L513.277 206.499L511.416 205.452L510.834 204.289L510.66 200.509L512.23 200.451L513.626 199.869L513.742 197.892L514.905 196.845L515.022 193.239L515.719 190.448L516.65 189.982L517.58 190.797L517.929 192.076L519.209 191.378L519.558 190.215L518.744 188.936V187.191L519.441 186.26L521.07 183.818L522 182.771L523.512 183.12L525.141 181.957L527.351 179.514L528.979 176.723L529.212 172.652L529.561 169.046V165.673L528.747 163.463L529.445 162.416L530.368 161.485L532.88 175.751L536.212 175.21L544.345 174.095Z" fill="#333330"/>
<path d="M519.322 214.28L517.65 216.21L514.625 218.769L511.532 223.016L510.252 224.295V225.807L507.461 227.32L503.39 229.762L500.857 230.039L463.539 233.564L452.2 234.843L448.875 235.212L446.091 235.192L445.928 238.229L440.043 238.332L435.041 238.798L427.537 238.946L428.913 238.786L430.481 237.518L431.962 236.696L432.126 234.393L432.784 233.077L431.628 231.25L432.205 229.878L433.834 228.599L435.346 228.134L437.323 229.064L439.882 229.995L440.696 229.762L440.812 228.134L439.882 226.389L440.115 224.761L441.51 223.714L443.371 223.248L444.534 222.783L443.953 221.504L443.488 220.108L444.302 219.526L445.058 217.142L447.21 215.921L451.397 215.223L453.956 214.874L455.003 216.27L456.282 216.851L457.562 214.525L459.655 213.478L461.051 214.641L461.633 215.455L463.145 215.106L463.029 212.664L465.122 211.501L465.936 210.919L466.751 212.082H470.124L470.705 210.57L470.473 208.942L472.566 206.383L475.94 203.591L476.288 200.334L478.266 200.102L481.057 198.822L483.035 197.427L482.802 196.031L481.755 194.984L482.162 193.414L485.128 193.239L486.873 192.658L488.967 193.821L490.13 196.961L494.317 197.194L495.597 198.473L497.109 198.59L498.853 197.543L501.063 197.892L501.994 198.939L503.971 197.078L505.251 196.147H506.414L506.879 198.124L508.159 198.822L509.901 200.416L510.017 204.371L510.599 205.534L512.46 206.581L512.925 208.209L515.019 210.884L516.88 212.862L519.322 214.28Z" fill="#333330"/>
<path d="M526.268 140.308L521.883 143.224L519.092 144.853L516.649 147.528L513.741 150.32L511.415 150.901L509.321 151.25L505.367 153.111L503.855 153.228L501.412 151.018L497.69 151.483L495.829 150.436L494.116 149.464L490.596 149.97L483.268 151.133L477.685 152.006L478.615 162.532L479.895 172.419L481.756 189.285L482.163 192.761L485.129 192.668L486.873 192.086L489.294 193.168L490.783 196.308L494.481 196.296L495.842 197.82L497.109 197.773L498.936 196.808L500.737 197.075L502.158 198.122L503.4 196.588L505.088 195.657L506.578 195.167L507.043 197.145L508.322 197.843L510.823 199.529L512.393 199.471L513.218 198.645L513.171 197.647L514.334 196.6L514.45 192.994L515.148 190.203L516.242 189.166L517.336 189.817L517.93 190.688L518.801 190.562L518.497 188.827L518.091 188.364V186.619L518.788 185.689L520.417 183.246L521.347 182.199L522.859 182.548L524.488 181.385L526.698 178.943L528.326 176.151L528.477 172.243L528.826 168.638V165.264L528.012 163.054L528.71 162.008L529.372 161.321L528.361 154.239L526.268 140.308Z" fill="#333330"/>
<path d="M418.475 59.0416L419.791 57.5612L421.353 56.9855L425.219 54.1891L426.864 53.7778L427.193 54.1068L423.492 57.8079L421.107 59.2061L419.626 59.8641L418.475 59.0416ZM480.477 82.1579L480.942 83.9607L483.269 84.0771L484.199 83.2047C484.199 83.2047 484.141 82.1579 483.908 82.0415C483.676 81.9252 482.745 80.7039 482.745 80.7039L481.175 80.8784L480.012 80.9947L479.779 81.8089L480.477 82.1579ZM502.11 127.522L499.783 121.59L498.155 115.076L496.41 112.75L494.549 111.471L493.386 112.285L490.595 113.564L489.199 117.17L487.221 119.845L486.407 120.311L485.36 119.845C485.36 119.845 483.499 118.798 483.616 118.333C483.732 117.868 483.965 114.727 483.965 114.727L486.407 113.797L486.989 111.354L487.454 109.493L489.199 108.33L488.966 101.119L487.803 99.4903L486.873 98.9087L486.291 97.3966L486.873 96.815L488.036 97.0477L488.152 95.8845L486.407 94.2561L485.477 92.3951H483.616L480.359 91.3482L476.404 88.9056H474.427L473.962 89.3709L473.264 89.0219L471.054 87.3935L468.96 88.673L466.866 90.3014L467.099 92.8603L467.797 93.093L469.309 93.4419L469.658 94.0235L467.797 94.6051L465.936 94.8377L464.889 96.1171L464.656 97.6292L464.889 98.7924L465.122 102.747L462.563 104.259L462.098 104.143V101.119L463.028 99.374L463.493 97.6292L462.912 97.0477L461.516 97.6292L460.818 100.653L458.841 101.468L457.561 102.863L457.445 103.561L457.91 104.143L457.445 106.004L455.817 106.353V107.167L456.398 108.912L455.584 113.332L454.421 116.24L454.886 119.613L455.235 120.427L454.653 122.172L454.421 122.753L454.188 124.731L456.747 129.034L458.841 133.687L459.888 137.176L459.306 140.549L458.608 144.853L456.863 148.575L456.631 150.552L454.286 152.772L457.458 152.656L472.869 151.027L478.105 150.317L478.174 151.516L483.104 150.644L490.514 149.562L493.287 149.23L493.386 148.808L493.502 147.761L495.015 145.086L496.454 143.835L496.294 140.2L497.443 139.051L498.228 138.805L498.388 136.246L499.493 134.065L500.249 134.501L500.365 134.966L500.947 135.083L502.342 134.385L502.11 127.522ZM408.31 80.0181L408.825 79.6005L410.803 79.0189L413.362 77.3905V76.6926L413.827 76.2273L418.131 75.5295L419.875 74.1337L423.016 72.6216L423.132 71.6911L424.528 69.5974L425.807 69.0158L426.738 67.7364L428.366 66.108L431.507 64.3632L434.88 64.0143L435.694 64.8285L435.462 65.5264L432.786 66.2243L431.739 68.4343L430.111 69.0158L429.762 70.7605L428.017 73.0868L427.785 74.9479L428.366 75.2968L429.064 74.4826L431.623 72.389L432.554 73.3195H434.182L436.508 74.0174L437.555 74.8316L438.602 77.0415L440.579 79.0189L443.371 78.9026L444.418 78.2047L445.581 79.1352L446.744 79.4841L447.675 78.9026H448.489L449.652 78.2047L452.56 75.6458L455.002 74.8316L459.771 74.5989L463.028 73.2032L464.889 72.2726L465.936 72.389V76.46L466.285 76.6926L468.379 77.2742L469.774 76.9252L474.194 75.7621L475.008 74.9479L476.055 75.2968V80.2983L478.382 82.5083L479.312 82.9736L480.243 83.6715L479.312 83.9041L478.731 83.6715L476.055 83.3225L474.543 83.7878L472.915 83.6715L470.589 84.7183H469.309L465.122 83.7878L461.4 83.9041L460.004 85.7651L455.002 86.2304L453.258 86.812L452.443 89.0219L451.513 89.8362L451.164 89.7198L450.117 88.5567L446.86 90.3014H446.395L445.581 89.1383L444.999 89.2546L443.604 92.3951L442.906 95.3029L440.617 100.34L439.77 99.5959L438.783 98.8538L437.387 91.4516L434.837 90.4658L433.36 88.8209L424.639 86.847L422.585 86.1061L416.663 84.5429L410.986 83.7204L408.31 80.0181Z" fill="#333330"/>
<path d="M254.884 103.447L247.294 102.866L224.207 100.495L212.528 99.0147L192.13 96.0538L177.819 93.9154L176.798 101.956L174.036 119.412L170.253 141.29L169.151 148.856L167.95 157.41L172.644 158.078L191.264 159.877L206.063 161.537L232.529 164.497L249.668 166.555L252.909 134.759L253.945 116.5L254.884 103.447Z" fill="#333330"/>
<path d="M256.624 87.9761L257.09 79.9532L258.715 62.1189C259.044 58.5 259.495 56.0232 259.702 51.0314L260.378 40.5615L238.308 38.5413L217.255 35.9823L196.202 33.0745L172.939 29.2361L159.679 26.7935L136.135 21.8054L132.912 37.1649L135.38 42.5932L134.393 45.8831L135.709 49.173L138.011 50.1599L141.336 57.9086L143.275 60.1941L143.604 61.0165L146.072 61.839L146.401 63.3194L141.301 75.9855V77.7949L143.111 80.0978H143.769L147.223 77.9594L147.717 77.1369L148.868 77.6304L148.704 81.4138L150.677 90.4609L152.816 92.2704L153.474 92.7638L154.79 94.4088L154.461 96.8762L154.954 99.3436L155.777 100.002L157.422 98.3566H159.396L161.699 99.5081L163.508 98.8501H166.469L169.101 100.002L171.075 99.6726L171.404 97.5342L173.542 97.0407L174.529 98.0277L174.858 100.331L176.138 101.313L177.242 92.9916L192.13 95.13L212.412 97.9754L224.322 99.3404L246.947 101.827L254.854 102.924L255.611 91.8236L256.624 87.9761Z" fill="#333330"/>
<path d="M116.645 130.201C100.377 127.076 106.466 128.152 101.434 127.07L104.62 114.477L107.745 101.729L108.732 98.6857L110.541 94.4089L109.637 92.7639L107.827 92.8462L107.251 92.106L107.58 91.2835L107.827 89.0628L111.035 85.115L112.351 84.786L113.173 83.9635L113.584 81.6606L114.242 81.1671L117.039 76.9725L119.835 73.8472L120 71.133L117.532 69.2413L116.587 66.0748L116.874 59.125L119.506 47.2814L122.714 32.3125L125.428 22.6073L125.976 19.8709L135.327 21.6899L132.335 37.1649L134.456 42.7087L133.7 45.9986L135.132 49.2884L137.435 50.5063L140.644 57.5622L142.583 60.3095L143.027 61.132L145.495 61.9545L145.824 63.7813L140.84 75.87L141.071 78.2568L142.996 80.3287L144.346 80.6751L147.801 78.0749L148.063 77.7142L148.176 78.3232L148.358 81.2983L150.216 90.5764L152.701 92.5013L153.012 93.1102L154.559 94.8706L153.999 96.8762L154.493 99.5745L155.893 100.233L157.422 99.0494L159.281 98.703L161.699 99.8545L163.508 99.4274L166.238 99.312L169.101 100.463L171.075 100.25L171.751 98.5733L173.543 97.3871L174.068 98.605L174.512 100.215L176.173 102.042L173.459 119.296L169.758 140.168L166.765 139.939L160.876 138.836L153.821 137.52L145.069 135.809L136.055 134.008L129.952 132.684L123.29 131.483L116.645 130.201Z" fill="#333330"/>
<path d="M67.3261 4.57739L70.4666 5.62422L77.4455 7.60157L83.6101 8.99735L98.0331 13.0684L114.55 17.1394L125.458 19.5818L124.735 22.3764L121.79 32.3125L118.583 47.2814L116.297 58.894L116.044 65.6421L106.56 62.8403L95.3573 60.4061L85.5241 60.8347L84.3869 59.7323L80.5545 61.0973L77.6932 60.917L75.7351 59.6501L74.5995 60.0281L71.5738 59.8636L70.2246 58.8766L66.7876 57.6271L65.75 57.4784L62.1628 56.5247L60.8801 57.6097L56.7851 57.363L53.3165 54.633L53.4636 54.0573L53.5126 48.349L51.9832 45.5526L49.0223 45.0259L48.7597 43.332L46.9506 42.8808L44.8774 42.496L43.5979 43.1938L41.9695 41.1002L42.2021 39.0065L44.1795 38.7739L45.3426 35.866L43.4816 35.0518L43.5979 32.3766L46.7384 31.9113L44.761 29.934L43.7142 24.8161L44.1795 22.7225V17.0231L42.9 14.6968L44.5284 7.95052L46.0405 8.29946L47.7852 10.3931L49.7626 12.2542L52.0889 13.6499L55.3457 15.162L57.5556 15.6273L59.6493 16.6741L62.0919 17.372L63.7203 17.2557V15.511L64.6508 14.6968L66.1629 13.7662L66.3956 14.5805L66.6282 15.8599L64.9998 16.2089L64.7672 17.7209L66.0466 18.7678L66.8608 20.5125L67.3261 21.9083L68.3729 21.792L68.4892 20.8614L67.7913 19.9309L67.4424 17.6046L68.024 16.3252L67.5587 15.2783V13.6499L68.8382 11.091L68.024 9.22998L66.2792 5.74054L66.5119 5.15897L67.3261 4.57739ZM60.522 8.87925L61.9759 8.76294L62.3249 9.75162L63.4299 8.58846H65.1164L65.698 9.69346L64.593 10.9148L65.0583 11.4963L64.5349 12.9503L63.5462 13.2411C63.5462 13.2411 62.9064 13.2992 62.9064 13.0666C62.9064 12.834 63.9533 11.2056 63.9533 11.2056L62.732 10.7984L62.4994 11.8453L61.9759 12.3105L60.8709 10.6821L60.522 8.87925Z" fill="#333330"/>
<path d="M256.899 239.863L273.225 240.644L295.597 241.466L293.917 258.343L293.703 271.404L293.752 272.902L296.878 275.649L298.127 276.241L299.429 276.423L299.922 275.52L300.563 276.143L301.813 276.489L302.967 275.964L303.787 276.258L303.573 278.708L306.649 279.45L308.574 280.042L311.42 280.42L312.998 281.736L315.336 280.602L317.341 280.864L318.805 282.87L319.578 283.101L319.462 284.515L321.685 285.355L323.676 284.056L324.761 284.319L326.455 284.434L326.767 285.782L330.106 287.213L332.016 287.066L333.448 284.105H333.693L334.515 285.47L337.707 286.194L340.108 287.066L342.477 287.608L344.024 287.066L344.633 285.257H347.297L348.662 285.799L350.867 284.665H351.343L351.605 285.47H354.682L356.41 284.567L357.611 284.78L358.629 286.128L360.701 287.328L363.235 288.102L365.209 289.122L366.97 290.289L369.339 289.649L370.736 290.356L371.103 297.651L371.344 304.632L371.838 311.492L372.216 314.404L374.141 317.711L374.914 320.637L377.693 325.162L378.089 327.234L378.467 327.958L377.973 333.352L376.066 336.509L376.755 338.567L376.493 340.376L375.884 345.64L374.897 347.596L375.332 350.752L371.256 351.893L364.161 355.15L363.463 356.546L361.602 357.941L360.09 358.988L359.159 359.57L355.088 363.408L353.111 364.92L349.272 367.246L345.201 368.991L340.665 371.434L339.386 372.481L335.198 375.04L332.756 375.505L329.964 379.459L327.056 379.692L326.358 381.088L327.987 382.484L326.94 386.438L326.009 389.695L325.195 392.487L324.614 395.744L325.195 397.488L326.475 402.49L327.173 406.91L328.452 408.887L327.754 409.934L325.544 411.33L321.473 408.538L317.518 407.724L316.588 408.073L314.262 407.608L311.237 405.398L307.515 404.583L302.049 402.141L300.536 399.349L299.606 394.697L297.28 393.301L296.814 391.673L297.28 391.207L297.512 388.765L296.582 388.299L296.117 387.602L297.047 384.461L295.884 382.833L293.558 381.902L291.115 378.762L288.556 373.993L285.532 372.132L285.648 370.736L281.81 361.896L281.228 358.872L279.949 357.476L279.832 356.429L275.529 352.591L273.668 350.381V349.567L271.807 348.055L266.922 347.24L261.571 346.775L259.361 345.147L256.104 346.426L253.545 347.473L251.917 349.799L251.219 352.474L248.079 356.894L246.334 358.639L244.473 357.941L243.193 357.127L241.798 356.662L239.006 355.033V354.568L237.727 353.172L234.005 351.66L228.654 346.077L227.026 342.704V336.888L224.699 332.236L224.35 330.258L223.187 329.56L222.373 328.048L218.767 326.536L217.837 325.373L212.719 319.674L211.788 317.347L208.415 315.719L207.368 312.579L205.507 310.485L204.112 310.136L203.645 306.77L209.402 307.264L230.293 309.238L251.183 310.389L252.828 293.282L255.625 253.31L256.776 239.821L257.763 239.842M328.977 408.189L328.57 403.071L326.592 397.895L326.185 392.835L327.29 386.903L329.675 381.96L332.175 378.063L334.443 375.504L334.909 375.679L331.477 380.448L328.337 385.158L326.883 389.927L326.65 393.649L327.29 398.069L329.151 403.245L329.5 406.967L329.616 408.014L328.977 408.189Z" fill="#BE984F"/>
<path d="M98.3853 278.269L101.13 277.918L102.199 276.47L102.726 275.074L100.441 275.009L99.6498 273.74L100.21 272.507L100.177 268.081L101.772 267.126L103.713 265.267L104.009 261.731L105.194 259.214L106.592 257.701L108.944 256.467L109.864 255.942L110.408 254.874L109.784 254.232L109.092 253.145L108.419 249.297L106.329 245.53L106.399 243.525L104.816 241.188L94.0238 224.474L80.0419 203.815L63.9057 180.047L54.7662 165.984L56.059 160.798L60.9606 142.128L66.8001 119.51L57.9032 117.109L48.1981 114.642L39.1509 111.681L33.7226 110.2L25.4979 108.062L20.4249 106.327L19.288 109.726L19.1717 115.076L15.4496 123.567L13.2396 125.428L13.007 126.242L11.7275 126.824L10.6807 129.848L10.0991 132.175L12.0765 135.199L13.2396 138.223L14.0538 140.782L13.8212 145.434L12.5417 147.644L12.0765 151.832L11.3786 154.507L12.658 157.298L14.6354 160.555L16.2638 164.045L17.1943 166.953L16.9617 169.279L16.7291 169.628V171.14L20.8001 175.676L20.4511 177.421L19.9859 179.049L19.5206 180.445L19.6369 186.377L21.149 189.052L22.5448 190.913L24.5221 191.262L25.22 193.24L24.4058 195.799L22.8937 196.962H22.0795L21.498 199.753L21.8469 201.847L24.1732 204.987L25.3363 208.826L26.3832 212.199L27.3137 214.409L29.7563 218.596L30.8031 220.457L31.1521 222.551L32.3152 223.249V224.994L31.7336 226.389L30.4542 231.507L30.1052 232.903L31.85 234.88L34.8741 235.229L38.1309 236.509L40.9225 238.021H43.0162L45.1098 240.231L46.9709 243.72L47.7851 245.349L50.5766 246.861L54.0661 247.442L55.1129 248.954L55.5781 251.281L54.5313 251.746L54.7639 252.444L57.0902 253.025L59.0676 253.142L61.1612 256.515L63.9528 259.539L64.5344 261.167L66.3954 264.192L66.628 266.518V273.264L66.977 274.544L74.1885 275.59L88.3789 277.568L98.3853 278.269ZM35.107 242.498L36.0375 243.603L35.9212 244.533L33.5949 244.475L33.1878 243.603L32.7225 242.556L35.107 242.498ZM36.5028 242.498L37.3751 242.033L39.9341 243.545L42.1441 244.417L41.5043 244.882L38.2475 244.708L37.0844 243.545L36.5028 242.498ZM51.3911 256.747L52.6706 258.433L53.2521 259.131L54.3571 259.538L54.7642 258.491L54.0663 257.212L52.1472 255.758L51.3911 255.874V256.747ZM50.3443 262.969L51.6237 265.238L52.4961 266.633L51.4493 266.808L50.5187 265.935C50.5187 265.935 49.9953 264.889 49.9953 264.598C49.9953 264.307 49.9953 263.028 49.9953 263.028L50.3443 262.969Z" fill="#BE984F"/>
<path d="M99.1088 278.807L97.2187 280.36L96.9861 281.406L97.335 282.104L110.944 289.781L119.667 295.248L130.252 301.412L142.349 308.624L151.189 310.369L169.268 312.315L171.089 303.316L173.789 283.715L178.8 245.667L181.864 223.387L164.166 220.74L144.591 217.45L120.539 212.905L118.437 225.922L118.108 226.251L116.874 228.142L115.065 228.06L114.16 226.086L112.186 225.84L111.528 225.017H110.87L110.212 225.428L108.814 226.169L108.732 231.186L108.567 232.419L108.156 241.466L107.087 243.029L106.676 245.414L108.649 248.951L109.554 253.146L110.13 253.886L110.87 254.297L110.788 255.942L109.636 256.929L107.169 258.163L105.771 259.561L104.702 262.193L104.29 265.729L102.234 267.703L100.754 268.197L100.672 272.391L100.343 273.625L100.672 274.201L103.303 274.612L102.892 276.586L101.823 278.149L99.1088 278.807Z" fill="#BE984F"/>
<path d="M101.204 127.763L116.299 131.009L123.29 132.407L129.952 133.723L134.711 134.898L134.309 139.118L131.76 151.586L128.814 165.962L127.416 172.955L125.854 182.511L123.584 194.321L121.05 205.607L119.634 212.931L117.86 224.998L117.531 225.789L116.759 227.565L115.411 227.483L114.622 225.509L112.648 225.147L111.644 224.44L110.178 224.671L109.52 225.197L108.583 226.168L108.27 231.185L107.875 232.419L107.579 241.12L106.628 242.353L105.278 240.726L94.8323 224.359L80.8503 203.468L64.4832 179.123L55.5747 165.753L56.752 161.029L61.769 142.359L67.4441 119.804L91.6247 125.663L101.494 127.801" fill="#333330"/>
<path d="M182.012 222.546L164.282 220.047L145.169 216.527L120.831 212.195L121.974 205.607L124.277 194.668L126.662 182.742L128.224 172.955L129.623 166.539L132.337 151.817L134.886 139.234L135.688 135.224L144.838 136.848L153.474 138.329L160.876 139.645L166.88 140.632L169.527 140.976L168.458 148.625L166.795 158.103L172.413 158.771L184.217 160.069L190.125 160.685L188.592 176.491L186.289 192.727L183.589 212.748L182.39 220.74L182.012 222.546Z" fill="#333330"/>
<path d="M272.418 184.765L273.454 169.453L250.361 167.248L232.76 165.306L205.948 162.345L191.061 160.535L189.169 176.491L186.866 192.612L184.166 212.748L183.083 220.74L182.903 222.728L207.313 225.458L234.467 228.528L257.463 230.806L269.412 231.415" fill="#BE984F"/>
<path d="M203.42 310.137L202.952 305.731L209.171 306.109L230.408 308.314L250.837 309.35L252.251 293.282L254.932 253.079L255.737 239.129L257.186 239.38L257.176 231.412L234.005 229.683L207.428 226.497L182.631 223.537L179.609 245.667L174.597 283.946L171.897 303.316L170.423 312.892L181.547 314.323L182.477 307.112L194.458 308.973L203.42 310.137Z" fill="#333330"/>
<path d="M100.95 127.126L104.042 114.246L107.398 101.382L108.155 98.3393L109.848 94.2934L109.406 93.4567L107.596 93.4235L106.674 92.2214L107.003 91.168L107.365 88.8319L110.573 84.884L111.889 84.0932L112.711 83.2707L113.781 80.7052L116.692 76.6261L119.258 73.8471L119.422 71.3639L117.07 69.5877L116.201 66.3427L106.676 63.6485L95.8191 61.0988L84.7157 61.1811L84.3868 60.1941L80.4389 61.6746L77.2313 61.2633L75.5041 60.1119L74.5994 60.6054L71.2272 60.4409L69.9935 59.4539L66.2102 57.9735L65.6345 58.0557L62.5091 56.9865L61.1109 58.3024L56.6695 58.0557L52.3927 55.0948L52.8862 54.5191L53.0507 48.9263L51.4057 46.1299L48.4448 45.7187L47.9514 43.9092L46.2577 43.5735L42.0857 45.0548L40.4573 49.7074L38.131 56.9189L35.8047 61.5715L32.1989 71.6909L27.5464 81.4613L21.7306 90.5339L20.3348 92.6275L19.7533 98.7922L18.8228 103.096L20.7713 105.634L25.6134 107.254L33.9536 109.623L39.6128 111.45L48.5445 114.064L58.1342 116.647L67.6084 119.213" fill="#333330"/>
<path d="M339.104 91.8575L338.841 86.464L337.41 81.2002L336.094 71.3796L335.765 64.3064L334.333 62.0699L333.182 58.2201V50.8179L333.675 48.0215L332.153 44.0649L311.703 43.6591L298.326 43.1939L279.251 42.2633L261.302 40.9079L260.395 51.1468L259.408 62.0035L257.783 79.9532L257.433 87.8823L298.312 90.5906L339.104 91.8575Z" fill="#333330"/>
<path d="M340.177 146.189L339.491 145.411L338.397 142.802L339.713 140.138L340.469 136.141L338.61 134.661L338.397 132.687L338.824 130.531L340.371 129.954L340.584 125.827L340.535 104.18L340.091 102.042L337.13 99.4592L336.423 98.0277V96.6453L337.788 95.7248L338.89 94.3915L339.022 92.4349L297.735 91.2835L257.318 88.4871L256.766 92.2856L255.606 103.703L254.638 116.616L253.486 134.313L265.018 135.053L279.147 135.876L292.093 136.813L309.201 137.751L316.932 137.192L318.99 138.836L322.098 140.975L322.805 141.517L325.353 140.877L328.265 140.663L330.239 140.614L332.478 141.486L335.751 142.522L338.005 143.789L338.449 145.171L339.107 146.536L339.615 146.19L340.177 146.189Z" fill="#333330"/>
<path d="M348.413 177.709L349.4 179.634L349.467 181.164L351.161 183.844L353.117 186.113H349.484L318.199 185.437L288.852 184.797L273.605 184.105L274.377 168.76L250.361 166.786L253.486 135.121L264.672 135.861L279.147 136.684L291.978 137.506L309.085 138.329L316.816 138L318.297 139.645L321.751 141.783L322.574 142.441L325.699 141.454L328.495 141.125L330.469 140.961L331.785 141.948L335.404 143.099L337.543 144.25L337.872 145.402L338.53 146.882H339.846L340.42 146.916L341.127 150.666L343.101 156.44L343.989 159.779L345.519 162.527L345.897 166.079L346.933 169.155L347.328 173.81" fill="#333330"/>
<path d="M407.663 145.072L407.786 146.469L409.431 147.289L410.252 148.193L410.5 149.101L413.296 151.405L413.79 152.969L413.214 155.028L412.143 157.578L411.568 159.551L410.005 160.703L408.771 161.115L404.824 162.184L404.331 163.826L403.755 165.47L404.167 166.457L405.402 167.69L405.4 170.324L403.84 171.476L403.509 172.546V174.356L402.438 174.685L401.205 175.671L400.877 176.74L401.205 177.975L400.216 178.842L398.566 176.905L397.499 175.016L391.498 175.591L384.179 176.001L366.166 176.496L356.787 176.66L350.043 176.825L349.096 176.912L347.906 173.695L347.741 168.924L346.59 165.964L346.096 162.18L344.451 159.548L343.793 156.094L341.819 150.666L340.997 146.8L340.01 145.237L338.858 143.263L340.174 140.138L341.161 136.026L339.187 134.545L338.858 132.571L339.516 130.762H340.75H349.057L384.752 130.268L399.054 129.775L400.385 131.751L401.703 133.637L402.031 134.216L400.714 136.194L401.042 139.231L402.851 142.028L404.987 143.34L406.718 143.506L407.663 145.072Z" fill="#333330"/>
<path d="M449.369 335.984L449.186 336.888H445.464L444.418 336.307L442.905 336.074L438.02 337.47L436.741 336.888L434.88 339.912L434.087 340.472L433.278 338.682L432.455 335.886L429.988 333.583L430.81 328.155L430.317 327.497L429.001 327.661L423.079 328.155L405.643 328.648L405.314 327.497L405.807 321.739L408.275 317.298L412.058 310.718L411.4 309.238H412.223L412.716 306.935L411.071 305.619L411.236 304.303L409.755 301.013L409.55 297.168L410.537 295.256L410.249 292.13L409.262 289.992L410.249 289.005L409.262 287.525L409.591 286.209L410.249 281.767L412.387 279.793L411.894 278.313L414.526 274.53L416.5 273.872V272.062L416.006 271.075L417.98 267.292L419.954 266.469L420.031 264.014L426.273 263.959L443.604 262.563L446.9 262.398L446.906 266.983L447.022 278.963L446.44 301.296L446.324 311.415L448.301 324.908L449.369 335.984Z" fill="#333330"/>
<path d="M444.953 216.465L445 214.409L445.349 211.152L446.977 209.058L448.257 206.267L450.118 203.242L449.769 199.055L448.49 197.078L448.257 194.751L448.838 190.797L448.49 185.795L447.559 174.28L446.629 163.23L445.93 154.798L448.14 155.438L449.187 156.136L450.001 155.903L451.513 154.507L453.549 153.344L457.213 153.227L473.032 151.599L477.044 151.215L478.125 162.696L481.184 189.203L481.615 193.356L481.347 194.984L482.231 196.276L482.3 197.263L480.486 198.414L477.94 199.53L475.636 199.926L475.205 203.428L471.914 205.811L469.902 208.697L470.134 210.407L469.716 211.511H467.322L466.182 210.348L464.388 211.256L462.457 212.337L462.574 214.535L461.715 214.721L461.378 213.988L459.819 212.907L457.48 213.872L456.364 216.035L455.33 215.453L454.283 214.302L451.071 214.651L447.047 215.349L444.953 216.465Z" fill="#333330"/>
<path d="M444.51 217.002V214.409L444.696 210.907L446.406 208.65L447.685 205.94L449.546 203.161L449.279 199.382L447.836 196.833L447.767 194.425L448.267 190.633L447.673 185.469L446.906 174.117L445.975 163.312L445.312 154.937L445.115 154.274L444.534 152.413L443.603 149.738L442.44 148.459L441.393 146.598L441.225 142.648L434.1 143.593L414.526 144.826L408.275 144.518L408.439 146.224L410.084 146.718L410.742 147.54L411.071 148.856L413.868 151.324L414.361 152.969L413.868 155.436L412.552 158.068L412.058 159.877L410.413 161.193L409.097 161.687L405.314 162.674L404.82 163.99L404.327 165.47L404.82 166.457L406.136 167.609L405.972 170.57L404.656 171.721L404.163 172.872V174.846L402.847 175.175L401.695 175.998L401.531 176.985L401.695 178.465L400.461 179.411L399.721 181.426L400.05 184.058L401.695 189.322L406.959 194.75L410.907 197.382L410.742 200.507L411.4 201.494L416.006 201.823L417.98 202.81L417.487 205.442L415.842 209.719L415.348 212.022L416.993 214.818L421.599 218.602L424.889 219.095L426.369 222.714L427.85 225.017L427.192 227.155L428.343 230.116L429.659 231.597L431.058 231.027L431.552 229.47L433.017 228.436L435.346 227.644L437.568 228.493L439.637 229.26L440.206 229.109L440.159 228.215L439.392 226.226L439.706 224.516L441.347 223.387L443.045 222.677L443.881 222.375L443.463 221.422L442.916 219.863L443.812 218.955L444.51 217.002Z" fill="#333330"/>
<path d="M339.516 92.435L339.187 86.3487L337.871 81.0849L336.555 71.3798L336.226 64.3065L334.911 61.8391L333.759 58.2203V50.818L334.253 48.0216L332.942 44.0992L354.623 44.1245L354.855 38.1925L355.321 38.0762L356.949 38.4251L358.345 39.0067L358.926 42.9614L359.973 47.3813L361.136 48.5445H364.626L364.858 49.5913L369.395 49.824V51.336H372.884L373.117 50.4055L373.931 49.5913L375.559 49.1261L376.49 49.824H378.583L381.375 51.685L385.213 53.4297L386.958 53.7786L387.307 53.0808L388.354 52.7318L388.703 54.8255L390.564 55.756L390.913 55.4071L391.843 55.5234V57.0355L393.704 57.7333H395.914L397.077 57.1518L399.404 54.8255L401.265 54.4765L401.846 55.756L402.195 56.6865H402.893L403.591 56.1049L409.988 55.8723L411.268 58.0823H411.733L412.247 57.3022L415.441 57.0355L415.001 58.6755L412.167 59.9973L405.514 62.9193L402.079 64.3633L399.869 66.2243L398.124 68.7832L396.496 71.5748L395.216 72.1564L391.96 75.7621L391.029 75.8784L388.265 77.9894L386.239 80.2636L386.074 82.4009L386.237 87.9973L385.088 89.1487L381.305 92.1084L379.987 96.222L381.798 98.8466L382.129 100.66L381.303 102.799L381.139 105.432L381.468 110.529L383.933 113.484H386.074L387.88 115.134L390.184 116.116L392.817 119.739L397.916 123.353L399.234 124.837L399.402 128.795L384.589 129.289L341.24 129.619L340.997 103.95L340.668 101.811L337.707 99.3437L336.884 98.0278V96.8763L338.365 95.7249L339.352 94.7379L339.516 92.435Z" fill="#333330"/>
<path d="M441.011 141.872L441.278 139.735L440.115 136.478L439.649 132.058L438.835 130.314L439.533 128.104L440.115 126.01L441.161 124.149L440.696 121.706L440.231 119.147L440.58 117.868L441.976 116.123L442.092 114.146L441.51 113.215L441.976 111.354L442.325 109.028L444.302 104.957L446.396 100.072L446.512 98.4434L446.279 97.7455L445.698 98.0944L442.674 102.631L440.696 105.539L439.3 106.818L438.719 108.446L437.672 109.028L436.858 110.424L435.811 110.191L435.695 108.912L436.625 107.167L438.137 103.794L439.417 102.631L440.209 100.982L439.036 100.331L438.049 99.3436L436.897 91.9414L434.266 91.1189L433.279 89.474L424.231 87.5001L422.422 86.6776L416.5 85.0327L410.579 84.2102L407.579 80.3214L407.198 81.2288L406.383 81.1125L405.918 80.2983L403.941 79.7167L403.127 79.833L401.847 80.5309L401.149 80.0657L401.615 78.6699L403.01 76.4599L403.825 75.6457L402.429 74.5989L400.917 75.1804L398.823 76.5762L393.473 78.9025L391.379 79.3678L389.285 79.0188L388.579 78.3869L387.056 80.4268L386.891 82.4008V88.487L386.069 89.6385L382.286 92.4349L380.641 96.7117L380.97 96.8762L382.779 98.3567L383.273 100.66L381.957 102.962V105.759L382.286 110.529L384.424 112.668H386.891L388.207 114.971L390.675 115.3L393.471 119.412L398.57 122.373L400.051 124.347L400.709 129.693L401.202 132.078L402.847 133.229L403.012 134.216L401.531 136.684L401.696 138.987L403.505 141.783L405.315 142.606L407.453 142.934L408.419 143.927L415.019 143.927L433.775 142.858L441.011 141.872Z" fill="#333330"/>
<path d="M399.89 179.535L398.077 177.314L397.255 175.669L391.662 176.162L384.589 176.491L366.33 177.149L356.625 177.314L350.95 177.396L349.305 177.478L350.209 179.288L350.045 180.933L351.854 183.729L354.075 186.69L356.296 188.664L357.941 188.828L358.928 189.486V191.625L357.612 192.776L357.283 194.421L358.763 196.889L360.573 199.027L362.382 200.343L363.369 208.732L362.875 234.146L363.04 237.518L363.369 241.392L380.229 241.308L396.926 240.814L411.895 240.238L420.28 240.072L421.841 242.537L421.349 244.917L419.128 246.646L418.716 247.968L422.585 248.297L425.388 247.804L426.623 243.851L427.092 239.637L428.761 238.18L429.993 237.11L431.473 236.369L431.556 234.311L431.969 233.077L431.227 231.819L429.252 231.923L427.691 230.035L426.703 226.992L427.279 225.18L425.88 222.714L424.563 219.422L421.11 218.847L416.096 214.818L414.859 211.859L415.434 209.556L416.916 205.197L417.246 203.137L415.844 202.395L410.911 201.821L410.172 200.589L410.091 197.545L406.143 195.077L401.124 189.485L399.48 184.221L399.314 181.181L399.89 179.535Z" fill="#333330"/>
<path d="M425.19 248.194L422.421 248.869L417.98 248.54L418.474 246.401L420.777 244.427L421.106 242.782L419.79 240.644L411.894 240.973L396.925 241.631L380.147 242.124L363.368 242.453L364.52 247.388V253.31L365.507 261.206L365.671 288.429L367.316 289.827L369.454 288.841L371.428 289.663L371.738 297.091L388.204 296.988L401.777 296.412L409.059 296.27L409.884 294.766L409.677 292.212L408.364 290.074L409.514 289.005L408.364 287.198L408.856 285.392L409.841 281.359L411.653 279.875L411.159 278.231L413.791 274.366L415.765 273.382L415.683 272.307L415.435 270.994L417.49 266.965L419.219 266.061L419.496 263.595L420.77 262.702L421.386 259.655L420.421 256.769L423.329 255.059L423.724 253.607L424.613 250.536L425.19 248.194Z" fill="#333330"/>
<path d="M270.059 232.09L262.369 231.761L257.742 231.412L257.928 231.556L257.421 239.054L273.225 240.066L296.289 241.004L294.61 258.574L294.281 271.404L294.445 272.556L297.571 275.188L299.051 276.01L299.544 275.845L300.038 274.365L301.025 275.681H302.505V274.694L304.479 275.681L304.15 278.477L307.111 278.642L308.921 279.464L311.882 279.958L313.691 281.274L315.336 279.793L317.803 280.287L319.613 282.754H320.271V284.399L321.916 284.893L323.561 283.248L324.877 283.741H326.686L327.344 285.551L330.798 286.867L331.785 286.373L333.101 283.412H333.924L334.746 284.893L337.707 285.386L340.339 286.373L342.477 287.031L343.793 286.373L344.287 284.564H347.412L348.893 285.222L350.867 283.741H351.689L352.183 284.893H355.143L356.295 283.412L357.611 283.741L359.091 285.551L361.394 286.867L363.697 287.525L365.094 288.33L364.814 261.552L363.827 253.656L363.711 247.273L362.675 242.569L362.115 237.403L362.066 234.657L353.334 234.886L319.942 234.558L287.536 233.077L270.059 232.09Z" fill="#333330"/>
<path d="M362.182 233.931L353.103 234.078L319.942 233.749L287.883 232.269L270.162 231.364L273.143 184.798L288.852 185.374L317.967 186.361L349.715 186.69H353.381L355.717 189.01L357.709 189.175L358.349 189.948V191.394L357.033 192.545L356.704 194.421L358.3 197.004L360.11 199.258L361.919 200.689L362.675 208.732L362.182 233.931Z" fill="#333330"/>
<path d="M433.284 340.32L432.543 338.437L431.721 336.212L429.335 333.665L429.994 328.808L429.909 327.987L429.001 328.233L423.079 328.889L405.072 329.22L404.579 327.497L405.236 321.413L407.622 317.135L411.242 310.882L410.829 309.156L411.733 308.666L412.063 307.262L410.418 305.782L410.338 304.385L409.021 301.258L408.692 296.984L401.695 297.065L387.878 297.723L371.901 297.744L371.922 304.632L372.415 311.376L372.909 314.173L374.718 317.134L375.376 320.752L378.502 324.7L378.666 327.003L379.16 327.497L378.666 333.583L376.528 337.202L377.679 338.682L377.186 340.492L376.692 345.755L375.705 348.058L375.793 350.66L379.165 349.567L384.981 349.334L392.425 351.893L397.078 352.707L399.753 351.66L402.079 352.475L404.406 353.172L404.987 351.66L402.661 350.846L400.8 351.195L398.822 350.032C398.822 350.032 398.939 349.101 399.404 348.985C399.869 348.869 401.614 348.287 401.614 348.287L402.893 349.334L404.173 348.636L406.499 349.101L407.546 350.846L407.779 352.475L411.035 352.707L412.315 353.987L411.733 355.15L410.803 355.731L411.966 356.895L418.014 359.453L420.573 358.523L421.271 356.778L423.132 356.313L424.412 355.266L425.342 355.964L425.924 358.058L424.295 358.639L424.761 359.104L427.203 358.174L428.832 355.731L429.413 355.382L427.901 355.15L428.483 353.987L428.366 352.94L429.878 352.591L430.693 351.66L431.158 352.242C431.158 352.242 431.042 354.452 431.623 354.452C432.205 354.452 434.647 354.917 434.647 354.917L437.555 356.313L438.253 357.36H440.347L441.161 358.058L442.789 355.848V354.801H441.859L439.416 352.824L435.229 352.242L432.903 350.614L433.717 348.636L435.345 348.869L435.462 348.404L434.182 347.706V347.357H436.508L437.788 345.147L436.857 343.751L436.625 341.774L435.578 341.89L434.182 343.402L433.717 345.263L431.507 344.798L430.809 343.518L432.088 342.123L433.542 340.843L433.284 340.32Z" fill="#333330"/>
<path d="M596.398 193.722L596.294 192.321L600.938 190.487L600.383 192.802L598.282 195.521L597.981 198.821L598.314 201.26L596.998 204.842L595.441 206.22L594.383 202.881L594.704 198.961L595.846 195.951L596.398 193.722ZM598.038 214.085L556.182 223.133L529.253 226.931L524.448 226.661L522.588 228.047L517.307 228.206L511.276 228.91L504.854 229.594L510.956 226.034L510.946 224.541L512.04 222.997L519.634 214.722L522.473 217.943L525.195 218.637L527.025 217.816L528.635 216.873L530.46 217.84L533.276 216.812L534.626 213.534L536.498 213.923L538.552 212.389L539.847 212.744L541.881 210.099L542.131 208.6L541.438 207.683L542.16 206.34L545.954 197.506L546.398 193.38L547.282 193.003L548.85 194.761L551.682 194.544L553.07 189.095L555.08 188.691L555.835 186.719L557.691 185.03L558.604 183.345L559.686 180.933L559.747 177.287L566.813 180.037C567.303 180.282 567.286 176.595 567.286 176.595L570.2 177.586L569.867 179.478L575.736 181.593L576.666 182.884L576.041 185.533L575.133 186.487L574.769 187.743L575.124 189.472L576.533 190.392L579.352 191.432L581.474 192.128L584.968 192.806L586.517 194.309L588.812 194.598L589.437 195.462L589.121 198.836L590.11 199.629L589.765 201.018L590.65 201.587L590.49 202.583L588.552 202.514L588.616 203.677L590.257 204.787L590.345 205.803L591.62 207.087L591.974 208.903L590.137 209.897L591.268 210.972L595.442 209.759L598.038 214.085Z" fill="#333330"/>
<path d="M576.863 182.641L576.088 181.463L575.359 180.857L576.15 179.694L577.756 180.781L576.863 182.641Z" fill="#333330"/>
<path opacity="0.9" d="M246.971 190.749C246.972 191.537 246.817 192.317 246.515 193.045C246.214 193.773 245.772 194.434 245.215 194.991C244.658 195.548 243.996 195.99 243.268 196.292C242.54 196.594 241.759 196.749 240.971 196.749C240.183 196.749 239.403 196.594 238.674 196.292C237.946 195.99 237.285 195.548 236.727 194.991C236.17 194.434 235.728 193.773 235.427 193.045C235.126 192.317 234.971 191.537 234.971 190.749C234.971 189.961 235.126 189.181 235.427 188.453C235.728 187.725 236.17 187.064 236.727 186.506C237.285 185.949 237.946 185.507 238.674 185.206C239.403 184.904 240.183 184.749 240.971 184.749C241.759 184.749 242.54 184.904 243.268 185.206C243.996 185.507 244.658 185.949 245.215 186.506C245.772 187.064 246.214 187.725 246.515 188.453C246.817 189.181 246.972 189.961 246.971 190.749Z" fill="black"/>
<path opacity="0.9" d="M65.9998 246C66.0002 246.788 65.8453 247.568 65.544 248.296C65.2426 249.024 64.8007 249.685 64.2435 250.242C63.6863 250.8 63.0248 251.242 62.2966 251.543C61.5684 251.845 60.788 252 59.9998 252C59.2115 252 58.4311 251.845 57.7029 251.543C56.9747 251.242 56.3132 250.8 55.756 250.242C55.1988 249.685 54.7569 249.024 54.4555 248.296C54.1542 247.568 53.9993 246.788 53.9998 246C53.9993 245.212 54.1542 244.432 54.4555 243.704C54.7569 242.976 55.1988 242.315 55.756 241.758C56.3132 241.2 56.9747 240.758 57.7029 240.457C58.4311 240.155 59.2115 240 59.9998 240C60.788 240 61.5684 240.155 62.2966 240.457C63.0248 240.758 63.6863 241.2 64.2435 241.758C64.8007 242.315 65.2426 242.976 65.544 243.704C65.8453 244.432 66.0002 245.212 65.9998 246Z" fill="black"/>
<path opacity="0.9" d="M346.3 302.494C346.301 303.282 346.146 304.062 345.844 304.79C345.543 305.518 345.101 306.179 344.544 306.736C343.987 307.294 343.325 307.736 342.597 308.037C341.869 308.339 341.088 308.494 340.3 308.494C339.512 308.494 338.732 308.339 338.003 308.037C337.275 307.736 336.614 307.294 336.057 306.736C335.499 306.179 335.057 305.518 334.756 304.79C334.455 304.062 334.3 303.282 334.3 302.494C334.3 301.706 334.455 300.926 334.756 300.198C335.057 299.47 335.499 298.809 336.057 298.251C336.614 297.694 337.275 297.252 338.003 296.951C338.732 296.649 339.512 296.494 340.3 296.494C341.088 296.494 341.869 296.649 342.597 296.951C343.325 297.252 343.987 297.694 344.544 298.251C345.101 298.809 345.543 299.47 345.844 300.198C346.146 300.926 346.301 301.706 346.3 302.494Z" fill="black"/>
<path opacity="0.9" d="M136.354 269.76C136.355 270.548 136.2 271.328 135.899 272.056C135.597 272.784 135.155 273.446 134.598 274.003C134.041 274.56 133.379 275.002 132.651 275.304C131.923 275.605 131.143 275.76 130.354 275.76C129.566 275.76 128.786 275.605 128.058 275.304C127.329 275.002 126.668 274.56 126.111 274.003C125.554 273.446 125.112 272.784 124.81 272.056C124.509 271.328 124.354 270.548 124.354 269.76C124.354 268.973 124.509 268.193 124.81 267.465C125.112 266.737 125.554 266.075 126.111 265.518C126.668 264.961 127.329 264.519 128.058 264.217C128.786 263.916 129.566 263.76 130.354 263.76C131.143 263.76 131.923 263.916 132.651 264.217C133.379 264.519 134.041 264.961 134.598 265.518C135.155 266.075 135.597 266.737 135.899 267.465C136.2 268.193 136.355 268.973 136.354 269.76Z" fill="black"/>
<path opacity="0.9" d="M561.697 372.059C561.698 372.847 561.543 373.627 561.241 374.355C560.94 375.083 560.498 375.744 559.941 376.301C559.384 376.859 558.722 377.301 557.994 377.602C557.266 377.904 556.485 378.059 555.697 378.059C554.909 378.059 554.129 377.904 553.4 377.602C552.672 377.301 552.011 376.859 551.453 376.301C550.896 375.744 550.454 375.083 550.153 374.355C549.852 373.627 549.697 372.847 549.697 372.059C549.697 371.271 549.852 370.491 550.153 369.763C550.454 369.035 550.896 368.374 551.453 367.817C552.011 367.259 552.672 366.817 553.4 366.516C554.129 366.214 554.909 366.059 555.697 366.059C556.485 366.059 557.266 366.214 557.994 366.516C558.722 366.817 559.384 367.259 559.941 367.817C560.498 368.374 560.94 369.035 561.241 369.763C561.543 370.491 561.698 371.271 561.697 372.059Z" fill="black"/>
</svg>
