<svg width="213" height="98" viewBox="0 0 213 98" fill="none" xmlns="http://www.w3.org/2000/svg">
<g clip-path="url(#clip0_1120_3117)">
<path d="M0 83.6479H4.81834V96.9916H7.62292V83.6479H12.4413V81.192H0V83.6479Z" fill="white"/>
<path d="M19.2827 81.192H16.4863V96.9833H19.2827V81.192Z" fill="white"/>
<path d="M23.3262 83.6479H28.1444V96.9916H30.9491V83.6479H35.7673V81.192H23.3262V83.6479Z" fill="white"/>
<path d="M43.4067 81.192L36.5664 96.9833H39.6971L41.4092 92.5873H47.6869L49.4072 96.9833H52.603L45.828 81.192H43.4067ZM42.2978 90.2952L44.54 84.5402L46.7901 90.2952H42.2978Z" fill="white"/>
<path d="M187.491 81.192L180.65 96.9833H183.781L185.492 92.5873H191.77L193.491 96.9833H196.686L189.912 81.192H187.491ZM186.382 90.2952L188.624 84.5402L190.874 90.2952H186.382Z" fill="white"/>
<path d="M67.4404 93.0213H67.3997L60.0865 81.192H56.377V96.9916H59.1816V84.7859H59.2223L66.6904 96.9916H70.2451V81.192H67.4404V93.0213Z" fill="white"/>
<path d="M78.7222 81.192H75.9258V96.9833H78.7222V81.192Z" fill="white"/>
<path d="M94.142 91.0811C94.142 91.5395 94.0848 91.9979 93.9626 92.4564C93.8403 92.9065 93.6446 93.3159 93.3755 93.6679C93.0983 94.0282 92.7397 94.3146 92.2912 94.5357C91.8428 94.7567 91.2803 94.8712 90.6118 94.8712C89.9433 94.8712 89.3888 94.7567 88.9323 94.5357C88.4839 94.3146 88.1169 94.02 87.8479 93.6679C87.5707 93.3077 87.3751 92.9065 87.261 92.4564C87.1386 92.0061 87.0816 91.5477 87.0816 91.0811V81.192H84.2852V91.1875C84.2852 92.137 84.4481 92.9967 84.7661 93.7662C85.0841 94.5357 85.5325 95.1824 86.0951 95.7144C86.6658 96.2466 87.3343 96.6641 88.1089 96.9507C88.8752 97.2371 89.7149 97.3845 90.6199 97.3845C91.5248 97.3845 92.3564 97.2371 93.131 96.9507C93.8973 96.6641 94.5659 96.2466 95.1284 95.7144C95.691 95.1824 96.1393 94.5275 96.4573 93.7662C96.7834 92.9967 96.9465 92.1453 96.9465 91.1875V81.192H94.1501V91.0811H94.142Z" fill="white"/>
<path d="M111.026 92.4154H110.961L106.876 81.192H102.498V96.9916H105.164V84.2947H105.205L109.917 96.9916H111.874L116.651 84.2947H116.692V96.9916H119.472V81.192H115.07L111.026 92.4154Z" fill="white"/>
<path d="M141.34 89.1163C140.891 88.7724 140.394 88.5023 139.847 88.2895C139.309 88.0849 138.788 87.8966 138.282 87.7328C137.834 87.6018 137.426 87.4626 137.059 87.3317C136.692 87.2008 136.374 87.0451 136.113 86.8651C135.853 86.685 135.648 86.4722 135.502 86.2184C135.355 85.9645 135.282 85.6616 135.282 85.3015C135.282 84.9167 135.363 84.5812 135.535 84.3109C135.706 84.0326 135.926 83.8115 136.186 83.6397C136.456 83.4678 136.749 83.3449 137.076 83.2631C137.402 83.1812 137.727 83.1403 138.054 83.1403C138.6 83.1403 139.146 83.2714 139.684 83.5332C140.222 83.7952 140.647 84.1144 140.94 84.5075L142.758 82.5017C142.146 81.937 141.437 81.5113 140.614 81.233C139.791 80.9464 138.983 80.8073 138.184 80.8073C137.475 80.8073 136.774 80.8973 136.089 81.0856C135.405 81.2739 134.785 81.5522 134.247 81.937C133.709 82.3134 133.268 82.7965 132.933 83.3777C132.6 83.9589 132.436 84.6466 132.436 85.4488C132.436 86.1939 132.558 86.816 132.795 87.3154C133.031 87.8146 133.341 88.2321 133.716 88.576C134.092 88.9198 134.524 89.1899 134.997 89.4028C135.47 89.6075 135.943 89.7876 136.415 89.935C136.904 90.0987 137.369 90.2542 137.817 90.4016C138.257 90.5488 138.648 90.729 138.975 90.9254C139.301 91.1302 139.561 91.3675 139.749 91.6377C139.946 91.916 140.034 92.2598 140.034 92.6773C140.034 93.1112 139.953 93.4713 139.782 93.7579C139.611 94.0444 139.391 94.29 139.113 94.4865C138.836 94.683 138.535 94.8139 138.192 94.8959C137.85 94.9777 137.516 95.0186 137.189 95.0186C136.57 95.0186 135.933 94.8631 135.29 94.5519C134.645 94.241 134.132 93.8152 133.749 93.283L131.752 95.1577C132.371 95.9026 133.171 96.4594 134.149 96.8441C135.127 97.2207 136.121 97.4172 137.149 97.4172C137.915 97.4172 138.648 97.3107 139.35 97.1061C140.043 96.9015 140.654 96.5821 141.177 96.1729C141.698 95.7554 142.105 95.2314 142.423 94.6011C142.733 93.9707 142.888 93.2258 142.888 92.3826C142.888 91.6131 142.741 90.9665 142.456 90.4425C142.163 89.8858 141.795 89.4601 141.34 89.1163Z" fill="white"/>
<path d="M161.656 83.0256C160.898 82.3134 160 81.7649 158.966 81.372C157.931 80.9872 156.797 80.7908 155.566 80.7908C154.351 80.7908 153.227 80.9872 152.199 81.372C151.171 81.7568 150.283 82.3052 149.532 83.0256C148.783 83.7378 148.204 84.6056 147.78 85.6206C147.356 86.6358 147.145 87.7818 147.145 89.0425C147.145 90.2786 147.356 91.4001 147.78 92.4235C148.204 93.4385 148.791 94.3226 149.532 95.0594C150.283 95.7961 151.171 96.3692 152.199 96.7785C153.227 97.1879 154.351 97.3925 155.566 97.3925C156.797 97.3925 157.931 97.1879 158.966 96.7785C160 96.3692 160.898 95.7961 161.656 95.0594C162.414 94.3226 163.002 93.4468 163.425 92.4235C163.85 91.4084 164.061 90.2786 164.061 89.0425C164.061 87.7818 163.85 86.6358 163.425 85.6206C163.002 84.6056 162.414 83.7378 161.656 83.0256ZM160.621 91.3756C160.36 92.0796 159.993 92.6936 159.512 93.2176C159.031 93.7414 158.461 94.1426 157.791 94.4372C157.123 94.7238 156.389 94.8711 155.591 94.8711C154.791 94.8711 154.058 94.7238 153.405 94.4372C152.745 94.1508 152.174 93.7414 151.693 93.2176C151.213 92.6936 150.845 92.0878 150.585 91.3756C150.323 90.6715 150.193 89.8939 150.193 89.0425C150.193 88.2239 150.323 87.4626 150.585 86.7667C150.845 86.0709 151.213 85.4569 151.686 84.9411C152.158 84.4173 152.729 84.0079 153.38 83.7133C154.041 83.4186 154.776 83.2712 155.591 83.2712C156.405 83.2712 157.148 83.4186 157.816 83.7133C158.484 84.0079 159.055 84.4173 159.528 84.9411C160 85.4651 160.368 86.0709 160.628 86.7667C160.89 87.4626 161.02 88.2239 161.02 89.0425C161.013 89.8939 160.881 90.6715 160.621 91.3756Z" fill="white"/>
<path d="M171.78 81.192H168.984V96.9916H178.474V94.4866H171.78V81.192Z" fill="white"/>
<path d="M208.125 89.9841C209.235 89.7303 210.116 89.2474 210.759 88.527C211.403 87.8065 211.73 86.8733 211.73 85.7272C211.73 84.8922 211.567 84.1882 211.24 83.607C210.914 83.0258 210.482 82.5592 209.944 82.1989C209.406 81.8388 208.786 81.5849 208.085 81.4294C207.392 81.2739 206.674 81.192 205.933 81.192H200.471V96.9833H203.266V90.2952H205.313L208.958 96.9833H212.333L208.125 89.9841ZM206.748 87.913C206.348 87.9702 205.948 88.003 205.55 88.003H203.258V83.5661H205.793C206.153 83.5661 206.519 83.5988 206.894 83.6561C207.269 83.7134 207.612 83.828 207.905 83.9917C208.199 84.1554 208.444 84.3765 208.64 84.6467C208.835 84.925 208.925 85.277 208.925 85.7026C208.925 86.1775 208.818 86.5704 208.615 86.8733C208.41 87.1762 208.142 87.4136 207.824 87.5773C207.506 87.741 207.147 87.8475 206.748 87.913Z" fill="white"/>
<path d="M114.932 29.3723H104.896V52.1547H97.534V29.3723H90.4492L96.4661 23.1097H114.94V29.3723H114.932Z" fill="white"/>
<path d="M123.932 23.1097V29.2904H117.508V23.1097H123.932ZM123.932 31.4925V52.1547H117.508V31.4925H123.932Z" fill="white"/>
<path d="M81.0563 29.536H86.9101L93.1796 22.9379H81.0563V6.89285H135.061V13.7938H142.585V0H142.342H135.061H81.0563H73.735H73.5312V29.536H74.0041H81.0563Z" fill="white"/>
<path d="M126.264 22.5533V29.8882H135.362V60.0873H81.0563V45.925H73.5312V66.9392H73.784H81.0563H135.362H142.39H142.888V29.1515V25.3693V22.5533H126.264Z" fill="white"/>
</g>
<defs>
<clipPath id="clip0_1120_3117">
<rect width="212.333" height="98" fill="white"/>
</clipPath>
</defs>
</svg>
