<svg width="301" height="42" viewBox="0 0 301 42" fill="none" xmlns="http://www.w3.org/2000/svg">
<path d="M18.0676 1.59436C18.0676 1.44252 18.112 1.32104 18.2008 1.22994C18.3192 1.10846 18.4523 1.04772 18.6003 1.04772H22.6844C22.8324 1.04772 22.9507 1.10846 23.0395 1.22994C23.1579 1.32104 23.2171 1.44252 23.2171 1.59436V32.3883C23.2171 32.5401 23.1579 32.6768 23.0395 32.7983C22.9507 32.8894 22.8324 32.9349 22.6844 32.9349H18.7335C18.4375 32.9349 18.2304 32.8134 18.112 32.5705L5.32706 11.0694C5.26787 10.9783 5.20868 10.9479 5.14949 10.9783C5.0903 10.9783 5.0607 11.039 5.0607 11.1605L5.14949 32.3883C5.14949 32.5401 5.0903 32.6768 4.97192 32.7983C4.88314 32.8894 4.76476 32.9349 4.61678 32.9349H0.532705C0.384732 32.9349 0.251555 32.8894 0.133176 32.7983C0.0443921 32.6768 0 32.5401 0 32.3883V1.59436C0 1.44252 0.0443921 1.32104 0.133176 1.22994C0.251555 1.10846 0.384732 1.04772 0.532705 1.04772H4.48361C4.77955 1.04772 4.98672 1.1692 5.1051 1.41215L17.8456 22.9132C17.9048 23.0043 17.964 23.0499 18.0232 23.0499C18.0824 23.0195 18.112 22.9436 18.112 22.8221L18.0676 1.59436Z" fill="white"/>
<path d="M49.9037 5.0564C49.9037 5.20824 49.8445 5.3449 49.7261 5.46638C49.6374 5.55748 49.519 5.60304 49.371 5.60304H34.2333C34.0853 5.60304 34.0113 5.67896 34.0113 5.8308V14.3492C34.0113 14.5011 34.0853 14.577 34.2333 14.577H44.3991C44.5471 14.577 44.6654 14.6377 44.7542 14.7592C44.8726 14.8503 44.9318 14.9718 44.9318 15.1236V18.5857C44.9318 18.7375 44.8726 18.8742 44.7542 18.9957C44.6654 19.0868 44.5471 19.1323 44.3991 19.1323H34.2333C34.0853 19.1323 34.0113 19.2082 34.0113 19.3601V28.1518C34.0113 28.3037 34.0853 28.3796 34.2333 28.3796H49.371C49.519 28.3796 49.6374 28.4403 49.7261 28.5618C49.8445 28.6529 49.9037 28.7744 49.9037 28.9262V32.3883C49.9037 32.5401 49.8445 32.6768 49.7261 32.7983C49.6374 32.8894 49.519 32.9349 49.371 32.9349H29.3945C29.2466 32.9349 29.1134 32.8894 28.995 32.7983C28.9062 32.6768 28.8618 32.5401 28.8618 32.3883V1.59436C28.8618 1.44252 28.9062 1.32104 28.995 1.22994C29.1134 1.10846 29.2466 1.04772 29.3945 1.04772H49.371C49.519 1.04772 49.6374 1.10846 49.7261 1.22994C49.8445 1.32104 49.9037 1.44252 49.9037 1.59436V5.0564Z" fill="white"/>
<path d="M74.7099 1.41215C74.8579 1.1692 75.065 1.04772 75.3314 1.04772H79.4155C79.5634 1.04772 79.6818 1.10846 79.7706 1.22994C79.889 1.32104 79.9482 1.44252 79.9482 1.59436V32.3883C79.9482 32.5401 79.889 32.6768 79.7706 32.7983C79.6818 32.8894 79.5634 32.9349 79.4155 32.9349H75.3314C75.1834 32.9349 75.0502 32.8894 74.9319 32.7983C74.8431 32.6768 74.7987 32.5401 74.7987 32.3883V10.6594C74.7987 10.5683 74.7543 10.5076 74.6655 10.4772C74.6063 10.4469 74.5619 10.4772 74.5323 10.5683L68.9833 19.3145C68.8353 19.5575 68.6282 19.679 68.3618 19.679H66.3198C66.0534 19.679 65.8463 19.5575 65.6983 19.3145L60.1049 10.6139C60.0753 10.5228 60.0161 10.4924 59.9273 10.5228C59.8681 10.5531 59.8385 10.6139 59.8385 10.705V32.3883C59.8385 32.5401 59.7793 32.6768 59.661 32.7983C59.5722 32.8894 59.4538 32.9349 59.3058 32.9349H55.2217C55.0738 32.9349 54.9406 32.8894 54.8222 32.7983C54.7334 32.6768 54.689 32.5401 54.689 32.3883V1.59436C54.689 1.44252 54.7334 1.32104 54.8222 1.22994C54.9406 1.10846 55.0738 1.04772 55.2217 1.04772H59.3058C59.5722 1.04772 59.7793 1.1692 59.9273 1.41215L67.1632 12.6638C67.2224 12.7245 67.2816 12.7549 67.3408 12.7549C67.4 12.7549 67.4444 12.7245 67.474 12.6638L74.7099 1.41215Z" fill="white"/>
<path d="M111.602 17.7657C112.193 19.2234 112.489 20.8937 112.489 22.7766C112.489 24.4772 112.238 25.9805 111.735 27.2863C111.054 29.1996 109.929 30.6876 108.361 31.7505C106.792 32.7831 104.898 33.2994 102.679 33.2994C100.489 33.2994 98.5798 32.7375 96.9521 31.6139C95.354 30.4599 94.2146 28.9111 93.5339 26.9675C93.1788 26.026 92.9716 24.7961 92.9124 23.2777C92.9124 22.9132 93.09 22.731 93.4451 22.731H97.5736C97.9287 22.731 98.1063 22.9132 98.1063 23.2777C98.1655 24.2495 98.3135 25.0239 98.5502 25.6009C98.8166 26.5727 99.3049 27.3471 100.015 27.9241C100.755 28.4707 101.643 28.744 102.679 28.744C104.632 28.744 105.978 27.833 106.718 26.0108C107.103 25.1302 107.295 23.9913 107.295 22.5944C107.295 21.0456 107.074 19.7701 106.63 18.7679C105.86 17.0672 104.528 16.2169 102.634 16.2169C102.131 16.2169 101.451 16.5206 100.592 17.128C100.474 17.1887 100.37 17.2191 100.282 17.2191C100.134 17.2191 99.9856 17.128 99.8376 16.9458L97.7955 14.0304C97.7068 13.8785 97.6624 13.7571 97.6624 13.6659C97.6624 13.5141 97.7216 13.3774 97.8399 13.256L105.165 5.87636C105.224 5.81562 105.239 5.75488 105.209 5.69414C105.179 5.63341 105.12 5.60304 105.031 5.60304H93.9334C93.7855 5.60304 93.6523 5.55748 93.5339 5.46638C93.4451 5.3449 93.4007 5.20824 93.4007 5.0564V1.59436C93.4007 1.44252 93.4451 1.32104 93.5339 1.22994C93.6523 1.10846 93.7855 1.04772 93.9334 1.04772H111.646C111.794 1.04772 111.912 1.10846 112.001 1.22994C112.119 1.32104 112.179 1.44252 112.179 1.59436V5.55749C112.179 5.8308 112.09 6.05857 111.912 6.24078L105.564 12.8004C105.446 12.9219 105.505 13.013 105.742 13.0738C108.494 13.4685 110.447 15.0325 111.602 17.7657Z" fill="white"/>
<path d="M126.537 32.9349C126.389 32.9349 126.256 32.8894 126.138 32.7983C126.049 32.6768 126.004 32.5401 126.004 32.3883V1.59436C126.004 1.44252 126.049 1.32104 126.138 1.22994C126.256 1.10846 126.389 1.04772 126.537 1.04772H137.369C139.47 1.04772 141.32 1.42733 142.918 2.18655C144.516 2.94577 145.744 4.03905 146.602 5.46638C147.49 6.86334 147.934 8.50325 147.934 10.3861V23.5965C147.934 25.4794 147.49 27.1345 146.602 28.5618C145.744 29.9588 144.516 31.0369 142.918 31.7961C141.32 32.5553 139.47 32.9349 137.369 32.9349H126.537ZM131.154 28.1518C131.154 28.3037 131.228 28.3796 131.376 28.3796H137.591C139.159 28.3796 140.402 27.8785 141.32 26.8764C142.267 25.8438 142.755 24.4772 142.785 22.7766V11.2516C142.785 9.52061 142.311 8.15401 141.364 7.15184C140.417 6.11931 139.144 5.60304 137.546 5.60304H131.376C131.228 5.60304 131.154 5.67896 131.154 5.8308V28.1518Z" fill="white"/>
<path d="M155.444 6.46855C154.526 6.46855 153.771 6.16486 153.18 5.55749C152.588 4.95011 152.292 4.17571 152.292 3.23427C152.292 2.29284 152.588 1.51844 153.18 0.911065C153.771 0.303688 154.526 0 155.444 0C156.361 0 157.116 0.303688 157.708 0.911065C158.299 1.51844 158.595 2.29284 158.595 3.23427C158.595 4.17571 158.299 4.95011 157.708 5.55749C157.116 6.16486 156.361 6.46855 155.444 6.46855ZM153.313 32.9349C153.165 32.9349 153.032 32.8894 152.913 32.7983C152.824 32.6768 152.78 32.5401 152.78 32.3883V10.1584C152.78 10.0065 152.824 9.88503 152.913 9.79393C153.032 9.67245 153.165 9.61171 153.313 9.61171H157.397C157.545 9.61171 157.663 9.67245 157.752 9.79393C157.87 9.88503 157.93 10.0065 157.93 10.1584V32.3883C157.93 32.5401 157.87 32.6768 157.752 32.7983C157.663 32.8894 157.545 32.9349 157.397 32.9349H153.313Z" fill="white"/>
<path d="M173.95 9.38395C174.897 9.38395 175.726 9.58135 176.436 9.97614C176.673 10.0976 176.761 10.3254 176.702 10.6594L175.948 14.7592C175.918 15.1236 175.711 15.2299 175.326 15.0781C174.882 14.9262 174.364 14.8503 173.772 14.8503C173.388 14.8503 173.092 14.8655 172.885 14.8959C171.642 14.9566 170.606 15.4121 169.777 16.2625C168.948 17.0824 168.534 18.1605 168.534 19.4967V32.3883C168.534 32.5401 168.475 32.6768 168.357 32.7983C168.268 32.8894 168.149 32.9349 168.001 32.9349H163.917C163.769 32.9349 163.636 32.8894 163.518 32.7983C163.429 32.6768 163.385 32.5401 163.385 32.3883V10.2039C163.385 10.0521 163.429 9.93059 163.518 9.83948C163.636 9.718 163.769 9.65727 163.917 9.65727H168.001C168.149 9.65727 168.268 9.718 168.357 9.83948C168.475 9.93059 168.534 10.0521 168.534 10.2039V12.2538C168.534 12.3753 168.549 12.4512 168.578 12.4816C168.638 12.4816 168.697 12.436 168.756 12.3449C169.999 10.3709 171.73 9.38395 173.95 9.38395Z" fill="white"/>
<path d="M198.331 18.6768C198.449 19.436 198.508 20.2863 198.508 21.2278L198.464 22.6399C198.464 23.0043 198.286 23.1866 197.931 23.1866H184.036C183.888 23.1866 183.814 23.2625 183.814 23.4143C183.903 24.4165 184.036 25.0998 184.214 25.4642C184.924 27.6508 186.655 28.7592 189.408 28.7896C191.42 28.7896 193.018 27.9393 194.202 26.2386C194.32 26.0564 194.468 25.9653 194.646 25.9653C194.764 25.9653 194.868 26.0108 194.957 26.102L197.709 28.4252C197.975 28.6377 198.02 28.8807 197.842 29.154C196.925 30.4902 195.697 31.5228 194.158 32.2516C192.648 32.9805 190.961 33.3449 189.097 33.3449C186.789 33.3449 184.821 32.8134 183.193 31.7505C181.595 30.6876 180.426 29.1996 179.686 27.2863C179.005 25.6464 178.665 23.3688 178.665 20.4534C178.665 18.692 178.842 17.2646 179.198 16.1714C179.789 14.0456 180.899 12.3753 182.527 11.1605C184.184 9.9154 186.167 9.29284 188.476 9.29284C194.306 9.29284 197.591 12.4208 198.331 18.6768ZM188.476 13.8482C187.38 13.8482 186.463 14.1367 185.723 14.7137C185.013 15.2603 184.51 16.0347 184.214 17.0369C184.036 17.5531 183.918 18.2213 183.859 19.0412C183.8 19.1931 183.859 19.269 184.036 19.269H193.048C193.196 19.269 193.27 19.1931 193.27 19.0412C193.211 18.282 193.122 17.705 193.004 17.3102C192.737 16.2169 192.204 15.3666 191.405 14.7592C190.636 14.1518 189.659 13.8482 188.476 13.8482Z" fill="white"/>
<path d="M212.226 33.2994C209.947 33.2994 207.979 32.7072 206.322 31.5228C204.665 30.308 203.51 28.6833 202.859 26.6486C202.386 25.282 202.149 23.4599 202.149 21.1822C202.149 18.9957 202.386 17.2039 202.859 15.8069C203.481 13.8026 204.62 12.2234 206.277 11.0694C207.964 9.88503 209.947 9.29284 212.226 9.29284C214.534 9.29284 216.547 9.88503 218.263 11.0694C219.98 12.2538 221.119 13.7419 221.682 15.5336C221.83 16.0195 221.933 16.5054 221.992 16.9913V17.0824C221.992 17.3861 221.83 17.5683 221.504 17.6291L217.509 18.2213H217.42C217.154 18.2213 216.976 18.0694 216.887 17.7657C216.887 17.6139 216.872 17.4924 216.843 17.4013C216.784 17.1584 216.724 16.9458 216.665 16.7636C216.399 15.9132 215.866 15.2148 215.067 14.6681C214.268 14.1215 213.321 13.8482 212.226 13.8482C211.101 13.8482 210.14 14.1518 209.341 14.7592C208.571 15.3362 208.053 16.141 207.787 17.1735C207.491 18.1453 207.343 19.4967 207.343 21.2278C207.343 22.898 207.476 24.2495 207.742 25.282C208.038 26.3449 208.571 27.1952 209.341 27.833C210.11 28.4403 211.072 28.744 212.226 28.744C213.351 28.744 214.312 28.4555 215.112 27.8785C215.94 27.2712 216.473 26.4664 216.71 25.4642C216.739 25.4035 216.754 25.3275 216.754 25.2364C216.784 25.2061 216.798 25.1605 216.798 25.0998C216.887 24.7354 217.094 24.5835 217.42 24.6443L221.415 25.282C221.563 25.3124 221.682 25.3883 221.77 25.5098C221.889 25.6009 221.933 25.7375 221.904 25.9197C221.815 26.4056 221.741 26.7549 221.682 26.9675C221.119 28.9111 219.98 30.4599 218.263 31.6139C216.547 32.7375 214.534 33.2994 212.226 33.2994Z" fill="white"/>
<path d="M237.94 13.3926C237.94 13.5445 237.881 13.6811 237.763 13.8026C237.674 13.8937 237.555 13.9393 237.407 13.9393H232.879C232.731 13.9393 232.657 14.0152 232.657 14.167V25.1453C232.657 26.2994 232.894 27.1345 233.368 27.6508C233.871 28.167 234.655 28.4252 235.721 28.4252H237.052C237.2 28.4252 237.319 28.4859 237.407 28.6074C237.526 28.6985 237.585 28.82 237.585 28.9718V32.3883C237.585 32.7223 237.407 32.9197 237.052 32.9805L234.744 33.026C232.406 33.026 230.66 32.6161 229.506 31.7961C228.351 30.9761 227.76 29.4273 227.73 27.1497V14.167C227.73 14.0152 227.656 13.9393 227.508 13.9393H224.978C224.83 13.9393 224.697 13.8937 224.578 13.8026C224.489 13.6811 224.445 13.5445 224.445 13.3926V10.2039C224.445 10.0521 224.489 9.93059 224.578 9.83948C224.697 9.718 224.83 9.65727 224.978 9.65727H227.508C227.656 9.65727 227.73 9.58134 227.73 9.4295V4.09978C227.73 3.94794 227.774 3.82647 227.863 3.73536C227.982 3.61388 228.115 3.55315 228.263 3.55315H232.125C232.273 3.55315 232.391 3.61388 232.48 3.73536C232.598 3.82647 232.657 3.94794 232.657 4.09978V9.4295C232.657 9.58134 232.731 9.65727 232.879 9.65727H237.407C237.555 9.65727 237.674 9.718 237.763 9.83948C237.881 9.93059 237.94 10.0521 237.94 10.2039V13.3926Z" fill="white"/>
<path d="M251.269 33.2994C248.931 33.2994 246.919 32.692 245.232 31.4772C243.575 30.2625 242.406 28.577 241.725 26.4208C241.222 24.7809 240.97 23.0499 240.97 21.2278C240.97 19.2842 241.207 17.5531 241.681 16.0347C242.361 13.9089 243.545 12.2538 245.232 11.0694C246.919 9.88503 248.946 9.29284 251.314 9.29284C253.563 9.29284 255.501 9.88503 257.129 11.0694C258.786 12.2538 259.955 13.8937 260.636 15.9892C261.169 17.4469 261.435 19.1779 261.435 21.1822C261.435 23.0954 261.184 24.8265 260.68 26.3753C260 28.5315 258.831 30.2321 257.173 31.4772C255.516 32.692 253.548 33.2994 251.269 33.2994ZM251.269 28.744C252.364 28.744 253.296 28.4252 254.066 27.7874C254.865 27.1497 255.442 26.2538 255.797 25.0998C256.093 24.0976 256.241 22.8221 256.241 21.2733C256.241 19.6334 256.093 18.3579 255.797 17.4469C255.472 16.2928 254.909 15.4121 254.11 14.8048C253.311 14.167 252.335 13.8482 251.18 13.8482C250.085 13.8482 249.138 14.167 248.339 14.8048C247.54 15.4121 246.963 16.2928 246.608 17.4469C246.312 18.5098 246.164 19.7852 246.164 21.2733C246.164 22.7614 246.312 24.0369 246.608 25.0998C246.934 26.2538 247.496 27.1497 248.295 27.7874C249.124 28.4252 250.115 28.744 251.269 28.744Z" fill="white"/>
<path d="M276.425 9.38395C277.372 9.38395 278.2 9.58135 278.911 9.97614C279.147 10.0976 279.236 10.3254 279.177 10.6594L278.422 14.7592C278.393 15.1236 278.186 15.2299 277.801 15.0781C277.357 14.9262 276.839 14.8503 276.247 14.8503C275.862 14.8503 275.566 14.8655 275.359 14.8959C274.116 14.9566 273.08 15.4121 272.252 16.2625C271.423 17.0824 271.009 18.1605 271.009 19.4967V32.3883C271.009 32.5401 270.95 32.6768 270.831 32.7983C270.742 32.8894 270.624 32.9349 270.476 32.9349H266.392C266.244 32.9349 266.111 32.8894 265.993 32.7983C265.904 32.6768 265.859 32.5401 265.859 32.3883V10.2039C265.859 10.0521 265.904 9.93059 265.993 9.83948C266.111 9.718 266.244 9.65727 266.392 9.65727H270.476C270.624 9.65727 270.742 9.718 270.831 9.83948C270.95 9.93059 271.009 10.0521 271.009 10.2039V12.2538C271.009 12.3753 271.024 12.4512 271.053 12.4816C271.112 12.4816 271.172 12.436 271.231 12.3449C272.474 10.3709 274.205 9.38395 276.425 9.38395Z" fill="white"/>
<path d="M282.399 42C282.31 42 282.236 41.9393 282.177 41.8178C282.118 41.7267 282.088 41.6052 282.088 41.4534V38.1735C282.088 38.0217 282.133 37.885 282.221 37.7636C282.34 37.6725 282.473 37.6269 282.621 37.6269H282.665C283.879 37.5965 284.826 37.4599 285.506 37.2169C286.187 37.0043 286.749 36.5792 287.193 35.9414C287.637 35.3037 288.037 34.3471 288.392 33.0716C288.421 33.0108 288.421 32.9197 288.392 32.7983L281.067 10.2495C281.038 10.1887 281.023 10.1128 281.023 10.0217C281.023 9.74837 281.171 9.61171 281.467 9.61171H285.817C286.143 9.61171 286.35 9.76356 286.439 10.0672L290.878 26.102C290.907 26.1931 290.952 26.2386 291.011 26.2386C291.07 26.2386 291.115 26.1931 291.144 26.102L295.583 10.0672C295.672 9.76356 295.879 9.61171 296.205 9.61171H300.422C300.6 9.61171 300.718 9.67245 300.777 9.79393C300.866 9.88503 300.881 10.0369 300.822 10.2495L293.009 34.2104C292.269 36.3666 291.544 37.9761 290.833 39.039C290.123 40.102 289.147 40.8612 287.904 41.3167C286.69 41.7722 284.959 42 282.71 42H282.399Z" fill="white"/>
</svg>
