<svg width="387" height="239" viewBox="0 0 387 239" fill="none" xmlns="http://www.w3.org/2000/svg">
<g clip-path="url(#clip0_1466_2105)">
<path d="M193.517 0C171.415 0 164.951 0.0228104 163.694 0.12706C159.158 0.504197 156.336 1.21857 153.261 2.7499C150.891 3.92697 149.022 5.29133 147.178 7.20391C143.819 10.6918 141.783 14.9829 141.046 20.0837C140.688 22.5599 140.583 23.0649 140.562 35.7133C140.554 39.9295 140.562 45.4782 140.562 52.9208C140.562 75.0115 140.587 81.471 140.693 82.7254C141.059 87.1403 141.751 89.9179 143.217 92.9562C146.018 98.7721 151.368 103.138 157.671 104.767C159.854 105.329 162.264 105.639 165.359 105.785C166.67 105.842 180.033 105.883 193.404 105.883C206.776 105.883 220.147 105.867 221.425 105.802C225.009 105.633 227.089 105.354 229.39 104.759C235.733 103.122 240.986 98.821 243.844 92.9236C245.281 89.9586 246.01 87.0751 246.34 82.8907C246.412 81.9785 246.442 67.4329 246.442 52.907C246.442 38.3786 246.409 23.8599 246.338 22.9476C246.004 18.6956 245.275 15.8366 243.791 12.8146C242.574 10.3408 241.222 8.49332 239.259 6.60443C235.757 3.25821 231.474 1.22182 226.369 0.485469C223.896 0.12786 223.404 0.0219704 210.749 0H193.517Z" fill="url(#paint0_radial_1466_2105)"/>
<path d="M193.517 0C171.415 0 164.951 0.0228104 163.694 0.12706C159.158 0.504197 156.336 1.21857 153.261 2.7499C150.891 3.92697 149.022 5.29133 147.178 7.20391C143.819 10.6918 141.783 14.9829 141.046 20.0837C140.688 22.5599 140.583 23.0649 140.562 35.7133C140.554 39.9295 140.562 45.4782 140.562 52.9208C140.562 75.0115 140.587 81.471 140.693 82.7254C141.059 87.1403 141.751 89.9179 143.217 92.9562C146.018 98.7721 151.368 103.138 157.671 104.767C159.854 105.329 162.264 105.639 165.359 105.785C166.67 105.842 180.033 105.883 193.404 105.883C206.776 105.883 220.147 105.867 221.425 105.802C225.009 105.633 227.089 105.354 229.39 104.759C235.733 103.122 240.986 98.821 243.844 92.9236C245.281 89.9586 246.01 87.0751 246.34 82.8907C246.412 81.9785 246.442 67.4329 246.442 52.907C246.442 38.3786 246.409 23.8599 246.338 22.9476C246.004 18.6956 245.275 15.8366 243.791 12.8146C242.574 10.3408 241.222 8.49332 239.259 6.60443C235.757 3.25821 231.474 1.22182 226.369 0.485469C223.896 0.12786 223.404 0.0219704 210.749 0H193.517Z" fill="url(#paint1_radial_1466_2105)"/>
<path d="M193.517 0C171.415 0 164.951 0.0228104 163.694 0.12706C159.158 0.504197 156.336 1.21857 153.261 2.7499C150.891 3.92697 149.022 5.29133 147.178 7.20391C143.819 10.6918 141.783 14.9829 141.046 20.0837C140.688 22.5599 140.583 23.0649 140.562 35.7133C140.554 39.9295 140.562 45.4782 140.562 52.9208C140.562 75.0115 140.587 81.471 140.693 82.7254C141.059 87.1403 141.751 89.9179 143.217 92.9562C146.018 98.7721 151.368 103.138 157.671 104.767C159.854 105.329 162.264 105.639 165.359 105.785C166.67 105.842 180.033 105.883 193.404 105.883C206.776 105.883 220.147 105.867 221.425 105.802C225.009 105.633 227.089 105.354 229.39 104.759C235.733 103.122 240.986 98.821 243.844 92.9236C245.281 89.9586 246.01 87.0751 246.34 82.8907C246.412 81.9785 246.442 67.4329 246.442 52.907C246.442 38.3786 246.409 23.8599 246.338 22.9476C246.004 18.6956 245.275 15.8366 243.791 12.8146C242.574 10.3408 241.222 8.49332 239.259 6.60443C235.757 3.25821 231.474 1.22182 226.369 0.485469C223.896 0.12786 223.404 0.0219704 210.749 0H193.517Z" fill="url(#paint2_radial_1466_2105)"/>
<path d="M193.517 0C171.415 0 164.951 0.0228104 163.694 0.12706C159.158 0.504197 156.336 1.21857 153.261 2.7499C150.891 3.92697 149.022 5.29133 147.178 7.20391C143.819 10.6918 141.783 14.9829 141.046 20.0837C140.688 22.5599 140.583 23.0649 140.562 35.7133C140.554 39.9295 140.562 45.4782 140.562 52.9208C140.562 75.0115 140.587 81.471 140.693 82.7254C141.059 87.1403 141.751 89.9179 143.217 92.9562C146.018 98.7721 151.368 103.138 157.671 104.767C159.854 105.329 162.264 105.639 165.359 105.785C166.67 105.842 180.033 105.883 193.404 105.883C206.776 105.883 220.147 105.867 221.425 105.802C225.009 105.633 227.089 105.354 229.39 104.759C235.733 103.122 240.986 98.821 243.844 92.9236C245.281 89.9586 246.01 87.0751 246.34 82.8907C246.412 81.9785 246.442 67.4329 246.442 52.907C246.442 38.3786 246.409 23.8599 246.338 22.9476C246.004 18.6956 245.275 15.8366 243.791 12.8146C242.574 10.3408 241.222 8.49332 239.259 6.60443C235.757 3.25821 231.474 1.22182 226.369 0.485469C223.896 0.12786 223.404 0.0219704 210.749 0H193.517Z" fill="url(#paint3_radial_1466_2105)"/>
<path d="M193.521 13.5957C182.829 13.5957 181.487 13.6424 177.288 13.8334C173.097 14.0251 170.236 14.6882 167.733 15.661C165.144 16.6658 162.947 18.0099 160.759 20.1973C158.569 22.3839 157.224 24.5786 156.215 27.1652C155.239 29.6673 154.575 32.5267 154.386 36.7131C154.199 40.9092 154.149 42.2508 154.149 52.9346C154.149 63.6185 154.197 64.9551 154.387 69.1513C154.58 73.3392 155.244 76.1979 156.216 78.6992C157.223 81.2866 158.568 83.4813 160.757 85.6679C162.944 87.8561 165.141 89.2035 167.728 90.2083C170.233 91.1811 173.095 91.8441 177.285 92.0359C181.484 92.2268 182.825 92.2736 193.516 92.2736C204.208 92.2736 205.546 92.2269 209.745 92.0359C213.937 91.8441 216.801 91.1811 219.305 90.2082C221.894 89.2035 224.087 87.8561 226.274 85.6679C228.464 83.4813 229.809 81.2866 230.818 78.7C231.786 76.1979 232.45 73.3384 232.647 69.1521C232.836 64.956 232.885 63.6184 232.885 52.9346C232.885 42.2508 232.836 40.9101 232.647 36.7139C232.45 32.5259 231.786 29.6673 230.818 27.166C229.809 24.5786 228.464 22.3838 226.274 20.1973C224.084 18.009 221.895 16.6649 219.303 15.661C216.793 14.6882 213.931 14.0251 209.74 13.8334C205.54 13.6424 204.204 13.5957 193.509 13.5957H193.521ZM189.989 20.6849C191.037 20.6833 192.207 20.6849 193.521 20.6849C204.032 20.6849 205.278 20.7226 209.429 20.9111C213.267 21.0865 215.35 21.7274 216.738 22.2658C218.575 22.9788 219.885 23.8312 221.262 25.2081C222.64 26.5849 223.493 27.8962 224.208 29.732C224.747 31.1171 225.389 33.1988 225.564 37.0343C225.753 41.1813 225.794 42.427 225.794 52.9256C225.794 63.4242 225.753 64.67 225.564 68.8169C225.389 72.6524 224.747 74.7341 224.208 76.1192C223.495 77.955 222.64 79.2622 221.262 80.6383C219.884 82.0151 218.576 82.8675 216.738 83.5805C215.352 84.1214 213.267 84.7606 209.429 84.936C205.279 85.1245 204.032 85.1655 193.521 85.1655C183.009 85.1655 181.763 85.1245 177.613 84.936C173.774 84.759 171.691 84.1181 170.303 83.5797C168.465 82.8667 167.153 82.0143 165.775 80.6374C164.397 79.2606 163.544 77.9526 162.829 76.1159C162.29 74.7309 161.648 72.6492 161.474 68.8136C161.285 64.6666 161.247 63.4209 161.247 52.9158C161.247 42.4107 161.285 41.1715 161.474 37.0245C161.649 33.1889 162.29 31.1073 162.829 29.7206C163.543 27.8848 164.397 26.5735 165.775 25.1966C167.153 23.8197 168.465 22.9674 170.303 22.2527C171.69 21.7118 173.774 21.0726 177.613 20.8963C181.245 20.7324 182.652 20.6833 189.989 20.675L189.989 20.6849ZM214.535 27.2168C211.927 27.2168 209.811 29.3288 209.811 31.9358C209.811 34.542 211.927 36.6565 214.535 36.6565C217.143 36.6565 219.259 34.542 219.259 31.9358C219.259 29.3296 217.143 27.2152 214.535 27.2152L214.535 27.2168ZM193.521 32.7324C182.356 32.7324 173.304 41.7779 173.304 52.9346C173.304 64.0913 182.356 73.1327 193.521 73.1327C204.686 73.1327 213.735 64.0913 213.735 52.9346C213.735 41.7779 204.685 32.7324 193.52 32.7324H193.521ZM193.521 39.8217C200.768 39.8217 206.644 45.6922 206.644 52.9346C206.644 60.1763 200.768 66.0476 193.521 66.0476C186.273 66.0476 180.398 60.1763 180.398 52.9346C180.398 45.6922 186.273 39.8217 193.521 39.8217Z" fill="white"/>
</g>
<g clip-path="url(#clip1_1466_2105)">
<path d="M22.1745 129.109C18.6353 129.109 14.0471 132.862 11.3404 135.36C5.38973 140.642 0 150.355 0 158.151C0 169.228 9.42088 173.41 11.8037 173.41C12.5893 173.41 13.2591 173.004 13.2591 171.938C13.2591 171.103 12.7292 170.407 12.2019 169.693C10.0202 166.358 9.31939 163.174 9.31939 158.881C9.31939 149.93 13.4478 141.725 16.8723 137.97C17.5037 137.291 18.9305 135.823 19.3574 135.823C19.7812 135.823 19.8862 136.168 19.8862 137.235L19.4883 195.824C19.4883 204.983 16.8456 208.621 16.8456 210.778C16.8456 211.725 17.2558 211.971 18.0391 211.971C21.748 211.971 25.444 207.451 26.4911 205.802C29.7382 200.194 30.5347 195.815 30.5347 183.187V133.954C30.5347 132.622 30.1609 132.046 28.8949 131.224C27.0435 130.048 24.9222 129.109 22.1745 129.109ZM128.219 129.273C126.475 129.273 125.729 130.185 125.647 133.006L125.26 144.69L115.041 144.336C114.422 144.32 114.141 144.516 113.87 145.061C113.003 146.688 112.546 147.963 112.546 150.085C112.546 151.814 113.33 151.998 114.028 151.998L124.66 152.304L124.627 174.625C124.627 179.36 121.64 185.501 116.339 190.609C116.339 190.609 116.795 189.067 116.769 187.449C116.769 182.869 113.821 178.718 109.891 175.781L100.3 168.566C102.311 166.24 105.717 161.627 105.717 157.732C105.717 154.712 103.818 153.443 100.278 153.443C95.2819 153.443 89.4877 158.019 89.4877 164.805C89.4877 167.279 90.5883 169.506 92.2614 171.209C89.9514 175.592 86.6831 181.358 84.2561 185.465C82.423 188.61 79.3219 193.427 77.4872 193.427C76.1345 193.427 75.5092 191.299 75.5092 183.122C75.5092 176.328 75.9919 168.942 76.234 161.852C76.234 160.227 75.9675 158.728 73.8578 157.258C71.917 156.014 69.5202 154.278 67.0514 154.278C61.5629 154.278 57.8238 159.328 55.2589 164.267C52.6046 169.385 51.1693 173.698 49.1444 179.956L49.3679 158.419C49.4369 156.883 49.0491 156.287 47.8203 155.765C46.2262 155.089 43.8798 154.309 41.7984 154.309C40.059 154.309 39.8475 155.059 39.8475 156.887L39.6135 182.729L39.5868 192.696C39.5868 201.682 40.7121 203.181 46.0445 203.181C48.9968 203.181 49.9424 202.834 50.0009 200.38C50.0819 198.757 50.8582 194.824 51.9084 190.881C54.98 179.241 58.6195 170.034 64.8948 163.017C65.5491 162.336 66.055 162.579 65.952 163.545C65.952 163.545 64.9599 179.298 64.9599 185.742C64.9599 197.201 66.7233 203.181 72.4252 203.181C78.0215 203.181 83.5177 195.991 86.518 191.137L96.1427 175.039C102.379 180.353 106.731 184.473 106.731 189.485C106.731 192.601 104.766 195.649 101.771 195.649C98.0296 195.649 95.6391 191.703 93.1118 191.703C91.0141 191.703 88.3217 195.753 88.3217 198.052C88.3217 200.223 93.0591 203.294 101.559 203.294C114.107 203.294 120.838 194.683 124.878 185.147C125.651 196.465 130.161 203.076 137.194 203.076C141.808 203.076 147.14 197.248 149.565 190.128C149.565 190.128 149.804 191.976 151.646 195.763C154.182 200.708 158.036 202.978 162.824 202.978C168.779 202.978 173.872 199.368 176.982 193.311C177.453 197.901 181.308 202.956 187.505 202.956C191.396 202.956 194.943 199.975 197.271 195.065C197.271 195.065 200.287 203.174 209.01 203.174C213.909 203.174 219.71 198.636 221.097 195.338L221.25 200.134L208.307 212.069C204.549 215.717 200.552 220.958 200.552 226.761C200.552 234.142 207.52 238.385 213.653 238.385C220.027 238.385 224.256 234.347 226.573 230.963C229.489 226.584 230.721 218.332 230.721 210.265L230.432 198.135C239.155 188.546 245.982 175.294 249.021 165.916L255.642 165.742C256.924 165.656 256.861 166.161 256.683 166.908C255.519 171.826 254.503 177.395 254.503 182.941C254.503 192.104 256.614 196.092 259.647 199.35C262.285 202.081 264.908 203.001 267.669 203.001C273.069 203.001 276.458 198.543 277.533 195.732C280.069 200.677 283.804 202.98 288.59 202.98C294.546 202.98 299.639 199.37 302.749 193.312C303.22 197.902 307.074 202.957 313.272 202.957C317.902 202.957 320.588 200.285 322.7 195.251C322.743 196.871 322.805 198.597 322.853 200.215C322.909 201.053 323.578 201.583 324.177 201.801C326.146 202.546 327.873 202.919 329.425 202.919C333.473 202.919 334.352 202.088 334.352 199.442C334.352 195.078 334.48 188.183 335.72 182.647C337.036 177.135 339.022 170.895 341.764 166.554C342.01 166.105 342.615 166.223 342.641 166.766C343.035 176.055 343.656 191.78 346.097 195.851C347.301 197.793 349.163 199.208 351.949 199.208C353.256 199.208 354.858 198.651 355.268 198.303C355.683 197.979 355.892 197.619 355.867 196.952C355.867 185.077 359.57 173.58 363.279 165.851C363.381 165.622 363.67 165.604 363.66 165.906L363.453 174.462C363.453 188.515 364.466 197.393 371.486 201.661C372.866 202.433 374.422 202.837 376.003 202.832C379.595 202.832 382.852 200.826 384.461 197.6C385.772 195.094 387.001 190.269 387.001 187.536C387.001 186.478 387.013 184.756 385.279 184.756C384.328 184.756 383.756 185.457 383.529 186.516C382.976 188.812 382.523 190.78 381.665 193.05C380.845 195.217 379.622 196.479 378.171 196.479C376.468 196.479 375.603 195.138 375.109 194.309C372.935 190.993 372.76 183.376 372.76 177.017L373.284 160.652C373.284 159.298 372.719 157.678 370.629 156.483C369.227 155.676 365.68 154.156 363.507 154.156C361.492 154.156 360.516 155.297 359.79 156.973C358.426 159.982 353.868 171.785 352.646 181.382C352.602 181.635 352.287 181.688 352.265 181.365C351.629 174.579 351.303 166.403 351.31 160.886C351.31 159.218 350.902 156.834 347.365 155.29C345.646 154.576 344.224 154.14 342.487 154.14C340.332 154.14 339.869 155.194 339.097 156.592C336.656 161.102 334.968 166.983 332.438 174.401L332.477 157.426C332.477 156.632 331.99 155.592 330.596 155.312C327.14 154.518 325.539 154.157 324.177 154.157C323.185 154.157 322.64 154.948 322.64 155.802L322.454 184.746C321.786 188.289 319.077 196.746 315.233 196.746C312.079 196.746 310.607 193.55 310.607 180.19L311.179 158.479C311.179 157.107 310.279 156.531 308.967 155.95C307.091 155.205 305.598 154.909 303.692 154.909C301.298 154.909 300.477 156.055 300.961 158.806C298.33 155.247 295.7 153.28 291.054 153.28C281.726 153.28 274.694 164.5 274.694 180.806C274.603 185.379 275.708 189.923 275.708 189.923C274.864 193.718 272.879 196.811 270.138 196.811C266.68 196.811 264.476 191.922 264.476 183.449C264.476 174.95 267.713 165.365 267.713 162.767C267.713 159.747 265.734 157.836 262.231 157.836C260.476 157.836 253.966 159.313 250.629 159.797C250.629 159.797 251.005 158.208 250.977 156.958C250.977 153.98 249.58 152.113 246.111 152.113C241.872 152.113 238.759 155.14 238.759 160.305C238.759 162.622 240.094 164.765 241.86 165.917C239.567 175.481 235.839 182.593 230.345 190.539L230.808 158.364C230.808 157.318 230.529 156.669 228.481 155.873C227.397 155.405 225.632 154.865 223.407 154.865C220.182 154.865 220.395 157.168 220.568 158.892C219.092 156.276 215.862 153.17 210.878 153.17C197.297 153.17 193.128 173.88 195.172 188.587C195.172 190.381 193.421 196.746 189.466 196.746C186.312 196.746 184.84 193.55 184.84 180.19L185.418 158.479C185.418 157.107 184.511 156.531 183.199 155.95C181.323 155.205 179.836 154.909 177.929 154.909C175.535 154.909 174.714 156.055 175.198 158.806C172.568 155.247 169.932 153.279 165.286 153.279C155.957 153.279 148.833 163.541 148.833 179.846C148.833 186.071 143.474 195.569 139.716 195.569C137.628 195.569 135.405 191.736 135.405 181.945C135.416 175.27 136.326 152.549 136.326 152.549L149.443 152.337C150.069 152.331 150.432 151.647 150.664 151.225C151.266 150.003 151.558 149.189 151.558 147.727C151.558 146.407 151.294 145.925 149.601 145.83L136.527 145.045L137.084 132.866C137.123 132.097 136.659 131.595 135.819 131.22C133.289 130.23 130.185 129.273 128.219 129.273ZM167.919 161.186C171.417 161.186 174.966 164.375 174.966 175.692C174.966 189.941 169.775 196.57 165.783 196.57C162.041 196.57 159.2 191.288 159.2 180.913C159.2 170.426 161.974 161.186 167.919 161.186ZM293.871 161.186C297.369 161.186 300.917 164.375 300.917 175.692C300.917 189.941 295.726 196.57 291.735 196.57C287.993 196.57 285.152 191.288 285.152 180.913C285.152 170.426 287.926 161.186 293.871 161.186ZM213.985 161.251C218.549 161.251 220.569 165.956 220.569 175.076C220.569 188.827 216.481 196.657 211.516 196.657C208.347 196.657 204.703 191.453 204.895 181.218C204.895 174.674 207.029 161.251 213.985 161.251ZM221.713 207.252V212.668C221.713 230.642 216.923 233.709 213.075 233.709C211.617 233.709 208.045 232.608 208.045 228.161C208.045 221.946 214.544 214.875 216.563 212.69L221.713 207.252Z" fill="white"/>
</g>
<defs>
<radialGradient id="paint0_radial_1466_2105" cx="0" cy="0" r="1" gradientUnits="userSpaceOnUse" gradientTransform="translate(243.023 49.6288) rotate(164.25) scale(67.6534 48.741)">
<stop stop-color="#FF005F"/>
<stop offset="1" stop-color="#FC01D8"/>
</radialGradient>
<radialGradient id="paint1_radial_1466_2105" cx="0" cy="0" r="1" gradientUnits="userSpaceOnUse" gradientTransform="translate(168.683 114.038) rotate(-90) scale(84.518 89.6718)">
<stop stop-color="#FFCC00"/>
<stop offset="0.1242" stop-color="#FFCC00"/>
<stop offset="0.5672" stop-color="#FE4A05"/>
<stop offset="0.6942" stop-color="#FF0F3F"/>
<stop offset="1" stop-color="#FE0657" stop-opacity="0"/>
</radialGradient>
<radialGradient id="paint2_radial_1466_2105" cx="0" cy="0" r="1" gradientUnits="userSpaceOnUse" gradientTransform="translate(196.176 104.39) rotate(-59.8703) scale(34.9489 45.4996)">
<stop stop-color="#FFCC00"/>
<stop offset="1" stop-color="#FFCC00" stop-opacity="0"/>
</radialGradient>
<radialGradient id="paint3_radial_1466_2105" cx="0" cy="0" r="1" gradientUnits="userSpaceOnUse" gradientTransform="translate(154.925 4.31153) rotate(164.274) scale(66.9029 22.7938)">
<stop stop-color="#780CFF"/>
<stop offset="1" stop-color="#820BFF" stop-opacity="0"/>
</radialGradient>
<clipPath id="clip0_1466_2105">
<rect width="105.883" height="105.883" fill="white" transform="translate(140.559)"/>
</clipPath>
<clipPath id="clip1_1466_2105">
<rect width="387" height="109.289" fill="white" transform="translate(0 129.103)"/>
</clipPath>
</defs>
</svg>
