<svg width="133" height="38" viewBox="0 0 133 38" fill="none" xmlns="http://www.w3.org/2000/svg">
<path d="M0 21.6373L2.06633 10.2796H6.95399C8.58321 10.2796 9.89453 10.5106 10.9277 11.0111C11.9211 11.5117 12.6364 12.2047 12.994 13.0902C13.3914 13.9757 13.4709 15.0537 13.2722 16.2472C12.9543 18.0567 12.1198 19.4043 10.729 20.2898C9.33821 21.1753 7.58978 21.6373 5.3645 21.6373H0ZM3.81476 19.2118H5.44398C6.7553 19.2118 7.78846 18.9423 8.54347 18.4417C9.29847 17.9412 9.73558 17.1712 9.93427 16.1317C10.133 14.9382 9.974 14.0527 9.41768 13.5137C8.86136 12.9747 7.90767 12.6667 6.59635 12.6667H5.00687L3.81476 19.2118Z" fill="white"/>
<path d="M12.1198 21.6373L20.2262 10.2796H22.968L26.9815 21.6373H23.723L23.0078 19.3273H17.2062L15.6564 21.6373H12.1198ZM21.1004 13.3212L18.6764 17.0557H22.3322L21.1799 13.3212H21.1004Z" fill="white"/>
<path d="M28.2928 21.6373L30.3591 10.2796H32.8626L37.631 16.9787L38.8629 10.2796H42.0021L39.9358 21.6373H37.4323L32.6639 14.9382L31.4718 21.6373H28.2928Z" fill="white"/>
<path d="M42.8366 21.6373L44.9029 10.2796H47.4063L52.1748 16.9787L53.4066 10.2796H56.5459L54.4795 21.6373H51.9761L47.2077 14.9382L46.0155 21.6373H42.8366Z" fill="white"/>
<path d="M58.493 34.4195C59.5659 28.6059 60.6388 22.7923 61.7117 16.9787L57.8175 10.2796H61.5527L63.778 14.3607L67.4736 10.2796H71.3678L65.0496 17.0942C63.7383 24.0628 62.427 31.0314 61.0759 38C60.2414 36.8065 59.3672 35.613 58.493 34.4195Z" fill="white"/>
<path d="M78.7192 21.7913L80.5471 10.4336H85.9513C87.3421 10.4336 88.3753 10.7801 88.9713 11.4732C89.6071 12.1662 89.8058 13.0902 89.6071 14.2452C89.4482 15.2077 89.0111 16.0162 88.2561 16.6322C87.5011 17.2482 86.4281 17.5562 85.0771 17.5562H82.4147L81.7392 21.7913H78.7192ZM82.8121 15.2847H85.0771C85.5937 15.2847 86.0308 15.1692 86.3089 14.9767C86.5871 14.7842 86.746 14.4762 86.8255 14.0912C86.9845 13.2057 86.5076 12.7437 85.4347 12.7437H83.2492L82.8121 15.2847Z" fill="white"/>
<path d="M89.4879 21.7913L91.435 10.4336H100.257L99.8593 12.7052H94.0974L93.7398 14.8612H99.0646L98.6672 17.1327H93.3027L92.9053 19.4813H98.6672L98.2698 21.7528H89.4879V21.7913Z" fill="white"/>
<path d="M113.966 21.7913C113.131 21.7913 112.337 21.6758 111.542 21.4833C110.787 21.2908 110.151 21.0213 109.635 20.7133L110.549 18.4417C111.025 18.6727 111.582 18.9037 112.218 19.0963C112.853 19.2888 113.489 19.3658 114.204 19.3658C114.92 19.3658 115.396 19.2888 115.714 19.0963C116.032 18.9037 116.191 18.6727 116.231 18.4032C116.271 18.1337 116.191 17.9412 116.072 17.7487C115.953 17.5947 115.635 17.4792 115.238 17.4022L113.37 17.0942C112.416 16.9402 111.701 16.5552 111.184 15.9777C110.668 15.4002 110.509 14.6302 110.668 13.6677C110.827 12.5512 111.383 11.7042 112.337 11.0496C113.251 10.4336 114.443 10.1256 115.913 10.1256C116.628 10.1256 117.344 10.2026 117.979 10.3951C118.655 10.5876 119.172 10.8186 119.569 11.1266L118.615 13.3597C118.258 13.1287 117.82 12.9362 117.304 12.7822C116.787 12.6282 116.231 12.5512 115.595 12.5512C114.324 12.5512 113.648 12.8977 113.529 13.5907C113.489 13.8217 113.529 14.0527 113.688 14.2452C113.847 14.4377 114.125 14.5917 114.562 14.6302L116.39 14.9382C117.383 15.0922 118.138 15.4772 118.615 16.0547C119.092 16.6322 119.251 17.4022 119.092 18.3262C118.973 19.0192 118.695 19.6353 118.297 20.1358C117.86 20.6748 117.264 21.0598 116.549 21.3678C115.834 21.6373 114.959 21.7913 113.966 21.7913Z" fill="white"/>
<path d="M122.509 21.7913L123.344 17.1327C120.244 11.4347 117.105 5.69808 114.006 0C115.238 0 116.469 0 117.701 0C120.284 4.85107 122.867 9.70213 125.41 14.5532L129.106 10.4721H133L126.682 17.2867L125.887 21.8298H122.509V21.7913Z" fill="white"/>
<path d="M104.032 21.7913C103.197 21.7913 102.402 21.6758 101.608 21.4833C100.853 21.2908 100.217 21.0213 99.7003 20.7133L100.614 18.4417C101.091 18.6727 101.647 18.9037 102.283 19.0963C102.919 19.2888 103.555 19.3658 104.27 19.3658C104.985 19.3658 105.462 19.2888 105.78 19.0963C106.098 18.9037 106.257 18.6727 106.297 18.4032C106.336 18.1337 106.257 17.9412 106.138 17.7487C106.019 17.5947 105.701 17.4792 105.303 17.4022L103.436 17.0942C102.482 16.9402 101.767 16.5552 101.25 15.9777C100.733 15.4002 100.575 14.6302 100.733 13.6677C100.892 12.5512 101.449 11.7042 102.402 11.0496C103.316 10.4336 104.509 10.1256 105.979 10.1256C106.694 10.1256 107.409 10.2026 108.045 10.3951C108.721 10.5876 109.237 10.8186 109.635 11.1266L108.681 13.3597C108.323 13.1287 107.886 12.9362 107.37 12.7822C106.853 12.6282 106.297 12.5512 105.661 12.5512C104.389 12.5512 103.714 12.8977 103.595 13.5907C103.555 13.8217 103.595 14.0527 103.754 14.2452C103.912 14.4377 104.191 14.5917 104.628 14.6302L106.456 14.9382C107.449 15.0922 108.204 15.4772 108.681 16.0547C109.158 16.6322 109.317 17.4022 109.158 18.3262C109.039 19.0192 108.76 19.6353 108.363 20.1358C107.926 20.6748 107.33 21.0598 106.615 21.3678C105.899 21.6373 105.025 21.7913 104.032 21.7913Z" fill="white"/>
</svg>
