<svg width="336" height="100" viewBox="0 0 336 100" fill="none" xmlns="http://www.w3.org/2000/svg">
<path d="M0.700012 57.1L5.90002 27.6H18.2C22.3 27.6 25.6 28.2 28.2 29.5C30.7 30.8 32.5 32.6 33.4 34.9C34.4 37.2 34.6 40 34.1 43.1C33.3 47.8 31.2 51.3 27.7 53.6C24.2 55.9 19.8 57.1 14.2 57.1H0.700012ZM10.3 50.8H14.4C17.7 50.8 20.3 50.1 22.2 48.8C24.1 47.5 25.2 45.5 25.7 42.8C26.2 39.7 25.8 37.4 24.4 36C23 34.6 20.6 33.8 17.3 33.8H13.3L10.3 50.8Z" fill="white"/>
<path d="M31.2 57.1L51.6 27.6H58.5L68.6 57.1H60.4L58.6 51.1H44L40.1 57.1H31.2ZM53.8 35.5L47.7 45.2H56.9L54 35.5H53.8Z" fill="white"/>
<path d="M71.9 57.1L77.1 27.6H83.4L95.4 45L98.5 27.6H106.4L101.2 57.1H94.9L82.9 39.7L79.9 57.1H71.9Z" fill="white"/>
<path d="M108.5 57.1L113.7 27.6H120L132 45L135.1 27.6H143L137.8 57.1H131.5L119.5 39.7L116.5 57.1H108.5Z" fill="white"/>
<path d="M147.9 90.3C150.6 75.2 153.3 60.1 156 45L146.2 27.6H155.6L161.2 38.2L170.5 27.6H180.3L164.4 45.3C161.1 63.4 157.8 81.5 154.4 99.6C152.3 96.5 150.1 93.4 147.9 90.3Z" fill="white"/>
<path d="M198.8 57.5L203.4 28H217C220.5 28 223.1 28.9 224.6 30.7C226.2 32.5 226.7 34.9 226.2 37.9C225.8 40.4 224.7 42.5 222.8 44.1C220.9 45.7 218.2 46.5 214.8 46.5H208.1L206.4 57.5H198.8ZM209.1 40.6H214.8C216.1 40.6 217.2 40.3 217.9 39.8C218.6 39.3 219 38.5 219.2 37.5C219.6 35.2 218.4 34 215.7 34H210.2L209.1 40.6Z" fill="white"/>
<path d="M225.9 57.5L230.8 28H253L252 33.9H237.5L236.6 39.5H250L249 45.4H235.5L234.5 51.5H249L248 57.4H225.9V57.5Z" fill="white"/>
<path d="M287.5 57.5C285.4 57.5 283.4 57.2 281.4 56.7C279.5 56.2 277.9 55.5 276.6 54.7L278.9 48.8C280.1 49.4 281.5 50 283.1 50.5C284.7 51 286.3 51.2 288.1 51.2C289.9 51.2 291.1 51 291.9 50.5C292.7 50 293.1 49.4 293.2 48.7C293.3 48 293.1 47.5 292.8 47C292.5 46.6 291.7 46.3 290.7 46.1L286 45.3C283.6 44.9 281.8 43.9 280.5 42.4C279.2 40.9 278.8 38.9 279.2 36.4C279.6 33.5 281 31.3 283.4 29.6C285.7 28 288.7 27.2 292.4 27.2C294.2 27.2 296 27.4 297.6 27.9C299.3 28.4 300.6 29 301.6 29.8L299.2 35.6C298.3 35 297.2 34.5 295.9 34.1C294.6 33.7 293.2 33.5 291.6 33.5C288.4 33.5 286.7 34.4 286.4 36.2C286.3 36.8 286.4 37.4 286.8 37.9C287.2 38.4 287.9 38.8 289 38.9L293.6 39.7C296.1 40.1 298 41.1 299.2 42.6C300.4 44.1 300.8 46.1 300.4 48.5C300.1 50.3 299.4 51.9 298.4 53.2C297.3 54.6 295.8 55.6 294 56.4C292.2 57.1 290 57.5 287.5 57.5Z" fill="white"/>
<path d="M309 57.5L311.1 45.4C303.3 30.6 295.4 15.7 287.6 0.899994C290.7 0.899994 293.8 0.899994 296.9 0.899994C303.4 13.5 309.9 26.1 316.3 38.7L325.6 28.1H335.4L319.5 45.8L317.5 57.6H309V57.5Z" fill="white"/>
<path d="M262.5 57.5C260.4 57.5 258.4 57.2 256.4 56.7C254.5 56.2 252.9 55.5 251.6 54.7L253.9 48.8C255.1 49.4 256.5 50 258.1 50.5C259.7 51 261.3 51.2 263.1 51.2C264.9 51.2 266.1 51 266.9 50.5C267.7 50 268.1 49.4 268.2 48.7C268.3 48 268.1 47.5 267.8 47C267.5 46.6 266.7 46.3 265.7 46.1L261 45.3C258.6 44.9 256.8 43.9 255.5 42.4C254.2 40.9 253.8 38.9 254.2 36.4C254.6 33.5 256 31.3 258.4 29.6C260.7 28 263.7 27.2 267.4 27.2C269.2 27.2 271 27.4 272.6 27.9C274.3 28.4 275.6 29 276.6 29.8L274.2 35.6C273.3 35 272.2 34.5 270.9 34.1C269.6 33.7 268.2 33.5 266.6 33.5C263.4 33.5 261.7 34.4 261.4 36.2C261.3 36.8 261.4 37.4 261.8 37.9C262.2 38.4 262.9 38.8 264 38.9L268.6 39.7C271.1 40.1 273 41.1 274.2 42.6C275.4 44.1 275.8 46.1 275.4 48.5C275.1 50.3 274.4 51.9 273.4 53.2C272.3 54.6 270.8 55.6 269 56.4C267.2 57.1 265 57.5 262.5 57.5Z" fill="white"/>
<path d="M6.20001 8.89999H7.20001L8 13.2C8.2 14 8.3 14.9 8.5 15.7C8.7 14.9 8.89998 14 9.09998 13.2L10.2 8.89999H11.1L12.2 13.2C12.4 14 12.6 14.9 12.8 15.7C13 14.8 13.1 14 13.2 13.2L14 8.89999H15L13.4 16.8H12.2L11 12.1C10.9 11.5 10.7 10.9 10.6 10.3C10.5 10.9 10.3 11.5 10.2 12.1L9 16.8H7.79999L6.20001 8.89999Z" fill="white"/>
<path d="M17.7 12.8C17.7 10.3 19.1 8.70001 21.1 8.70001C23.1 8.70001 24.5 10.2 24.5 12.8C24.5 15.3 23.1 16.9 21.1 16.9C19.1 16.9 17.7 15.3 17.7 12.8ZM23.4 12.8C23.4 10.8 22.5 9.60001 21.1 9.60001C19.7 9.60001 18.8 10.8 18.8 12.8C18.8 14.8 19.7 16 21.1 16C22.5 16.1 23.4 14.8 23.4 12.8Z" fill="white"/>
<path d="M28 8.89999H30.5C32.1 8.89999 33.3 9.50001 33.3 11.1C33.3 12.7 32.1 13.4 30.5 13.4H29V16.7H28V8.89999ZM30.3 12.7C31.5 12.7 32.2 12.2 32.2 11.2C32.2 10.2 31.5 9.79999 30.3 9.79999H29V12.7H30.3ZM30.2 13.2L31 12.7L33.4 16.8H32.3L30.2 13.2Z" fill="white"/>
<path d="M36.6 8.89999H37.6V12.8L40.9 8.89999H42L39.5 11.9L42.3 16.8H41.2L38.9 12.7L37.5 14.3V16.8H36.5V8.89999H36.6Z" fill="white"/>
<path d="M49.5 8.89999H50.5V12.2H54.2V8.89999H55.2V16.8H54.2V13.1H50.5V16.8H49.5V8.89999Z" fill="white"/>
<path d="M60.8 8.89999H61.9L64.6 16.8H63.5L62.1 12.4C61.8 11.5 61.6 10.7 61.3 9.70001C61.1 10.6 60.8 11.5 60.5 12.4L59.1 16.8H58.1L60.8 8.89999ZM59.5 13.6H63.1V14.4H59.5V13.6Z" fill="white"/>
<path d="M67.5 8.89999H70C71.6 8.89999 72.8 9.50001 72.8 11.1C72.8 12.7 71.6 13.4 70 13.4H68.5V16.7H67.5V8.89999ZM69.8 12.7C71 12.7 71.7 12.2 71.7 11.2C71.7 10.2 71 9.79999 69.8 9.79999H68.5V12.7H69.8ZM69.8 13.2L70.6 12.7L73 16.8H71.9L69.8 13.2Z" fill="white"/>
<path d="M76.1 8.89999H78.1C80.5 8.89999 81.8 10.3 81.8 12.8C81.8 15.3 80.5 16.8 78.1 16.8H76.1V8.89999ZM78 16C79.8 16 80.8 14.8 80.8 12.9C80.8 11 79.9 9.79999 78 9.79999H77.1V16H78Z" fill="white"/>
<path d="M83 16.2C83 15.7 83.3 15.4 83.7 15.4C84.1 15.4 84.4 15.7 84.4 16.2C84.4 16.6 84.1 16.9 83.7 16.9C83.3 16.9 83 16.6 83 16.2Z" fill="white"/>
<path d="M94.3 8.89999H96.5C98.3 8.89999 99.5 9.50001 99.5 11.2C99.5 12.9 98.3 13.6 96.6 13.6H95.3V16.7H94.3V8.89999ZM96.5 12.9C97.9 12.9 98.5 12.4 98.5 11.3C98.5 10.2 97.8 9.79999 96.4 9.79999H95.3V12.9H96.5Z" fill="white"/>
<path d="M102.9 8.89999H103.9V15.9H107.3V16.7H102.9V8.89999Z" fill="white"/>
<path d="M112.1 8.89999H113.2L115.9 16.8H114.8L113.4 12.4C113.1 11.5 112.9 10.7 112.6 9.70001C112.4 10.6 112.1 11.5 111.8 12.4L110.4 16.8H109.4L112.1 8.89999ZM110.9 13.6H114.5V14.4H110.9V13.6Z" fill="white"/>
<path d="M120.1 13.7L117.7 8.89999H118.8L119.8 11.1C120.1 11.7 120.3 12.2 120.6 12.8C120.9 12.2 121.1 11.7 121.4 11.1L122.4 8.89999H123.4L121 13.7V16.8H120V13.7H120.1Z" fill="white"/>
<path d="M130.6 8.89999H131.6V12.2H135.3V8.89999H136.3V16.8H135.3V13.1H131.6V16.8H130.6V8.89999Z" fill="white"/>
<path d="M141.8 8.89999H142.9L145.6 16.8H144.5L143.1 12.4C142.8 11.5 142.6 10.7 142.3 9.70001C142.1 10.6 141.8 11.5 141.5 12.4L140.1 16.8H139.1L141.8 8.89999ZM140.5 13.6H144.1V14.4H140.5V13.6Z" fill="white"/>
<path d="M148.5 8.89999H151C152.6 8.89999 153.8 9.50001 153.8 11.1C153.8 12.7 152.6 13.4 151 13.4H149.5V16.7H148.5V8.89999ZM150.8 12.7C152 12.7 152.7 12.2 152.7 11.2C152.7 10.2 152 9.79999 150.8 9.79999H149.5V12.7H150.8ZM150.8 13.2L151.6 12.7L154 16.8H152.9L150.8 13.2Z" fill="white"/>
<path d="M157.1 8.89999H159.1C161.5 8.89999 162.8 10.3 162.8 12.8C162.8 15.3 161.5 16.8 159.1 16.8H157.1V8.89999ZM159 16C160.8 16 161.8 14.8 161.8 12.9C161.8 11 160.9 9.79999 159 9.79999H158.1V16H159Z" fill="white"/>
<path d="M164 16.2C164 15.7 164.3 15.4 164.7 15.4C165.1 15.4 165.4 15.7 165.4 16.2C165.4 16.6 165.1 16.9 164.7 16.9C164.3 16.9 164 16.6 164 16.2Z" fill="white"/>
<path d="M174.8 12.9C174.8 10.4 176.3 8.79999 178.4 8.79999C179.5 8.79999 180.2 9.29999 180.7 9.79999L180.2 10.5C179.8 10.1 179.3 9.79999 178.5 9.79999C176.9 9.79999 175.9 11 175.9 13C175.9 15 176.8 16.2 178.5 16.2C179.1 16.2 179.6 16 179.9 15.7V13.7H178.2V12.9H180.8V16.2C180.3 16.7 179.4 17.1 178.4 17.1C176.3 16.9 174.8 15.4 174.8 12.9Z" fill="white"/>
<path d="M184.5 8.89999H185.5V16.8H184.5V8.89999Z" fill="white"/>
<path d="M188.4 8.89999H189.5L190.8 13.2C191.1 14.1 191.3 14.9 191.6 15.8C191.9 14.9 192.1 14.1 192.4 13.2L193.7 8.89999H194.7L192.2 16.8H191L188.4 8.89999Z" fill="white"/>
<path d="M197.4 8.89999H201.9V9.70001H198.4V12.2H201.4V13H198.4V15.9H202.1V16.7H197.4V8.89999Z" fill="white"/>
<path d="M209.8 8.89999H212.1C213.7 8.89999 214.8 9.39999 214.8 10.8C214.8 11.6 214.4 12.3 213.6 12.5C214.5 12.7 215.2 13.3 215.2 14.4C215.2 15.9 214 16.7 212.2 16.7H209.7V8.89999H209.8ZM211.9 12.3C213.2 12.3 213.8 11.8 213.8 11C213.8 10.1 213.2 9.70001 212 9.70001H210.8V12.3H211.9ZM212.1 16C213.4 16 214.2 15.5 214.2 14.5C214.2 13.5 213.4 13.1 212.1 13.1H210.7V16.1H212.1V16Z" fill="white"/>
<path d="M220.2 8.89999H221.3L224 16.8H223L221.6 12.4C221.3 11.5 221.1 10.7 220.8 9.70001C220.6 10.6 220.3 11.5 220 12.4L218.6 16.8H217.6L220.2 8.89999ZM219 13.6H222.6V14.4H219V13.6Z" fill="white"/>
<path d="M226.5 12.9C226.5 10.4 228 8.79999 230 8.79999C231 8.79999 231.7 9.29999 232.2 9.79999L231.7 10.5C231.3 10.1 230.8 9.79999 230.1 9.79999C228.6 9.79999 227.6 11 227.6 13C227.6 15 228.5 16.2 230 16.2C230.8 16.2 231.3 15.9 231.8 15.3L232.3 15.9C231.7 16.6 230.9 17 229.9 17C228 16.9 226.5 15.4 226.5 12.9Z" fill="white"/>
<path d="M235.6 8.89999H236.6V12.8L239.9 8.89999H241L238.5 11.9L241.3 16.8H240.2L237.9 12.7L236.5 14.3V16.8H235.5V8.89999H235.6Z" fill="white"/>
<path d="M243.2 16.2C243.2 15.7 243.5 15.4 243.9 15.4C244.3 15.4 244.6 15.7 244.6 16.2C244.6 16.6 244.3 16.9 243.9 16.9C243.5 16.9 243.2 16.6 243.2 16.2Z" fill="white"/>
</svg>

