<svg width="500" height="146" viewBox="0 0 500 146" fill="none" xmlns="http://www.w3.org/2000/svg">
<g clip-path="url(#clip0_1466_2306)">
<path d="M95.5515 52.5909C104.958 59.3119 116.482 63.2664 128.929 63.2664V39.3279C126.573 39.3284 124.224 39.0829 121.919 38.5949V57.4379C109.474 57.4379 97.9514 53.4834 88.5419 46.7629V95.6144C88.5419 120.052 68.721 139.862 44.272 139.862C35.1495 139.862 26.6705 137.105 19.627 132.378C27.666 140.593 38.877 145.69 51.28 145.69C75.7305 145.69 95.5525 125.88 95.5525 101.441V52.5909H95.5515ZM104.198 28.4399C99.391 23.1904 96.2345 16.4064 95.5515 8.90639V5.82739H88.909C90.5809 15.3599 96.284 23.5039 104.198 28.4399ZM35.091 113.625C32.405 110.105 30.9535 105.799 30.96 101.371C30.96 90.1944 40.026 81.1319 51.211 81.1319C53.2955 81.1314 55.3675 81.4504 57.354 82.0804V57.6069C55.0325 57.2889 52.6895 57.1539 50.3475 57.2034V76.2524C48.3595 75.6224 46.2865 75.3024 44.2015 75.3044C33.0165 75.3044 23.951 84.3659 23.951 95.5444C23.951 103.448 28.4825 110.291 35.091 113.625Z" fill="#FF004F"/>
<path d="M88.5423 46.7624C97.9518 53.4829 109.474 57.4374 121.92 57.4374V38.5944C114.973 37.1154 108.823 33.4869 104.199 28.4399C96.2838 23.5034 90.5813 15.3594 88.9093 5.82739H71.4613V101.44C71.4218 112.587 62.3713 121.612 51.2103 121.612C44.6333 121.612 38.7903 118.479 35.0898 113.625C28.4818 110.291 23.9503 103.448 23.9503 95.5449C23.9503 84.3674 33.0158 75.3049 44.2008 75.3049C46.3438 75.3049 48.4093 75.6384 50.3468 76.2529V57.2039C26.3273 57.6999 7.00977 77.3159 7.00977 101.441C7.00977 113.484 11.8203 124.401 19.6278 132.378C26.6713 137.105 35.1503 139.862 44.2728 139.862C68.7223 139.862 88.5428 120.052 88.5428 95.6144V46.7624H88.5423Z" fill="white"/>
<path d="M121.919 38.5945V33.4995C115.654 33.509 109.513 31.7555 104.198 28.4395C108.903 33.588 115.098 37.138 121.919 38.5945ZM88.9085 5.8275C88.749 4.9165 88.6265 3.9995 88.5415 3.079V0H64.4505V95.614C64.412 106.759 55.362 115.785 44.2 115.785C40.923 115.785 37.829 115.007 35.089 113.626C38.7895 118.479 44.6325 121.612 51.2095 121.612C62.3695 121.612 71.4215 112.588 71.4605 101.441V5.8275H88.9085ZM50.347 57.204V51.78C48.334 51.505 46.3045 51.367 44.2725 51.368C19.821 51.3675 0 71.178 0 95.614C0 110.934 7.79 124.436 19.6275 132.378C11.82 124.401 7.0095 113.483 7.0095 101.44C7.0095 77.316 26.3265 57.7 50.347 57.204Z" fill="#00F2EA"/>
<path d="M401.064 119.83C418.558 119.83 432.741 105.762 432.741 88.4095C432.741 71.0581 418.558 56.9875 401.064 56.9875H396.291C413.786 56.9875 427.969 71.0576 427.969 88.4095C427.969 105.762 413.786 119.83 396.291 119.83H401.064Z" fill="#FF004F"/>
<path d="M395.857 56.9875H391.085C373.591 56.9875 359.406 71.0576 359.406 88.4095C359.406 105.762 373.591 119.83 391.085 119.83H395.857C378.361 119.83 364.178 105.762 364.178 88.4095C364.178 71.0581 378.361 56.9875 395.857 56.9875Z" fill="#00F2EA"/>
<path d="M155.031 42.7859V58.7124H173.687V119.399H192.35V59.1424H207.536L212.743 42.7864L155.031 42.7859ZM307.772 42.7859V58.7124H326.428V119.399H345.091V59.1424H360.276L365.483 42.7864L307.772 42.7859ZM216.217 51.8239C216.217 46.8334 220.29 42.7859 225.322 42.7859C230.359 42.7859 234.436 46.8334 234.436 51.8239C234.436 56.8149 230.361 60.8624 225.322 60.8624C220.29 60.8599 216.217 56.8149 216.217 51.8239ZM216.217 67.3204H234.436V119.399H216.217V67.3204ZM242.248 42.7859V119.399H260.474V99.6019L266.116 94.4324L283.904 119.829H303.429L277.826 82.8139L300.824 60.4299H278.695L260.474 78.5064V42.7859H242.248ZM438.812 42.7859V119.399H457.04V99.6019L462.679 94.4324L480.473 119.829H500L474.397 82.8139L497.394 60.4299H475.266L457.04 78.5064V42.7859H438.812Z" fill="white"/>
<path d="M396.29 119.83C413.784 119.83 427.969 105.762 427.969 88.4095C427.969 71.0581 413.784 56.9875 396.29 56.9875H395.857C378.362 56.9875 364.18 71.0576 364.18 88.4095C364.18 105.762 378.362 119.83 395.857 119.83H396.29ZM380.669 88.4095C380.669 79.969 387.569 73.1321 396.077 73.1321C404.58 73.1321 411.479 79.969 411.479 88.4095C411.479 96.8501 404.58 103.691 396.077 103.691C387.569 103.69 380.669 96.8501 380.669 88.4095Z" fill="white"/>
</g>
<defs>
<clipPath id="clip0_1466_2306">
<rect width="500" height="145.689" fill="white"/>
</clipPath>
</defs>
</svg>
