<svg width="360" height="80" viewBox="0 0 360 80" fill="none" xmlns="http://www.w3.org/2000/svg">
<path d="M111.891 12.493C110.574 7.57292 106.707 3.70649 101.787 2.38946C92.8788 7.15256e-07 57.14 0 57.14 0C57.14 0 21.4017 7.15256e-07 12.4929 2.38946C7.57292 3.70649 3.70649 7.57292 2.38946 12.493C7.15256e-07 21.4017 0 40 0 40C0 40 7.15256e-07 58.5984 2.38946 67.5072C3.70649 72.4272 7.57292 76.2936 12.4929 77.6104C21.4017 80 57.14 80 57.14 80C57.14 80 92.8788 80 101.787 77.6104C106.707 76.2936 110.574 72.4272 111.891 67.5072C114.28 58.5984 114.28 40 114.28 40C114.28 40 114.271 21.4017 111.891 12.493Z" fill="#FF0000"/>
<path d="M45.7012 57.1416L75.3908 40.0016L45.7012 22.8613V57.1416Z" fill="white"/>
<path d="M138.41 52.0144L125.578 5.67383H136.773L141.27 26.6804C142.417 31.8544 143.255 36.2665 143.8 39.9165H144.129C144.506 37.3013 145.353 32.9175 146.66 26.7557L151.317 5.67383H162.511L149.52 52.0144V74.244H138.401V52.0144H138.41Z" fill="white"/>
<path d="M165.879 72.7748C163.621 71.2508 162.012 68.88 161.053 65.6628C160.103 62.4456 159.623 58.1748 159.623 52.8312V45.5592C159.623 40.1688 160.169 35.8322 161.26 32.5678C162.351 29.3035 164.054 26.914 166.368 25.4183C168.682 23.9225 171.721 23.1699 175.484 23.1699C179.19 23.1699 182.153 23.9319 184.392 25.4559C186.622 26.9799 188.259 29.3694 189.293 32.6055C190.328 35.851 190.846 40.1688 190.846 45.5592V52.8312C190.846 58.1748 190.338 62.4644 189.331 65.7004C188.325 68.946 186.688 71.3168 184.43 72.8124C182.172 74.3084 179.105 75.0608 175.239 75.0608C171.25 75.07 168.137 74.2988 165.879 72.7748ZM178.541 64.9292C179.162 63.2924 179.482 60.63 179.482 56.9236V41.3168C179.482 37.7231 179.171 35.089 178.541 33.4333C177.911 31.7682 176.81 30.9404 175.229 30.9404C173.706 30.9404 172.624 31.7682 172.003 33.4333C171.373 35.0984 171.062 37.7231 171.062 41.3168V56.9236C171.062 60.63 171.363 63.3016 171.965 64.9292C172.567 66.566 173.649 67.3844 175.229 67.3844C176.81 67.3844 177.911 66.566 178.541 64.9292Z" fill="white"/>
<path d="M227.262 74.2536H218.438L217.459 68.12H217.215C214.816 72.7484 211.222 75.0624 206.424 75.0624C203.104 75.0624 200.648 73.9712 199.068 71.7984C197.488 69.6156 196.697 66.2104 196.697 61.582V24.15H207.977V60.9232C207.977 63.1624 208.221 64.752 208.71 65.7024C209.2 66.6524 210.018 67.132 211.166 67.132C212.144 67.132 213.085 66.8312 213.988 66.2292C214.891 65.6268 215.55 64.8648 215.992 63.9432V24.1406H227.262V74.2536Z" fill="white"/>
<path d="M257.903 14.7503H246.708V74.2516H235.673V14.7503H224.479V5.68164H257.903V14.7503Z" fill="white"/>
<path d="M285.107 74.2536H276.283L275.305 68.12H275.061C272.662 72.7484 269.068 75.0624 264.27 75.0624C260.949 75.0624 258.494 73.9712 256.914 71.7984C255.333 69.6156 254.543 66.2104 254.543 61.582V24.15H265.823V60.9232C265.823 63.1624 266.067 64.752 266.556 65.7024C267.045 66.6524 267.864 67.132 269.012 67.132C269.99 67.132 270.931 66.8312 271.834 66.2292C272.737 65.6268 273.395 64.8648 273.837 63.9432V24.1406H285.107V74.2536Z" fill="white"/>
<path d="M322.437 32.1548C321.75 28.994 320.649 26.708 319.126 25.2874C317.602 23.867 315.504 23.1614 312.832 23.1614C310.763 23.1614 308.825 23.7446 307.028 24.9206C305.231 26.0965 303.839 27.6299 302.86 29.5396H302.776V3.14258H291.91V74.2432H301.223L302.371 69.502H302.616C303.491 71.1952 304.798 72.5216 306.539 73.5096C308.279 74.488 310.217 74.9772 312.343 74.9772C316.153 74.9772 318.966 73.218 320.763 69.7088C322.559 66.1904 323.462 60.706 323.462 53.2368V45.3064C323.462 39.7089 323.114 35.3157 322.437 32.1548ZM312.098 52.5968C312.098 56.2468 311.948 59.1068 311.647 61.1764C311.346 63.246 310.847 64.7232 310.132 65.5884C309.427 66.4632 308.467 66.896 307.272 66.896C306.341 66.896 305.485 66.6796 304.695 66.2376C303.905 65.8048 303.265 65.1464 302.776 64.2808V35.8425C303.152 34.4784 303.811 33.3684 304.742 32.4935C305.664 31.6186 306.68 31.1858 307.761 31.1858C308.909 31.1858 309.793 31.6374 310.415 32.5311C311.045 33.4342 311.477 34.9394 311.722 37.0654C311.967 39.1915 312.089 42.2112 312.089 46.134V52.5968H312.098Z" fill="white"/>
<path d="M339.463 55.4848C339.463 58.702 339.557 61.1104 339.745 62.7192C339.933 64.3276 340.328 65.4944 340.93 66.2376C341.532 66.9712 342.454 67.338 343.706 67.338C345.39 67.338 346.556 66.6796 347.177 65.372C347.807 64.0644 348.146 61.882 348.202 58.834L357.93 59.4076C357.986 59.8404 358.014 60.4424 358.014 61.2044C358.014 65.8328 356.744 69.2948 354.214 71.5808C351.683 73.8668 348.099 75.0144 343.47 75.0144C337.911 75.0144 334.016 73.274 331.786 69.784C329.548 66.294 328.438 60.9036 328.438 53.6032V44.8544C328.438 37.3381 329.595 31.8442 331.909 28.3823C334.223 24.9204 338.183 23.1895 343.799 23.1895C347.666 23.1895 350.639 23.895 352.708 25.3155C354.778 26.736 356.236 28.9373 357.083 31.9383C357.93 34.9392 358.353 39.0785 358.353 44.3652V52.9448H339.463V55.4848ZM340.893 31.8725C340.319 32.578 339.943 33.7351 339.745 35.3437C339.557 36.9524 339.463 39.3889 339.463 42.6628V46.2564H347.713V42.6628C347.713 39.4453 347.6 37.0089 347.384 35.3437C347.168 33.6787 346.772 32.5121 346.198 31.8254C345.625 31.1481 344.74 30.8 343.546 30.8C342.342 30.8094 341.457 31.1669 340.893 31.8725Z" fill="white"/>
</svg>
