<svg width="102" height="95" viewBox="0 0 102 95" fill="none" xmlns="http://www.w3.org/2000/svg">
<path d="M4.16269 78.447C3.84627 79.1801 4.02509 80.0377 4.65277 80.8011L12.3527 90.1686C12.8099 90.7255 13.7074 90.9152 14.3563 90.5932C15.0048 90.2721 15.1601 89.5591 14.7035 89.0034L7.00366 79.6359C6.76278 79.342 6.76316 79.3411 7.16378 79.268L19.8767 76.998C20.6354 76.8627 21.0579 76.2436 20.823 75.6154C20.5871 74.9869 19.7811 74.5881 19.0227 74.7226L6.30981 76.9926C5.26542 77.1794 4.4837 77.7064 4.16424 78.4404C4.16384 78.4444 4.16307 78.4461 4.16269 78.447Z" fill="white"/>
<path d="M6.23783 78.8394C5.98385 79.4277 6.38899 80.1146 7.14063 80.3733L7.32116 80.4354C9.22637 81.0912 11.1228 81.6767 12.9575 82.1757C13.729 82.3852 14.5068 82.0668 14.6987 81.4561C14.8906 80.8484 14.4202 80.1859 13.6497 79.9768C11.8912 79.4979 10.072 78.9359 8.24054 78.3056L8.06001 78.2434C7.30724 77.9843 6.49181 78.251 6.23783 78.8394ZM17.8131 81.9511C17.7844 82.0177 17.7636 82.087 17.7504 82.1599C17.6418 82.7861 18.1909 83.4113 18.9775 83.5557C21.075 83.9413 23.1445 84.2164 25.1263 84.3715C25.9198 84.4336 26.5675 83.9635 26.5764 83.3264C26.5827 82.6864 25.9443 82.1171 25.1497 82.0546C23.2907 81.908 21.3477 81.651 19.3721 81.288C18.6775 81.16 18.0295 81.4497 17.8131 81.9511ZM29.738 82.848C29.6675 83.0113 29.6432 83.1945 29.6784 83.385C29.7968 84.0261 30.5284 84.5155 31.3128 84.4777C33.3985 84.3771 35.4371 84.1288 37.372 83.7398C38.124 83.5899 38.5271 82.9611 38.2718 82.3351C38.0169 81.7112 37.2006 81.3273 36.4483 81.478C34.6761 81.8343 32.8044 82.0616 30.8878 82.1541C30.3365 82.1805 29.905 82.4611 29.738 82.848ZM41.0018 80.5665C40.8758 80.8585 40.9034 81.2023 41.1124 81.5158C41.504 82.1011 42.3803 82.361 43.0714 82.0953C44.8546 81.4115 46.5793 80.5731 48.1973 79.6041C48.807 79.237 48.8899 78.5133 48.3824 77.985C47.8739 77.4562 46.967 77.3245 46.357 77.6894C44.8704 78.5803 43.2878 79.3494 41.6557 79.9761C41.3364 80.0996 41.111 80.3136 41.0018 80.5665ZM66.3969 35.5938C66.3502 35.7021 66.3242 35.8195 66.3214 35.9439C66.3213 35.9623 66.2873 37.7843 65.9574 40.6542C65.8852 41.2868 66.4673 41.8928 67.2571 42.0087C68.0485 42.1241 68.7444 41.7022 68.8212 41.0742C69.1625 38.1053 69.1951 36.2593 69.197 36.1825C69.2067 35.5437 68.5717 34.9725 67.7771 34.9069C67.1394 34.8525 66.5911 35.1439 66.3969 35.5938ZM50.185 75.1113C50.0046 75.5293 50.1505 76.0341 50.6015 76.385C51.1991 76.8496 52.1076 76.8657 52.6304 76.4219C53.9402 75.3091 55.1967 74.0659 56.3684 72.7262C56.8035 72.2257 56.6272 71.4922 55.9634 71.0904C55.3018 70.6895 54.4099 70.7708 53.9702 71.2728C52.8698 72.5321 51.6894 73.6986 50.4641 74.7395C50.3374 74.8488 50.2436 74.9755 50.185 75.1113ZM65.3295 45.1421C65.3015 45.2069 65.2815 45.2744 65.2687 45.3464C64.9871 46.914 64.6567 48.474 64.2849 49.982C64.1331 50.5994 64.6412 51.2442 65.422 51.4232C66.2013 51.6028 66.9549 51.2557 67.1082 50.6286C67.4886 49.0828 67.8275 47.485 68.1153 45.8788C68.2273 45.2537 67.6816 44.6266 66.8946 44.4801C66.1985 44.3495 65.5467 44.6389 65.3295 45.1421ZM56.8302 67.5807C56.6069 68.0981 56.8948 68.7181 57.5344 69.031C58.2398 69.3757 59.1074 69.2147 59.4719 68.6725C60.3744 67.3278 61.2335 65.8815 62.0246 64.3721C62.3331 63.7964 61.9701 63.0996 61.2342 62.8045C60.4994 62.5098 59.6602 62.7347 59.3601 63.3061C58.6011 64.7532 57.7799 66.1391 56.9159 67.4247C56.8823 67.4753 56.8532 67.5275 56.8302 67.5807ZM63.027 54.4548C63.0151 54.4824 63.004 54.5111 62.9955 54.5398C62.5011 56.0749 61.9545 57.5737 61.3689 58.9939C61.1252 59.5857 61.5398 60.2687 62.2949 60.5194C63.0518 60.7718 63.899 60.5283 64.1046 59.9039C64.7102 58.4376 65.2744 56.8919 65.7834 55.3109C65.9787 54.7043 65.5128 54.0404 64.7428 53.8274C64.0087 53.6247 63.2645 53.9046 63.027 54.4548Z" fill="white"/>
<path d="M47.4024 11.02C46.4877 10.264 46.0304 8.98533 46.0304 7.184C46.0304 5.38267 46.4877 4.09467 47.4024 3.32C48.3077 2.55467 49.5911 2.172 51.2524 2.172C52.7364 2.172 53.8937 2.41933 54.7244 2.914C55.5364 3.39933 56.0217 4.216 56.1804 5.364H54.5564C54.4257 4.59867 54.0897 4.08533 53.5484 3.824C53.0164 3.56267 52.2511 3.432 51.2524 3.432C50.1417 3.432 49.2691 3.67467 48.6344 4.16C47.9811 4.64533 47.6544 5.49 47.6544 6.694V7.618C47.6544 8.794 47.9764 9.634 48.6204 10.138C49.2551 10.6513 50.1371 10.908 51.2664 10.908C52.1997 10.908 52.9417 10.782 53.4924 10.53C54.0337 10.278 54.3931 9.79733 54.5704 9.088H56.1944C56.0171 10.1613 55.5177 10.9453 54.6964 11.44C53.8751 11.9253 52.7271 12.168 51.2524 12.168C49.5911 12.168 48.3077 11.7853 47.4024 11.02ZM57.3234 7.142C57.3234 5.33133 57.7994 4.048 58.7514 3.292C59.694 2.54533 61.0754 2.172 62.8954 2.172C64.706 2.172 66.092 2.54533 67.0534 3.292C67.996 4.048 68.4674 5.33133 68.4674 7.142C68.4674 8.94333 67.996 10.2313 67.0534 11.006C66.092 11.7807 64.706 12.168 62.8954 12.168C61.0754 12.168 59.694 11.7807 58.7514 11.006C57.7994 10.2313 57.3234 8.94333 57.3234 7.142ZM66.8434 7.632V6.652C66.8434 5.532 66.512 4.71067 65.8494 4.188C65.196 3.684 64.2114 3.432 62.8954 3.432C61.5887 3.432 60.604 3.684 59.9414 4.188C59.2787 4.71067 58.9474 5.532 58.9474 6.652V7.632C58.9474 8.77067 59.2787 9.60133 59.9414 10.124C60.604 10.6467 61.5887 10.908 62.8954 10.908C64.202 10.908 65.1867 10.6467 65.8494 10.124C66.512 9.60133 66.8434 8.77067 66.8434 7.632ZM70.2818 2.34H76.0638C77.1745 2.34 77.9865 2.61067 78.4998 3.152C79.0131 3.69333 79.2698 4.44467 79.2698 5.406C79.2698 6.36733 79.0131 7.11867 78.4998 7.66C77.9771 8.21067 77.1651 8.486 76.0638 8.486H71.8778V12H70.2818V2.34ZM77.6598 5.644V5.21C77.6598 4.734 77.5198 4.34667 77.2398 4.048C76.9411 3.74933 76.4838 3.6 75.8678 3.6H71.8778V7.226H75.8678C76.4745 7.226 76.9271 7.07667 77.2258 6.778C77.5151 6.48867 77.6598 6.11067 77.6598 5.644ZM84.0477 7.898L79.4557 2.34H81.3037L84.9297 6.75L88.3457 2.34H89.9837L85.6437 7.912V12H84.0477V7.898ZM54.6949 27L48.9269 18.88V27H47.4429V17.34H49.6269L55.3669 25.418V17.34H56.8649V27H54.6949ZM58.6837 22.142C58.6837 20.3313 59.1597 19.048 60.1117 18.292C61.0544 17.5453 62.4357 17.172 64.2557 17.172C66.0664 17.172 67.4524 17.5453 68.4137 18.292C69.3564 19.048 69.8277 20.3313 69.8277 22.142C69.8277 23.9433 69.3564 25.2313 68.4137 26.006C67.4524 26.7807 66.0664 27.168 64.2557 27.168C62.4357 27.168 61.0544 26.7807 60.1117 26.006C59.1597 25.2313 58.6837 23.9433 58.6837 22.142ZM68.2037 22.632V21.652C68.2037 20.532 67.8724 19.7107 67.2097 19.188C66.5564 18.684 65.5717 18.432 64.2557 18.432C62.9491 18.432 61.9644 18.684 61.3017 19.188C60.6391 19.7107 60.3077 20.532 60.3077 21.652V22.632C60.3077 23.7707 60.6391 24.6013 61.3017 25.124C61.9644 25.6467 62.9491 25.908 64.2557 25.908C65.5624 25.908 66.5471 25.6467 67.2097 25.124C67.8724 24.6013 68.2037 23.7707 68.2037 22.632ZM70.6778 17.34H72.2878L74.3738 25.586L76.7818 17.34H78.7558L81.0938 25.558L83.2218 17.34H84.6358L82.1018 27H80.0158L77.6778 18.782L75.2558 27H73.1278L70.6778 17.34ZM85.8993 17.34H87.6773L87.4253 24.214H86.1373L85.8993 17.34ZM85.7873 26.286C85.7873 25.9967 85.8713 25.7727 86.0393 25.614C86.2073 25.474 86.4546 25.404 86.7813 25.404C87.1079 25.404 87.3553 25.474 87.5233 25.614C87.6913 25.7727 87.7753 25.9967 87.7753 26.286C87.7753 26.5847 87.6913 26.804 87.5233 26.944C87.3646 27.0933 87.1173 27.168 86.7813 27.168C86.4453 27.168 86.1979 27.0933 86.0393 26.944C85.8713 26.804 85.7873 26.5847 85.7873 26.286Z" fill="white"/>
</svg>
