<svg width="34" height="34" viewBox="0 0 34 34" fill="none" xmlns="http://www.w3.org/2000/svg">
<g clip-path="url(#clip0_1120_4435)">
<path d="M9.91667 8.50016V4.25016C9.91667 3.87444 10.0659 3.5141 10.3316 3.24843C10.5973 2.98275 10.9576 2.8335 11.3333 2.8335H28.3333C28.7091 2.8335 29.0694 2.98275 29.3351 3.24843C29.6007 3.5141 29.75 3.87444 29.75 4.25016V24.0835C29.75 24.4592 29.6007 24.8196 29.3351 25.0852C29.0694 25.3509 28.7091 25.5002 28.3333 25.5002H24.0833V29.7502C24.0833 30.5322 23.4458 31.1668 22.6567 31.1668H5.67658C5.48976 31.1679 5.30456 31.1321 5.13162 31.0615C4.95868 30.9908 4.80141 30.8866 4.66885 30.755C4.53629 30.6234 4.43104 30.4668 4.35916 30.2944C4.28728 30.1219 4.25018 29.937 4.25 29.7502L4.25425 9.91683C4.25425 9.13483 4.89175 8.50016 5.68083 8.50016H9.91667ZM7.08758 11.3335L7.08333 28.3335H21.25V11.3335H7.08758ZM12.75 8.50016H24.0833V22.6668H26.9167V5.66683H12.75V8.50016Z" fill="white"/>
</g>
<defs>
<clipPath id="clip0_1120_4435">
<rect width="34" height="34" fill="white"/>
</clipPath>
</defs>
</svg>
