<svg width="21" height="20" viewBox="0 0 21 20" fill="none" xmlns="http://www.w3.org/2000/svg">
<path fill-rule="evenodd" clip-rule="evenodd" d="M21 20H16.3587V12.9692C16.3587 11.1289 15.6327 9.87257 14.0362 9.87257C12.8151 9.87257 12.136 10.7204 11.8199 11.5374C11.7014 11.8307 11.7199 12.2392 11.7199 12.6478V20H7.12183C7.12183 20 7.1811 7.54563 7.12183 6.41353H11.7199V8.54582C11.9915 7.6135 13.4608 6.2829 15.8056 6.2829C18.7145 6.2829 21 8.23719 21 12.4454V20ZM2.47189 4.7141H2.44226C0.960609 4.7141 0 3.67548 0 2.35896C0 1.01684 0.989004 0 2.50029 0C4.01035 0 4.93885 1.01429 4.96848 2.35513C4.96848 3.67165 4.01034 4.7141 2.47189 4.7141ZM0.529678 6.41353H4.62276V20H0.529678V6.41353Z" fill="#BE984F"/>
</svg>
