<svg width="36" height="22" viewBox="0 0 36 22" fill="none" xmlns="http://www.w3.org/2000/svg">
<path d="M14.9077 7.93273C14.9077 6.5641 14.4998 5.22621 13.7357 4.08824C12.9716 2.95026 11.8856 2.06332 10.6149 1.53957C9.34421 1.01582 7.946 0.878779 6.59707 1.14578C5.24813 1.41279 4.00906 2.07185 3.03653 3.03962C2.064 4.00738 1.4017 5.24039 1.13338 6.58272C0.865057 7.92505 1.00277 9.31642 1.5291 10.5809C2.05543 11.8453 2.94673 12.9261 4.09031 13.6864C5.23388 14.4468 6.57835 14.8526 7.95372 14.8526C7.95372 15.4587 7.83375 16.0589 7.60067 16.6189C7.36758 17.1788 7.02594 17.6876 6.59525 18.1162C6.16457 18.5448 5.65327 18.8848 5.09055 19.1167C4.52783 19.3486 3.92471 19.468 3.31563 19.468V21.0002H5.65058C8.10688 20.9968 10.4614 20.0235 12.1971 18.2939C13.9328 16.5644 14.9077 14.22 14.9077 11.7757V7.93273Z" stroke="white" stroke-width="1.61443" stroke-linecap="round" stroke-linejoin="round"/>
<path d="M34.9997 7.93245C35.001 6.5623 34.5939 5.22256 33.8298 4.08272C33.0658 2.94287 31.9792 2.05413 30.7074 1.52893C29.4357 1.00373 28.036 0.865661 26.6854 1.1322C25.3348 1.39873 24.094 2.05789 23.12 3.02629C22.1459 3.99469 21.4824 5.22882 21.2133 6.57255C20.9442 7.91628 21.0817 9.30924 21.6083 10.5752C22.1349 11.8412 23.0271 12.9233 24.1718 13.6846C25.3166 14.446 26.6625 14.8524 28.0394 14.8524C28.0394 16.0753 27.5516 17.2483 26.6832 18.1137C25.8148 18.9791 24.6367 19.4661 23.4077 19.4677V20.9999H25.7236C26.9414 21.0007 28.1475 20.7627 29.2729 20.2995C30.3983 19.8363 31.421 19.157 32.2824 18.3003C33.1439 17.4437 33.8273 16.4265 34.2935 15.3069C34.7598 14.1874 34.9997 12.9873 34.9997 11.7754V7.93245Z" stroke="white" stroke-width="1.61443" stroke-linecap="round" stroke-linejoin="round"/>
</svg>
