<svg width="36" height="28" viewBox="0 0 36 28" fill="none" xmlns="http://www.w3.org/2000/svg">
<path d="M32.834 2.35801C34.894 4.54601 36 7 36 10.978C36 17.978 31.086 24.252 23.94 27.354L22.154 24.598C28.824 20.99 30.128 16.308 30.648 13.356C29.574 13.912 28.168 14.106 26.79 13.978C23.182 13.644 20.338 10.682 20.338 7.00001C20.338 5.14349 21.0755 3.36301 22.3883 2.05026C23.701 0.737501 25.4815 4.73426e-06 27.338 4.57195e-06C29.484 4.38434e-06 31.536 0.980006 32.834 2.35801ZM12.834 2.35801C14.894 4.54601 16 7.00001 16 10.978C16 17.978 11.086 24.252 3.94 27.354L2.154 24.598C8.824 20.99 10.128 16.308 10.648 13.356C9.574 13.912 8.168 14.106 6.79 13.978C3.182 13.644 0.338 10.682 0.337999 7.00001C0.337999 5.14349 1.0755 3.36301 2.38825 2.05026C3.701 0.737503 5.48148 6.48271e-06 7.338 6.32041e-06C9.484 6.1328e-06 11.536 0.980008 12.834 2.35801Z" fill="url(#paint0_linear_1120_3709)"/>
<defs>
<linearGradient id="paint0_linear_1120_3709" x1="32.3249" y1="21.5073" x2="10.292" y2="-0.599456" gradientUnits="userSpaceOnUse">
<stop stop-color="#B6864B"/>
<stop offset="0.484926" stop-color="#D39F55"/>
<stop offset="1" stop-color="#F2CF78"/>
</linearGradient>
</defs>
</svg>
