<svg width="113" height="113" viewBox="0 0 113 113" fill="none" xmlns="http://www.w3.org/2000/svg">
<circle cx="56.5" cy="56.5001" r="39.9515" transform="rotate(-45 56.5 56.5001)" fill="url(#paint0_linear_796_3394)"/>
<g clip-path="url(#clip0_796_3394)">
<path d="M56.4997 76.4761C45.4671 76.4761 36.5239 67.5329 36.5239 56.5003C36.5239 45.4677 45.4671 36.5245 56.4997 36.5245C67.5323 36.5245 76.4755 45.4677 76.4755 56.5003C76.4755 67.5329 67.5323 76.4761 56.4997 76.4761ZM56.4997 72.4809C60.738 72.4809 64.8027 70.7972 67.7997 67.8003C70.7966 64.8034 72.4803 60.7386 72.4803 56.5003C72.4803 52.262 70.7966 48.1972 67.7997 45.2003C64.8027 42.2034 60.738 40.5197 56.4997 40.5197C52.2614 40.5197 48.1966 42.2034 45.1997 45.2003C42.2027 48.1972 40.5191 52.262 40.5191 56.5003C40.5191 60.7386 42.2027 64.8034 45.1997 67.8003C48.1966 70.7972 52.2614 72.4809 56.4997 72.4809ZM49.5082 60.4955H60.4948C60.7597 60.4955 61.0138 60.3902 61.2011 60.2029C61.3884 60.0156 61.4936 59.7616 61.4936 59.4967C61.4936 59.2318 61.3884 58.9777 61.2011 58.7904C61.0138 58.6031 60.7597 58.4979 60.4948 58.4979H52.5045C51.1801 58.4979 49.9098 57.9717 48.9733 57.0352C48.0367 56.0986 47.5106 54.8284 47.5106 53.5039C47.5106 52.1795 48.0367 50.9092 48.9733 49.9727C49.9098 49.0361 51.1801 48.51 52.5045 48.51H54.5021V44.5148H58.4973V48.51H63.4912V52.5051H52.5045C52.2396 52.5051 51.9856 52.6104 51.7983 52.7977C51.611 52.985 51.5058 53.239 51.5058 53.5039C51.5058 53.7688 51.611 54.0229 51.7983 54.2102C51.9856 54.3975 52.2396 54.5027 52.5045 54.5027H60.4948C61.8193 54.5027 63.0896 55.0289 64.0261 55.9654C64.9626 56.902 65.4888 58.1722 65.4888 59.4967C65.4888 60.8211 64.9626 62.0914 64.0261 63.0279C63.0896 63.9645 61.8193 64.4906 60.4948 64.4906H58.4973V68.4858H54.5021V64.4906H49.5082V60.4955Z" fill="#BE984F"/>
</g>
<defs>
<linearGradient id="paint0_linear_796_3394" x1="56.5" y1="16.5485" x2="56.5" y2="96.4516" gradientUnits="userSpaceOnUse">
<stop stop-color="#333330"/>
<stop offset="1" stop-color="#333330" stop-opacity="0"/>
</linearGradient>
<clipPath id="clip0_796_3394">
<rect width="47.9418" height="47.9418" fill="white" transform="translate(32.5288 32.5294)"/>
</clipPath>
</defs>
</svg>
