<svg width="18" height="21" viewBox="0 0 18 21" fill="none" xmlns="http://www.w3.org/2000/svg">
<path d="M16.589 4.686C15.5903 4.47238 14.686 3.94535 14.0078 3.18175C13.3297 2.41816 12.9132 1.45791 12.819 0.441V0H9.37399V13.672C9.37186 14.2773 9.18013 14.8667 8.82575 15.3574C8.47137 15.848 7.97215 16.2154 7.39824 16.4077C6.82433 16.6 6.20458 16.6077 5.62608 16.4297C5.04759 16.2516 4.53942 15.8968 4.17299 15.415C3.80087 14.9252 3.59445 14.3296 3.58366 13.7145C3.57286 13.0995 3.75826 12.497 4.11296 11.9944C4.46766 11.4918 4.97322 11.1153 5.55634 10.9194C6.13946 10.7235 6.76981 10.7185 7.35599 10.905V7.405C6.04884 7.2243 4.71791 7.45669 3.54934 8.06967C2.38078 8.68264 1.43303 9.64555 0.838669 10.8237C0.244308 12.0018 0.0330607 13.3363 0.234474 14.6404C0.435887 15.9445 1.03989 17.1531 1.96199 18.097C2.84135 18.9967 3.96888 19.6141 5.20065 19.8701C6.43242 20.1262 7.71255 20.0094 8.87764 19.5346C10.0427 19.0599 11.0399 18.2487 11.7419 17.2047C12.4439 16.1606 12.8189 14.9311 12.819 13.673V6.687C14.2112 7.68234 15.8805 8.21604 17.592 8.213V4.79C17.2549 4.79042 16.9188 4.75556 16.589 4.686Z" fill="#BE984F"/>
</svg>
